/* XPM */
static char *result[] = {
/* columns rows colors chars-per-pixel */
"64 64 4 1 ",
"  c black",
". c #2121FF",
"X c #FFB7FF",
"o c #DEDEFF",
/* pixels */
"                                                                ",
"                                                                ",
"                                                                ",
"                                                                ",
"                        XXXXXXXXXXXXXXXX                        ",
"                        XXXXXXXXXXXXXXXX                        ",
"                        XXXXXXXXXXXXXXXX                        ",
"                        XXXXXXXXXXXXXXXX                        ",
"                XXXXXXXXXXXXXXXXXXXXXXXXXXXXXXXX                ",
"                XXXXXXXXXXXXXXXXXXXXXXXXXXXXXXXX                ",
"                XXXXXXXXXXXXXXXXXXXXXXXXXXXXXXXX                ",
"                XXXXXXXXXXXXXXXXXXXXXXXXXXXXXXXX                ",
"            XXXXXXXXXXXXXXXXXXXXXXXXXXXXXXXXXXXXXXXX            ",
"            XXXXXXXXXXXXXXXXXXXXXXXXXXXXXXXXXXXXXXXX            ",
"            XXXXXXXXXXXXXXXXXXXXXXXXXXXXXXXXXXXXXXXX            ",
"            XXXXXXXXXXXXXXXXXXXXXXXXXXXXXXXXXXXXXXXX            ",
"        XXXXooooooooXXXXXXXXXXXXXXXXooooooooXXXXXXXXXXXX        ",
"        XXXXooooooooXXXXXXXXXXXXXXXXooooooooXXXXXXXXXXXX        ",
"        XXXXooooooooXXXXXXXXXXXXXXXXooooooooXXXXXXXXXXXX        ",
"        XXXXooooooooXXXXXXXXXXXXXXXXooooooooXXXXXXXXXXXX        ",
"        ooooooooooooooooXXXXXXXXooooooooooooooooXXXXXXXX        ",
"        ooooooooooooooooXXXXXXXXooooooooooooooooXXXXXXXX        ",
"        ooooooooooooooooXXXXXXXXooooooooooooooooXXXXXXXX        ",
"        ooooooooooooooooXXXXXXXXooooooooooooooooXXXXXXXX        ",
"        ........ooooooooXXXXXXXX........ooooooooXXXXXXXX        ",
"        ........ooooooooXXXXXXXX........ooooooooXXXXXXXX        ",
"        ........ooooooooXXXXXXXX........ooooooooXXXXXXXX        ",
"        ........ooooooooXXXXXXXX........ooooooooXXXXXXXX        ",
"    XXXX........ooooooooXXXXXXXX........ooooooooXXXXXXXXXXXX    ",
"    XXXX........ooooooooXXXXXXXX........ooooooooXXXXXXXXXXXX    ",
"    XXXX........ooooooooXXXXXXXX........ooooooooXXXXXXXXXXXX    ",
"    XXXX........ooooooooXXXXXXXX........ooooooooXXXXXXXXXXXX    ",
"    XXXXXXXXooooooooXXXXXXXXXXXXXXXXooooooooXXXXXXXXXXXXXXXX    ",
"    XXXXXXXXooooooooXXXXXXXXXXXXXXXXooooooooXXXXXXXXXXXXXXXX    ",
"    XXXXXXXXooooooooXXXXXXXXXXXXXXXXooooooooXXXXXXXXXXXXXXXX    ",
"    XXXXXXXXooooooooXXXXXXXXXXXXXXXXooooooooXXXXXXXXXXXXXXXX    ",
"    XXXXXXXXXXXXXXXXXXXXXXXXXXXXXXXXXXXXXXXXXXXXXXXXXXXXXXXX    ",
"    XXXXXXXXXXXXXXXXXXXXXXXXXXXXXXXXXXXXXXXXXXXXXXXXXXXXXXXX    ",
"    XXXXXXXXXXXXXXXXXXXXXXXXXXXXXXXXXXXXXXXXXXXXXXXXXXXXXXXX    ",
"    XXXXXXXXXXXXXXXXXXXXXXXXXXXXXXXXXXXXXXXXXXXXXXXXXXXXXXXX    ",
"    XXXXXXXXXXXXXXXXXXXXXXXXXXXXXXXXXXXXXXXXXXXXXXXXXXXXXXXX    ",
"    XXXXXXXXXXXXXXXXXXXXXXXXXXXXXXXXXXXXXXXXXXXXXXXXXXXXXXXX    ",
"    XXXXXXXXXXXXXXXXXXXXXXXXXXXXXXXXXXXXXXXXXXXXXXXXXXXXXXXX    ",
"    XXXXXXXXXXXXXXXXXXXXXXXXXXXXXXXXXXXXXXXXXXXXXXXXXXXXXXXX    ",
"    XXXXXXXXXXXXXXXXXXXXXXXXXXXXXXXXXXXXXXXXXXXXXXXXXXXXXXXX    ",
"    XXXXXXXXXXXXXXXXXXXXXXXXXXXXXXXXXXXXXXXXXXXXXXXXXXXXXXXX    ",
"    XXXXXXXXXXXXXXXXXXXXXXXXXXXXXXXXXXXXXXXXXXXXXXXXXXXXXXXX    ",
"    XXXXXXXXXXXXXXXXXXXXXXXXXXXXXXXXXXXXXXXXXXXXXXXXXXXXXXXX    ",
"    XXXXXXXXXXXXXXXXXXXXXXXXXXXXXXXXXXXXXXXXXXXXXXXXXXXXXXXX    ",
"    XXXXXXXXXXXXXXXXXXXXXXXXXXXXXXXXXXXXXXXXXXXXXXXXXXXXXXXX    ",
"    XXXXXXXXXXXXXXXXXXXXXXXXXXXXXXXXXXXXXXXXXXXXXXXXXXXXXXXX    ",
"    XXXXXXXXXXXXXXXXXXXXXXXXXXXXXXXXXXXXXXXXXXXXXXXXXXXXXXXX    ",
"    XXXXXXXXXXXXXXXX    XXXXXXXXXXXXXXXX    XXXXXXXXXXXXXXXX    ",
"    XXXXXXXXXXXXXXXX    XXXXXXXXXXXXXXXX    XXXXXXXXXXXXXXXX    ",
"    XXXXXXXXXXXXXXXX    XXXXXXXXXXXXXXXX    XXXXXXXXXXXXXXXX    ",
"    XXXXXXXXXXXXXXXX    XXXXXXXXXXXXXXXX    XXXXXXXXXXXXXXXX    ",
"        XXXXXXXX            XXXXXXXX            XXXXXXXX        ",
"        XXXXXXXX            XXXXXXXX            XXXXXXXX        ",
"        XXXXXXXX            XXXXXXXX            XXXXXXXX        ",
"        XXXXXXXX            XXXXXXXX            XXXXXXXX        ",
"                                                                ",
"                                                                ",
"                                                                ",
"                                                                "
};
