/* XPM */
static char *result[] = {
/* columns rows colors chars-per-pixel */
"64 64 4 1 ",
"  c black",
". c #2121FF",
"X c cyan",
"o c #DEDEFF",
/* pixels */
"                                                                ",
"                                                                ",
"                                                                ",
"                                                                ",
"                        XXXXXXXXXXXXXXXX                        ",
"                        XXXXXXXXXXXXXXXX                        ",
"                        XXXXXXXXXXXXXXXX                        ",
"                        XXXXXXXXXXXXXXXX                        ",
"                XXXXXXXXXXXXXXXXXXXXXXXXXXXXXXXX                ",
"                XXXXXXXXXXXXXXXXXXXXXXXXXXXXXXXX                ",
"                XXXXXXXXXXXXXXXXXXXXXXXXXXXXXXXX                ",
"                XXXXXXXXXXXXXXXXXXXXXXXXXXXXXXXX                ",
"            XXXXXXXXXXXXXXXXXXXXXXXXXXXXXXXXXXXXXXXX            ",
"            XXXXXXXXXXXXXXXXXXXXXXXXXXXXXXXXXXXXXXXX            ",
"            XXXXXXXXXXXXXXXXXXXXXXXXXXXXXXXXXXXXXXXX            ",
"            XXXXXXXXXXXXXXXXXXXXXXXXXXXXXXXXXXXXXXXX            ",
"        XXXXXXXXXXXXXXXXXXXXXXXXXXXXXXXXXXXXXXXXXXXXXXXX        ",
"        XXXXXXXXXXXXXXXXXXXXXXXXXXXXXXXXXXXXXXXXXXXXXXXX        ",
"        XXXXXXXXXXXXXXXXXXXXXXXXXXXXXXXXXXXXXXXXXXXXXXXX        ",
"        XXXXXXXXXXXXXXXXXXXXXXXXXXXXXXXXXXXXXXXXXXXXXXXX        ",
"        XXXXXXXXooooooooXXXXXXXXXXXXXXXXooooooooXXXXXXXX        ",
"        XXXXXXXXooooooooXXXXXXXXXXXXXXXXooooooooXXXXXXXX        ",
"        XXXXXXXXooooooooXXXXXXXXXXXXXXXXooooooooXXXXXXXX        ",
"        XXXXXXXXooooooooXXXXXXXXXXXXXXXXooooooooXXXXXXXX        ",
"        XXXXooooooooooooooooXXXXXXXXooooooooooooooooXXXX        ",
"        XXXXooooooooooooooooXXXXXXXXooooooooooooooooXXXX        ",
"        XXXXooooooooooooooooXXXXXXXXooooooooooooooooXXXX        ",
"        XXXXooooooooooooooooXXXXXXXXooooooooooooooooXXXX        ",
"    XXXXXXXXooooooooooooooooXXXXXXXXooooooooooooooooXXXXXXXX    ",
"    XXXXXXXXooooooooooooooooXXXXXXXXooooooooooooooooXXXXXXXX    ",
"    XXXXXXXXooooooooooooooooXXXXXXXXooooooooooooooooXXXXXXXX    ",
"    XXXXXXXXooooooooooooooooXXXXXXXXooooooooooooooooXXXXXXXX    ",
"    XXXXXXXXoooo........ooooXXXXXXXXoooo........ooooXXXXXXXX    ",
"    XXXXXXXXoooo........ooooXXXXXXXXoooo........ooooXXXXXXXX    ",
"    XXXXXXXXoooo........ooooXXXXXXXXoooo........ooooXXXXXXXX    ",
"    XXXXXXXXoooo........ooooXXXXXXXXoooo........ooooXXXXXXXX    ",
"    XXXXXXXXXXXX........XXXXXXXXXXXXXXXX........XXXXXXXXXXXX    ",
"    XXXXXXXXXXXX........XXXXXXXXXXXXXXXX........XXXXXXXXXXXX    ",
"    XXXXXXXXXXXX........XXXXXXXXXXXXXXXX........XXXXXXXXXXXX    ",
"    XXXXXXXXXXXX........XXXXXXXXXXXXXXXX........XXXXXXXXXXXX    ",
"    XXXXXXXXXXXXXXXXXXXXXXXXXXXXXXXXXXXXXXXXXXXXXXXXXXXXXXXX    ",
"    XXXXXXXXXXXXXXXXXXXXXXXXXXXXXXXXXXXXXXXXXXXXXXXXXXXXXXXX    ",
"    XXXXXXXXXXXXXXXXXXXXXXXXXXXXXXXXXXXXXXXXXXXXXXXXXXXXXXXX    ",
"    XXXXXXXXXXXXXXXXXXXXXXXXXXXXXXXXXXXXXXXXXXXXXXXXXXXXXXXX    ",
"    XXXXXXXXXXXXXXXXXXXXXXXXXXXXXXXXXXXXXXXXXXXXXXXXXXXXXXXX    ",
"    XXXXXXXXXXXXXXXXXXXXXXXXXXXXXXXXXXXXXXXXXXXXXXXXXXXXXXXX    ",
"    XXXXXXXXXXXXXXXXXXXXXXXXXXXXXXXXXXXXXXXXXXXXXXXXXXXXXXXX    ",
"    XXXXXXXXXXXXXXXXXXXXXXXXXXXXXXXXXXXXXXXXXXXXXXXXXXXXXXXX    ",
"    XXXXXXXXXXXXXXXXXXXXXXXXXXXXXXXXXXXXXXXXXXXXXXXXXXXXXXXX    ",
"    XXXXXXXXXXXXXXXXXXXXXXXXXXXXXXXXXXXXXXXXXXXXXXXXXXXXXXXX    ",
"    XXXXXXXXXXXXXXXXXXXXXXXXXXXXXXXXXXXXXXXXXXXXXXXXXXXXXXXX    ",
"    XXXXXXXXXXXXXXXXXXXXXXXXXXXXXXXXXXXXXXXXXXXXXXXXXXXXXXXX    ",
"    XXXXXXXX    XXXXXXXXXXXX        XXXXXXXXXXXX    XXXXXXXX    ",
"    XXXXXXXX    XXXXXXXXXXXX        XXXXXXXXXXXX    XXXXXXXX    ",
"    XXXXXXXX    XXXXXXXXXXXX        XXXXXXXXXXXX    XXXXXXXX    ",
"    XXXXXXXX    XXXXXXXXXXXX        XXXXXXXXXXXX    XXXXXXXX    ",
"    XXXX            XXXXXXXX        XXXXXXXX            XXXX    ",
"    XXXX            XXXXXXXX        XXXXXXXX            XXXX    ",
"    XXXX            XXXXXXXX        XXXXXXXX            XXXX    ",
"    XXXX            XXXXXXXX        XXXXXXXX            XXXX    ",
"                                                                ",
"                                                                ",
"                                                                ",
"                                                                "
};
