/* XPM */
static char *result[] = {
/* columns rows colors chars-per-pixel */
"64 64 4 1 ",
"  c black",
". c #2121FF",
"X c cyan",
"o c #DEDEFF",
/* pixels */
"                                                                ",
"                                                                ",
"                                                                ",
"                                                                ",
"                        XXXXXXXXXXXXXXXX                        ",
"                        XXXXXXXXXXXXXXXX                        ",
"                        XXXXXXXXXXXXXXXX                        ",
"                        XXXXXXXXXXXXXXXX                        ",
"                ........XXXXXXXXXXXXXXXX........                ",
"                ........XXXXXXXXXXXXXXXX........                ",
"                ........XXXXXXXXXXXXXXXX........                ",
"                ........XXXXXXXXXXXXXXXX........                ",
"            oooo........ooooXXXXXXXXoooo........oooo            ",
"            oooo........ooooXXXXXXXXoooo........oooo            ",
"            oooo........ooooXXXXXXXXoooo........oooo            ",
"            oooo........ooooXXXXXXXXoooo........oooo            ",
"        XXXXooooooooooooooooXXXXXXXXooooooooooooooooXXXX        ",
"        XXXXooooooooooooooooXXXXXXXXooooooooooooooooXXXX        ",
"        XXXXooooooooooooooooXXXXXXXXooooooooooooooooXXXX        ",
"        XXXXooooooooooooooooXXXXXXXXooooooooooooooooXXXX        ",
"        XXXXooooooooooooooooXXXXXXXXooooooooooooooooXXXX        ",
"        XXXXooooooooooooooooXXXXXXXXooooooooooooooooXXXX        ",
"        XXXXooooooooooooooooXXXXXXXXooooooooooooooooXXXX        ",
"        XXXXooooooooooooooooXXXXXXXXooooooooooooooooXXXX        ",
"        XXXXXXXXooooooooXXXXXXXXXXXXXXXXooooooooXXXXXXXX        ",
"        XXXXXXXXooooooooXXXXXXXXXXXXXXXXooooooooXXXXXXXX        ",
"        XXXXXXXXooooooooXXXXXXXXXXXXXXXXooooooooXXXXXXXX        ",
"        XXXXXXXXooooooooXXXXXXXXXXXXXXXXooooooooXXXXXXXX        ",
"    XXXXXXXXXXXXXXXXXXXXXXXXXXXXXXXXXXXXXXXXXXXXXXXXXXXXXXXX    ",
"    XXXXXXXXXXXXXXXXXXXXXXXXXXXXXXXXXXXXXXXXXXXXXXXXXXXXXXXX    ",
"    XXXXXXXXXXXXXXXXXXXXXXXXXXXXXXXXXXXXXXXXXXXXXXXXXXXXXXXX    ",
"    XXXXXXXXXXXXXXXXXXXXXXXXXXXXXXXXXXXXXXXXXXXXXXXXXXXXXXXX    ",
"    XXXXXXXXXXXXXXXXXXXXXXXXXXXXXXXXXXXXXXXXXXXXXXXXXXXXXXXX    ",
"    XXXXXXXXXXXXXXXXXXXXXXXXXXXXXXXXXXXXXXXXXXXXXXXXXXXXXXXX    ",
"    XXXXXXXXXXXXXXXXXXXXXXXXXXXXXXXXXXXXXXXXXXXXXXXXXXXXXXXX    ",
"    XXXXXXXXXXXXXXXXXXXXXXXXXXXXXXXXXXXXXXXXXXXXXXXXXXXXXXXX    ",
"    XXXXXXXXXXXXXXXXXXXXXXXXXXXXXXXXXXXXXXXXXXXXXXXXXXXXXXXX    ",
"    XXXXXXXXXXXXXXXXXXXXXXXXXXXXXXXXXXXXXXXXXXXXXXXXXXXXXXXX    ",
"    XXXXXXXXXXXXXXXXXXXXXXXXXXXXXXXXXXXXXXXXXXXXXXXXXXXXXXXX    ",
"    XXXXXXXXXXXXXXXXXXXXXXXXXXXXXXXXXXXXXXXXXXXXXXXXXXXXXXXX    ",
"    XXXXXXXXXXXXXXXXXXXXXXXXXXXXXXXXXXXXXXXXXXXXXXXXXXXXXXXX    ",
"    XXXXXXXXXXXXXXXXXXXXXXXXXXXXXXXXXXXXXXXXXXXXXXXXXXXXXXXX    ",
"    XXXXXXXXXXXXXXXXXXXXXXXXXXXXXXXXXXXXXXXXXXXXXXXXXXXXXXXX    ",
"    XXXXXXXXXXXXXXXXXXXXXXXXXXXXXXXXXXXXXXXXXXXXXXXXXXXXXXXX    ",
"    XXXXXXXXXXXXXXXXXXXXXXXXXXXXXXXXXXXXXXXXXXXXXXXXXXXXXXXX    ",
"    XXXXXXXXXXXXXXXXXXXXXXXXXXXXXXXXXXXXXXXXXXXXXXXXXXXXXXXX    ",
"    XXXXXXXXXXXXXXXXXXXXXXXXXXXXXXXXXXXXXXXXXXXXXXXXXXXXXXXX    ",
"    XXXXXXXXXXXXXXXXXXXXXXXXXXXXXXXXXXXXXXXXXXXXXXXXXXXXXXXX    ",
"    XXXXXXXXXXXXXXXXXXXXXXXXXXXXXXXXXXXXXXXXXXXXXXXXXXXXXXXX    ",
"    XXXXXXXXXXXXXXXXXXXXXXXXXXXXXXXXXXXXXXXXXXXXXXXXXXXXXXXX    ",
"    XXXXXXXXXXXXXXXXXXXXXXXXXXXXXXXXXXXXXXXXXXXXXXXXXXXXXXXX    ",
"    XXXXXXXXXXXXXXXXXXXXXXXXXXXXXXXXXXXXXXXXXXXXXXXXXXXXXXXX    ",
"    XXXXXXXXXXXXXXXX    XXXXXXXXXXXXXXXX    XXXXXXXXXXXXXXXX    ",
"    XXXXXXXXXXXXXXXX    XXXXXXXXXXXXXXXX    XXXXXXXXXXXXXXXX    ",
"    XXXXXXXXXXXXXXXX    XXXXXXXXXXXXXXXX    XXXXXXXXXXXXXXXX    ",
"    XXXXXXXXXXXXXXXX    XXXXXXXXXXXXXXXX    XXXXXXXXXXXXXXXX    ",
"        XXXXXXXX            XXXXXXXX            XXXXXXXX        ",
"        XXXXXXXX            XXXXXXXX            XXXXXXXX        ",
"        XXXXXXXX            XXXXXXXX            XXXXXXXX        ",
"        XXXXXXXX            XXXXXXXX            XXXXXXXX        ",
"                                                                ",
"                                                                ",
"                                                                ",
"                                                                "
};
