/* XPM */
static char *result[] = {
/* columns rows colors chars-per-pixel */
"64 64 4 1 ",
"  c black",
". c #2121FF",
"X c cyan",
"o c #DEDEFF",
/* pixels */
"                                                                ",
"                                                                ",
"                                                                ",
"                                                                ",
"                        XXXXXXXXXXXXXXXX                        ",
"                        XXXXXXXXXXXXXXXX                        ",
"                        XXXXXXXXXXXXXXXX                        ",
"                        XXXXXXXXXXXXXXXX                        ",
"                XXXXXXXXXXXXXXXXXXXXXXXXXXXXXXXX                ",
"                XXXXXXXXXXXXXXXXXXXXXXXXXXXXXXXX                ",
"                XXXXXXXXXXXXXXXXXXXXXXXXXXXXXXXX                ",
"                XXXXXXXXXXXXXXXXXXXXXXXXXXXXXXXX                ",
"            XXXXXXXXXXXXXXXXXXXXXXXXXXXXXXXXXXXXXXXX            ",
"            XXXXXXXXXXXXXXXXXXXXXXXXXXXXXXXXXXXXXXXX            ",
"            XXXXXXXXXXXXXXXXXXXXXXXXXXXXXXXXXXXXXXXX            ",
"            XXXXXXXXXXXXXXXXXXXXXXXXXXXXXXXXXXXXXXXX            ",
"        XXXXXXXXXXXXooooooooXXXXXXXXXXXXXXXXooooooooXXXX        ",
"        XXXXXXXXXXXXooooooooXXXXXXXXXXXXXXXXooooooooXXXX        ",
"        XXXXXXXXXXXXooooooooXXXXXXXXXXXXXXXXooooooooXXXX        ",
"        XXXXXXXXXXXXooooooooXXXXXXXXXXXXXXXXooooooooXXXX        ",
"        XXXXXXXXooooooooooooooooXXXXXXXXoooooooooooooooo        ",
"        XXXXXXXXooooooooooooooooXXXXXXXXoooooooooooooooo        ",
"        XXXXXXXXooooooooooooooooXXXXXXXXoooooooooooooooo        ",
"        XXXXXXXXooooooooooooooooXXXXXXXXoooooooooooooooo        ",
"        XXXXXXXXoooooooo........XXXXXXXXoooooooo........        ",
"        XXXXXXXXoooooooo........XXXXXXXXoooooooo........        ",
"        XXXXXXXXoooooooo........XXXXXXXXoooooooo........        ",
"        XXXXXXXXoooooooo........XXXXXXXXoooooooo........        ",
"    XXXXXXXXXXXXoooooooo........XXXXXXXXoooooooo........XXXX    ",
"    XXXXXXXXXXXXoooooooo........XXXXXXXXoooooooo........XXXX    ",
"    XXXXXXXXXXXXoooooooo........XXXXXXXXoooooooo........XXXX    ",
"    XXXXXXXXXXXXoooooooo........XXXXXXXXoooooooo........XXXX    ",
"    XXXXXXXXXXXXXXXXooooooooXXXXXXXXXXXXXXXXooooooooXXXXXXXX    ",
"    XXXXXXXXXXXXXXXXooooooooXXXXXXXXXXXXXXXXooooooooXXXXXXXX    ",
"    XXXXXXXXXXXXXXXXooooooooXXXXXXXXXXXXXXXXooooooooXXXXXXXX    ",
"    XXXXXXXXXXXXXXXXooooooooXXXXXXXXXXXXXXXXooooooooXXXXXXXX    ",
"    XXXXXXXXXXXXXXXXXXXXXXXXXXXXXXXXXXXXXXXXXXXXXXXXXXXXXXXX    ",
"    XXXXXXXXXXXXXXXXXXXXXXXXXXXXXXXXXXXXXXXXXXXXXXXXXXXXXXXX    ",
"    XXXXXXXXXXXXXXXXXXXXXXXXXXXXXXXXXXXXXXXXXXXXXXXXXXXXXXXX    ",
"    XXXXXXXXXXXXXXXXXXXXXXXXXXXXXXXXXXXXXXXXXXXXXXXXXXXXXXXX    ",
"    XXXXXXXXXXXXXXXXXXXXXXXXXXXXXXXXXXXXXXXXXXXXXXXXXXXXXXXX    ",
"    XXXXXXXXXXXXXXXXXXXXXXXXXXXXXXXXXXXXXXXXXXXXXXXXXXXXXXXX    ",
"    XXXXXXXXXXXXXXXXXXXXXXXXXXXXXXXXXXXXXXXXXXXXXXXXXXXXXXXX    ",
"    XXXXXXXXXXXXXXXXXXXXXXXXXXXXXXXXXXXXXXXXXXXXXXXXXXXXXXXX    ",
"    XXXXXXXXXXXXXXXXXXXXXXXXXXXXXXXXXXXXXXXXXXXXXXXXXXXXXXXX    ",
"    XXXXXXXXXXXXXXXXXXXXXXXXXXXXXXXXXXXXXXXXXXXXXXXXXXXXXXXX    ",
"    XXXXXXXXXXXXXXXXXXXXXXXXXXXXXXXXXXXXXXXXXXXXXXXXXXXXXXXX    ",
"    XXXXXXXXXXXXXXXXXXXXXXXXXXXXXXXXXXXXXXXXXXXXXXXXXXXXXXXX    ",
"    XXXXXXXXXXXXXXXXXXXXXXXXXXXXXXXXXXXXXXXXXXXXXXXXXXXXXXXX    ",
"    XXXXXXXXXXXXXXXXXXXXXXXXXXXXXXXXXXXXXXXXXXXXXXXXXXXXXXXX    ",
"    XXXXXXXXXXXXXXXXXXXXXXXXXXXXXXXXXXXXXXXXXXXXXXXXXXXXXXXX    ",
"    XXXXXXXXXXXXXXXXXXXXXXXXXXXXXXXXXXXXXXXXXXXXXXXXXXXXXXXX    ",
"    XXXXXXXX    XXXXXXXXXXXX        XXXXXXXXXXXX    XXXXXXXX    ",
"    XXXXXXXX    XXXXXXXXXXXX        XXXXXXXXXXXX    XXXXXXXX    ",
"    XXXXXXXX    XXXXXXXXXXXX        XXXXXXXXXXXX    XXXXXXXX    ",
"    XXXXXXXX    XXXXXXXXXXXX        XXXXXXXXXXXX    XXXXXXXX    ",
"    XXXX            XXXXXXXX        XXXXXXXX            XXXX    ",
"    XXXX            XXXXXXXX        XXXXXXXX            XXXX    ",
"    XXXX            XXXXXXXX        XXXXXXXX            XXXX    ",
"    XXXX            XXXXXXXX        XXXXXXXX            XXXX    ",
"                                                                ",
"                                                                ",
"                                                                ",
"                                                                "
};
