/* XPM */
static char *result[] = {
/* columns rows colors chars-per-pixel */
"64 64 4 1 ",
"  c black",
". c red",
"X c #2121FF",
"o c #DEDEFF",
/* pixels */
"                                                                ",
"                                                                ",
"                                                                ",
"                                                                ",
"                        ................                        ",
"                        ................                        ",
"                        ................                        ",
"                        ................                        ",
"                XXXXXXXX................XXXXXXXX                ",
"                XXXXXXXX................XXXXXXXX                ",
"                XXXXXXXX................XXXXXXXX                ",
"                XXXXXXXX................XXXXXXXX                ",
"            ooooXXXXXXXXoooo........ooooXXXXXXXXoooo            ",
"            ooooXXXXXXXXoooo........ooooXXXXXXXXoooo            ",
"            ooooXXXXXXXXoooo........ooooXXXXXXXXoooo            ",
"            ooooXXXXXXXXoooo........ooooXXXXXXXXoooo            ",
"        ....oooooooooooooooo........oooooooooooooooo....        ",
"        ....oooooooooooooooo........oooooooooooooooo....        ",
"        ....oooooooooooooooo........oooooooooooooooo....        ",
"        ....oooooooooooooooo........oooooooooooooooo....        ",
"        ....oooooooooooooooo........oooooooooooooooo....        ",
"        ....oooooooooooooooo........oooooooooooooooo....        ",
"        ....oooooooooooooooo........oooooooooooooooo....        ",
"        ....oooooooooooooooo........oooooooooooooooo....        ",
"        ........oooooooo................oooooooo........        ",
"        ........oooooooo................oooooooo........        ",
"        ........oooooooo................oooooooo........        ",
"        ........oooooooo................oooooooo........        ",
"    ........................................................    ",
"    ........................................................    ",
"    ........................................................    ",
"    ........................................................    ",
"    ........................................................    ",
"    ........................................................    ",
"    ........................................................    ",
"    ........................................................    ",
"    ........................................................    ",
"    ........................................................    ",
"    ........................................................    ",
"    ........................................................    ",
"    ........................................................    ",
"    ........................................................    ",
"    ........................................................    ",
"    ........................................................    ",
"    ........................................................    ",
"    ........................................................    ",
"    ........................................................    ",
"    ........................................................    ",
"    ........................................................    ",
"    ........................................................    ",
"    ........................................................    ",
"    ........................................................    ",
"    ........    ............        ............    ........    ",
"    ........    ............        ............    ........    ",
"    ........    ............        ............    ........    ",
"    ........    ............        ............    ........    ",
"    ....            ........        ........            ....    ",
"    ....            ........        ........            ....    ",
"    ....            ........        ........            ....    ",
"    ....            ........        ........            ....    ",
"                                                                ",
"                                                                ",
"                                                                ",
"                                                                "
};
