/* XPM */
static char *result[] = {
/* columns rows colors chars-per-pixel */
"64 64 4 1 ",
"  c black",
". c red",
"X c #2121FF",
"o c #DEDEFF",
/* pixels */
"                                                                ",
"                                                                ",
"                                                                ",
"                                                                ",
"                        ................                        ",
"                        ................                        ",
"                        ................                        ",
"                        ................                        ",
"                ................................                ",
"                ................................                ",
"                ................................                ",
"                ................................                ",
"            ........................................            ",
"            ........................................            ",
"            ........................................            ",
"            ........................................            ",
"        ....oooooooo................oooooooo............        ",
"        ....oooooooo................oooooooo............        ",
"        ....oooooooo................oooooooo............        ",
"        ....oooooooo................oooooooo............        ",
"        oooooooooooooooo........oooooooooooooooo........        ",
"        oooooooooooooooo........oooooooooooooooo........        ",
"        oooooooooooooooo........oooooooooooooooo........        ",
"        oooooooooooooooo........oooooooooooooooo........        ",
"        XXXXXXXXoooooooo........XXXXXXXXoooooooo........        ",
"        XXXXXXXXoooooooo........XXXXXXXXoooooooo........        ",
"        XXXXXXXXoooooooo........XXXXXXXXoooooooo........        ",
"        XXXXXXXXoooooooo........XXXXXXXXoooooooo........        ",
"    ....XXXXXXXXoooooooo........XXXXXXXXoooooooo............    ",
"    ....XXXXXXXXoooooooo........XXXXXXXXoooooooo............    ",
"    ....XXXXXXXXoooooooo........XXXXXXXXoooooooo............    ",
"    ....XXXXXXXXoooooooo........XXXXXXXXoooooooo............    ",
"    ........oooooooo................oooooooo................    ",
"    ........oooooooo................oooooooo................    ",
"    ........oooooooo................oooooooo................    ",
"    ........oooooooo................oooooooo................    ",
"    ........................................................    ",
"    ........................................................    ",
"    ........................................................    ",
"    ........................................................    ",
"    ........................................................    ",
"    ........................................................    ",
"    ........................................................    ",
"    ........................................................    ",
"    ........................................................    ",
"    ........................................................    ",
"    ........................................................    ",
"    ........................................................    ",
"    ........................................................    ",
"    ........................................................    ",
"    ........................................................    ",
"    ........................................................    ",
"    ........    ............        ............    ........    ",
"    ........    ............        ............    ........    ",
"    ........    ............        ............    ........    ",
"    ........    ............        ............    ........    ",
"    ....            ........        ........            ....    ",
"    ....            ........        ........            ....    ",
"    ....            ........        ........            ....    ",
"    ....            ........        ........            ....    ",
"                                                                ",
"                                                                ",
"                                                                ",
"                                                                "
};
