/* XPM */
static char *rcp2028119138216[] = {
/* columns rows colors chars-per-pixel */
"64 64 2 1 ",
"  c black",
". c yellow",
/* pixels */
"                                                                ",
"                                                                ",
"                                                                ",
"                                                                ",
"                                                                ",
"                                                                ",
"                                                                ",
"                                                                ",
"                ....                    ....                    ",
"                ....                    ....                    ",
"                ....                    ....                    ",
"                ....                    ....                    ",
"        ....        ....            ....                        ",
"        ....        ....            ....                        ",
"        ....        ....            ....                        ",
"        ....        ....            ....                        ",
"            ....                                ....            ",
"            ....                                ....            ",
"            ....                                ....            ",
"            ....                                ....            ",
"                                            ....                ",
"                                            ....                ",
"                                            ....                ",
"                                            ....                ",
"                                                                ",
"                                                                ",
"                                                                ",
"                                                                ",
"    ........                                                    ",
"    ........                                                    ",
"    ........                                                    ",
"    ........                                                    ",
"                                                ........        ",
"                                                ........        ",
"                                                ........        ",
"                                                ........        ",
"                                                                ",
"                                                                ",
"                                                                ",
"                                                                ",
"            ....                                                ",
"            ....                                                ",
"            ....                                                ",
"            ....                                                ",
"        ....                                ....                ",
"        ....                                ....                ",
"        ....                                ....                ",
"        ....                                ....                ",
"                    ....            ....        ....            ",
"                    ....            ....        ....            ",
"                    ....            ....        ....            ",
"                    ....            ....        ....            ",
"                ....                    ....                    ",
"                ....                    ....                    ",
"                ....                    ....                    ",
"                ....                    ....                    ",
"                                                                ",
"                                                                ",
"                                                                ",
"                                                                ",
"                                                                ",
"                                                                ",
"                                                                ",
"                                                                "
};
