/* XPM */
static char *rcp20275727379956[] = {
/* columns rows colors chars-per-pixel */
"64 64 2 1 ",
"  c black",
". c yellow",
/* pixels */
"                                                                ",
"                                                                ",
"                                                                ",
"                                                                ",
"                                                                ",
"                                                                ",
"                                                                ",
"                                                                ",
"                        ....................                    ",
"                        ....................                    ",
"                        ....................                    ",
"                        ....................                    ",
"                ....................................            ",
"                ....................................            ",
"                ....................................            ",
"                ....................................            ",
"            ............................................        ",
"            ............................................        ",
"            ............................................        ",
"            ............................................        ",
"            ............................................        ",
"            ............................................        ",
"            ............................................        ",
"            ............................................        ",
"        ....................................................    ",
"        ....................................................    ",
"        ....................................................    ",
"        ....................................................    ",
"        ........................    ........................    ",
"        ........................    ........................    ",
"        ........................    ........................    ",
"        ........................    ........................    ",
"        ........................    ........................    ",
"        ........................    ........................    ",
"        ........................    ........................    ",
"        ........................    ........................    ",
"        ....................            ....................    ",
"        ....................            ....................    ",
"        ....................            ....................    ",
"        ....................            ....................    ",
"        ....................            ....................    ",
"        ....................            ....................    ",
"        ....................            ....................    ",
"        ....................            ....................    ",
"            ................            ................        ",
"            ................            ................        ",
"            ................            ................        ",
"            ................            ................        ",
"            ............                    ............        ",
"            ............                    ............        ",
"            ............                    ............        ",
"            ............                    ............        ",
"                ........                    ........            ",
"                ........                    ........            ",
"                ........                    ........            ",
"                ........                    ........            ",
"                                                                ",
"                                                                ",
"                                                                ",
"                                                                ",
"                                                                ",
"                                                                ",
"                                                                ",
"                                                                "
};
