/* XPM */
static char *rcp20282707092245[] = {
/* columns rows colors chars-per-pixel */
"64 64 2 1 ",
"  c black",
". c yellow",
/* pixels */
"                                                                ",
"                                                                ",
"                                                                ",
"                                                                ",
"                                                                ",
"                                                                ",
"                                                                ",
"                                                                ",
"                    ....................                        ",
"                    ....................                        ",
"                    ....................                        ",
"                    ....................                        ",
"            ....................................                ",
"            ....................................                ",
"            ....................................                ",
"            ....................................                ",
"        ............................................            ",
"        ............................................            ",
"        ............................................            ",
"        ............................................            ",
"        ............................................            ",
"        ............................................            ",
"        ............................................            ",
"        ............................................            ",
"                ........................................        ",
"                ........................................        ",
"                ........................................        ",
"                ........................................        ",
"                            ............................        ",
"                            ............................        ",
"                            ............................        ",
"                            ............................        ",
"                                        ................        ",
"                                        ................        ",
"                                        ................        ",
"                                        ................        ",
"                            ............................        ",
"                            ............................        ",
"                            ............................        ",
"                            ............................        ",
"                ........................................        ",
"                ........................................        ",
"                ........................................        ",
"                ........................................        ",
"        ............................................            ",
"        ............................................            ",
"        ............................................            ",
"        ............................................            ",
"        ............................................            ",
"        ............................................            ",
"        ............................................            ",
"        ............................................            ",
"            ....................................                ",
"            ....................................                ",
"            ....................................                ",
"            ....................................                ",
"                    ....................                        ",
"                    ....................                        ",
"                    ....................                        ",
"                    ....................                        ",
"                                                                ",
"                                                                ",
"                                                                ",
"                                                                "
};
