/* XPM */
static char *rcp20280669569637[] = {
/* columns rows colors chars-per-pixel */
"64 64 2 1 ",
"  c black",
". c yellow",
/* pixels */
"                                                                ",
"                                                                ",
"                                                                ",
"                                                                ",
"                                                                ",
"                                                                ",
"                                                                ",
"                                                                ",
"                                                                ",
"                                                                ",
"                                                                ",
"                                                                ",
"                    ....            ....                        ",
"                    ....            ....                        ",
"                    ....            ....                        ",
"                    ....            ....                        ",
"            ....        ....    ....                            ",
"            ....        ....    ....                            ",
"            ....        ....    ....                            ",
"            ....        ....    ....                            ",
"                ....                        ....                ",
"                ....                        ....                ",
"                ....                        ....                ",
"                ....                        ....                ",
"                                        ....                    ",
"                                        ....                    ",
"                                        ....                    ",
"                                        ....                    ",
"        ........                                                ",
"        ........                                                ",
"        ........                                                ",
"        ........                                                ",
"                                            ........            ",
"                                            ........            ",
"                                            ........            ",
"                                            ........            ",
"                ....                                            ",
"                ....                                            ",
"                ....                                            ",
"                ....                                            ",
"            ....                        ....                    ",
"            ....                        ....                    ",
"            ....                        ....                    ",
"            ....                        ....                    ",
"                        ....    ....        ....                ",
"                        ....    ....        ....                ",
"                        ....    ....        ....                ",
"                        ....    ....        ....                ",
"                    ....            ....                        ",
"                    ....            ....                        ",
"                    ....            ....                        ",
"                    ....            ....                        ",
"                                                                ",
"                                                                ",
"                                                                ",
"                                                                ",
"                                                                ",
"                                                                ",
"                                                                ",
"                                                                ",
"                                                                ",
"                                                                ",
"                                                                ",
"                                                                "
};
