/* XPM */
static char *rcp2029248982369[] = {
/* columns rows colors chars-per-pixel */
"64 64 2 1 ",
"  c black",
". c yellow",
/* pixels */
"                                                                ",
"                                                                ",
"                                                                ",
"                                                                ",
"                                                                ",
"                                                                ",
"                                                                ",
"                                                                ",
"                ........                    ........            ",
"                ........                    ........            ",
"                ........                    ........            ",
"                ........                    ........            ",
"            ............                    ............        ",
"            ............                    ............        ",
"            ............                    ............        ",
"            ............                    ............        ",
"            ................            ................        ",
"            ................            ................        ",
"            ................            ................        ",
"            ................            ................        ",
"        ....................            ....................    ",
"        ....................            ....................    ",
"        ....................            ....................    ",
"        ....................            ....................    ",
"        ....................            ....................    ",
"        ....................            ....................    ",
"        ....................            ....................    ",
"        ....................            ....................    ",
"        ........................    ........................    ",
"        ........................    ........................    ",
"        ........................    ........................    ",
"        ........................    ........................    ",
"        ........................    ........................    ",
"        ........................    ........................    ",
"        ........................    ........................    ",
"        ........................    ........................    ",
"        ....................................................    ",
"        ....................................................    ",
"        ....................................................    ",
"        ....................................................    ",
"            ............................................        ",
"            ............................................        ",
"            ............................................        ",
"            ............................................        ",
"            ............................................        ",
"            ............................................        ",
"            ............................................        ",
"            ............................................        ",
"                ....................................            ",
"                ....................................            ",
"                ....................................            ",
"                ....................................            ",
"                        ....................                    ",
"                        ....................                    ",
"                        ....................                    ",
"                        ....................                    ",
"                                                                ",
"                                                                ",
"                                                                ",
"                                                                ",
"                                                                ",
"                                                                ",
"                                                                ",
"                                                                "
};
