/* XPM */
static char *result[] = {
/* columns rows colors chars-per-pixel */
"64 64 4 1 ",
"  c black",
". c red",
"X c #DE9751",
"o c #DEDEFF",
/* pixels */
"                                                                ",
"                                                                ",
"                                                                ",
"                                                                ",
"                                                                ",
"                                                                ",
"                                                                ",
"                                                                ",
"                                                XXXXXXXX        ",
"                                                XXXXXXXX        ",
"                                                XXXXXXXX        ",
"                                                XXXXXXXX        ",
"                                        XXXXXXXXXXXXXXXX        ",
"                                        XXXXXXXXXXXXXXXX        ",
"                                        XXXXXXXXXXXXXXXX        ",
"                                        XXXXXXXXXXXXXXXX        ",
"                                XXXXXXXX    XXXX                ",
"                                XXXXXXXX    XXXX                ",
"                                XXXXXXXX    XXXX                ",
"                                XXXXXXXX    XXXX                ",
"                            XXXX            XXXX                ",
"                            XXXX            XXXX                ",
"                            XXXX            XXXX                ",
"                            XXXX            XXXX                ",
"            ............XXXX            XXXX                    ",
"            ............XXXX            XXXX                    ",
"            ............XXXX            XXXX                    ",
"            ............XXXX            XXXX                    ",
"        ............XXXX........    XXXX                        ",
"        ............XXXX........    XXXX                        ",
"        ............XXXX........    XXXX                        ",
"        ............XXXX........    XXXX                        ",
"        ....................    ....XXXX........                ",
"        ....................    ....XXXX........                ",
"        ....................    ....XXXX........                ",
"        ....................    ....XXXX........                ",
"        ....oooo........    ........XXXX............            ",
"        ....oooo........    ........XXXX............            ",
"        ....oooo........    ........XXXX............            ",
"        ....oooo........    ........XXXX............            ",
"        ........oooo....    ........................            ",
"        ........oooo....    ........................            ",
"        ........oooo....    ........................            ",
"        ........oooo....    ........................            ",
"            ............    ....oooo................            ",
"            ............    ....oooo................            ",
"            ............    ....oooo................            ",
"            ............    ....oooo................            ",
"                            ........oooo............            ",
"                            ........oooo............            ",
"                            ........oooo............            ",
"                            ........oooo............            ",
"                                ................                ",
"                                ................                ",
"                                ................                ",
"                                ................                ",
"                                                                ",
"                                                                ",
"                                                                ",
"                                                                ",
"                                                                ",
"                                                                ",
"                                                                ",
"                                                                "
};
