/* XPM */
static char *xpm_[] = {
/* columns rows colors chars-per-pixel */
"64 64 233 2 ",
"   c #353A19",
".  c #333D08",
"X  c #2D2928",
"o  c #322D2C",
"O  c #322B27",
"+  c #35332E",
"@  c #3C3B2C",
"#  c #383827",
"$  c #2E2D32",
"%  c #332E35",
"&  c #353233",
"*  c #393535",
"=  c #3C3B33",
"-  c #35343B",
";  c #3B363B",
":  c #3D3B3B",
">  c #413F2B",
",  c #423D3D",
"<  c #413C35",
"1  c #3D4719",
"2  c #3E4324",
"3  c #3D4329",
"4  c #3D4335",
"5  c #43530D",
"6  c #4A5D0D",
"7  c #475C09",
"8  c #434C1C",
"9  c #434C18",
"0  c #455413",
"q  c #475A14",
"w  c #4C5C14",
"e  c #46531C",
"r  c #4A551C",
"t  c #4C5C1B",
"y  c #485717",
"u  c #515C1C",
"i  c #515D14",
"p  c #414C0E",
"a  c #4B6305",
"s  c #4D630B",
"d  c #52650C",
"f  c #53680A",
"g  c #4D6212",
"h  c #4E611B",
"j  c #536413",
"k  c #53621C",
"l  c #566819",
"z  c #444C23",
"x  c #41442C",
"c  c #454B2B",
"v  c #474B27",
"b  c #465223",
"n  c #4A5423",
"m  c #4C5A23",
"M  c #4B542B",
"N  c #4E5B2B",
"B  c #46522D",
"V  c #525D24",
"C  c #525C2C",
"Z  c #595E28",
"A  c #424332",
"S  c #464B34",
"D  c #43433C",
"F  c #4A463E",
"G  c #454C3B",
"H  c #4B4B3C",
"J  c #4A4934",
"K  c #534D3C",
"L  c #4B5234",
"P  c #4C533B",
"I  c #4E5933",
"U  c #515434",
"Y  c #545D33",
"T  c #51543E",
"R  c #575B39",
"E  c #645E37",
"W  c #536224",
"Q  c #53612B",
"!  c #5B632B",
"~  c #5C6527",
"^  c #596338",
"/  c #4E6129",
"(  c #64652C",
")  c #696534",
"_  c #676438",
"`  c #7A6E36",
"'  c #756B3D",
"]  c #72693C",
"[  c #7E723C",
"{  c #707427",
"}  c #3C3C44",
"|  c #3C3A45",
" . c #423D43",
".. c #423F4B",
"X. c #3E4147",
"o. c #444344",
"O. c #494545",
"+. c #454A44",
"@. c #4C4B45",
"#. c #45444C",
"$. c #49464B",
"%. c #46484B",
"&. c #4C4B4C",
"*. c #514E4D",
"=. c #534E44",
"-. c #4D5244",
";. c #4D524B",
":. c #525443",
">. c #545C43",
",. c #52534D",
"<. c #555B4C",
"1. c #5B5D4C",
"2. c #595847",
"3. c #454652",
"4. c #4A4752",
"5. c #464952",
"6. c #4B4C53",
"7. c #4D4D5A",
"8. c #444A58",
"9. c #514E53",
"0. c #514E5B",
"q. c #4D5055",
"w. c #4E525B",
"e. c #545354",
"r. c #585655",
"t. c #565B53",
"y. c #5B5B55",
"u. c #53545D",
"i. c #5A565B",
"p. c #55595D",
"a. c #5C5B5C",
"s. c #615E4D",
"d. c #655D44",
"f. c #605E5D",
"g. c #615D53",
"h. c #5B6248",
"j. c #5D615C",
"k. c #5D6353",
"l. c #6B6343",
"z. c #676349",
"x. c #746B41",
"c. c #786F40",
"v. c #7A7141",
"b. c #7A7448",
"n. c #676456",
"m. c #514F60",
"M. c #545562",
"N. c #5A5762",
"B. c #565964",
"V. c #5B5C65",
"C. c #565969",
"Z. c #5B5D69",
"A. c #5C5D6A",
"S. c #57576A",
"D. c #545767",
"F. c #615E62",
"G. c #605F6C",
"H. c #605E70",
"J. c #5D6166",
"K. c #5E616B",
"L. c #5E6170",
"P. c #636264",
"I. c #61626C",
"U. c #636371",
"Y. c #646873",
"T. c #8B7C32",
"R. c #80733C",
"E. c #86793A",
"W. c #8F7C2D",
"Q. c #877B42",
"!. c #A88E1E",
"~. c #AD921B",
"^. c #B99A17",
"/. c #9A852A",
"(. c #8C843A",
"). c #9B8C3B",
"_. c #94873A",
"`. c #9C923D",
"'. c #9D9935",
"]. c #A58D24",
"[. c #A28F35",
"{. c #A59237",
"}. c #A8993A",
"|. c #B39D36",
" X c #B39E3A",
".X c #B19727",
"XX c #ABA23C",
"oX c #BBA436",
"OX c #B3AA3B",
"+X c #B3A439",
"@X c #BDA934",
"#X c #AC931E",
"$X c #CCA80C",
"%X c #D4AE09",
"&X c #DAB308",
"*X c #C8A718",
"=X c #DAB616",
"-X c #E5BF16",
";X c #E6BE0B",
":X c #D7B829",
">X c #C3AB36",
",X c #C3B83A",
"<X c #D6BA33",
"1X c #C8AB29",
"2X c #E0BE26",
"3X c #E8C216",
"4X c #DEC233",
"5X c #D9CC39",
"6X c #D7CE3B",
"7X c #E5C42C",
"8X c #E9C727",
"9X c #F2CE27",
"0X c #E4C531",
"qX c #E8C731",
"wX c #E5C933",
"eX c #E8C831",
"rX c #E0CD38",
"tX c #ECD334",
"yX c #E2D439",
"uX c #E4DC3A",
"iX c #EADA37",
"pX c #FADD35",
"aX c #F4D936",
"sX c #F3D02E",
"dX c #EDE539",
"fX c #EEE83B",
"gX c #F7E536",
"hX c #FBEA37",
"jX c #FCEE38",
"kX c #F4E839",
"lX c #FFF439",
"zX c #FFF93A",
"xX c #989142",
/* pixels */
"r.,.&.M f ^ V.K.K.K.A.A.A.C.B.M.7.%.< F 6.8.7.w.w.u.Z.A.N.A.A.A.N.u.;.; o + o.&.9.*.9.e.e.e.i.f.F.f.F.P.F.f.F.a.e.< o ; *.r.e.e.",
"r.,.H u a t N.K.J.K.A.A.Z.Z.Z.B.q.6. .| #.5.7.#.3.3.5.6.6.4.#...o.z 1 4 * @ o.;.$.9.9.e.e.e.r.a.f.f.F.f.P.a.a.a.*.* + * F ,.,.r.",
"e.*.J u a m a.J.V.V.K.K.Z.Z.Z.V.B.8.} & ; : | ; < * o o o & & & = 0 5 h q 8 F $.&.&.9.9.9.9.e.r.a.F.a.a.f.f.a.f.,.; @ 1 A 9.e.e.",
"*.-.M y e @.A.I.Z.K.K.K.K.Z.C.B.p.,.9 1 * * * <  .; | #.$.$.9.u.w.h.h.W s 0 F 4.$.&.&.&.6.9.9.e.e.a.F.f.f.F.a.a.r.D 8 5 v *.9.=.",
"O.:.k s b $.N.I.K.K.K.Z.Z.Z.Z.C.A.e.M z A &.7.u.u.M.N.N.K.U.U.Y.I.U.K.^ q b J $.&.&.*.&.6.*.9.9.9.e.a.a.a.a.a.a.r.L 0 q A O.%.=.",
"+.F M r q S u.K.K.K.A.Z.Z.Z.Z.V.N.7.+.t :.M.N.N.i.a.N.a.V.P.P.P.P.P.P.>.m r v O.%.$.$.9.*.9.&.9.6.9.e.i.r.i.r.i.a.! a 6 x o.@.O.",
"%.D = z 5 n p.K.K.K.Z.A.K.A.Z.Z.C.t.t k T m.u.u.y.g.s.s.z.n.z.n.n.n.n.l.~ w r O.O.$.$.&.&.&.&.&.e.9.9.e.i.r.i.i.a.Y s 0 A  .#.$.",
"#.< z 8 b F u.K.K.K.K.A.Z.Z.A.Z.A.<.s s U 7.u.f.z.v.v.c.x.x.x.v.c.[ c.c.{ l M O.#.o.$.&.$.$.&.&.&.&.&.*.r.r.e.e.r.=.2 8 > < o.o.",
"* 3 5 0 v +.u.K.Z.A.J.A.A.Z.A.A.A.p.M m S 6.r.n.xXOXOXOX_.' (.XXOXOXOXOX'.{ Y O.o.D o.o.o.$.6.&.&.%.$.$.O.F o., D H 8 p 9 x < : ",
"+ A z q 6 n y.I.V.K.K.Z.A.A.J.V.N.w.4 0 c *.d.Q.,XdXfXdXOXE.}.uXkXfXfXkX6X'._ J * * * * =  . .D o.o.D ; @ 9 2 2 y w r e y 5 2 ; ",
"o.F F V s N V.I.J.Z.J.K.L.Z.B.Z.A.B.N 5 L d.Q. X5XdXyX,XOX}.,XaXhXhXhXhXyX@X`.) A @ o o O O X O # 3 3 1 e d s h a a k G P W J $.",
"N.u.=.T h N V.K.I.A.A.A.A.J.a.B.C.t.u l R R.>XtXaXtX+X(.}.<X0XeXeXwXwXtXiXfX6X`.E K ; + ; | ; : D n t q m t m t a s ! a.K.K.a.a.",
"U.I.i.$.n n ;.t.<.h.;.;.-.^ W P &.P k { (.OXrXaX<X>X{.[.oX0XeXqXqXqXqXqXtXgXiX@X`.b.=.< *.i.u.u.u.U w t +.q.t.e.W l Y A.I.U.I.K.",
"K.K.A.0.K n q t h s q t g g 7 q e u ( T.,XdXjXkXOXxX X<X0X0XeXeXeXeXeXqXeXeXtXiX6XxXd.K i.I.S.M.u.@.e S 5.M.M.i.W s Q Z.U.I.K.K.",
"Z.K.I.M.T w h W h 7 w l j W q t s k E xXyXjXjXiX{.R. X0XeXeXeXqXqXeXqXeXqXqXtXhXkXXXx.2.i.G.N.M.m.$.; | $.q.u.u.N w R A.K.J.K.V.",
"A.J.K.B.;.r P y.t.R :.>.h.r.<.<.^ ^ E xX<XpXpXtX{.R.|.4XeXeXeXeXeXeXeXeXeXqXtXgXfXXXx.K 0.N.Z.u.m.$.* , #.w.w.6.4 < 9.M.K.J.a.A.",
"I.J.K.B.P 1 @.A.I.K.K.K.I.U.U.K.I.n.l._.<XpXpXyX{.R.|.0XeXwXeXeXeXeXqXqXwX7XtXhXfXXX] K *.B.C.M.w.#.* | 8.7.q.6.- o 6.N.I.K.Z.A.",
"K.K.K.u.S 1 #.H.K.K.U.K.K.L.I.I.Y.P.d.xX6XjXlXiX}.R.|.0XeXeXqXeXeXqXqXqXeX8XtXhXfX}.] H @.B.D.w.w.%.<  .3.6.7.7.; o #.i.V.V.K.F.",
"G.Z.K.M.; o #.A.K.K.J.J.U.K.J.P.P.n.Q.{.yXjXfXyX}.(.oX0XeXeXeXeXqXeXqXqXeXqXtXgXdXOX(._ ,.B.a.M.M.&.F  .| 5.3.8.; & #.N.K.K.A.I.",
"I.V.Z.w.% O %.V.K.A.K.K.K.K.K.P.n.Q. X<XaXiXOX}.+X>X<X7XeXeXqXeXeXeXeXeXeXeXeXtXaX5X,X_._ y.S.M.7.#.A : | X.X.X.; & 4.u.K.Z.Z.F.",
"A.Z.N.u.* 2 @.p.V.K.I.K.K.K.L.n.l.).4XaXpX0XxXR.oX0XwXeXqXqXeXeXqXeXqXeXeXeXeXqXeXgXfXXX' s.V.M.7.@.r z | | X.X.- * 6.u.V.Z.K.J.",
"A.K.V.6.x b &.N.A.I.L.I.J.K.H.g.l.xXyXhXhXyX).R.oX0XwXeXqXeXqXeXeXeXeXeXeXeXqXqXtXhXfXOX` 2.*.8.5.I f w X.} X.| * ; 6.u.u.B.V.V.",
"C.K.Z.q.n w %.u.M.M.N.a.t.M.u.1.d.`.uXzXzXuXxXR.oX7XeXeXqXqXeXqXeXeXqXeXeXeXeXeXeXgXkXXX' Z M 4 4 t s h 3 | $ - ; : 3.7.M.M.M.u.",
"w.M.B.;.m q n B G c m u B D M ( _ `.uXzXzXuX{.R.oXqXeXqXeXqXeXeXeXqXeXeXeXeXeXeXeXiXtX}.' ! g t n t W W b ; - 4 D : 3.w.w.M.M.u.",
"w.w.M.;.h a g t q q s s w 8 y l ) {.uXzXlXuXxX[ |.0XqXqXeXqXeXqXqXeXeXeXwXqXeXeXeXsX4X{.' _ ^ y.y.k.k.y.y.N.B.B.u., ..6.6.7.M.u.",
"M.M.m.%.r 6 b >.>.>.^ ^ t.t.:.^ l.).rXgXhXyX[.Q.oX0XeXqXeXeXeXeXeXeXeXqXqXeXqXeXeXeX<X{.' n.I.I.I.U.I.P.U.U.P.I.V. .; 6.q.w.u.u.",
"w.m.w.X.x 5 n ,.0.M.B.M.V.p.0.2.d.).4XpXpX0X).R.oX0XeXeXeXqXeXeXqXeXqXeXeXeXeXeXeXeX0X{.' z.A.J.K.K.V.J.K.A.V.K.N.o.= $.7.7.7.w.",
"w.w.m.5.3 0 n <.e.e.u.,.W Q @.=.d.).5XgXhXrX).R.oXqXeXqXeXeXqXeXeXeXeXeXwXeXqXeXeXeX<X{.c.g.i.A.K.K.V.A.P.A.J.Z.V.6.,  .6.7.7.q.",
"8.5.%.U h 7 t N M B B V a a m U E {.yXlXlXuX`.R.oX0XeXqXeXeXeXqXeXeXeXeX7XeXeXeXqXeX0X{.' 1.u.Z.K.J.J.A.L.L.A.Z.V.7...: @.;.6.;.",
"S 4 = V j a s s 6 q 5 q a d y Z ) xXyXjXjXyX).R.oX0XeXeXqXeXeXeXqXeXqXeXeXeXeXeXeXeX<X{.' 1.p.w.p.B.K.Z.K.K.Z.j.k.r.$.n w n G M ",
"f t u d j q f d d s 7 q g l V ~ ) ).0XpXpXrX).v.oX7XqXqXeXqXeXqXeXeXeXqXeXeXqXeX0XqX0X{.' 1.-.Q P ;.:.q.t.^ ^ / j W L t a s t 0 ",
"s m j a g s d t W t d Q R -.:.Z ( T.oX<X8X2X.X/.|.>X<XqXeXeXeXeXqXeXeXeXqXeXeXeX0X<XoXW.E U t s w t s m b s s g s f s g e 1 z y ",
"~ -.R V R ! ~ >.<.>._ h.r.e.i.U M ) Q.{.*X;X%X^.]._.oX0XeXwXqXeXeXwXeXeXeXeXwXeX<X XE.) u U C q t N j Q I g s h j f s g B D S Y ",
"n.P.P.n.j.y.n.y.i.u.e.e.,.&.9.o.> F l.W.*X;X;X&X/.R.|.0XeXeXeXeXeXqXeXeXeXeXqXeX<X[.x.E Y 9.M.1.<.N.k.y.p.>.Q g a s l Q k.a.a.P.",
"P.P.F.a.a.a.i.y.i.r.9.e.e.&.*.$.< , l.T.:X8X9X7X[.R.|.0XeXeXqXeXeXeXeXeXeXeXqXeX<X[.' f.F.G.G.I.K.L.K.K.J.J.h.g a g h.n.n.f.f.j.",
"A.n.y.a.a.a.i.y.r.e.e.,.*.*.@.o., < d.E.:XsX9X7X[.R.|.7XeXeXeXeXqXeX7XeXeXeXeX8X:X[.x.n.U.G.P.I.I.A.Z.K.K.J.^ g f Q k.n.V.A.r.n.",
"a.a.a.F.F.i.i.r.e.r.e.,.*.9.@.$., K E W.*X-X-X=X/.Q. X0XqXqXqXqXeXeXeXeXeXeX8X3X*X].x.n.K.J.K.K.K.K.K.J.C.V.Q d 6 T a.f.F.F.F.a.",
"a.a.a.a.y.y.a.r.e.e.e.,.0.9.&.@., < d.E.^.%X;X%X].E.|.<X2X7XqXqXeXeXeX0XeXqX7X=X$X/.l.n.I.K.K.K.K.K.K.J.B.Z.h.t e =.g.f.f.a.N.f.",
"a.f.f.i.y.y.r.e.e.,.*.*.*.&.&.O. .< , x.T..X=X8X<X>X}.{.1X=X2XqXeXqXeXeXeXeX:X.X/.x.k.p.J.K.C.K.K.K.K.J.j.V.w.n 5 L y.f.a.a.r.a.",
"a.a.f.a.N.y.,.,.e.e.,.&.&.*.O.$.$.> v r.d.E.>XeXeX7X|.T.!.$X-X2X7XqX8XqX7X7X,X_.l.s.u.p.J.K.K.L.J.J.L.C.Z.J.;.q 0 H f.f.a.a.a.y.",
"N.a.f.f.i.g.9.*.*.9.*.@.@.&.O.$. .J n ,.<.l.xX|.=X-X*X~.!.].^.-X-X-X-X-X=X.X).b.y.r.B.M.B.K.K.J.K.V.A.A.Z.j.l w e F N.F.a.a.a.a.",
"=.@.O.H O.e.e.9.*.9.6.6.@.&.@.O.F u t -.7.r.d.R.~.%X%X$X!.E.].$X&X&X&X&X^.W.x.s.N.M.m.M.w.B.K.L.Z.V.A.B.Z.j.l i 0 J i.y.<.9.0.e.",
"* # @ @ + , 9.$.O.&.$.o.$. . . .J i f V G O.2.d.W.!.~.~.W.' T.!.~.~.~.~./.` y.M.M.B.w.M.w.M.Z.A.V.V.K.Z.B.w.L r w z L m r @ * @ ",
"  9 0 1 2 > , > x x v > o * > > r j i 0 p v l k E ` ` ` ` ) ] ` ` ` ` ` ] 1.r.q.w.w.u.w.m.7.M.B.w.M.w.;.C G , M k t u s 7 # o O ",
"< L r q t 0 y y t m 5 0 + + r 0 s f N M b b d k R E ( E _ E ( ! Z ( ( Z 2.r.M.M.7.7.7.3.#...%.%.+.4 4 b s h n r i d Q t e @ & & ",
"6.w.p.>.Q s 6 Y t.t.h.>.e.0.t.t.h.h.p.K.V.a.h.h.f.y.Y r b -.Q h n V g u ,.w.7.7.6.3.} ; - = v 9 1 0 t M k N -.B s j L G +.$.#.;.",
"u.u.V.B.L w V y.A.S.A.S.V.A.A.H.L.I.U.Y.I.I.U.Y.Y.U.h.s q G q.-.:.o.B B G G 4 S r 3 ; * & = L N m L <.t.j.V.A.Y s d V @.6.6.7.w.",
"S.u.r.q.M q t h.N.M.u.u.N.N.u.B.J.I.I.I.U.U.K.J.Z.I.p.t 6 b &.5.6.3.D m s 6 e 0 M &.7.r.e.w.B.V.j.K.U.K.L.H.N.C a a l :.7.7.0.u.",
"N.N.u.,.z y C t.a.M.M.M.B.B.M.N.K.I.I.I.I.K.K.Z.Z.A.N.P 1 q P q.6.q.+.M f q M :.p.M.B.K.K.K.A.H.L.H.C.Z.C.C.p.I g f W @.q.M.0.u.",
"B.V.a.I q z ;.M.M.u.M.M.B.B.S.N.K.K.K.K.K.K.Z.K.K.K.B.%.2 2 X.q.7.%.X.2 b G t.u.w.M.M.w.B.Z.A.Z.A.N.J.V.p.B.B.q.N l W &.6.7.u.u.",
"u.N.M.G 1 7 @.w.u.u.M.M.B.N.M.A.U.K.K.K.K.K.L.Z.B.8.5.4     # } X.} &     #.8.3.7.M.w.w.M.Z.A.A.Z.V.j.V.C.V.C.D.B s j @.%.5.9.u.",
"6.u.u.L y e -.M.u.w.M.M.B.B.N.H.I.I.K.I.K.K.B.7.5.5.+.4   . 1 X.} | o   # ; } } X.7.M.M.M.B.Z.K.K.Z.C.A.Z.V.V.m.+.m C @.8.6.4.6.",
"q.M.>.h n +.w.M.w.w.M.M.B.B.Z.I.K.K.K.L.K.K.w.3.3.3.5.| -     } | | $ X $ ; } X.} 5.M.M.M.u.B.Z.K.Z.A.C.V.V.B.q.P z : #.$.#.3.7.",
"6.0.Y s 5 N r.w.M.M.M.M.B.A.K.K.K.H.A.A.A.A.A.u.5.5.%.X.& X X & - ; $ X X ; | X.5.M.M.M.N.M.M.B.A.K.V.Z.Z.Z.C.<.i w : X.4.8.3.9.",
"&.e.C s 7 N q.w.M.M.M.u.N.G.A.K.A.K.A.Z.Z.A.A.Z.J.M.w.8.: # # X.X.X.- $ +  .6.m.M.M.M.M.N.M.M.M.M.A.H.P.Z.Z.Z.u.L c ; o.$.8.%.0.",
"8.6.S t w n 6.7.7.7.u.7.M.A.K.A.A.K.K.A.Z.K.A.A.V.Z.K.B.I q q 4 8.X.| | * o.u.m.u.u.M.M.M.M.N.N.u.N.A.A.Z.A.Z.B.%.; - | #.3.6.6.",
"#.G n t f s D  .} }  . .#.u.A.N.A.A.N.N.A.N.S.S.B.w.;.+.n a 7 4 X.X.| - @ o.0.u.u.u.M.M.M.M.M.u.M.B.N.A.Z.K.Z.V.6.; * ; X.5.5.4.",
"4 t s j j 6 S , A * ; ; ; #.3.#.O...#.$.+.$.+.G X.A 0 2 b t 8 z & $ % = 8 B 7.0.0.M.u.u.S.u.e.u.u.u.M.B.V.Z.C.C.6.: : | X.| | ; ",
"@ v u l W B :.$.%.#.O. .* + o & % & * = r e 9 0 0 e r r 5 z n q @ X o e f t $.6.*.6.&.=.&.6.6.3.#.#.#.#.%.%.7.5.S = , ; % + o * ",
"F O.-.t s N t.i.A.A.A.u.#.} = ; , = @ D C N +.P Y Y ,.R n P T >.e.q.%.z i t n b r B t j c } | - ;  .4 c n 2 3 1 0 1 * * + + : < ",
"i.F.h.k 7 t h.I.A.K.K.A.N.M.u.u.i.#.= 9.p.B.N.A.A.V.F.H.P.P.J.I.Y.K.j.B e 8 r j s q w d 8 8 > ; A r m k a q s s 8 # + ; , F *.*.",
"a.y.2.l a M j.U.Z.V.V.Z.K.A.B.M.M.6.: 6.M.q.B.Z.A.A.I.I.K.I.I.K.J.K.k.j a 9 D V i n L P F v J , J u C V u W h q b r v , e.y.r.y.",
"y.<.:.t s Y A.I.K.K.Z.Z.Z.B.M.6.7.6. .$.7.q.w.M.N.A.A.I.K.V.Z.Z.J.J.t.k 6 8 O.r.,.@.9.r.9.*.9.,.e.i.r.z.1.y.s.z.,.x # , r.i.y.y.",
"i.r.*.u f Q A.U.U.A.A.B.C.C.M.7.7.6., $.7.7.w.w.M.A.A.A.K.A.K.V.A.Z.M.@.> = @.*.*.0.,.r.f.F.P.P.P.P.P.n.F.P.F.f.0.< + ; 9.y.i.i."
};
