/* XPM */
static char *result[] = {
/* columns rows colors chars-per-pixel */
"64 64 9 1 ",
"  c black",
". c #8C4121",
"X c #FFD454",
"o c #FFDF8F",
"O c #FFEA61",
"+ c #F57AF5",
"@ c #FFEBBD",
"# c #FCAEFC",
"$ c white",
/* pixels */
"####++++####++++####++++####++++####++++####++++####++++####++++",
"####++++####++++####++++####++++####++++####++++####++++####++++",
"XXXXXXXXXXXXXXXXXXXXXXXXXXXXXXXXXXXXXXXXXXXXXXXXXXXXXXXXXXXXXXXX",
"XXXXXXXXXXXXXXXXXXXXXXXXXXXXXXXXXXXXXXXXXXXXXXXXXXXXXXXXXXXXXXXX",
"@@@@@@@@@@@@ooXX@@@@@@@@@@@@@@@@@@@@@@@@@@@@ooXX@@@@@@@@@@@@@@@@",
"@@@@@@@@@@@@ooXX@@@@@@@@@@@@@@@@@@@@@@@@@@@@ooXX@@@@@@@@@@@@@@@@",
"@@@@@@@@@@@@ooXX@@@@@@@@@@@@@@@@@@@@@@@@@@@@ooXX@@@@@@@@@@@@@@@@",
"@@@@@@@@@@@@ooXX@@@@@@@@@@@@@@@@@@@@@@@@@@@@ooXX@@@@@@@@@@@@@@@@",
"@@@@@@@@@@@@ooXX@@@@@@@@@@@@@@@@@@@@@@@@@@@@ooXX@@@@@@@@@@@@@@@@",
"@@@@@@@@@@@@ooXX@@@@@@@@@@@@@@@@@@@@@@@@@@@@ooXX@@@@@@@@@@@@@@@@",
"ooooooooooooooXXooooooooooooooooooooooooooooooXXoooooooooooooooo",
"ooooooooooooooXXooooooooooooooooooooooooooooooXXoooooooooooooooo",
"XXXXXXXXXXXXXXXXXXXXXXXXXXXXXXXXXXXXXXXXXXXXXXXXXXXXXXXXXXXXXXXX",
"XXXXXXXXXXXXXXXXXXXXXXXXXXXXXXXXXXXXXXXXXXXXXXXXXXXXXXXXXXXXXXXX",
"++++####++++####++++####++++####++++####++++####++++####++++####",
"++++####++++####++++####++++        ####++++####++++####++++####",
"####++++####++++####++++####        ++++####++++####++++####++++",
"####++++####++++####++++    XXXXXX..    ####++++####++++####++++",
"XXXXXXXXXXXXXXXXXXXXXXXX    XXXXXX..    XXXXXXXXXXXXXXXXXXXXXXXX",
"XXXXXXXXXXXXXXXXXXXXXX  XXXX$$OOOOOO$$..  XXXXXXXXXXXXXXXXXXXXXX",
"@@@@@@@@@@@@@@XX@@@@@@  XXXX$$OOOOOO$$..  @@@@XX@@@@@@@@@@@@@@@@",
"@@@@@@@@@@@@@@XX@@@@  XX$$$$OOOOOO$$$$$$..  @@XX@@@@@@@@@@@@@@@@",
"@@@@@@@@@@@@@@XX@@@@  XX$$$$OOOOOO$$$$$$..  @@XX@@@@@@@@@@@@@@@@",
"@@@@@@@@@@@@@@XX@@@@  XX$$OO....XX$$$$OO..  @@XX@@@@@@@@@@@@@@@@",
"@@@@@@@@@@@@@@XX@@@@  XX$$OO....XX$$$$OO..  @@XX@@@@@@@@@@@@@@@@",
"@@@@@@@@@@@@@@XX@@  XX$$OO..$$$$$$XXOOOOXX..  XX@@@@@@@@@@@@@@@@",
"@@@@@@@@@@@@@@XX@@  XX$$OO..$$$$$$XXOOOOXX..  XXoooooooooooooooo",
"@@@@@@@@@@@@@@XX@@  XXOOXX$$$$$$$$OOXXOOXX..  XXoooooooooooooooo",
"XXXXXXXXXXXXXXXXXX  XXOOXX$$$$$$$$OOXXOOXX..  XXXXXXXXXXXXXXXXXX",
"XXXXXXXXXXXXXXXXXX  XXOOXX$$$$$$OOOOXXOOXX..  XXXXXXXXXXXXXXXXXX",
"++++####++++####++  XXOOXX$$$$$$OOOOXXOOXX..  ##++++####++++####",
"++++####++++####++  XX$$XX$$$$OOOOOOXXOOXX..  ##++++####++++####",
"####++++####++++##  XX$$XX$$$$OOOOOOXXOOXX..  ++####++++####++++",
"####++++####++++##  XX$$XX$$OOOOOOOOXXOOXX..  ++####++++####++++",
"XXXXXXXXXXXXXXXXXX  XX$$XX$$OOOOOOOOXXOOXX..  XXXXXXXXXXXXXXXXXX",
"XXXXXXXXXXXXXXXXXX  XX$$$$XXOOOOOO..OOOOXX..  XXXXXXXXXXXXXXXXXX",
"@@@@@@@@@@@@ooXX@@  XX$$$$XXOOOOOO..OOOOXX..  XX@@@@@@@@@@@@@@@@",
"@@@@@@@@@@@@ooXX@@@@  $$OOOOXX....OOOOXX..  ooXX@@@@@@@@@@@@@@@@",
"@@@@@@@@@@@@ooXX@@@@  $$OOOOXX....OOOOXX..  ooXX@@@@@@@@@@@@@@@@",
"@@@@@@@@@@@@ooXX@@@@  ..OOOOOOOOOOOOOOXX..  ooXX@@@@@@@@@@@@@@@@",
"@@@@@@@@@@@@ooXX@@@@  ..OOOOOOOOOOOOOOXX..  ooXX@@@@@@@@@@@@@@@@",
"@@@@@@@@@@@@ooXX@@@@@@  ....OOOOOOXXXX..  @@ooXX@@@@@@@@@@@@@@@@",
"ooooooooooooooXXoooooo  ....OOOOOOXXXX..  ooooXXoooooooooooooooo",
"ooooooooooooooXXoooooooo    XXXXXX..    ooooooXXoooooooooooooooo",
"XXXXXXXXXXXXXXXXXXXXXXXX    XXXXXX..    XXXXXXXXXXXXXXXXXXXXXXXX",
"XXXXXXXXXXXXXXXXXXXXXXXXXXXX        XXXXXXXXXXXXXXXXXXXXXXXXXXXX",
"++++####++++####++++####++++        ####++++####++++####++++####",
"++++####++++####++++####++++####++++####++++####++++####++++####",
"####++++####++++####++++####++++####++++####++++####++++####++++",
"####++++####++++####++++####++++####++++####++++####++++####++++",
"XXXXXXXXXXXXXXXXXXXXXXXXXXXXXXXXXXXXXXXXXXXXXXXXXXXXXXXXXXXXXXXX",
"XXXXXXXXXXXXXXXXXXXXXXXXXXXXXXXXXXXXXXXXXXXXXXXXXXXXXXXXXXXXXXXX",
"@@@@@@@@@@@@ooXX@@@@@@@@@@@@@@@@@@@@@@@@@@@@ooXX@@@@@@@@@@@@@@@@",
"@@@@@@@@@@@@ooXX@@@@@@@@@@      @@@@@@@@@@@@ooXX@@@@@@@@@@@@@@@@",
"@@@@@@@@@@@@ooXX@@@@@@@@@         @@@@@@@@@@ooXX@@@@@@@@@@@@@@@@",
"@@@@@@@@@@@@ooXX@@@@@@@@@@          @@@@@@@@ooXX@@@@@@@@@@@@@@@@",
"@@@@@@@@@@@@ooXX@@@@@@@@@@@@          @@@@@@ooXX@@@@@@@@@@@@@@@@",
"@@@@@@@@@@@@ooXX@@@@@@@@@@@@@@         @@@@@ooXX@@@@@@@@@@@@@@@@",
"ooooooooooooooXXoooooooooooooooo      ooooooooXXoooooooooooooooo",
"ooooooooooooooXXooooooooooooooooooooooooooooooXXoooooooooooooooo",
"XXXXXXXXXXXXXXXXXXXXXXXXXXXXXXXXXXXXXXXXXXXXXXXXXXXXXXXXXXXXXXXX",
"XXXXXXXXXXXXXXXXXXXXXXXXXXXXXXXXXXXXXXXXXXXXXXXXXXXXXXXXXXXXXXXX",
"++++####++++####++++####++++####++++####++++####++++####++++####",
"++++####++++####++++####++++####++++####++++####++++####++++####"
};
