/* XPM */
static char *_a3660094e6541f980540b08d65971a8rCsCbSmh3O4aJpPs[] = {
/* columns rows colors chars-per-pixel */
"64 64 124 2 ",
"   c #1A1315",
".  c #171719",
"X  c #1C171A",
"o  c #17181A",
"O  c #1A1B1E",
"+  c #3D0F13",
"@  c #29191C",
"#  c #351216",
"$  c #3D1114",
"%  c #371618",
"&  c #3B1618",
"*  c #3C1B1D",
"=  c #1E1E20",
"-  c #351E21",
";  c #3A1F20",
":  c #1F2022",
">  c #232424",
",  c #292727",
"<  c #272827",
"1  c #262628",
"2  c #292728",
"3  c #2C2B2B",
"4  c #352424",
"5  c #3A2223",
"6  c #372729",
"7  c #312E2E",
"8  c #3A2C2A",
"9  c #2F302E",
"0  c #32312F",
"q  c #3A312E",
"w  c #2D2D33",
"e  c #322F30",
"r  c #2F3137",
"t  c #2E3339",
"y  c #353532",
"u  c #393533",
"i  c #373834",
"p  c #3A3A35",
"a  c #32353B",
"s  c #34383E",
"d  c #3E3C38",
"f  c #411115",
"g  c #4A1317",
"h  c #44161A",
"j  c #4D1318",
"k  c #431C1D",
"l  c #511319",
"z  c #402423",
"x  c #412D2B",
"c  c #40302D",
"v  c #423A35",
"b  c #403F39",
"n  c #42413B",
"m  c #353A41",
"M  c #3A3D43",
"N  c #3B4046",
"B  c #3E444C",
"V  c #40474E",
"C  c #444B54",
"Z  c #464E5A",
"A  c #484F5B",
"S  c #475057",
"D  c #47505B",
"F  c #4B535E",
"G  c #50565F",
"H  c #4E5561",
"J  c #4F5861",
"K  c #505762",
"L  c #535A65",
"P  c #585F64",
"I  c #565E69",
"U  c #585F6B",
"Y  c #576067",
"T  c #57606A",
"R  c #5A626D",
"E  c #5F686F",
"W  c #576170",
"Q  c #5D6571",
"!  c #5F6975",
"~  c #616773",
"^  c #616A75",
"/  c #636A7A",
"(  c #646B79",
")  c #636D7A",
"_  c #666F79",
"`  c #666E7B",
"'  c #656D7C",
"]  c #686F7E",
"[  c #66707C",
"{  c #69717F",
"}  c #6A727E",
"|  c #666E80",
" . c #6A7281",
".. c #6A7480",
"X. c #6D7583",
"o. c #6D7783",
"O. c #6B7284",
"+. c #6F7884",
"@. c #6F7985",
"#. c #707786",
"$. c #707985",
"%. c #717B87",
"&. c #727A87",
"*. c #707788",
"=. c #727C89",
"-. c #747C8A",
";. c #747E8A",
":. c #747B8D",
">. c #737D8F",
",. c #767F8E",
"<. c #767E90",
"1. c #787F92",
"2. c #76808C",
"3. c #78828E",
"4. c #798093",
"5. c #7B8492",
"6. c #7A8194",
"7. c #7B8495",
"8. c #7C8595",
"9. c #7E8798",
"0. c #7F8999",
"q. c #818996",
"w. c #828B9B",
"e. c #828B9C",
/* pixels */
"O.<.:.1.6.1.1.1.>.>.>.,.<.1.4.4.4.4.4.4.4.4.8.9.w.e.0.4.,.<.4./ Q 4.=.=.4.8.4.,.4.1.,.:.,.,.,.,.<.<.<.4.4.4.7.8.6.<.6.4.,.<.6.<.",
"X.&.X.'  .X.{ / ! ! ! ^ ^ / / ^ ^ ) [ { ..X.&.-.3.2.@.[ ^ [ -.! T &.' ' X.-.-.&.{ _ ( / ^ ^ ^ ^ / / / / ) [ X.&.@.{ _ ! Q ) @.,.",
"~ R L D F F F H H J K K L L K K L L L L L L T T I I L L L R [ R K _ I L I R R R I L L L L L L L L L L K K K L L L J F F F K Q { ",
"E L D S F F F F F K K K L L L L L I I I L L L I I T I I L L ~ L K _ I L L L L L I L L L I L I I L L L L L K K K J H F F F F I ^ ",
"R L D F J K K H H K K L L L I I I I I I T T I I U I I I L I ~ L K ~ I I I I U R I I I I I I I I L I I L L L K K H K H K K F L ^ ",
"Q I A F F F H K L L L L I I R R I T T R R U I I I R U R I I Q L L ^ I I I I I I R R R T T T T I I T T I I L L L H H K K K H I ^ ",
"Q L A H L K H F H H K L L I I I T R R C m m m m m m m m m m M s s N m m m m m m m m m B R R R R I I I T I I L L L L H H F F L ^ ",
"R L H F G K L K K K L L I T T T T T V y p u y p p y p p p p p p p y u p p y u u u y p y N Y R R R R R T I L L L J H K K K K I ! ",
"R R I K H K L I I I T R R R Q Q Q C y y y 3 7 y y y 7 7 7 7 e 7 7 7 e y y y e e y 7 y y e B T R R R Q R R R I I I I L L L R Q ^ ",
"U I I L L L L L L U L I W T U I I s y y y 7 7 e y y > = 1 = = = = = > 7 e 7 7 e 7 7 e e 3 = C L L L I U U I I L R I I L L L I I ",
"H H H H H H H H H H H F F F F Z Z t e 7 e e 7 y e e 3 , y u y y u u y e 7 7 y 7 3 e y 7 3 O N A C F H H A F F F H F F H F F F H ",
"=.=.=.=.=.-.3.5.,.*.:.,.=.:.=.! ! B y y 2 2 1 , 2 2 , 2 2 2 2 , 2 2 , 2 2 2 2 , 2 2 2 7 3 O U ^ I X.X. .#.&.X.&.@.X. .X.X.X.-.4.",
"^ Q R T R R R R L L R E R R _ L U M y , O > > 1 = > > 1 > > O > > > > 1 > > 1 1 > > : > 7 O L ^ L { Q L I I L R Q R R R R R ^ { ",
"L K J K K K J H F F A A F K Q L L s y 1 7 p p p 2 0 p p p 3 3 p p i d b d d i u u p y > 3 O C R K ^ I L L K H H L L L L I L L I ",
"L I I L K J H H F H F D D C L K L a y > 1 i p p 2 0 i i i 1 y p i p b n b p u * * u d 1 7 o C R L ~ L L L L L L I I I I I I I L ",
"I U I L K K K H H F F H F Z I L L a y 1 > 2 p d 3 3 i i 3 2 i y p n n n p q & f f * p 1 3 O C Q K _ L K L I I L I T I I I I L L ",
"I I L I I L L H H H F F F A I L K a y 1 0 2 3 i y 1 i i < y p d n n b p u * f f f * p 1 7 = s Q J Q I L L I U I I T I I R I I I ",
"I R I R R L L K H K H F F F I H H a y 1 i p < 3 i > 2 1 2 i d n n b p 3 i 6 $ f & q d 1 7 = 1 R F R L L P L L I I I I I R R I I ",
"I R I I I L L L K J H F H H R H K s y 1 9 p 9 1 0 > 1 = 0 p b n p 0 > 1 p i 6 $ 5 d p 1 7 = > K H R I L L I R R R R R R R R I R ",
"Q Q R R R R R R T L L L L L Q L L s y 1 > 1 3 3 : > 2 > 3 d p 2 > > 3 i d i y 0 u z d 1 3 = > H H Q Q Q U R Q ! R Q Q Q R R R Q ",
"H L H K L L L K K K L H F F H A A t y 1 0 3 1 O o o o > = : > 2 0 i i i p i p d b u d 1 7 = > C C F F J F F F H F H H H F F F H ",
"I I I I R R R I I I I I I I R R U s y 1 i p i > = o o O < y y i i p p p i p d q b b p 1 7 = < I R R I I I R R I R I R R I I R I ",
"-.&. .{ { { { { { { X.X.&.&.-.5.w.C y 1 y y 3 1 : o O > i p p p i p p p i d n b b p p 1 7 = F &.&.,.,.4.8.w.8.=.@.X.X. .{ X.-.-.",
"( Q L F F H H H H L L L I I I Q / M 7 1 3 1 1 < 1 1 y 9 < i p i i i p p d n n n p p p 1 3 O B L L I R Q Q Q T K H H H F A J Q ' ",
"~ L F F F F F F H L L L I I L L L a y > 1 3 y 3 1 < d p y 2 9 i y i p d n n n p u p d 1 3 O B L L L K K K K J J H H F F D J L Q ",
"Q L F F F H K H L L I I I I I I L a y 1 y y i i 3 2 0 p p 9 1 1 0 i d n n n p i p d d 1 3 O V I I L L L L L L J F H K F D D K ^ ",
"R K D F F K K K I I I I I I I R I s y 1 y i i > 0 3 3 p i i i 3 > 1 p n b p i p d n p > 3 o V I I I I T T L L K K H F F F D I _ ",
"R K F F H H H L I I I I I R R R I s y 1 y i i 1 y 3 2 i i i i p p 0 3 d p i p d n d i > 3 o C T I I I I I I L L L K J H F D Q  .",
"R L H H H H K L I I I I R R R R U s y 1 i p 3 3 p p 1 y i p p d n b p p i i d n d i i > 7 O C R R R R R T I I I L L H F F F R / ",
"R U L K K K K L I U R R R R R R R s y 1 i i > i p i 1 y p p d n n n p i i d n p i i y > 3 o C R R R R R R R R R I L J K H L I U ",
"R R I L L L L U R R R R R R R R R s y 1 i 3 2 i i i 1 y p d n n n p i i d n p i i p y > 3 o C Q Q Q Q R R R R R R R R R I I U R ",
"A F A C A A A A A A A A A A D A A w 3 1 0 > 0 i y i 9 < p n n b p i i d n p i i i p y > 3 o N F F H H F F F F F H D F F F F F F ",
"/ '  .' ' _ _ _ ' _ ] ' _ ' ' L I M e 1 2 3 i i p p i < b n n p i i p n p i i 6 6 i y > 3 o F U H _ _ ! ) _ / / / / / _ ) / ' | ",
"4.,.@.{ ' ' [ _ { { &.@.X.X.@.R Q N 7 1 9 y i y i i p 2 d n d y i d n d i i i 5 4 i i > 3 O I ' L -.{ Q R U Q Q Q ! ! ^ ^ ' =.4.",
"R R U I L L L L L L I L L I ^ L L s 7 1 y i i i i d n 0 y p i i d n p i i i i y y i y > 3 o F Q K { R A C A A F F F F H L L I I ",
"L L I I I I I T I L T L L L Q L L a 7 1 0 i i i p n n p 0 i i d b p i i i i i i y i y > 3 o C R L _ F A A A D F F F F K L L L L ",
"I I I T R R R T I L T L L L R F K r 6 1 y i i p n n n p i i d n p i i i i i 8 5 i i i > 7 o B L K R C D D C D F F K K K K K L L ",
"I I R R R R R T R I L L L L R K L a 4 1 0 i i d n n p i i d n d i i i i i q $ % q i i > 3 o B L H L A A A F D F F G K L I I U I ",
"R R R R R I T R R R U I U L U H K a 3 > 0 p c k x u i y d n d y i i p i i q % + & q i > 3 o B I F L C F F D K F J J H L I I I I ",
"R R R R Q R R R R U R U U I R L K s 3 > i b k f f * u d n d y i i i i i i i 6 + % q i > 3 o B I F H F F D F F H H L L I I I R T ",
"R R R Q ^ Q Q R R R R R R Q Q K L s 6 @ p v f f $ $ 8 d p i i i i i i i i i u * 4 i i > 3 o C I F L L F D F F H H L I I I I R R ",
"I I U U U R R T I I I I I R R F H a h @ p v $ $ $ $ * 8 i i i p i i i i i p p 0 q p d 1 3 o C L F L L F F F F K K L I L L L I I ",
"A F H A H H F D F F D F H F H D A w h @ p d 6 % $ $ + $ * q i i i i i i p p y y p d d 1 3 O B H A H A A H H A H F F F F F H H F ",
"X.X.@.#.=.3.3.-.=.2.4.8.4.=.@.@.{ M h @ i i i 7 & $ f f $ * i i i y i p d y i p d n d 1 3 O G { @.=.@.@.=.=.@.-.4.q.q.3.&.X.@.@.",
"X.{ _ ( ] X.@.&.-.4.=. .' ! ! Q R a & @ 0 y p d * $ $ f $ ; i y i i p p y i y d n n p > 3 o B I R Q R R Q Q Q Q ^ _ ' ^ Q Q _ { ",
"_ ! R R R R R Q Q ! R I I U I I L a - @ 0 p d u $ $ $ $ + 5 i p p p p y i i d n n d y > 3 o V I L L L L I T I I R R R I I R ~ ^ ",
"Q R R R R R R R R Q R R R R T T I a 3 > i d p i 4 $ + $ % 7 i y d p i i i d n n p i i > 3 o B K L I I I I I I I I R R R I I R ~ ",
"Q R R R R R R R R R R R R R R R I a 3 > i p i i i 4 % # 6 i i p p i i i d n b p i i p 1 7 O V I I I I I I I I I R R R R T R R ~ ",
"Q R R Q Q Q R R Q Q R Q R R R R I a 3 > 3 i i p i i 3 3 y i i p i i i p b d p i i i 0 > 3 o V I I I I R I I T R R R R R R R R Q ",
"R R R Q Q Q Q Q R Q Q Q R R R R R s 3 2 O > > > > > > > > > > > > > > > > > > > > > O 1 7 o V I R I I I I T R R R R R R R R R Q ",
"Q Q Q ^ ^ ^ ^ ^ ~ Q ~ Q Q R R R R s 3 7 7 7 7 7 7 7 7 7 7 3 , , , 3 7 e 7 7 7 7 7 7 7 8 * X V I I I R R I R R I R R R R R R Q Q ",
"! ! ^ ^ ^ ^ ^ _ _ ! ~ Q ^ R R ~ ~ s 3 7 6 7 7 e 7 7 7 7 3 > > > > > 3 y 7 3 7 7 7 7 e 6 & X C R R I R R R Q R R Q Q Q R R ^ ^ ^ ",
"L L L L L L L L L K K H K K K K F t 2 5 h h 6 7 7 7 3 7 3 > 3 7 3 > 2 e 7 7 7 7 7 7 7 7 4 o B K H H H K L K F H K L L L L L L L ",
"T I L L I L L L L L L L I U L C F a % g l l h 6 7 7 7 7 3 > 7 7 7 > 2 7 3 7 7 7 7 7 7 7 3 o B F C L L L L I L I I L J L L L I R ",
"&.X.{ { X.{ { { { { { { X.{ &.R R M # g l l j 6 7 7 7 3 3 > > > > > 3 e 7 7 7 7 7 7 7 7 3 O K ^ L { [ [ { X.@.-.q.5.-.X.{ { &.-.",
"L L L L L L L L H F H H H F ~ L L s # g l j j h 5 7 3 3 7 3 2 2 2 3 3 7 7 7 3 7 7 3 7 3 > = D R F R D F H H H I ! ^ Q L L L I I ",
"I I L L L L H H H H K H F F L L L K e # $ $ f f $ % - 4 2 2 3 , , , 2 3 3 2 2 2 3 2 3 , : B R L F K D D F F F H K K K L L L K K ",
"I I I I I I L L K H H H F F L K K K C w                 . o o o o o o o o o o o o o o O m L R L F K F F F F F K K K L L L L L L ",
"I I I I I I I I I L K K K F L K K H F A m a s s s s s s s m m m m m m m m m m m m m m B L I R I F L H F F F H L K K K L L I I I ",
"I I I I I I I I L L K K F F L K H K F F F F F K H H K L L L L I I I I R R R R R R R R R R R R L F L F F F H H L L L L L L L I I ",
"R R R R R I I I I L L K H K R K L I K F F F F K H H L I L L I R R R R R R Q R R R R R R R R R K F L F F H K K L L I I I I I R R ",
"R R R R R I I I I I L H F K R K L R L F F F H K L L L L L L R I I R R R Q Q R R R Q R R R Q R H D K F H K L K L L I I I I I R R ",
"Q Q R R R R R R R R U L L L R K L R L H K K K L L L I I L I R I R R R Q Q Q Q R Q Q Q Q R Q Q L F L L L L I L I R R R R R R R R ",
"K K H H H H H H K K L K H F K A Z F Z C A A C A A C D F D D F F H H H H H F F A F H F F D F F A C F F F H H H K L L L H H H H K "
};
