/* XPM */
static char *result[] = {
/* columns rows colors chars-per-pixel */
"64 64 15 1 ",
"  c black",
". c #22B14C",
"X c #FFD454",
"o c #FFDF8F",
"O c #1B6894",
"+ c #F57AF5",
"@ c #0096ED",
"# c #00B7EF",
"$ c #4EB6F2",
"% c #76BEE8",
"& c #FFEBBD",
"* c #F0C4A3",
"= c #FCAEFC",
"- c #A3D4F0",
"; c white",
/* pixels */
"====++++====++++====++++====++++====++++====++++====++++====++++",
"====++++====++++====++++====++++====++++====++++====++++====++++",
"XXXXXXXXXXXXXXXXXXXXXXXXXXXXXXXXXXXXXXXXXXXXXXXXXXXXXXXXXXXXXXXX",
"XXXXXXXXXXXXXXXXXXXXXXXXXXXXXXXXXXXXXXXXXXXXXXXXXXXXXXXXXXXXXXXX",
"&&&&&&&&&&&&ooXX&&&&&&&&&&&&&&&&&&&&&&&&&&&&ooXX&&&&&&&&&&&&&&&&",
"&&&&&&&&&&&&ooXX&&&&&&&&&&&&&&&&&&&&&&&&&&&&ooXX&&&&&&&&&&&&&&&&",
"&&&&&&&&&&&&ooXX&&&&&&&&&&&&&&&&&&&&&&&&&&&&ooXX&&&&&&&&&&&&&&&&",
"&&&&&&&&&&&&ooXX&&&&&&&&&&&&&&&&&&&&&&&&&&&&ooXX&&&&&&&&&&&&&&&&",
"&&&&&&&&&&&&ooXX&&&&&&&&&&&&&&&&&&&&&&&&&&&&ooXX&&&&&&&&&&&&&&&&",
"&&&&&&&&&&&&ooXX&&&&&&&&&&&&&&&&&&&&&&&&&&&&ooXX&&&&&&&&&&&&&&&&",
"ooooooooooooooXXooooooooooooooooooooooooooooooXXoooooooooooooooo",
"ooooooooooooooXXooooooooooooooooooooooooooooooXXoooooooooooooooo",
"XXXXXXXXXXXXXXXXXXXXXXXXXXXXXXXXXXXXXXXXXXXXXXXXXXXXXXXXXXXXXXXX",
"XXXXXXXXXXXXXXXXXXXXXXXXXXXXXXXXXXXXXXXXXXXXXXXXXXXXXXXXXXXXXXXX",
"++++====++++====++++====++++====++++====++++====++++====++++====",
"++++====++++====++++====++++====++++====++++====++++====++++====",
"====++++====++++====      ==++++====++      ++++====++++====++++",
"====++++====++++====      ==++++====++      ++++====++++====++++",
"XXXXXXXXXXXXXXXXXX  ;;;;;;            ;;;;;;  XXXXXXXXXXXXXXXXXX",
"XXXXXXXXXXXXXXXXXX  ;;;;;;            ;;;;;;  XXXXXXXXXXXXXXXXXX",
"&&&&&&&&&&&&ooXX&&  ;;;;;;;;;;;;;;;;;;;;;;;;  XX&&&&&&&&&&&&&&&&",
"&&&&&&&&&&&&ooXX&&  ;;;;;;;;;;;;;;;;;;;;;;;;  XX&&&&&&&&&&&&&&&&",
"&&&&&&&&&&&&ooXX&&  ;;;;****************;;;;  XX&&&&&&&&&&&&&&&&",
"&&&&&&&&&&&&ooXX&&  ;;;;****************;;;;  XX&&&&&&&&&&&&&&&&",
"&&&&&&&&&&&&ooXX&&  ;;********************;;  XX&&&&&&&&&&&&&&&&",
"&&&&&&&&&&&&ooXX&&  ;;********************;;  XX&&&&&&&&&&&&&&&&",
"ooooooooooooooXXoo  ;;****  ********  ****;;  XXoooooooooooooooo",
"ooooooooooooooXXoo  ;;****  ********  ****;;  XXoooooooooooooooo",
"XXXXXXXXXXXXXXXXXX  ;;****  ********  ****;;  XXXXXXXXXXXXXXXXXX",
"XXXXXXXXXXXXXXXXXX  ;;****  ********  ****;;  XXXXXXXXXXXXXXXXXX",
"++++====++++====++  ;;********************;;  ==++++====++++====",
"++++====++++====++  ;;********************;;  ==++++====++++====",
"====++++====++++==  ;;;;****************;;;;  ++====++++====++++",
"====++++====++++==  ;;;;****************;;;;  ++====++++====++++",
"XXXXXXXXXXXXXXXX  ....;;;;;;;;;;;;;;;;;;;;....  XXXXXXXXXXXXXXXX",
"XXXXXXXXXXXXXXXX  ....;;;;;;;;;;;;;;;;;;;;....  XXXXXXXXXXXXXXXX",
"&&&&&&&&&&&&ooXX  **..##@@########@@######..**  &&&&&&&&&&&&&&&&",
"&&&&&&&&&&&&ooXX  **..##@@########@@######..**  &&&&&&&&&&&&&&&&",
"&&&&&&&&&&&&ooXX  **..@@@@@@####@@@@@@####..**  &&&&&&&&&&&&&&&&",
"&&&&&&&&&&&&ooXX  **..@@@@@@####@@@@@@####..**  &&&&&&&&&&&&&&&&",
"&&&&&&&&&&&&oo%%OO**@@@@@@@@@@@@@@@@@@@@@@@@**OO%%&&&&&&&&&&&&&&",
"&&&&&&&&&&&&oo%%OO**@@@@@@@@@@@@@@@@@@@@@@@@**OO%%&&&&&&&&&&&&&&",
"oooooooooooo%%%%OO--@@@@@@@@@@@@@@@@@@@@@@@@--OO%%%%oooooooooooo",
"oooooooooooo%%%%OO--@@@@@@@@@@@@@@@@@@@@@@@@--OO%%%%oooooooooooo",
"XXXXXXXXXX%%%%%%%%OO@@@@@@@@@@@@@@@@@@@@@@@@OO%%%%%%%%XXXXXXXXXX",
"XXXXXXXXXX%%%%%%%%OO@@@@@@@@@@@@@@@@@@@@@@@@OO%%%%%%%%XXXXXXXXXX",
"++++====%%%%%%%%%%OO$$$$$$$$$$$$$$$$$$$$$$$$OO%%%%%%%%%%++++====",
"++++====%%%%%%%%%%OO$$$$$$$$$$$$$$$$$$$$$$$$OO%%%%%%%%%%++++====",
"====++++%%%%%%%%%%OO$$$$$$$$$$$$$$$$$$$$$$$$OO%%%%%%%%%%====++++",
"====++++%%%%%%%%%%OO$$$$$$$$$$$$$$$$$$$$$$$$OO%%%%%%%%%%====++++",
"XXXXXXXXXX%%%%%%%%OO$$$$$$OOOOOOOOOOOO$$$$$$OO%%%%%%%%XXXXXXXXXX",
"XXXXXXXXXX%%%%%%%%OO$$$$$$OOOOOOOOOOOO$$$$$$OO%%%%%%%%XXXXXXXXXX",
"&&&&&&&&&&%%%%%%%%OO$$$$$$OO%%%%%%%%OO$$$$$$OO%%%%%%%%&&&&&&&&&&",
"&&&&&&&&&&%%%%%%%%OO$$$$$$OO%%%%%%%%OO$$$$$$OO%%%%%%%%&&&&&&&&&&",
"&&&&&&&&&&&&%%%%%%%%OOOOOOOOOOOOOOOOOOOOOOOO%%%%%%%%&&&&&&&&&&&&",
"&&&&&&&&&&&&%%%%%%%%OOOOOOOOOOOOOOOOOOOOOOOO%%%%%%%%&&&&&&&&&&&&",
"&&&&&&&&&&&&oo%%OOOOOOOOOOOOOOOOOOOOOOOOOOOOOOOO%%&&&&&&&&&&&&&&",
"&&&&&&&&&&&&oo%%OOOOOOOOOOOOOOOOOOOOOOOOOOOOOOOO%%&&&&&&&&&&&&&&",
"oooooooooooooo%%%%OOOOOOOOOOOOOOOOOOOOOOOOOOOO%%%%oooooooooooooo",
"oooooooooooooo%%%%OOOOOOOOOOOOOOOOOOOOOOOOOOOO%%%%oooooooooooooo",
"XXXXXXXXXXXXXXXX%%%%%%%%%%%%%%%%%%%%%%%%%%%%%%%%XXXXXXXXXXXXXXXX",
"XXXXXXXXXXXXXXXX%%%%%%%%%%%%%%%%%%%%%%%%%%%%%%%%XXXXXXXXXXXXXXXX",
"++++====++++====++++====++++====++++====++++====++++====++++====",
"++++====++++====++++====++++====++++====++++====++++====++++===="
};
