/* XPM */
static char *xpm_[] = {
/* columns rows colors chars-per-pixel */
"64 64 223 2 ",
"   c #110E0B",
".  c #14110D",
"X  c #18190B",
"o  c #161412",
"O  c #1B1614",
"+  c #1D1A15",
"@  c #1B1C1D",
"#  c #221B16",
"$  c #241E1B",
"%  c #1E220B",
"&  c #23280D",
"*  c #2C3609",
"=  c #2C320D",
"-  c #333C0C",
";  c #252615",
":  c #2A2F14",
">  c #26251D",
",  c #2C221E",
"<  c #2A2B1C",
"1  c #312C1D",
"2  c #2E3314",
"3  c #2E331B",
"4  c #343B13",
"5  c #343917",
"6  c #343A1B",
"7  c #1B2021",
"8  c #272423",
"9  c #2B2623",
"0  c #2C2C24",
"q  c #2D2B2B",
"w  c #332622",
"e  c #322A25",
"r  c #382A26",
"t  c #322D2C",
"y  c #3B2C29",
"u  c #2E3226",
"i  c #2F3029",
"p  c #373726",
"a  c #363B22",
"s  c #34322C",
"d  c #3B332C",
"f  c #3C3B2D",
"g  c #2C2E32",
"h  c #312F33",
"j  c #27353B",
"k  c #343234",
"l  c #3A3534",
"z  c #3C3A34",
"x  c #35343A",
"c  c #3A363B",
"v  c #353B38",
"b  c #3C3B3B",
"n  c #402F2B",
"m  c #413A27",
"M  c #42332E",
"N  c #4A3632",
"B  c #433933",
"V  c #4E3A35",
"C  c #423C3B",
"Z  c #513B37",
"A  c #533E39",
"S  c #36430B",
"D  c #39440E",
"F  c #3C5005",
"G  c #3A4413",
"H  c #3C431D",
"J  c #3D4818",
"K  c #3D4323",
"L  c #3D412C",
"P  c #3F492A",
"I  c #3E4233",
"U  c #3E423C",
"Y  c #414E0C",
"T  c #44530E",
"R  c #465A0D",
"E  c #485A0A",
"W  c #4A5D0D",
"Q  c #414D15",
"!  c #444D1D",
"~  c #455314",
"^  c #495715",
"/  c #465816",
"(  c #4B5C14",
")  c #46521C",
"_  c #4A551C",
"`  c #4D5B1B",
"'  c #525E16",
"]  c #515D1C",
"[  c #4B6106",
"{  c #4D620C",
"}  c #51640D",
"|  c #51680A",
" . c #4D6112",
".. c #4E611C",
"X. c #526513",
"o. c #546913",
"O. c #53621C",
"+. c #414424",
"@. c #444D24",
"#. c #41442C",
"$. c #444B2B",
"%. c #484C28",
"&. c #465323",
"*. c #4A5523",
"=. c #4D5A23",
"-. c #46512A",
";. c #4B542C",
":. c #4E5B2B",
">. c #525E23",
",. c #525E2B",
"<. c #424433",
"1. c #454B34",
"2. c #494C35",
"3. c #43433B",
"4. c #49443A",
"5. c #454B3A",
"6. c #4B4C3C",
"7. c #56413B",
"8. c #59423D",
"9. c #50483A",
"0. c #4B5233",
"q. c #4E5932",
"w. c #4C523C",
"e. c #4F583C",
"r. c #545935",
"t. c #535C34",
"y. c #51553C",
"u. c #535B3C",
"i. c #4F6023",
"p. c #536223",
"a. c #53622A",
"s. c #596529",
"d. c #596439",
"f. c #2E3D42",
"g. c #393740",
"h. c #323B40",
"j. c #3D3C43",
"k. c #3D3E48",
"l. c #413E42",
"z. c #413E49",
"x. c #3C4345",
"c. c #3F4149",
"v. c #3A494B",
"b. c #444344",
"n. c #494644",
"m. c #464A44",
"M. c #4B4C45",
"N. c #45444C",
"B. c #49464C",
"V. c #46494B",
"C. c #4B4A4C",
"Z. c #5E4641",
"A. c #5A4943",
"S. c #504D4C",
"D. c #4D5343",
"F. c #4E5A42",
"G. c #4D534B",
"H. c #515443",
"J. c #535B44",
"K. c #5A5847",
"L. c #52534D",
"P. c #555B4C",
"I. c #595B4B",
"U. c #454551",
"Y. c #4A4652",
"T. c #474952",
"R. c #4C4C53",
"E. c #454A59",
"W. c #4D4D5A",
"Q. c #514E52",
"!. c #504E5C",
"~. c #4E5155",
"^. c #4E515B",
"/. c #545354",
"(. c #585656",
"). c #545C52",
"_. c #5B5B55",
"`. c #53535D",
"'. c #59565D",
"]. c #55595B",
"[. c #5C5B5C",
"{. c #604742",
"}. c #634A45",
"|. c #664D48",
" X c #685C4E",
".X c #695A55",
"XX c #605E5E",
"oX c #5B6144",
"OX c #58644A",
"+X c #5B634D",
"@X c #5D6753",
"#X c #5D615C",
"$X c #61654D",
"%X c #616C54",
"&X c #61625D",
"*X c #6A6D58",
"=X c #78615A",
"-X c #647257",
";X c #67755B",
":X c #545562",
">X c #535466",
",X c #585763",
"<X c #565963",
"1X c #595A66",
"2X c #5A5C65",
"3X c #575B68",
"4X c #5A5D69",
"5X c #5C5E6A",
"6X c #615E60",
"7X c #605F6B",
"8X c #5D6166",
"9X c #5E616A",
"0X c #5E616B",
"qX c #5F6170",
"wX c #636263",
"eX c #61626C",
"rX c #717F65",
"tX c #636271",
"yX c #89776F",
"uX c #7A886D",
"iX c #8F8A7A",
"pX c #A48677",
"aX c #BD9789",
/* pixels */
"(.(.M.;.o.,.2X9X9X9X5X3X5X3X<X:XR.T.3.3.R.E.W.W.^.:X3X5X2X2X5X2X:X(.G.b t k b.Q.S.Q.Q././.'.[.6X6X[.6XwX6XXX6X'.L.B d l B.(.(./.",
"/.L.9.] { =.[.eX8X5X9X5X3X5X5X<X^.T.C l.U.Y.W.Y.U.N.T.R.R.T.N.z.b.%.P L f m n.C.B.Q.Q.Q./.Q.(.'.XX6X6XXXwX'.XX[.L.c s f n.L.S.(.",
"/.S.1.` W =.2XwX2X9X9X5X5X5X1X3X<XW.3.k c b g.c C k t h t k k k I ~ ^ ` ' @.3.V.B.Q.Q.Q.Q.Q./.(.'.&XXXXX6XXXXXXX(.C p K <.S.L.(.",
"S.y.;.` &.D.2X9X9X5X9X5X5X5X5X<X].C.! +.l l l C l.C l.b.B.R.Q.(.^.OXoXp.W ^ 3.C.M.B.R.C.Q.Q.Q./.(.'.XX'.XXXXXX'.(.<.@.T %.S.S.S.",
"B.y.O.W ) V.2XwX9X9X5X5X5X1X5X<X3X/.-.@.3.C.W.^.`.:X'.,X5X7XeXtXeXeX8Xt.^ &.4.M.C.R.B.Q.R.Q.Q.Q././.[.'.[.XXXX'.(.0.` ~ <.n.C.S.",
"V.4.;._ / 0.`.eX0X5X5X5X5X5X5X3X<X`.6.` H.:X<X<X'.2X2X1X2XeXeXeXeXeX8XoX=.^ %.B.B.B.S.C.S.S.R.Q.Q.Q./.(.(.(.(.(.[.s.[ W #.4.B.n.",
"V.3.B @.~ -.(.9X9X9X9X5X5X5X5X1X5XP.=.X.y.!.].:X:X:X<X<X1X9XeX8XeXtXeXoXO.W *.n.n.B.B.Q.C.C.R.S.Q.Q.Q./.(.(.(.'.(.t.W ~ <.C B.n.",
"b.B @.) ) m.`.8X9X5X5X5X5X5X5X5X5XI.( } 0.!.`.:X<X,X3X,X5X7XeX7XeX8X8XJ.O.( ;.b.n.b.B.B.M.V.C.C.R.S.C.Q.(.(.(.(.(.H.P ! f C b.n.",
"l K T ~ %.M.`.9X5X0XeX5X5X5X5X5X3X].;.*.5.R.`.:X<X].3X<X5X9X0X0X9X5X#X:.R X.-.b.b.l.b.B.n.B.B.C.C.B.B.M.n.C b.b.4.1.! Y Q #.z l ",
"l <.@.` W *.).eX9X5X5X5X5X5X5X5X1X~.1.~ $.T.`.`.3X:X<X<X5X9X5X0X8X9X@X,.R { @.z l l l l b C l.C b.b.b.k B ! +.K ^ ' _ _ ^ ^ +.b ",
"b.b.4.>.{ =.[.eX8X2X8X5X5X9X1X2X5X].=.R $.Y.'.<X:X<X'.5X0X3X8X2X5X9X8Xw.] =.#.s t h t t t t q t d K L ! / }  .( [ [ p.5.0.,.5.n.",
"'.'.M.w.O.:.2XeXeX2X5X5X5X2X[.2X3X].=.X.$.n.^.^.:X`.^.`.:X:X:X`.`.^.`.V.2.0.b.l.3.C l l c C g.c 3.*._  .=.` ` ` { | a._.eX7X1X6X",
"eXeX'.C.,.&.L.).).oXG.G.L.t.a.D.G.w.( {  .=.;.:.1.U 1.<.<.3.b.U -.=.2.I m.M.`.'.'.(.N.l Q.'.:X(.`.y.W =.m.~.).P.p.O.t.5XeXeXeXeX",
"wXeX1XW.9.*.^ ` .. .` .. .X.[ ( / / / ( { { [ { ` K ) _ ' ^ _ ) ^ { X.&.B.:X2X<X!.:XY.l.:X5X,X:X`.D.! 1.V.:X:X].p.} ,.1XeXeX7XeX",
"5X9XeX'.y.( ` p...[ ( X.X.O./ `  .R { ( O.=.;.i.0.3.3.-.} ] 0.m.q.a.w.M.`.:X:X`.`.`.N.n.!.eX1X:X`.C.z C V.~.`.(.,.` u.5X5XwX2X8X",
"0X0X5X<XG.&.e._.).u.H.I.oX].P.P.d.a.a.X.s./.(.`.'.'.].r.( =.x.V.R.C.W.^.'.:X'.:X`.`.z.3.Q.6X1X!.W.B.c j.B.^.^.R.b I Q.:XeX8X2X2X",
"0X8X5X<Xw.! M.5X0XeX0XeX9XtXtXeXeXeX&X+X#X2X<X<X:X:X_.p.[ / x.T.U.C.R.^.`.:X`.`.(.!.z.l.R.1X:X:X:XN.x b U.T.W.C.c k R.1X7X5X5X2X",
"0X5X5X`.1.H B.7X0X0X0XeX0XeXtXeXeXeX9X2X<X<X:X`.^.:X/.a.( &.b.N.U.N.`.:X`.R.`.^.W.R.z.b B.3X:X`.W.B.C l.N.T.W.W.c t N.:X6X4XeX7X",
"5X5X9X:Xz t N.1X0X0X9X9XtX0X9X0XeX8X2X<X`.:X:X`.^.^.R.D._ $.b.N.N.Y.`.`.W.R.`.W.!.^.1.P C.<X2X:X^.B.n.z.x.C.T.Y.c h n.'.5XeX5X7X",
"eX5X5X!.k t B.1X0X0X0X0XqX9X9XeX9X1X1X:X<X`.`.`.^.W.G.:. .-.c.N.B.E.R./.R.R.R.W.^.C.=.( D.'.3X^.W.B.<.b k.c.N.k.x l Y.:X9X2X2X7X",
"0X2X5X^.l m M.2X9X9X0X0X9X0X9X9X<X:X:X:X`.:X>X`.^.^.e. .o.U k.N.c.W.N.k.z k x j.V.Y.2._ 6.`.,X:X^.6.*.%.j.j.c.c.x k Y.`.2X5X9X2X",
"5X2X5XR.#.*.M.2X0X5X0X0X9X9X9X3X<X<X:X:X>X^.^.^.W.^.M.*._ I k.c.N.V.k.g o O O 8 x k.I / 0.n.C.R.R.q.} ( U h.x.v k b R.'.:X<X1X2X",
"3X5X5X~.*./ M.`.:X:X<X[.].:X:X/.^.~.~.^.W.^.^.W.E.W.U.<._ ) U x g.k i > + O O $ 8 0 3 4 6 m 6 m v ) { ..<.x x x c b U.!.^.^.:X].",
"^.:X3XG.=.( *.1.1.$.=.a.$.1.;.p.:.J $.U b g.g.j.b j.g.U _ _ f k q ; ; < y n y 9 ; % % % % & % # : Q O.p.@.b x j.b.C R.^.^.>X:X`.",
"`.`.:XG...[  .` ` / { } ` ! ` { .._ =.! z l l l l l c l #.4.B C q +   w N Z A n # . . . . . . . 9 <.P./._.2X].,X`.b N.W.W.^.^.^.",
"^.^.^.~.*.R *.F.J.J.d.d.P.P.w.:.D.V.D.6.b z V././.(./.B.z z C C.b >   # $ M A N n 1 w w w n w w w t c Q.5XtXeXeX2XC l W.W.^.`.^.",
"!.^.^.U.#.~ &.G.`.`.:X<X[.].Q.R.T.T.N.x.f U ].9X7X7XeX`.b z n./.b.8     O w A Z.A Z Z Z Z Z Z Z y $ @ b ,X2X8X5X2Xn.z N.W.W.^.`.",
"^.W.W.m.#./ *.P.~././.L.a.,.M.b.l.k.x u = u x x.j.B.`.,Xb.b b b t 9 , , , N 8.Z.8.A 8.7.A 8.8.A V y w h b R.2X1X2XR.C z.R.R.W.^.",
"E.R.B.0.( { ` ,.;.;.$.i.{ | >.z #.$.a & X   o o o 9 B.:Xb.z t $ # n Z Z A 8.{.Z.8.Z.}.{.}.8.}.8.A A M , @ b :X<X<XW.l.b M.G.R.G.",
"2.<.<.=.o.{  .{ R ( T W [ { ] ^ R T G a s u < u s z b.z.k 9 w $ w N 8.8.{.{.{.{.Z.}.Z.{.Z.8.}.Z.A N y w q x.].#X+X).n.&.` &.5.:.",
"o.=.] X.X.W } }  .{ [ ( ..O.p.{ F * < D.;X@XF.F.;X#Xv @ o o , y N Z 8.{.{.{.}.}.}.}.}.}.}.8.}.}.A w $ t U q.u.a.o.a.r.` [ ( / ) ",
"{ _ X.{  . .{ ` p.` X.a.u.w.6.@.D : u +XuXuX-XuXuXrX1.+ + + r V 8.8.{.{.{.}.|.|.}.}.|.|.}.}.}.|.A w # 3 J W W { [ o. .{ / J &.^ ",
"s.y.r.a.t.d.s.J.I.I.d.oXP.~.U 0 3 I e.%XuX;X;X;XuX;XI.5.<.B 7.8.{.{.}.{.{.}.}.{.{.{.{.{.{.{.{.}.{.Z n 1 2 D / ( } o. .X.;.C 1.a.",
"*XwXwX&X#X XI.L.L.Q.G.G.V.M.k + 0 D.%X-X-X-X%X%X+X%X%X$X X}.|.|.|.|.}.}.}.{.{.{.Z.{.Z.{.}.}.}.}.}.}.A 1 . i :. .[ { o.s._.[.6X&X",
"wXwX[.'._.n.k k h t i k t q k f 5.+X-X;X%X+XH.6.y.H.J.I.A.8.}.}.}.|.}.}.{.{.{.Z.{.Z.{.{.}.}.}.}.{.}.A w . h e.( [ ..d.$XXXXXXXXX",
"[.6X_.[.(.l O . o . . . . o u F.@X-X-X-X%XH.B f d M V 8.7.8.8.Z.}.|.|.}.{.Z.{.Z.{.{.8.{.}.|.}.{.{.}.A , o k q. .o.s.#X&XXXXX[.&X",
"XX[.(.M.b 9 O O @ @ @ 7 @ 7 v G.P.).).).).F.m.B r n M N A 8.8.}.}.}.}.{.Z.Z.Z.{.}.}.}.}.}.}.{.{.{.{.A n w y H Y T y.[.XXXXXXXX(.",
"XX[.Q.k @ # # 9 g j j j j j f.v.v.v.v.v.v.G.+XM.B y n M 7.{.|.|.|.{.{.{.Z.Z.{.{.}.|.}.|.}.{.{.{.{.{.{.8.A y + : Q y.[.XXXXXX6XXX",
"6X'.S.q   # w s h.c.E.].T.h.h.h.f.v x.j h.M.P.H.M r y n 7.Z.|.|.}.{.{.Z.Z.Z.Z.{.}.}.|.|.}.{.Z.{.Z.{.{.}.Z.y . & - 0._.XXXX'.(.'.",
"'._.S.q . > M 4.6. XyXiX.Xc k k k k s j k B B B n r y y A Z.Z.Z.{.{.Z.Z.{.Z.{.{.{.}.|.}.}.{.}.}.{.{.{.{.Z.r . & G 6.XX[.[.[.[.XX",
"[.[.S.t o e <.9.9. XpXaX=XM r r r r r r r y r t r r t y N A 7.7.8.8.8.A 7.7.8.8.8.l.|.}.Z.Z.Z.l.8.Z.A.A.7.r X & J 4.XX'.XX[.'.XX",
"S.M.b.d , t z B B 4..X=XA.r w 9 e < < e t t r t t q t t y m m M n M M n m l B C C B V V B C C C C C C C C d 2 - Q 5./._.I.Q.Q.L.",
"f d p i 9 q q 0 0 q t t q 9 9 9 < * * < 8 9 9 q q 0 u 8 8 < 2 < , 9 , = = u h h g h h h g g k k l x x h k k s H ^ ! 0.,.=.z l l ",
"6 Q ! D 6 3 0 , < < < < $ @ > > 2 - 4 * = : 4 5 < * - 2 : < 2 - : 2 : : i k x x h x h x x g c x h x h p u p f +.` ` ] { E a t y ",
"<.2._ / / G - 5 4 6 - 4 > > 5 4 S D H 6 6 6 S G 6 6 D 4 5 5 S S - G D 4 v b b x g.g.c x g h k k s q u 6 D Q ) _ W } a.` ) L k v ",
"T.`.`.J.,.R F %.m.n.5.1.x.b.n.n.5.w.V.T.V.V.w.w.C.m.%.H K I &.J H J D J U c.k.k.j.c k q q q K 6 4 G J K ) ;.w.0.X.} ;.5.m.B.N.C.",
"`.`.<X].w.^ *.P.`.`.:X`.'.:X,X,X<X2X9X5X8X2X3X8X9X8Xu.R J 1.V.m.w.3.P $.1.<.I #.! f k k k l %.-.&.0.D.L.`.].[.r. .o.a.M.W.R.!.`.",
":X'.'.Q.=.( ( ).2X`.`.`.:X2X].2X2XeXeXeXeX0X0X9X9X9X].=. .*.C.R.W.V.3.=.( R ) / q.M.~./.`.`.<X2X#X9XeXeXqX5X2Xt.[ [ O.D.R.!.W./.",
"2X,X`.L.%.^ ,.).:X'.`.<X<X,X:X1X0XeXeXeXeX0X0X5X5X5X3Xw.~ ~ M.W.W.W.m.*.{ ( 0.H.].<X3X8X9X5X5X5X5X5X5X5X3X3X#Xq. .o.>.M.~.`.`.`.",
"<X2X2X0./ @.D.:X:X`.:X<X:X1X,X2X0X0XqX0X0X0X5X0X5X0X>XM.&.+.m.W.W.R.N.$.*.w.L.:X^.:X`.^.<X5X5X5X3X3X2X1X<X<X<X~.:...,.D.R.^.`.`.",
"`.:X'.5.~ ~ D.^.`.^.`.:X:X:X,X5XeXeX0X0X0X0X0X0X9X0X<XF.&.K 1./.^.R.b.) ! ~.^.^.^.`.>X^.:X5X5X5X9X3X8X2X3X1X<X:X0.{ o.6.C.T.R.!.",
"^.`.(.0./ ) D.`.`.>X:X<X<X1X1X5X0XtX0XqXqX0X0X0X3X0X].G.@.~ &./.~.V.C +.#.R.^.^.^.:X:X^.`.<X5X9X9X3X5X5X5X2X2X^.5.=.,.n.Y.T.Y.R.",
"`.W.J.` =.5.~.>X^.:X:X:X:X<X5XeX0X0X5X5X0X5X5X5X3XqX3X^.3.@.<.T.W.N.j.x C Y.W.^.^.^.:X:X:X:X:X5X5X5X2X5X5X1X3X~.0.&.U B.V.N.R.W.",
"W.Q.r. .T =./.`.^.:X`.:X<X5X9X9X0X0X5XqX5X5X5X2X8X3X8X^.z.z z N.E.T.j.l c B.!.~.^.:X:X:X:X`.:X<X5X9X2X5X5X5X5XG.` _ b z.Y.E.Y.R.",
"G.L.,.| R ;.~.`.`.:X:X:X,X5X9X9X5X5X5X5X5X5X5X3X3X<X9X`.n.L #.N.T.T.k.x l B.W.:X:X`.:X:X1X:X:X:X<X5X5X9X2X5X3X].0.$.v b.U.U.T.!.",
"E.T.2.` ` *.C.W.W.W.!.W.:X9X5X9X5X0X5X5X5X5X5X5X3X5X3X].q./ ^ 3.R.U.k.x l b.!.!.`.:X:X:X:X:X<X<X`.1X5X1X5X5X5X<XB.b x j.U.U.C.R.",
"B.2.*... . .3.b.c.k.l.z.N.:X1X:X1X5X2X2X,X1X3X3X:X`.R.B.*.[ W I b.N.j.c f b.W.!.^.'.:X:X:X'.`.'.`.:X5X2X5X5X5X2XR.z k g.N.N.N.T.",
"I ] W } o.W $.C C z c c b N.U.N.N.N.N.N.m.n.b.5.x.$.) K ) ` ! @.k h x L ! 1.R.`.`.'.`.'.:X`.`.`.`.`.`.<X3X3X3X:XR.b l.g.k.k.j.b ",
"z $.] s.O.;.H.n.b.N.V.b.l k h k l h l z _ ) @.Q ! / _ _ ~ ! _ ` p t s ! } ` M.T.C.R.C.L.R.R.E.T.V.B.b.N.V.V.E.B.3.<.C c k s t l ",
"n.m.D.` { :.P.2X5X1X2X_.B.C c z C z f 4.,.q.6.e.r.u.H.u.:.w.J.J./.R.V.@.' O.&.*.*.-.` ' <.b b b j.j.3.$.%.@.@.! ~ K f l f l b B ",
"/.XXoXX.E ..+XeX5X5XeX5X1X'.`.`.`.n.C R.[.].2X1X2X5XeX7X&XwX9XeXeXeX_.-.) ! _ X.{ ^ ( { _ ! m c #._ >.' W R  .R ) f s z C 4.S.L.",
"&X_.I.O.{ ;.#XeX0X1X1X1X5X5X:X:X:XW.b R.^.^.`.5X5X5XeXeX9X9X9X0X9X9X+X..W Q <.,.( ;.0.r.4.$.4.A 1.=.:.>.] O...( &._ +.C Q.[.(.[.",
"_.(.H.] { t.5XtX0X5X5X<X1X<X:XE.W.R.l.T.W.^.^.:X2X5X1XeX9X3X9X5X9X9X_.O.( %.M.K.L.D.L.(./.C./.S.L.wX/.$XI.XXI.$XL.#.d C /.[.[.(.",
"(.(.S.] } s.2XtXeX5X5X<X5X5X:XW.W.R.C B.W.R.^.^.`.5X5XeX9X9X9X1X9X9X,X5.#.z n.S.Q.Q./.(.[.wXwXwXXXwXwXwXwX6X&X6X/.z s B Q.(.(.[."
};
