/* XPM */
static char *result[] = {
/* columns rows colors chars-per-pixel */
"64 64 15 1 ",
"  c black",
". c #FFD454",
"X c #FFDF8F",
"o c #1B6894",
"O c #237CB0",
"+ c #F57AF5",
"@ c #0096ED",
"# c #4EB6F2",
"$ c #76BEE8",
"% c #FFEBBD",
"& c #F0C4A3",
"* c #FCAEFC",
"= c #A3D4F0",
"- c #D2EBFA",
"; c white",
/* pixels */
"****++++****++++****++++****++++****++++****++++****++++****++++",
"****++++****++++****++++****++++****++++****++++****++++****++++",
"................................................................",
"................................................................",
"%%%%%%%%%%%%XX..%%%%%%%%%%%%%%%%%%%%%%%%%%%%XX..%%%%%%%%%%%%%%%%",
"%%%%%%%%%%%%XX..%%%%%%%%%%%%%%%%%%%%%%%%%%%%XX..%%%%%%%%%%%%%%%%",
"%%%%%%%%%%%%XX..%%%%%%%%%%%%%%%%%%%%%%%%%%%%XX..%%%%%%%%%%%%%%%%",
"%%%%%%%%%%%%XX..%%%%%%%%%%%%%%%%%%%%%%%%%%%%XX..%%%%%%%%%%%%%%%%",
"%%%%%%%%%%%%XX..%%%%%%%%%%%%%%%%%%%%%%%%%%%%XX..%%%%%%%%%%%%%%%%",
"%%%%%%%%%%%%XX..%%%%%%%%%%%%%%%%%%%%%%%%%%%%XX..%%%%%%%%%%%%%%%%",
"XXXXXXXXXXXXXX..XXXXXXXXXXXXXXXXXXXXXXXXXXXXXX..XXXXXXXXXXXXXXXX",
"XXXXXXXXXXXXXX..XXXXXXXXXXXXXXXXXXXXXXXXXXXXXX..XXXXXXXXXXXXXXXX",
"................................................................",
"................................................................",
"++++****++++****++++****++++****++++****++++****++++****++++****",
"++++****++++****++++****++++****++++****++++****++++****++++****",
"****++++****++++****      **++++****++      ++++****++++****++++",
"****++++****++++****      **++++****++      ++++****++++****++++",
"..................  ;;;;;;            ;;;;;;  ..................",
"..................  ;;;;;;            ;;;;;;  ..................",
"%%%%%%%%%%%%XX..%%  ;;;;;;;;;;;;;;;;;;;;;;;;  ..%%%%%%%%%%%%%%%%",
"%%%%%%%%%%%%XX..%%  ;;;;;;;;;;;;;;;;;;;;;;;;  ..%%%%%%%%%%%%%%%%",
"%%%%%%%%%%%%XX..%%  ;;;;&&&&&&&&&&&&&&&&;;;;  ..%%%%%%%%%%%%%%%%",
"%%%%%%%%%%%%XX..%%  ;;;;&&&&&&&&&&&&&&&&;;;;  ..%%%%%%%%%%%%%%%%",
"%%%%%%%%%%%%XX..%%  ;;&&&&&&&&&&&&&&&&&&&&;;  ..%%%%%%%%%%%%%%%%",
"%%%%%%%%%%%%XX..%%  ;;&&&&&&&&&&&&&&&&&&&&;;  ..%%%%%%%%%%%%%%%%",
"XXXXXXXXXXXXXX..XX  --&&&&  &&&&&&&&  &&&&--  ..XXXXXXXXXXXXXXXX",
"XXXXXXXXXXXXXX..XX  --&&&&  &&&&&&&&  &&&&--  ..XXXXXXXXXXXXXXXX",
"..................oo--==&&  &&&&==&&  &&&&--oo..................",
"..................oo--==&&  &&&&==&&  &&&&--oo..................",
"++++****++++****$$oo--====&&&&========&&==--oo$$++++****++++****",
"++++****++++****$$oo--====&&&&========&&==--oo$$++++****++++****",
"****++++****++$$$$oo----================----oo$$$$**++++****++++",
"****++++****++$$$$oo----================----oo$$$$**++++****++++",
"..............$$ooOOOO--------------------OOOOoo$$..............",
"..............$$ooOOOO--------------------OOOOoo$$..............",
"%%%%%%%%%%%%$$$$oo==OO@@@@@@@@@@@@@@@@@@@@OO==oo$$$$%%%%%%%%%%%%",
"%%%%%%%%%%%%$$$$oo==OO@@@@@@@@@@@@@@@@@@@@OO==oo$$$$%%%%%%%%%%%%",
"%%%%%%%%%%%%$$$$oo==OO@@@@@@@@@@@@@@@@@@@@OO==oo$$$$%%%%%%%%%%%%",
"%%%%%%%%%%%%$$$$oo==OO@@@@@@@@@@@@@@@@@@@@OO==oo$$$$%%%%%%%%%%%%",
"%%%%%%%%%%%%$$$$oo==@@@@@@@@@@@@@@@@@@@@@@@@==oo$$$$%%%%%%%%%%%%",
"%%%%%%%%%%%%$$$$oo==@@@@@@@@@@@@@@@@@@@@@@@@==oo$$$$%%%%%%%%%%%%",
"XXXXXXXXXX$$$$$$oo==@@@@@@@@@@@@@@@@@@@@@@@@==oo$$$$$$XXXXXXXXXX",
"XXXXXXXXXX$$$$$$oo==@@@@@@@@@@@@@@@@@@@@@@@@==oo$$$$$$XXXXXXXXXX",
"..........$$$$$$$$oo@@@@@@@@@@@@@@@@@@@@@@@@oo$$$$$$$$..........",
"..........$$$$$$$$oo@@@@@@@@@@@@@@@@@@@@@@@@oo$$$$$$$$..........",
"++++****$$$$$$$$$$oo########################oo$$$$$$$$$$++++****",
"++++****$$$$$$$$$$oo########################oo$$$$$$$$$$++++****",
"****++++$$$$$$$$$$oo########################oo$$$$$$$$$$****++++",
"****++++$$$$$$$$$$oo########################oo$$$$$$$$$$****++++",
"..........$$$$$$$$oo######oooooooooooo######oo$$$$$$$$..........",
"..........$$$$$$$$oo######oooooooooooo######oo$$$$$$$$..........",
"%%%%%%%%%%$$$$$$$$oo######oo$$$$$$$$oo######oo$$$$$$$$%%%%%%%%%%",
"%%%%%%%%%%$$$$$$$$oo######oo$$$$$$$$oo######oo$$$$$$$$%%%%%%%%%%",
"%%%%%%%%%%%%$$$$$$$$oooooooooooooooooooooooo$$$$$$$$%%%%%%%%%%%%",
"%%%%%%%%%%%%$$$$$$$$oooooooooooooooooooooooo$$$$$$$$%%%%%%%%%%%%",
"%%%%%%%%%%%%XX$$oooooooooooooooooooooooooooooooo$$%%%%%%%%%%%%%%",
"%%%%%%%%%%%%XX$$oooooooooooooooooooooooooooooooo$$%%%%%%%%%%%%%%",
"XXXXXXXXXXXXXX$$$$oooooooooooooooooooooooooooo$$$$XXXXXXXXXXXXXX",
"XXXXXXXXXXXXXX$$$$oooooooooooooooooooooooooooo$$$$XXXXXXXXXXXXXX",
"................$$$$$$$$$$$$$$$$$$$$$$$$$$$$$$$$................",
"................$$$$$$$$$$$$$$$$$$$$$$$$$$$$$$$$................",
"++++****++++****++++****++++****++++****++++****++++****++++****",
"++++****++++****++++****++++****++++****++++****++++****++++****"
};
