/* XPM */
static char *xpm_[] = {
/* columns rows colors chars-per-pixel */
"64 64 239 2 ",
"   c #0F0E0A",
".  c #110E0B",
"X  c #14120D",
"o  c #1A1C0C",
"O  c #151411",
"+  c #1A1613",
"@  c #1C1914",
"#  c #1D1B1A",
"$  c #2B1613",
"%  c #241B16",
"&  c #241D1A",
"*  c #281D19",
"=  c #1E2214",
"-  c #262B0C",
";  c #2F380D",
":  c #292A16",
">  c #26211D",
",  c #2B211D",
"<  c #31241E",
"1  c #2C3216",
"2  c #343B13",
"3  c #323718",
"4  c #1F1F20",
"5  c #211F21",
"6  c #242324",
"7  c #2C2523",
"8  c #282928",
"9  c #2C2B2B",
"0  c #332522",
"q  c #382723",
"w  c #342A26",
"e  c #3B2A26",
"r  c #332D2B",
"t  c #3C2E2A",
"y  c #2E312A",
"u  c #353725",
"i  c #34332C",
"p  c #3C322D",
"a  c #3C3C2D",
"s  c #2E2D31",
"d  c #312E31",
"f  c #2E3235",
"g  c #343333",
"h  c #3A3534",
"j  c #3C3A34",
"k  c #35353A",
"l  c #3A363B",
"z  c #353A3C",
"x  c #3C3A3B",
"c  c #50221A",
"v  c #422D29",
"b  c #5D2F27",
"n  c #43322E",
"m  c #48352E",
"M  c #433531",
"N  c #4B3632",
"B  c #443A35",
"V  c #4D3935",
"C  c #413D3D",
"Z  c #4A3E39",
"A  c #513A35",
"S  c #5B3C37",
"D  c #553E39",
"F  c #74342A",
"G  c #713B33",
"H  c #39450C",
"J  c #3E471C",
"K  c #3D4323",
"L  c #3E4329",
"P  c #3E4137",
"I  c #44540E",
"U  c #465B0A",
"Y  c #4A5D0D",
"T  c #414D14",
"R  c #434D1D",
"E  c #455415",
"W  c #485715",
"Q  c #4C5C14",
"!  c #46531C",
"~  c #4A551B",
"^  c #4C5B1B",
"/  c #515F14",
"(  c #515D1D",
")  c #4B6106",
"_  c #4D620C",
"`  c #51640D",
"'  c #51680A",
"]  c #4D6112",
"[  c #4E611B",
"{  c #526513",
"}  c #546913",
"|  c #53621D",
" . c #434726",
".. c #434C24",
"X. c #41442C",
"o. c #454B2A",
"O. c #465322",
"+. c #4A5524",
"@. c #4D5A23",
"#. c #4B542B",
"$. c #4E5B2B",
"%. c #525E23",
"&. c #525E2B",
"*. c #434333",
"=. c #464B35",
"-. c #484C35",
";. c #44423C",
":. c #4A433C",
">. c #454B3B",
",. c #4A4B3D",
"<. c #54423C",
"1. c #5B423D",
"2. c #4B5333",
"3. c #4F5936",
"4. c #4D533D",
"5. c #535D34",
"6. c #53583A",
"7. c #68433C",
"8. c #75463D",
"9. c #4F6023",
"0. c #536323",
"q. c #57642A",
"w. c #586339",
"e. c #3D3C42",
"r. c #393E46",
"t. c #413E43",
"y. c #413F4A",
"u. c #3E434A",
"i. c #3F4A51",
"p. c #444245",
"a. c #4A4544",
"s. c #454A45",
"d. c #4B4B45",
"f. c #44444B",
"g. c #49464B",
"h. c #46494C",
"j. c #4C4A4C",
"k. c #5E4641",
"l. c #534C43",
"z. c #5A4A45",
"x. c #514D4D",
"c. c #4D5143",
"v. c #4E534B",
"b. c #525443",
"n. c #545B44",
"m. c #595847",
"M. c #53534C",
"N. c #555A4D",
"B. c #595C4B",
"V. c #464651",
"C. c #494753",
"Z. c #454B53",
"A. c #4C4C53",
"S. c #4D4D59",
"D. c #514E52",
"F. c #514F5C",
"G. c #4C5155",
"H. c #45525B",
"J. c #4C525B",
"K. c #545354",
"L. c #585656",
"P. c #555A52",
"I. c #5A5B55",
"U. c #53545D",
"Y. c #59565B",
"T. c #55595B",
"R. c #5C5B5C",
"E. c #634641",
"W. c #634A45",
"Q. c #6A4D47",
"!. c #764B45",
"~. c #69524C",
"^. c #73534D",
"/. c #675953",
"(. c #605E5E",
"). c #785C54",
"_. c #5B6248",
"`. c #5D6157",
"'. c #61654D",
"]. c #656758",
"[. c #796259",
"{. c #6A755D",
"}. c #4D5761",
"|. c #545662",
" X c #575865",
".X c #555A64",
"XX c #5A5C65",
"oX c #555769",
"OX c #5A5D69",
"+X c #5C5E6A",
"@X c #615E60",
"#X c #605F6C",
"$X c #546067",
"%X c #5D6065",
"&X c #56626A",
"*X c #5E616B",
"=X c #636263",
"-X c #6B6765",
";X c #61626C",
":X c #75756B",
">X c #636371",
",X c #86392D",
"<X c #8A473B",
"1X c #8F544A",
"2X c #975548",
"3X c #865853",
"4X c #A15C59",
"5X c #83655C",
"6X c #88675E",
"7X c #986359",
"8X c #A3685A",
"9X c #8C6C62",
"0X c #917166",
"qX c #98766A",
"wX c #9E7C71",
"eX c #AC766B",
"rX c #A47D72",
"tX c #79836D",
"yX c #99877A",
"uX c #AB8578",
"iX c #B5877A",
"pX c #B3917F",
"aX c #8E8782",
"sX c #B78E81",
"dX c #A6968B",
"fX c #BA9384",
"gX c #B7A697",
"hX c #C4988A",
"jX c #CA9C8E",
"kX c #CC9F91",
"lX c #CCA393",
"zX c #C3A896",
"xX c #D3A596",
"cX c #D6A99A",
"vX c #DBAD9D",
"bX c #C9B7A8",
"nX c #D6B7A8",
"mX c #E3B4A4",
"MX c #D6C3B4",
/* pixels */
"L.L.d.#.} &.XX&XXX;X+X+X+X X X|.S.j.C a.C.Z.S.S.S.|.OX+X XOXOXOXY.L.v.x i g p.j.j.D.D.K.Y.K.Y.(.(.(.@X@X@X@X@XR.D.B p h j.L.K.L.",
"K.M.,.^ _ @.XX;XXX+X+X+X+XOX X XJ.C.C e.V.Z.S.C.C.V.A.Z.S.C.g.y.p...J P a B a.j.j.x.D.D.K.D.Y.R.(.(.@X@X@X(.R.R.M.l i i :.M.K.L.",
"K.M.-.( _ @.XX=X%X+X*X*X+X+XOX X|.S.C i l C e.l C g r d r g g h P E U ^ ^ O.;.j.g.A.D.D.D.D.K.Y.R.R.(.R.@X(.(.(.K.x a  .*.D.x.L.",
"x.4.#.W O.c.XX*X%X+X*X+XOX+X+X.XT.v.R  .g h g B t.x t.p.g.A.A.K.T.N._.@._ E ;.j.g.j.x.A.D.D.D.K.K.R.@XR.R.(.R.R.L.*.R I o.d.x.x.",
"g.4.| Y O.d. X%X*XOX+X+X+XOXOX X+XG.+...;.x.S.U.U.|.|. X#X#X>X>X;X;X%X5.W ! -.g.j.j.j.j.A.D.D.D.D.Y.Y.R.R.R.R.R.I.2.! E X.a.j.x.",
"j.:.+.~ W >.L.;X*X%X*X+X+X+X*X X XU.>.@.b.|.|. XY. X X XXX;X;X;X;X;X%X_.@.~ ..g.g.g.j.D.j.x.D.A.D.D.K.Y.L.L.L.Y.R.q._ U X.a.a.d.",
"g.C B ..E #.K.;X*X*X+X+XOX*XOXOX+XN.@./ 4.F.U.|. X|.|.U.j.Z.D.A. X*X;X_.( H R C g.g.j.j.j.j.j.x.D.D.D.K.Y.L.L.L.I.5._ E *.C f.a.",
"p.*. .! ! ,.U.&X*X*X+X+X+X&X+XOX+Xm.Q ` 3.S.|.|. X X Xg.g 8 8 s p.%X%Xn.E ; : g p.p.g.j.j.g.j.x.A.j.D.x.L.L.Y.K.K.b.O.J M C p.s.",
"g L I E o.d.T.*X+X;X;X+X+XXX#X+X+XT.#.^ >.f.Z.S.S.S.F.e.* . . + h J.I.O.; - o w x t.p.g.s.g.C.j.j.j.j.a.a.;.t.;.:.=.J I T  .h h ",
"g *.O.W Q O.I.%X&X+X+X+X+X+X+X+XXXU.=.J L g 9 s s s s 9 0 , , < 9 s y 1 - < , * & 8 g h x t.t.C p.p.;.j a .. .K W { ~ ~ ~ W  .x ",
"a.a.,.@._ @.R.;X;XXX%X XOX*XXX+X&XU.#.U 3 5 X X X X O % e m m v , + O X % q v * X & 7 9 w r 9 w i K L  .! ` ] ] ) ' ( >.2.&.,.a.",
"|.Y.l.4.[ $.XX;X#XXX+X;X*XXXR. XoXP.! H : 6 * % * % $ 0 N D D D t * % % < m N e * , 6 7 g x e.x ;.+.~ Q @.( @.Q _ _ q.R.%X;XR. X",
";X;XL.d.$.+.M.P.N._.v.v.M.w.&.4.v.2.H o % < v v v v v N D W.W.D A v v v m S 7.N v , + & p.T.U.U.U.3.W @.s.G.P.N.0.{ 5.#X;X;X;X;X",
";X;XXXF.-.+.~ Q [ _ ^ [ ] ] ) Q ! E H = - < e N A A A S k.W.W.W.S D A V D k.Q.t.A t * 7 l C.S.|.U.c.R =.h.|.|.T.0.` &.OX;X;X%X>X",
"*X%X+X|.n.Q [ 0.[ U Q { } | E ^ _ _ Y H 2 * * v D k.t.E.W.W.W.W.W.k.k.k.k.k.W.k.1.D V t 7 s f.|.U.j.j x h.U.U.L.3./ 6.OX%X;X+XXX",
";X+X*X Xd.@.4.I.P.6.b.N._.T.N.N.w.5.@.W J , % M W.W.E.!.W.E.W.W.W.W.W.W.W.W.W.W.W.W.W.V & & k V.Z.f.l t.f.S.J.A.P j D.|.;X%XXXXX",
"*XXX+X X4.R g.XX*X*X*X*X*X>X>X*X-X&Xv.y y t M D W.W.W.W.W.W.W.W.W.W.W.W.W.W.W.W.W.W.W.S t 0 7 s e.f.l l C.S.S.j.l g A.Y.#XOX#XXX",
";X*X+X|.=.J g.*X*X*X*X>X*X;X>X>X;X*Xu.# % N W.z.W.W.W.W.E.W.W.W.W.W.W.E.W.W.W.W.W.W.W.7.N t & @ d t.C e.f.Z.S.S.l r g. X#XOX#X#X",
"*X+X%X|.x r f.OX*X*X*X*X>X*X*X*X;XXXe.+ & N W.W.W.W.Q.E.t.S S S k.k.k.1.1.E.W.W.W.Q.Q.t.A v 0 , 7 9 i l t.f.V.C.l g y.|.;X%XXX#X",
"*XOX+XF.g w f.XX*X*X*X*X*X*X*X>X*XT.x + % N W.W.W.E.Q.t.S S N A 1.k.1.A A k.W.W.W.W.E.S A N v v , + 6 h r.u.f.y.k g C.Y.%XXXXX;X",
"%X+X XJ.h n c.T.OX%X#X#X&X*X*X+XA.e.d & , N 1.E.W.W.W.~.^.^.1.N D k.7.S S S W.W.W.W.W.1.S V v 0 7 > 2 K e.r.u.r.l g C.U.XX+X&X+X",
"+XXX+XA.X.+.d.&X%X+X#X*X%X*X+XU.z 5 * e n m A 1.W.W.W.3XrXrX!.N D W.G F G G W.W.W.W.W.W.E.A 0 @ 9 K U ~ x r.e.e.h x C.T.|.|.XXXX",
"oX*XOXG.O.^ v.U. X|.T.R.Y.|.T.K.k # , e v m N 1.W.~.).qXfXfX6XQ.W.W.Q.<X<X8.Q.W.W.W.W.W.W.D & . : ! ] [ L k k f l x C.F.J.|.|.U.",
"U.|. Xv.@.Q O.=.>.o.@.&.o.>.2.[ K 3 : % * e A S Q.5XrXsXjXjXsXwX5XQ.3XeX8X2XG 7.W.W.W.W.W.A 7 X : ~ | 0.O.e.z e.;.x C.S.F.}.|.U.",
"U.J.|.M.[ _ ] ^ [ I _ { ^ R ^ _ | O.2 X + e A D Q.0XhXjXhXfXkXjXwX).qXhXiX1XF b 7.E.E.E.W.D 0 + i c.P.I.I.XX X|.U.C f.S.S.J.U.U.",
"U.J.J.A.O.U O.n.n.n.w.w.P.N.4.$.c.s.i X % t D E.~.qXhXiX5X5XsXxXsXuXsXxXiX8.c b G S t.7.!.t.N v g h f. X>X;X;X;XOXC l S.S.S.S.U.",
"S.U.J.V.*.I O.M.U.U.|.|.T.T.D.A.j.f.f O & N E.Q.Q.qXhXqXM M wXvXcXkXxXvXuXA $ c F F V D E.E.k.t.w @ g D.#XXX%X*XXXp.j g.S.S.J.|.",
"J.S.S.h.X.E +.N.K.U.P.v.q.&.d.t.g 9 6 , q D Q.^.3XrXjX0Xv v wXmXvXvXvXmXpXA $ c F ,X8.7.E.S N t g d e.U.;X@X%X XXXA.C t.A.A.S.S.",
"C.Z.g.2.Q Y ^ &.#.#.o.@._ ' %.a : @ > v A 1.Q.3XeXeXjXqXN N rXvXmXmXmXmXiXz.$ b ,X2X4X1XE.N 0 @ g A.T.+X*X#X*X+X.XF.e.x d.v.A.v.",
"=.>.*.%.} _ ] _ U U I _ ) ' ^ T ; - : e m <.E.3X8XeXjXuX).).sXmXmXmXmXmXfX9X1.1X2X2X4X3XE.N % X d U.+X+X*X*X$X`._.P.s.+.^ O.>.#.",
"` %.( ` } Y ` ` [ _ _ Q [ | 0.Y U H 2 > < N 1.E.^.qXjXjXsXsXxXmXmXmXmXmXcXhXuXiXeXeX!.E.S N % X y ,.b.G.v.w.5.&.} q.2.^ _ _ ^ ! ",
"_ ~ { Y ] ] _ ^ 0.^ _ &.6.c.b.%._ ] X.8 & t N A E.6XiXjXvXmXmXmXmXmXmXmXmXmXvXjXsX9XW.A V t : o ; ~ ` ^ @.] _ _ _ } ] _ W J O.E ",
"q.6.5.%.5.q.q.m.B.m.w._.L.K.L.6.o.$.x.p.l 7 0 v D ~.5XrXhXvXmXmXmXmXmXmXmXvXkXuX6X^.D m 0 , 1 2 T #.{ 0.0.| Y W ' } _ ] #.*.>.5.",
"].=X=X(.(.].'.I.I.L.L.K.M.M.A.p.p x U.+XZ.8 @ w V D S [.uXjXvXmXmXmXmXmXvXxXiX6X1.D D t % & e.N.I.T.`.R.T.N.q.| ) _ | q.I.].(.(.",
"-X=X@XR.R.Y.Y.I.L.L.K.K.x.x.x.a.j C D.XXY.r.g w 0 m A k.^.9XpXvXmXvXvXvXhX0X^.W.D m 0 w d e.A.%X*X*XXX*X*X$X_.] ) [ w.].(.(.(.(.",
"(.(.I.R.(.R.Y.I.L.K.K.M.x.D.j.a.C h j.#X;XOXJ.d + 0 V n , m 0XxXxXxXcXxXuX<.> n N w + 8 g. X%X;X;X;X+X*X+X`.w.[ } q.`.].(.(.I.(.",
"(.(.R.(.R.R.Y.L.L.L.K.M.x.D.j.g.C h g.+X.Xh.e.w & i z.:.> n 9XzXzXcXlXxXwX:.> n l.B > 8 x h.|.;X;X*X+X+X+X%Xq.' Y 4.R.(.(.(.(.R.",
"(.Y.Y.Y.Y.R.R.L.K.K.K.K.D.D.j.d.C h t. XC.g 6 9 M l.'.b.a V qXgXzXzXzXzXyX1.e 4.].m.B w 6 9 C.%X*X*X%X+XXXXXn.^ ~ b.R.(.(.(.Y.(.",
"R.(.(.R.I.R.Y.K.K.M.x.x.x.j.d.a.a.h t.F.u.5 X 7 C m.{._.:.z.yXbXgXpXpXpXqXW.B _.{.B.:.w + # e.*X*X;X+X+X%XXXv.O.I 2.I.(.I.R.Y.(.",
"Y.R.R.(.R.Y.x.K.K.K.K.j.j.j.d.a.t.*.#.G.e.6 X , n m.{.].d.~.aXbXpX8X7X2X^.1.:._.{.B.B 0 X # f.+X&X&X*X+XXXXXn.^ ~ -.R.R.(.R.R.I.",
"R.R.R.R.Y.Y.D.M.x.D.x.d.j.x.d.g.g.X.+.s.l 5 X * t b.{.].b./.dXnXiX<X<X,XF S l.].{.B.p , @ # r.U..XXXXX%X+X`.0.W ~ :.(.XXR.R.R.I.",
"x.a.a.d.l.D.D.K.D.A.A.j.j.d.a.a.:.+.T u 8 5 * 0 p m.:X{.b./.dXMXlXpX8X<XF S l.].:X_.n w * & 9 l V.XX*X X*X].| Q ~ >.K.I.B.D.D.K.",
"i a B a a ;.D.g.d.d.h.:.g.a.;.p.-./ H o + , e w p B.yX:Xm./.dXMXMXmXiX2XG 7.l.-XtX'.M t e 7 # + z |.OX X.XK.2.+.W R #.%.+.*.l p ",
"3 T E T K a *.B X.X.o.B r h a a ~ ` 2 X + 0 M t i c.tX{.M./.dXnXlXfXiXeX7X~.l.].tX`.p t t w # O f A.G.v.5.>.;.#.| ^ %.Y U u 9 t ",
"*.-.@.I W E E ~ ^ @.W R i u +.E _ _ u O @ r B n n 4.{.].b./.yXgXuX2XeXjXpX].l.'.{.B.p n B p & . 8 P P O.` ( ~ ~ Q { 0.^ ! L g h ",
"C.J.T._.0.{ ] 6.B.L.n.n.K.K.P.K._._.x + # t Z n p :.B.B.l./.yXgXiX2XuXMXgX:Xa.m._.:.w w B h & X - T ^ #.| &.b.2.Q { #.>.s.h.f.C.",
"U.T.T.U.2.~ ^ I.OXXXOX XOXOX+X#X&X;Xy.+ + r Z M t j Z :.Z /.dXbXlXpXzXMXgX[.a.:.:.w @ 7 M M & . 1 2.N.I.XX$X X5.` } 0.c.A.A.U.U.",
"|.T.R.G.#.Y ^ _.|.|.U.U. X|.L. XXX#Xt.# & Z z.z.V M t t B /.aXbXgXgXgXgXdX].Z n e 0 , p z.Z 7 X h  X>X%X#XXXXX&._ ) | c.S.F.F.G.",
"|.|.Y.x...^ &.P.T.|.|.|..X|.|.XX*X%Xu.# w ).uXqX9X~.M t p a.-XaXaXtX:XaX:Xz.h t p 1.).9XwX9XM O k |.OXOXOX XT.w.U } &.d.G.F.U.L.",
" XXX X6.W ..c. X|.U.|.|..X|.|.OX*X*Xp.# h wXlXhXsX[.V t p j f.J.H.H.H.}.Z.C t p M ).uXhXzXuX1.# k |.$X.X.X.X.XJ.q.| 0.d.A.J.|.U.",
"U.|.T.>.E I d.J.U.U.|.|.|.|. X@X;X*XS.e.p./.5X[.)./.g.a.p.h.H.H.H.H.i.}.H.C.h.s.a.z.).).[.).a.g h.|.%XXXOX.X X|.2._ ] 4.j.C.S.D.",
"S.U.L.2.! ~ c.|.U.|.|.|.|. XXX#X;X&XOX Xg.r & % & l J..X$X$X$X$XH.H.}..X$X X}.$XU.u.6 @ & 7 u.U.OXOX*XOXOXXX XJ.>.@.@.g.V.C.C.A.",
"U.S.n.@.@.=.G.U.F.F.|.|.|.|.+X;X*X+X+X#XA.k 6 O   f }.&X&X&X$X}.i.r.u.}.$X$X&X&X.Xz O O # s V.+X*XOXOXOXXXXX XG.2.O.;.f.f.V.C.S.",
"A.K.5.] E @.K.U.|.|.}.|.OXOX*X*X*X*X#X+XXXU.u.6 O f }.&X&X&X}.i.r.= f i.}..X&X&X.Xz O 4 x f.S. X*X&XXX*X+XOXOXN.^ ~ x u.Z.Z.C.D.",
"A.v.&.' U $.G.J.J.|.|.|.OX+X*X*X+X*X+XOX*X+XU.z # f Z.H.H.Z.Z.u.6 # 4 z i.i.H.H.Z.z 4 s C.|.|.|.|.OXOXOX+X+X XU.-.o.j e.V.C.C.F.",
"S.C.=.^ ~ O.j.U.S.S.F.S.|.+X%X+X+X*X+XOX+X+X XZ.u.g 8 8 8 8 6 6 f f f 4 6 6 9 8 9 f z u.F.|.|.T.T. XOX*X+X+X+X XC.x k e.V.V.j.A.",
"f.-.O.| ] ] ;.p.y.r.t.y.V.|.XX X X X XY.|. XU.|.S.g O         X 4 r.s O         O s A.U.F.U.U.U.U.|.XX$XOXOXOXXXA.j g e.V.f.f.C.",
"X.( Y } } Y o.C C h h l l f.V.f.t.e.e.e.j k z i f : = O o o o = 4 4 4 # o O # 4 # 9 e.f.r.p.f.C.j.C.A.J.OXOXOX XA.x x e.r.r.e.C ",
"j o.%.0.[ #.b.d.a.g.d.p.g g d d r 8 8 w 2 1 - - - - - - - - - - 4 # # = ; - 6 6 8 9 9 w 9 f g k k k x f.h.h.Z.h.;.*.C l g g w g ",
"a.d.4.( ] @.N. XOX X+XU.g.t.j x h i w i K u y u u u i u 1 y i u f f 8 : ; 3 1 1 1 1 1 ; 7 8 9 9 d g P L #.K o.K E K a h p i x C ",
"L.R._.{ U [ _.*X+X+X*X+XXXY.U.U.S.y.p x u.x x f.u.p.f.p.p.p.p.p.f.u.P 2 2 3 3 H H ; H H 3 ; 0 9 u ~ +.{ ) Q ] U R a i h ;.a.x.x.",
"R.R.N.| _ #.`.>X%X+X X+X+XOX X|.|.Z.x t.t.u.f.C.j.Z.A.A.A.A.A.A.A.A.4.J H H u K J J L L a u a h X.@.$.%.[ | [ U +.~  .C K.I.R.I.",
"I.L.b.( _ 5.+X>X*X+X+X XOX|.F.S.U.S.e.p.j.V.Z.S.U.|.T.XX.XU.U.|..XT.M.~ E  .s.c.d.a.d.x.j.d.g.l.j.L.I././.I._.'.b.X.p C L.Y.L.I.",
"Y.L.M.( _ q.%X>X#X#X+X|.+XOX|.S.A.A.t.g.S.S.S.J.|.OX+X+X*X&X*XXX*XOX X,.L j d.j.x.F.K.K.@X@X;X].=X;X=X].@X=X@X@XK.l i B D.I.L.Y."
};
