/* XPM */
static char *xpm_[] = {
/* columns rows colors chars-per-pixel */
"64 64 232 2 ",
"   c #0F0D0A",
".  c #120F0C",
"X  c #14110D",
"o  c #1A170D",
"O  c #151311",
"+  c #1B1612",
"@  c #1C1914",
"#  c #1C1B1B",
"$  c #241612",
"%  c #221A16",
"&  c #231D1A",
"*  c #2A1E1B",
"=  c #1E2110",
"-  c #262B0D",
";  c #2C330B",
":  c #333B0C",
">  c #272916",
",  c #25221C",
"<  c #2C231D",
"1  c #32231F",
"2  c #2C3113",
"3  c #333918",
"4  c #211E20",
"5  c #1F2222",
"6  c #252424",
"7  c #2B2523",
"8  c #2C2A24",
"9  c #25282A",
"0  c #2C2B2C",
"q  c #332522",
"w  c #352B25",
"e  c #392A26",
"r  c #322E2D",
"t  c #3C2D29",
"y  c #2F3324",
"u  c #333325",
"i  c #383926",
"p  c #34322C",
"a  c #3C322D",
"s  c #3C3D2D",
"d  c #2F2E31",
"f  c #312E31",
"g  c #2E3337",
"h  c #353334",
"j  c #3A3534",
"k  c #3C3A34",
"l  c #36353A",
"z  c #3A363A",
"x  c #343939",
"c  c #3C3B3C",
"v  c #471F17",
"b  c #48211A",
"n  c #422F2A",
"m  c #562921",
"M  c #44322D",
"N  c #47372D",
"B  c #423531",
"V  c #4B3531",
"C  c #453B35",
"Z  c #4E3A34",
"A  c #423D3C",
"S  c #4A3E39",
"D  c #523B36",
"F  c #583C37",
"G  c #553E39",
"H  c #6A362D",
"J  c #77352A",
"K  c #6A3930",
"L  c #39460D",
"P  c #3B4417",
"I  c #3E4323",
"U  c #3E402B",
"Y  c #3E4134",
"T  c #43530E",
"R  c #475B0B",
"E  c #4B5D0D",
"W  c #424D15",
"Q  c #444D1D",
"!  c #455414",
"~  c #485715",
"^  c #4B5C14",
"/  c #46531C",
"(  c #4A561B",
")  c #4D5C1B",
"_  c #515F14",
"`  c #515D1D",
"'  c #4B6206",
"]  c #4D620C",
"[  c #52650C",
"{  c #4E6112",
"}  c #4E611B",
"|  c #526512",
" . c #546913",
".. c #53621D",
"X. c #434727",
"o. c #434C24",
"O. c #43442C",
"+. c #454B2A",
"@. c #475322",
"#. c #4A5524",
"$. c #4D5A23",
"%. c #4B552B",
"&. c #4E5B2B",
"*. c #515D23",
"=. c #525E2B",
"-. c #424434",
";. c #464B34",
":. c #43423B",
">. c #484839",
",. c #4C4A3C",
"<. c #53453B",
"1. c #5A423D",
"2. c #4B5333",
"3. c #4F5934",
"4. c #4D523C",
"5. c #535C34",
"6. c #53593A",
"7. c #67423B",
"8. c #536323",
"9. c #56632A",
"0. c #59633A",
"q. c #3C3C43",
"w. c #393E46",
"e. c #413E43",
"r. c #413F4A",
"t. c #3C4249",
"y. c #3F4A50",
"u. c #444344",
"i. c #494544",
"p. c #464947",
"a. c #4B4B46",
"s. c #45454C",
"d. c #49464B",
"f. c #4B4A4C",
"g. c #5E4641",
"h. c #554A45",
"j. c #514D4D",
"k. c #4D5244",
"l. c #4E534A",
"z. c #525344",
"x. c #545B44",
"c. c #52524D",
"v. c #58584B",
"b. c #595C4C",
"n. c #464651",
"m. c #444A52",
"M. c #4C4C53",
"N. c #484854",
"B. c #4D4E5A",
"V. c #514E52",
"C. c #504E5C",
"Z. c #4C5155",
"A. c #44525A",
"S. c #4D525B",
"D. c #545354",
"F. c #585656",
"G. c #555A53",
"H. c #5A5B55",
"J. c #53535C",
"K. c #59565B",
"L. c #56595B",
"P. c #5C5B5C",
"I. c #624641",
"U. c #634A45",
"Y. c #684B46",
"T. c #774B47",
"R. c #6B524B",
"E. c #69544D",
"W. c #76544C",
"Q. c #6B5751",
"!. c #605E5E",
"~. c #795B53",
"^. c #5C624A",
"/. c #5D6156",
"(. c #6C6553",
"). c #646858",
"_. c #69735B",
"`. c #4D5861",
"'. c #545561",
"]. c #555A64",
"[. c #575966",
"{. c #5A5C65",
"}. c #555769",
"|. c #5A5D69",
" X c #5C5E6A",
".X c #615E60",
"XX c #605F6C",
"oX c #546067",
"OX c #5D6065",
"+X c #56626A",
"@X c #5E616B",
"#X c #636263",
"$X c #61626C",
"%X c #6C6D6D",
"&X c #71766A",
"*X c #636372",
"=X c #843C31",
"-X c #8D453B",
";X c #8D564F",
":X c #955649",
">X c #A25B57",
",X c #82645B",
"<X c #A26658",
"1X c #896B62",
"2X c #8D776E",
"3X c #977469",
"4X c #A6746A",
"5X c #B0766D",
"6X c #A37E73",
"7X c #79836D",
"8X c #95857B",
"9X c #AB8679",
"0X c #B48A7D",
"qX c #B3907E",
"wX c #C08C7E",
"eX c #9B8C83",
"rX c #B88E82",
"tX c #A89A8D",
"yX c #BC9285",
"uX c #BC9687",
"iX c #B8A697",
"pX c #C49588",
"aX c #C49A8C",
"sX c #CA9F90",
"dX c #C8A795",
"fX c #D2A495",
"gX c #D6A99A",
"hX c #DBAC9D",
"jX c #C8B5A6",
"kX c #D7B4A5",
"lX c #E3B4A4",
"zX c #D2C1B2",
/* pixels */
"F.F.a.%. .5.{.@X@XOX X X|.[.[.'.B.d.c i.N.m.B.B.S.'.|. X{.{. XXXK.K.l.c p h u.V.f.V.V.D.K.V.P.!..XP..X.X.X.X!.P.V.C p j j.F.F.F.",
"D.c.,.) ] $.P.$XOX@X@X|.|.|.|.].J.m.A e.n.N.B.n.n.d.M.N.M.n.r.r.u.o.I Y s s i.f.f.V.V.V.C.D.F.P.!.!..X.X.X!.P.P.c.z p a :.c.D.F.",
"D.j.>._ R $.P.#X|.@X@X@X X|.|.[.[.M.c h z c q.z A h r r r h j h k / R } ^ Q :.d.d.f.V.V.V.D.D.K.K..X.XP..X!.!.!.D.z s X.-.j.j.F.",
"j.4.%.) / l.|.@XOX|.@X|. X|.|.].L.f./ X.j j h A c f 0 h l e.f.V.L.x.,.P T / :.f.f.f.f.V.j.V.V.D.D.P.P.!.P.!.P.P.F.-.Q T +.a.j.j.",
"d.4.` ] @.p.{.OX@X@X X X|.|.|.|.|.D.@.o.:.f.C.J.n.f & & 4 q. X*X*X'.c - : Q >.f.d.j.f.f.j.V.V.V.V.K.K.P.P.P.P.P.K.2.( ! -.i.f.h.",
"a.,.#.( ( ;.L.$X@X@X X X X X|.[.|.B.Y Q -.d.M.N.q.7 + X + f f.C.D.d.9 % > P X.i.d.f.f.j.f.M.V.j.V.V.D.K.F.K.K.K.H.8.] R X.u.a.a.",
"d.A C @.! %.D.@X@X@X X X X X|.|.|.k.3 - , 9 7 9 7 7 q 1 q q 0 0 0 0 q 1 < - 3 A d.d.f.f.f.f.j.M.V.j.V.D.F.K.F.F.H.5.R ( -.A d.u.",
"u.A I / / ,.J.+X@X@X X X X X|.|.{.>.- X . . . . $ e V V M q + . . + 1 n 1 X > h e.e.d.f.f.d.f.f.f.M.V.j.F.F.F.D.F.z.o.o.s A u.u.",
"j I T ! +.a.J.OX|.@X$X X X X XJ.w.r < * * * * * q V F G G M 1 * * 1 M D n < < 7 r z i.d.d.d.f.f.f.d.d.a.i.:.u.u.>.;.Q W W X.j j ",
"h -.o.^ E #.G.$X@X X X X X X Xd.6 @ 1 n n M M M V G U.U.I.F M M V V F I.D V q + + 9 h j k e.e.A u.u.:.z C Q I I ( | ) ~ ! ~ X.A ",
"u.i.>.*.] $.P.$XOX|.OX@X|.@X[.M.l 7 1 1 n D F F F I.U.U.U.1.G G G G g.I.g.D B q < 6 6 7 8 r 0 r p X.I I / ] { ^ E ' ..,.2.=.>.i.",
"'.K.j.4.} =.|. X$X{. X{. XOXP.J.S.c 2 o n F 1.g.g.U.U.U.U.U.U.g.g.g.I.I.I.I.G g.B * + , z A c z :.#.( | $.) ) ) ] ] *.P.@X@XP.{.",
"$X$XJ.f.%.#.c.G.G.x.l.l.c.0.&.4.u.i > * B g.U.U.U.U.U.U.U.U.U.U.U.U.U.U.U.U.h.U.D q $ 4 A M.C.J.L.6.R $.p.l.G.G.9.| 5.{.$X$X$X$X",
"#X$X|.V.,.#.) ^ } { ) } { { ] L 2 - w C G U.U.U.U.U.U.U.U.U.U.U.U.U.U.U.U.U.Y.U.G M q * 7 q.J.J.J.a.Q ;.d.[.'.L.8.] 9.{.$X$X$X$X",
"@X@X$X'.6.^ ....} ] ^ |  .} ~ P o @ B g.U.U.U.U.U.I.U.I.g.g.g.U.I.g.U.U.U.U.U.U.g.D n * + 0 n.B.B.d.k c d.S.J.L.3.^ 6.|. XOX{.OX",
"@X{.@X{.l.#.4.G.G.6.z.b.^.G.G.Y = + B I.U.U.U.U.g.1.G G 1.1.U.g.g.G g.I.U.Y.Y.U.g.D M n q 7 f l N.d.z e.d.B.B.M.Y k V.{.$XOX{. X",
"$XOX X[.4.o.a.|.@X@X@X$X@X*X Xs., + n I.U.U.U.U.I.G F V V F g.g.D V 1.U.U.U.U.U.I.G V M n 7 + 9 s.d.l z n.B.B.M.l p M.'. X X X X",
"@X|.@XJ.;.P d.$X@X@X$X@X@XS.s.l 7 q M F I.I.U.U.Y.~.~.Y.Z F g.7.K K 7.U.U.U.U.U.I.F D n 1 7 0 l s.s.A e.n.N.M.B.z f d.'..X$XXX.X",
" X X@X'.z r u.|.@X@X@X@X|.t.& & e n V D G I.U.U.~.6X0X,XD G g.7.H J 7.U.Y.U.U.U.I.I.G w + 0 s.B.J.d.i.e.e.d.d.N.z j r.'.@X@X XXX",
"$X X|.C.h w s.|.@X@X@X@X Xd.0 7 q e n V G I.R.,X3XrXpX3X~.T.U.T.;X:X-X7.Y.U.U.U.U.U.g.q . 0 B.'.B.s.-.c r.w.s.r.l h N.K.@X{.{.$X",
" X|. XS.k i a.{. X@X$X$X{.].N.q.* $ e V G I.,X6XrXaXsXpX6X3XR.~.3X5X:XJ K U.Y.U.U.U.g.7 X 9 M.'.B.a.#.o.w.w.t.w.l z f.K.|.|.|.OX",
"{.|. XZ.O.#.a.{.@X X@X@X@X X|.u.4 + q Z g.U.1XyXsXrXrXpXfX6X,X1X0X0X:XJ H 7.I.I.I.U.g.t % 7 c d.N.&.[ ^ Y q.w.q.h z N.J.J.[.|.|.",
"{.|.|.Z.@.( a.J.].'.].P.L.'.J.:.# + t G g.U.1XpXrX,XY.6XfXsXrXrXfXpXW.b m H K F G g.g.Z a q > 8 s @.{ } Y x l g z A n.C.S.'.J.J.",
"J.[.[.l.$.{ #.;.;.+.#.*.%.-.+.P @ $ B I.U.T.1XyX6XD 7 1XgXhXfXfXhXuXY.o v J J F F g.g.g.1.a o - P ) ..8.+.c c q.u.z N.C.S.`.'.J.",
"J.S.'.l.} ] { } ) ^ ] { ~ 3 3 2 < e D U.W.,X4XpX6Xe.1 1XgXlXhXhXlXuXY.% b J =X;XY.I.G V t w u c c.^./.P.H.'.{.'.J.A s.B.B.S.'.S.",
"S.J.S.M.@.E #.k.6.x.0.0.z.k @ > a D 1.Y.;X<X5XsX9XI.n 3XhXlXlXlXlXaXW.1 m =X=X:X>XT.D q + r V.{.$X$X$X$X*X*X#X$X{.A c N.N.S.B.J.",
"C.B.S.n.Y T / D.J.J.`.[.L.t.9 7 w n D I.T.>X5XpXrX1X;X9XlXlXlXlXlXdX3XW.;X>X>X>X;XI.Z < . 0 C. X@X@XXX.X|. XOX@X{.s.C d.B.B.J.'.",
"`.B.B.a.X.! %.x.D.D.D.c.9.%.-.0 & & t 1.F Y.1XrXsXaXaXfXlXlXlXlXlXlXfXuXyX0X4XW.Y.F V * X 0 B.|.*X@X{.{.$X{.OX|.|.d.c e.M.M.B.B.",
"N.N.d.2.{ R ) &.%.2.+.$.] [ *.u , @ q M Z F ~.6XpXsXlXlXlXlXlXlXlXlXlXhXsX0X3XY.D V t 7 6 g N.}.|.OX@X|.@X$X@X|.].B.e.x p.l.M.l.",
";.-.C *. .] | ] R R T { ' ] ) ! L L > & t D I.~.3XyXhXhXlXlXlXlXlXlXhXfX9X,XW.1.V q & d x s.S.L.J.[.@X{.@X+X|./.^.G.p./ ) #.>.%.",
" .$.` [  .E { ] { ] ] ^ | ..8.E ' R 2 @ q M D F R.4XpXfXlXlXlXlXlXhXdX0X1Xg.F V M & + f m.n.k.9.4.k.x.l.l.0.6.9. .9.3.} ] [ ( ~ ",
"] ( | ] { { ] } 8.) { *.6.k.z.$.[ R +.z r 7 t V e.Y.~.6XfXhXgXhXhXpX3XY.1.D V q > < 6 i o.-.#.] ^ ) ] $.$.] ] ] ]  .} ] { P I ( ",
"9.6.5.*.5.9.9.x.v.b.0.^.D.D.F.4.%.%.D.D.l + , Z N 1 1 ,XdXfXfXfXfX0Xg., e D t % = 2 i W T 2.&.^ ) &.| =.&.} R { {  . .] %.C ;.5.",
"(.#X#X!.!./.(.H.H.F.v.F.c.c.V.i.a z e.c 0 & w <.,.e u (.pXdXdXdXdX9XY.< s z.-.< % 6 h -.5.F.L.b.G.L.^.P.L.^.9.} ' ] ..9.H./.P.).",
"#X#X!.P.!.P.K.F.K.D.D.V.D.f.f.a.z p 9 # & q -.).^.C N ,XiXdXdXdXdXtXE.p ,.).v.M 7 $ # q.{.XX$X@X@XXX@X@X+XOX^.{ ' | ^.^.!..X.XP.",
"{.#XP.H.P.P.P.F.F.F.D.c.c.j.j.u.A r 6 . & e ,.).).,.X.8XiXiXqX0X0X3XE.N x._.b.C 7 + . q.{.@X#X@X$X@X XXX@X/.5.{  .9./.).!..XK.).",
"!.!.P.P.K.P.P.F.D.F.D.c.j.j.f.i.A r & . % e ,.).).z.h.8XjXqX<X:X-X;XI.S v._.^.C 1 + O z {.OX$X@X@X@X@X|.|.OX9.[ _ 6.P.!..X!..XP.",
"!.P.!.K.P.!.K.F.D.D.D.D.D.f.f.i.k 8 & + & w <._._.v.Y.eXzXqX<X-X=XJ F g.^.&X^.C q + + l D.{.@X@X@X@X@X@XOX[.^.) ( 4.K.!.!.!.{.P.",
"P.!.!.P.P.H.F.D.D.D.j.j.j.f.d.A 9 & & * q t z._.&XF.v.eXzXkXuX5X-X=XF h.).7X).C w 7 * 7 d w.[.$X@X@XXX|./.[.l.@.W %.H.!.P.K.P.H.",
"P.H.P.P.K.H.V.D.D.D.V.j.j.f.a.h # O * w e n h.7X&XE.v.eXzXzXzXpX>X-XK h.).7X(.>.t e w % O f J.@X+X@X@X@X|.|.x.#.! ,.P.P.!.!.P.H.",
"P.P.!.P.K.K.V.j.c.V.j.a.f.f.a.h + + 7 j n t h._.&Xv.h.8XjXsX0XqX9X3XW.<.).&X).C a a t & . d J.|.|.|.{.|. X/.8.^ ~ i.P.{.P.!.P.H.",
"j.i.i.a.h.V.D.D.V.V.M.f.f.a.i.h + + w S B t i._.).D.h.8XyX9X-X<XaXiX&Xh.^._.^.C M V B 6 X 0 J.|.|.@X{.|.OX/.8.E ~ :.F.H.b.V.V.D.",
"j s s s j :.f.f.i.d.s.i.i.c h 8 , 7 j C a < a z.v.h.D.2XiXrX<X9XdXjX2X<.h.G.,.q q B S r , 0 c N.J.@X|.[.[.J.4.#.^ o.2.*.$.k z a ",
"3 W W W I s -.N O.X.+.O.r 7 + & w j Z C w + < a Z S v.eXzXjXuXiXjXjX2Xe.S C w # & t S C j 8 4 d s.J.Z.l.3.2.:.%...^ ` ] R i w r ",
"A 2.) ~ ^ ~ ! ) ) $.! W u , . 7 h.Q.Q.U.t . + q t B f.2XiXiXtXtXiXtX%XF M e * X # S Q.Q.E.C O # h Y Y %.] } #.( ^ [ 9.} / U h z ",
"M.S.L.x.=.] ^ 6.G.G.x.v.M.h X t 1XrX9X3Xh.+ + q t t C ).*X7X&X%X7X%Xf.B t e * X 7 ~.9X9X9XE., o : / ) %...&.4.2.^ | %.;.p.p.d.d.",
"J.J.[.J.2.^ ) H.|.{.|.{.[.q.4 S 6XdXaX9XY.+ + w j t w.y.`.A.A.A.A.y.w.j a a 7 X w ,XuXaXuX~.8 > I 3.b.G.OX|.P.6.]  .8.a.M.M.S.J.",
"'.J.L.Z.%.E ) ^.'.'.J.J.'.d.l S v.E.E.U.a . 6 c m.y.y.A.`.`.A.y.}.`.A.n.p.d.h + % Z R.R.Q.h.q.u.G.@X*X@XXX|.{.=.] ' ..k.B.B.C.J.",
"P.].K.a.+.~ 9.G.'.'.'.'.[.'.J.u.0 @ @ + X . 9 M.oXoXoXoX+X`.y.y.`.+XoXoXoX`.w.#   + + + & h B.{.|.|.|.|.].].P.3.{ | *.a.Z.'.J.J.",
"[.|.{.6.~ o.z.'.J.J.'.'.].'.'.B.c d d 9 # . 0 A.+X+X+XoX`.y.t.t.A.`.oX+X+XoXt.# . 4 9 9 0 s.'.|.|.[.OX].].].].S.&...8.a.M.S.'.D.",
"J.[.J.>.T T k.S.J.J.'.'.'.[.'.|.].J.J.B.f O 9 A.+X+XoX`.y.x # 9 t.`.oX+X+X+Xt.# # l s.y.N.'. X X+X].OX|.|.{.{.'.2.] | 4.d.B.B.B.",
"B.J.G.2./ / l.'.'.J.'.[.'.[.|..X$X$X@X].l O 9 M.oXoX`.y.t.0 = 6 g t.A.`.oX`.w.# # q.'.'.J.[. X X|.|.|.|. X{.].S.;.$.=.f.n.n.n.f.",
"C.C.x.8.#.;.Z.J.S.'.'.'.[.[.|.$X@X@X@X[.l O 9 t.A.`.y.x 5 , y g 5 9 t.y.`.A.x # # q.B.'.'.J.{. X@X X|.{.|.{.|.Z.2.o.:.s.d.s.N.B.",
"N.D.5.{ ! $.D.J.J.'.'.'.[.[. X@X@XXX X}.g O 5 q.y.y.t.9 X 4 p x # O g y.y.s.g O # w.'.'.'.'.'.[.|.@X|.|.|.|.].G.) ) c e.N.N.N.M.",
"M.c.=.] R %.Z.J.'.'.J.'.{. X@X@X XXX XJ.l O & r z z h &   = U g # O 9 x l z 9 + # q.'.'.'.'.'.'.].|. X@XOX|.|.J.2.+.z t.n.n.M.B.",
"A.f.;.) ) @.f.S.B.N.C.C.J. X@X X X X|.'.l O + q w w q % X - P p # X & w e e * . # q.'.'.'.{.'.'.'.{.|. X|.|.|.[.d.c j q.n.n.M.M.",
"d.;.#.} { ] :.u.w.e.u.w.s.'. X{.|. X{.J.h X @ u N N M &   ; P y + O < N N s < o # q.J.'.'.J.J.'.J.'.|.@X@X].|.OXB.j j q.s.n.n.n.",
"Y ` E  . .E +.A A z z j z s.s.s.u.s.s.r.9 . < C <.<.-.7 X 2 P 3 O O u <.<.<.u o # w.J.'.[.J.J.'.J.J.J.}.|.].|.[.B.c c q.q.q.q.z ",
"k +.` 8.$.$.k.a.a.s.f.u.h h 0 0 f r r r > o , i O.O.s > o - P : @ @ 8 C O.-.w & 6 h t.i.d.s.s.s.s.d.s.s.p.d.N.N.-.-.A z h p r j ",
":.a.k.` ] &.G.P.|.{.{.J.d.z r f p 8 7 8 3 , > u i u y y > > u u 6 6 0 3 3 3 2 > - > : L i r d f c c Y +.+.o.+.I ! P j z p j k A ",
"H.P.b.[ R { ^.$X X|.$X|.'.B.u.e.q.h 7 r h h h l j l l z k j l z x z h > 2 - 2 : ; ; : L 3 3 u p U ( $.| ] R { R / i a k A i.j.c.",
"!.!.v...' %.OX$X X{.{.|.XX{.C.N.r.l 9 h x l z q.q.q.q.u.q.t.t.q.c t.Y P : 2 w 3 3 3 u i p i s A ;.$.&.*.{ $.} ^ @./ X.A D.H.P.H.",
"F.F.z.` [ 6. X*X@X X|.[.|.[.'.n.r.q.f z q.q.q.w.s.n.s.d.N.p.d.s.d.d.:.P L 3 j :.k k c A A :.f.c.D.H.H.Q.Q./.^.^.c.X.p A D.P.F.F.",
"K.H.c.` ] 9.OX*XXX X|.[.|. X'.N.N.u.z e.w.t.y.d.M.S.S.J.J.J.S.S.J.S.N.-.i p :.u.i.f.a.a.V.P.#X#X#X#X#X#X.X#X.X.XD.z t A V.F.H.K."
};
