/* XPM */
static char *result[] = {
/* columns rows colors chars-per-pixel */
"64 64 12 1 ",
"  c #FFD454",
". c #FFDF8F",
"X c #1B6894",
"o c #237CB0",
"O c #F57AF5",
"+ c #0096ED",
"@ c #4EB6F2",
"# c #76BEE8",
"$ c #FFEBBD",
"% c #FCAEFC",
"& c #A3D4F0",
"* c #D2EBFA",
/* pixels */
"%%%%OOOO%%%%OOOO%%%%OOOO%%%%OOOO%%%%OOOO%%%%OOOO%%%%OOOO%%%%OOOO",
"%%%%OOOO%%%%OOOO%%%%OOOO%%%%OOOO%%%%OOOO%%%%OOOO%%%%OOOO%%%%OOOO",
"                                                                ",
"                                                                ",
"$$$$$$$$$$$$..  $$$$$$$$$$$$$$$$$$$$$$$$$$$$..  $$$$$$$$$$$$$$$$",
"$$$$$$$$$$$$..  $$$$$$$$$$$$$$$$$$$$$$$$$$$$..  $$$$$$$$$$$$$$$$",
"$$$$$$$$$$$$..  $$$$$$$$$$$$$$$$$$$$$$$$$$$$..  $$$$$$$$$$$$$$$$",
"$$$$$$$$$$$$..  $$$$$$$$$$$$$$$$$$$$$$$$$$$$..  $$$$$$$$$$$$$$$$",
"$$$$$$$$$$$$..  $$$$$$$$$$$$$$####$$$$$$$$$$..  $$$$$$$$$$$$$$$$",
"$$$$$$$$$$$$..  $$$$$$$$$$$$$$####$$$$$$$$$$..  $$$$$$$$$$$$$$$$",
"..............  ......##....########..........  ................",
"..............  ......##....########..........  ................",
"                    ####################                        ",
"                    ####################                        ",
"OOOO%%%%OOOO%%%%OO##########################%%%%OOOO%%%%OOOO%%%%",
"OOOO%%%%OOOO%%%%OO##########################%%%%OOOO%%%%OOOO%%%%",
"%%%%OOOO%%%%OOOO####XXXXXX############XXXXXX##OO%%%%OOOO%%%%OOOO",
"%%%%OOOO%%%%OOOO####XXXXXX############XXXXXX##OO%%%%OOOO%%%%OOOO",
"                ##XX******XXXXXXXXXXXX******XX##                ",
"                ##XX******XXXXXXXXXXXX******XX##                ",
"$$$$$$$$$$$$..  ##XX************************XX##$$$$$$$$$$$$$$$$",
"$$$$$$$$$$$$..  ##XX************************XX##$$$$$$$$$$$$$$$$",
"$$$$$$$$$$$$..  ##XX****&&&&&&&&&&&&&&&&****XX##$$$$$$$$$$$$$$$$",
"$$$$$$$$$$$$..  ##XX****&&&&&&&&&&&&&&&&****XX##$$$$$$$$$$$$$$$$",
"$$$$$$$$$$$$..  ##XX**&&&&&&&&&&&&&&&&&&&&**XX##$$$$$$$$$$$$$$$$",
"$$$$$$$$$$$$..  ##XX**&&&&&&&&&&&&&&&&&&&&**XX##$$$$$$$$$$$$$$$$",
"..............  ##XX**&&&&XX&&&&&&&&XX&&&&**XX##................",
"..............  ##XX**&&&&XX&&&&&&&&XX&&&&**XX##................",
"                ##XX**&&&&XX&&&&&&&&XX&&&&**XX##                ",
"                ##XX**&&&&XX&&&&&&&&XX&&&&**XX##                ",
"OOOO%%%%OOOO%%%%##XX**&&&&&&&&&&&&&&&&&&&&**XX##OOOO%%%%OOOO%%%%",
"OOOO%%%%OOOO%%%%##XX**&&&&&&&&&&&&&&&&&&&&**XX##OOOO%%%%OOOO%%%%",
"%%%%OOOO%%%%OO####XX****&&&&&&&&&&&&&&&&****XX####%%OOOO%%%%OOOO",
"%%%%OOOO%%%%OO####XX****&&&&&&&&&&&&&&&&****XX####%%OOOO%%%%OOOO",
"              ##XXoooo********************ooooXX##              ",
"              ##XXoooo********************ooooXX##              ",
"$$$$$$$$$$$$####XX&&oo++++++++++++++++++++oo&&XX####$$$$$$$$$$$$",
"$$$$$$$$$$$$####XX&&oo++++++++++++++++++++oo&&XX####$$$$$$$$$$$$",
"$$$$$$$$$$$$####XX&&oo++++++++++++++++++++oo&&XX####$$$$$$$$$$$$",
"$$$$$$$$$$$$####XX&&oo++++++++++++++++++++oo&&XX####$$$$$$$$$$$$",
"$$$$$$$$$$$$####XX&&++++++++++++++++++++++++&&XX####$$$$$$$$$$$$",
"$$$$$$$$$$$$####XX&&++++++++++++++++++++++++&&XX####$$$$$$$$$$$$",
"..........######XX&&++++++++++++++++++++++++&&XX######..........",
"..........######XX&&++++++++++++++++++++++++&&XX######..........",
"          ########XX++++++++++++++++++++++++XX########          ",
"          ########XX++++++++++++++++++++++++XX########          ",
"OOOO%%%%##########XX@@@@@@@@@@@@@@@@@@@@@@@@XX##########OOOO%%%%",
"OOOO%%%%##########XX@@@@@@@@@@@@@@@@@@@@@@@@XX##########OOOO%%%%",
"%%%%OOOO##########XX@@@@@@@@@@@@@@@@@@@@@@@@XX##########%%%%OOOO",
"%%%%OOOO##########XX@@@@@@@@@@@@@@@@@@@@@@@@XX##########%%%%OOOO",
"          ########XX@@@@@@XXXXXXXXXXXX@@@@@@XX########          ",
"          ########XX@@@@@@XXXXXXXXXXXX@@@@@@XX########          ",
"$$$$$$$$$$########XX@@@@@@XX########XX@@@@@@XX########$$$$$$$$$$",
"$$$$$$$$$$########XX@@@@@@XX########XX@@@@@@XX########$$$$$$$$$$",
"$$$$$$$$$$$$########XXXXXXXXXXXXXXXXXXXXXXXX########$$$$$$$$$$$$",
"$$$$$$$$$$$$########XXXXXXXXXXXXXXXXXXXXXXXX########$$$$$$$$$$$$",
"$$$$$$$$$$$$..##XXXXXXXXXXXXXXXXXXXXXXXXXXXXXXXX##$$$$$$$$$$$$$$",
"$$$$$$$$$$$$..##XXXXXXXXXXXXXXXXXXXXXXXXXXXXXXXX##$$$$$$$$$$$$$$",
"..............####XXXXXXXXXXXXXXXXXXXXXXXXXXXX####..............",
"..............####XXXXXXXXXXXXXXXXXXXXXXXXXXXX####..............",
"                ################################                ",
"                ################################                ",
"OOOO%%%%OOOO%%%%OOOO%%%%OOOO%%%%OOOO%%%%OOOO%%%%OOOO%%%%OOOO%%%%",
"OOOO%%%%OOOO%%%%OOOO%%%%OOOO%%%%OOOO%%%%OOOO%%%%OOOO%%%%OOOO%%%%"
};
