/* XPM */
static char *result[] = {
/* columns rows colors chars-per-pixel */
"64 64 12 1 ",
"  c black",
". c #22B14C",
"X c #FFD454",
"o c #FFDF8F",
"O c #4D6DF3",
"+ c #F57AF5",
"@ c #00B7EF",
"# c #76BEE8",
"$ c #FFEBBD",
"% c #F0C4A3",
"& c #FCAEFC",
"* c white",
/* pixels */
"&&&&++++&&&&++++&&&&++++&&&&++++&&&&++++&&&&++++&&&&++++&&&&++++",
"&&&&++++&&&&++++&&&&++++&&&&++++&&&&++++&&&&++++&&&&++++&&&&++++",
"XXXXXXXXXXXXXXXXXXXXXXXXXXXXXXXXXXXXXXXXXXXXXXXXXXXXXXXXXXXXXXXX",
"XXXXXXXXXXXXXXXXXXXXXXXXXXXXXXXXXXXXXXXXXXXXXXXXXXXXXXXXXXXXXXXX",
"$$$$$$$$$$$$ooXX$$$$$$$$$$$$$$$$$$$$$$$$$$$$ooXX$$$$$$$$$$$$$$$$",
"$$$$$$$$$$$$ooXX$$$$$$$$$$$$$$$$$$$$$$$$$$$$ooXX$$$$$$$$$$$$$$$$",
"$$$$$$$$$$$$ooXX$$$$$$$$$$$$$$$$$$$$$$$$$$$$ooXX$$$$$$$$$$$$$$$$",
"$$$$$$$$$$$$ooXX$$$$$$$$$$$$$$$$$$$$$$$$$$$$ooXX$$$$$$$$$$$$$$$$",
"$$$$$$$$$$$$ooXX$$$$$$$$$$$$$$$$$$$$$$$$$$$$ooXX$$$$$$$$$$$$$$$$",
"$$$$$$$$$$$$ooXX$$$$$$$$$$$$$$$$$$$$$$$$$$$$ooXX$$$$$$$$$$$$$$$$",
"ooooooooooooooXXooooooooooooooooooooooooooooooXXoooooooooooooooo",
"ooooooooooooooXXooooooooooooooooooooooooooooooXXoooooooooooooooo",
"XXXXXXXXXXXXXXXXXXXXXXXXXXXXXXXXXXXXXXXXXXXXXXXXXXXXXXXXXXXXXXXX",
"XXXXXXXXXXXXXXXXXXXXXXXXXXXXXXXXXXXXXXXXXXXXXXXXXXXXXXXXXXXXXXXX",
"++++&&&&++++&&&&++++&&&&++++&&&&++++&&&&++++&&&&++++&&&&++++&&&&",
"++++&&&&++++&&&&++++&&&&++++&&&&++++&&&&++++&&&&++++&&&&++++&&&&",
"&&&&++++&&&&++++&&&&      &&++++&&&&++      ++++&&&&++++&&&&++++",
"&&&&++++&&&&++++&&&&      &&++++&&&&++      ++++&&&&++++&&&&++++",
"XXXXXXXXXXXXXXXXXX  ******            ******  XXXXXXXXXXXXXXXXXX",
"XXXXXXXXXXXXXXXXXX  ******            ******  XXXXXXXXXXXXXXXXXX",
"$$$$$$$$$$$$ooXX$$  ************************  XX$$$$$$$$$$$$$$$$",
"$$$$$$$$$$$$ooXX$$  ************************  XX$$$$$$$$$$$$$$$$",
"$$$$$$$$$$$$ooXX$$  ****%%%%%%%%%%%%%%%%****  XX$$$$$$$$$$$$$$$$",
"$$$$$$$$$$$$ooXX$$  ****%%%%%%%%%%%%%%%%****  XX$$$$$$$$$$$$$$$$",
"$$$$$$$$$$$$ooXX$$  **%%%%%%%%%%%%%%%%%%%%**  XX$$$$$$$$$$$$$$$$",
"$$$$$$$$$$$$ooXX$$  **%%%%%%%%%%%%%%%%%%%%**  XX$$$$$$$$$$$$$$$$",
"ooooooooooooooXXoo  **%%%%  %%%%%%%%  %%%%**  XXoooooooooooooooo",
"ooooooooooooooXXoo  **%%%%  %%%%%%%%  %%%%**  XXoooooooooooooooo",
"XXXXXXXXXXXXXXXXXX  **%%%%  %%%%%%%%  %%%%**  XXXXXXXXXXXXXXXXXX",
"XXXXXXXXXXXXXXXXXX  **%%%%  %%%%%%%%  %%%%**  XXXXXXXXXXXXXXXXXX",
"++++&&&&++++&&&&++  **%%%%%%%%%%%%%%%%%%%%**  &&++++&&&&++++&&&&",
"++++&&&&++++&&&&++  **%%%%%%%%%%%%%%%%%%%%**  &&++++&&&&++++&&&&",
"&&&&++++&&&&++++&&  ****%%%%%%%%%%%%%%%%****  ++&&&&++++&&&&++++",
"&&&&++++&&&&++++&&  ****%%%%%%%%%%%%%%%%****  ++&&&&++++&&&&++++",
"XXXXXXXXXXXXXXXX  ....********************....  XXXXXXXXXXXXXXXX",
"XXXXXXXXXXXXXXXX  ....********************....  XXXXXXXXXXXXXXXX",
"$$$$$$$$$$$$ooXX  %%..@@@@@@@@@@@@@@@@@@@@..%%  $$$$$$$$$$$$$$$$",
"$$$$$$$$$$$$ooXX  %%..@@@@@@@@@@@@@@@@@@@@..%%  $$$$$$$$$$$$$$$$",
"$$$$$$$$$$$$ooXX  %%..@@@@@@@@@@@@@@@@@@@@..%%  $$$$$$$$$$$$$$$$",
"$$$$$$$$$$$$ooXX  %%..@@@@@@@@@@@@@@@@@@@@..%%  $$$$$$$$$$$$$$$$",
"$$$$$$$$$$$$ooXX  %%@@@@@@@@@@@@@@@@@@@@@@@@%%  $$$$$$$$$$$$$$$$",
"$$$$$$$$$$$$ooXX  %%@@@@@@@@@@@@@@@@@@@@@@@@%%  $$$$$$$$$$$$$$$$",
"ooooooooooooooXX  %%@@@@@@@@@@@@@@@@@@@@@@@@%%  oooooooooooooooo",
"ooooooooooooooXX  %%@@@@@@@@@@@@@@@@@@@@@@@@%%  oooooooooooooooo",
"XXXXXXXXXXXXXXXXXX  @@@@@@@@@@@@@@@@@@@@@@@@  XXXXXXXXXXXXXXXXXX",
"XXXXXXXXXXXXXXXXXX  @@@@@@@@@@@@@@@@@@@@@@@@  XXXXXXXXXXXXXXXXXX",
"++++&&&&++++&&&&++  OOOOOOOOOOOOOOOOOOOOOOOO  &&++++&&&&++++&&&&",
"++++&&&&++++&&&&++  OOOOOOOOOOOOOOOOOOOOOOOO  &&++++&&&&++++&&&&",
"&&&&++++&&&&++++##  OOOOOOOOOOOOOOOOOOOOOOOO  ##&&&&++++&&&&++++",
"&&&&++++&&&&++++##  OOOOOOOOOOOOOOOOOOOOOOOO  ##&&&&++++&&&&++++",
"XXXXXXXXXXXX######  OOOOOO            OOOOOO  ######XXXXXXXXXXXX",
"XXXXXXXXXXXX######  OOOOOO            OOOOOO  ######XXXXXXXXXXXX",
"$$$$$$$$$$########  OOOOOO  ########  OOOOOO  ########$$$$$$$$$$",
"$$$$$$$$$$########  OOOOOO  ########  OOOOOO  ########$$$$$$$$$$",
"$$$$$$$$$$$$########                        ########$$$$$$$$$$$$",
"$$$$$$$$$$$$########                        ########$$$$$$$$$$$$",
"$$$$$$$$$$$$oo##                                ##$$$$$$$$$$$$$$",
"$$$$$$$$$$$$oo##                                ##$$$$$$$$$$$$$$",
"oooooooooooooo####                            ####oooooooooooooo",
"oooooooooooooo####                            ####oooooooooooooo",
"XXXXXXXXXXXXXXXX################################XXXXXXXXXXXXXXXX",
"XXXXXXXXXXXXXXXX################################XXXXXXXXXXXXXXXX",
"++++&&&&++++&&&&++++&&&&++++&&&&++++&&&&++++&&&&++++&&&&++++&&&&",
"++++&&&&++++&&&&++++&&&&++++&&&&++++&&&&++++&&&&++++&&&&++++&&&&"
};
