/* XPM */
static char *xpm_[] = {
/* columns rows colors chars-per-pixel */
"64 64 238 2 ",
"   c #140E0B",
".  c #15110D",
"X  c #1B1A0D",
"o  c #151412",
"O  c #1B1613",
"+  c #1C1915",
"@  c #171719",
"#  c #1C1B1B",
"$  c #231714",
"%  c #221A16",
"&  c #241D1B",
"*  c #291E1B",
"=  c #371C18",
"-  c #1F201E",
";  c #24290B",
":  c #2D350C",
">  c #323A0D",
",  c #282816",
"<  c #25211C",
"1  c #2C221D",
"2  c #32241E",
"3  c #2E3318",
"4  c #343A19",
"5  c #201F21",
"6  c #242324",
"7  c #2B2524",
"8  c #292827",
"9  c #2C2A2C",
"0  c #332622",
"q  c #382723",
"w  c #352A25",
"e  c #3B2A26",
"r  c #322E2D",
"t  c #3C2D29",
"y  c #2F302C",
"u  c #353926",
"i  c #35322C",
"p  c #3C332D",
"a  c #3C3C2D",
"s  c #2E2E32",
"d  c #2F3235",
"f  c #343234",
"g  c #393534",
"h  c #3C3A34",
"j  c #35353A",
"k  c #3A363A",
"l  c #34393C",
"z  c #3C3B3C",
"x  c #471E17",
"c  c #50251D",
"v  c #422E2A",
"b  c #582F29",
"n  c #43312D",
"m  c #48342E",
"M  c #433532",
"N  c #4D3632",
"B  c #493935",
"V  c #413D3C",
"C  c #4A3D3A",
"Z  c #523A36",
"A  c #573C36",
"S  c #553E39",
"D  c #702F25",
"F  c #67342B",
"G  c #683D35",
"H  c #3A460C",
"J  c #3C4518",
"K  c #3E4323",
"L  c #3E412B",
"P  c #3D4137",
"I  c #43530E",
"U  c #475B0B",
"Y  c #4A5D0D",
"T  c #424C14",
"R  c #434C1D",
"E  c #455414",
"W  c #485716",
"Q  c #4B5C14",
"!  c #46531C",
"~  c #4A551C",
"^  c #4D5C1B",
"/  c #515E14",
"(  c #515D1D",
")  c #4B6206",
"_  c #4D620C",
"`  c #52640D",
"'  c #51680A",
"]  c #4E6112",
"[  c #4E611B",
"{  c #526513",
"}  c #546913",
"|  c #53621D",
" . c #444C23",
".. c #444827",
"X. c #42442C",
"o. c #454B2A",
"O. c #465322",
"+. c #4A5524",
"@. c #4D5A23",
"#. c #4B552B",
"$. c #4E5B2C",
"%. c #525D23",
"&. c #50562B",
"*. c #525E2B",
"=. c #424433",
"-. c #464B34",
";. c #494C35",
":. c #44423B",
">. c #4B433C",
",. c #454B3B",
"<. c #4B4B3D",
"1. c #54443C",
"2. c #5A423D",
"3. c #4C5333",
"4. c #4E5A33",
"5. c #4D533C",
"6. c #535C34",
"7. c #52583B",
"8. c #64433D",
"9. c #7C4135",
"0. c #4F6023",
"q. c #536323",
"w. c #54622B",
"e. c #596529",
"r. c #59643A",
"t. c #3C3C42",
"y. c #3A3C44",
"u. c #413E43",
"i. c #413F4A",
"p. c #394248",
"a. c #3B4A52",
"s. c #444344",
"d. c #494544",
"f. c #454A43",
"g. c #4B4B45",
"h. c #44444C",
"j. c #49464B",
"k. c #45494C",
"l. c #4B4A4C",
"z. c #5E4541",
"x. c #564B45",
"c. c #514D4D",
"v. c #4D5243",
"b. c #4E534A",
"n. c #525343",
"m. c #535B43",
"M. c #52524D",
"N. c #5A554A",
"B. c #555B4D",
"V. c #595C4C",
"C. c #464651",
"Z. c #494651",
"A. c #454B53",
"S. c #4C4C53",
"D. c #454A59",
"F. c #4D4D59",
"G. c #514E52",
"H. c #514F5C",
"J. c #4D5154",
"K. c #44525B",
"L. c #4D525B",
"P. c #545354",
"I. c #585555",
"U. c #565A52",
"Y. c #5A5B55",
"T. c #53535D",
"R. c #59565B",
"E. c #56595B",
"W. c #5C5B5C",
"Q. c #614642",
"!. c #634A45",
"~. c #664D48",
"^. c #724C49",
"/. c #6B514A",
"(. c #75554E",
"). c #685952",
"_. c #605E5E",
"`. c #775B54",
"'. c #5B6248",
"]. c #5D6158",
"[. c #656A53",
"{. c #636758",
"}. c #7B645C",
"|. c #4D5861",
" X c #545562",
".X c #555A63",
"XX c #575865",
"oX c #5A5C65",
"OX c #555769",
"+X c #5A5D69",
"@X c #5C5E6A",
"#X c #615E60",
"$X c #605F6C",
"%X c #546067",
"&X c #5D6165",
"*X c #56626A",
"=X c #5E616B",
"-X c #636263",
";X c #61626C",
":X c #676869",
">X c #786861",
",X c #747767",
"<X c #636372",
"1X c #853C30",
"2X c #8C483B",
"3X c #985547",
"4X c #895855",
"5X c #86665D",
"6X c #93695C",
"7X c #A4685B",
"8X c #8E7369",
"9X c #98746A",
"0X c #AE776C",
"qX c #A6786C",
"wX c #A27C71",
"eX c #94857A",
"rX c #AC8678",
"tX c #B58779",
"yX c #B28A7D",
"uX c #9B9389",
"iX c #B58E82",
"pX c #A3998F",
"aX c #BC9285",
"sX c #BC998B",
"dX c #BCA694",
"fX c #BEAEA2",
"gX c #C4978A",
"hX c #CA9D8E",
"jX c #C99F91",
"kX c #C7A796",
"lX c #D2A495",
"zX c #D7A99A",
"xX c #DAAB9C",
"cX c #CDB9AA",
"vX c #D4B8A9",
"bX c #D4BFB0",
"nX c #E3B4A4",
"mX c #D1C0B2",
/* pixels */
"I.I.g.#.} 6.#X=X*X=X@X+X+X+X.X XF.k.V s.A.F.F.F. X XoX@XoXoX@X@X XI.b.z i g s.l.l.G.G.P.I.I.I.#XoXW.#X#X#X#X_.W.P.M r g c.I.I.P.",
"P.M.<.^ _ @.W.=X=X@X@X+X+X+X+X.XT.C.V t.k.Z.Z.Z.A.C.Z.A.S.Z.h.i.s.o.K L h a d.S.l.G.G.G.I.G.R.W.{.#X#X#X#X_.W.W.M.z i a d.M.c.I.",
"P.M.;.( U @.oX-XoX=X=X=X@X+X+XXXXXS.V g j z t.k V f r r r f f f h ! W ^ ^ ! :.j.l.l.G.G.S.G.I.R.R._.#XW.#X#X_._.P.z a K =.P.c.I.",
"c.5.#.W O.v.oX=X=XoX=X@X@X+X+X.XE.J.R J g g g V u.z u.j.j.S.G.J.U.'.'.^ _ E :.l.l.l.l.G.G.G.G.G.I.W.oX_.W.#XW.R.I.=.R I o.x.c.c.",
"l.5.| Y ! g..X-X=X=X@X+X@X@X+X+XXXP.#. .:.S.F.F.T. XR.XX@X$X;X<X-X;X].4.W O.-.j.j.j.l.l.G.G.G.G.G.P.R._.Y.W.W.W.I.3.! U X.d.j.c.",
"g.>.#.~ ! ;.R.$X=X=X@X@X+X@X+X+XoXT.,.@.n.R. XXXR.XXXX.XoXR.l.u.t.t.t.a J T ..g f z j.l.l.l.G.G.G.G.P.R.I.R.R.I.W.e._ U X.s.g.g.",
"j.:.M O.I #.U.;X*X@X@X@X@X@X+X+XoXU.@.{ 5.H.R.XXXXXXXX.XoXF.s o O @ O . : H R 7 O 9 j.l.l.l.S.l.G.G.G.P.I.I.I.R.Y.6.Q E X.V j.d.",
"s.V K ! O.,.T.*X@X;X=X@X@X@X+X+X+XB.] ` ;.u.p.z i.s.i.i.k.t.7 $ + O O O , : u * % 7 f z j.j.l.c.l.G.l.G.I.I.I.I.I.x.K  .X.z s.d.",
"g L I E o.g.T.@X@X;X@X@X@X@X@X@X@XE.#.@.a 8 & 6 5 & 5 5 5 7 0 e q e e q 2 ; % 1 q * * 9 V j.l.l.l.l.j.d.l.V s.:.:.;.R I R X.h g ",
"g L O.W U +.Y.;X=X@X@X@X@X@X@X@XXXL.P H u # .   . . . . . $ v Z N N N Z e * % e m *   # r V u.V s.s.s.g a R ..K W { ^ ! E W X.M ",
"s.d.<.%._ @.].;X&XoX&X@X@X@XoX@X*XE.J ; < 1 2 2 2 2 2 0 q v Z A 2.2.A 2.N q q N Z 0   o 7 9 9 9 u a K  .! ` ] Q ) ' | ,.3.*.;.d.",
" XR.g.5.q.*.XX;X;XXX@X;X;XoXW..X|.J.J X $ 2 m m m m N N Z S 8.!.Q.!.!.!.2.Z N 2.2.t O + r z z z :.~ ~ Q @.( @.Q _ _ *.Y.=X-XoXoX",
";X;XR.j.&.+.n.U.U.m.b.b.n.r.$.5.b.,.H H : 2 0 v N A S S u.Q.!.!.!.!.!.!.Q.2.2.8.2.B t 7 r z Z.T.R.5.Q @.f.J.U.B.w.} 6.@X;X;X;X;X",
"-X=XXXH.<.+.~ Q [ ] ^ Q [ ] ) Q ^ I J ] H X $ e A S Q.!.!.!.!.!.!.!.!.!.!.Q.!.!.!.Q.2.p & 6 h.T.T.v.R o.k.T. XE.q.` w.oX;X;X=X<X",
"=X@X;XR.7.Q [ q.[ _ Q } } | ! [ ] U I H : 1 5 N u.z.!.!.!.!.!.!.!.~.!.!.!.!.!.!.!.!.!.n + & t. XH.l.h u.k.T.T.R.3./ 7.oX$X&XoX&X",
"=X@X=X.Xb.O.5.Y.U.7.m.V.V.U.B.B.r.#.J ; 1 e N G Q.!.!.!.!.!.!.!.!.!.!.!.!.!.!.!.!.!.!.n + # h.T. Xs.z t.k.F.L.S.P h G.XX=X&XoXoX",
"<X&X@X.X5.R l.oX=X;X=X;X=X<X<X;X:X&Xz o % n S 2.!.^.Q.Q.~.Q.!.!.z.z.z.8.z.!.!.!.!.!.!.n O 5 t. XT.h.k t.Z.F.F.j.z r G.XX$X@X$XoX",
"=X@X@XT.-.J j.$X=X=X=X;X=X;X;X;X;X+Xz o % n 2.z.Q.!.Q.~.!.~.~.!.2.Z A Z S z.!.!.!.!.2.v . @ t.H.F.k.V u.h.A.F.F.t.r i. X#X@X$X$X",
"@X=X=X Xz r h.@X=X=X=X=X<X=X&X=X+XT.j O % n S 2.^.Q.!.!.!.!.!.Q.2.S Z N Z 2.!.!.!.!.!.n o @ y.D.H.j.u.u.i.k.Z.Z.j r i.R.=X=X$X#X",
"@X@X@XH.f w h.oX=X=X=X=X<X=X=X+Xk.f 7 7 q n Z 2.u.Q.!.!.!.!.!.~.`.6X(.Z Z Q.!.S G u.Q.A e 5 8 s y.s.=.V t.p.h.h.k g Z.XX=XoX+X$X",
"=X+XoXL.g m v.E.+X=X;X=X=X=X=X.Xf O * t m N N Z 2.8.!.!.!.!.~.^.wXaX9X8.S Q.Q.A A A ~.z.A t $ o s ,.! o.p.t.p.t.k g Z.T.oXoX+X=X",
"@XoX@XS.X.+.b..X=X+X=X=X&X=X@XT.y.s 7 0 q v N A 8.i.!.!.!./.5X9XiXhXrX5X(.~.Q.G F A !.Z t 7 5 5 j 3.` ^ P t.y.y.f z A.R. X.X.XoX",
"XX+X=XL.O.^ f.T. X X.XW.E. X.XP.A.s.9 O % v N A Q.!.!.~.!.`.qXgXhXlXhXgXqX`.^.F D G !.n O X 3 u P ! { ^ =.l l d k z Z.H. X|. X X",
"L..XXXb.O.] O.-.,.o.@.q.o.,.#.q.#. .3 . $ e Z 8.!.!.!./.`.9XiXhXtXwXyXhXgX9X(.G F F G m * X : J R ^ | |  .z k t.s.z Z.F.L.L. XT.",
"T.L. Xb.[ ) ] ^ ^ W _ ` ^ O.Q _ ^ O.3 . $ t S 2.!.!.!.5X0XiXgXgX5X1.5XkXlXaX9X8.= c D F v q & # z V.W.Y.Y.R..X XT.V i.F.F.F. XT.",
" XL.L.S.+.U O.m.m.m.r.r.b.U.v.#.;.P y + * n S z.!.~.^.6XgXlXlXaX~.* /.jXxXxXyX2.O x D D N e & @ P ;X;X<X<X<X:X;XoXV V A.A.H.L.T.",
"H.T.L.C.P I ! P.T. X|. X].E.G.j.j 8 < 1 e N S z.^.(.6XqXgXlXhXgX/.2 (.jXnXvXaX~.* c D b = 6 r u.F.+X@X#X@X@X&X@XoXd.h Z.F.F.H.T.",
"L.S.L.j.o.E +.B.S.P.P.B.e.$.g.z 6 . * v N Z S z.~.4X7X0XgXlXlXgX`.m }.lXnXnXgX`.x F 1Xc . O y. X=X=XoX@X$X#X&X=X.XS.V u.F.S.F.F.",
"D.A.j.3.Q _ Q $.#.3.o.0._ _ %.a 3 , , 1 q N S 2.Q.^.4X9XgXlXlXgXwX5XrXxXnXnXzXrX5X6X7XG O o y..X+X=X*X$X=X<X*X.X.XL.u.z f.b.S.b.",
";.=.=.%.} _ ] _ U U I ] ) ' ^ ~ U Q : X * n S S G u.8.5XiXlXlXlXzXlXxXnXnXnXnXzXlXhXgX4X& o l E.E..X@XoX&X&XoX].'.U.d.O.Q #.,.#.",
"{ %.( ` { Q ` ` } _ Y Q ] | q.Y ) _ R 8 7 e n N u.u.G (.9XtXgXlXxXnXnXnXnXnXnXnXzXiX8X!.9 6 L 4.5.v.m.P.b.'.7.q.} w.3.[ _ ] ^ E ",
"_ ~ { Y ] _ _ ^ q.^ ] %.7.n.n.@.} _ 7.J.z 7 & t G A A Q.^.5XiXlXxXnXnXnXnXnXnXzXhX5Xp 0 u u ! _ Q ^ _ @.@._ _ ] _ } ] _ W J ! ! ",
"e.7.6.%.6.e.e.m.V.V.r.'.P.I.I.7.o.&.Y.;XG.s 7 M z.B n N Z /.9XaXlXnXvXnXnXnXlXgX9Xz.+ ; H 4.$.Q ~ $.} $.*.[ Y Q ` ' _ ] #.V -.*.",
"[.:X-X_.&X).[.Y.Y.I.N.P.M.M.l.d.p z T.;XXXA.k.G.G.V 1 q B !.(.5XyXlXxXxXlXxXgX5X1.M f L 3.U.E.V.Y.E.'.].U.V.e.| ) ] | e.Y._.#X{.",
"#X-X_.W.W.W.R.I.I.I.P.P.P.c.S.j.h V G.@X;X@X&XoXT.f O 1 N 1.A Q.9XgXlXlXlXlXrX2.O 9 j. XoX$X=X;X=X<X=X=XoX&X'.] ) [ r.[._._._.W.",
"#X_.Y.W.W.W.W.I.I.P.P.M.c.c.g.d.z h S.#X;X;XoXh.f 8 & p x.N.1.1.8XjXkXkXkXkXyX~.7 7 s h.oX;X&X;X=X$X@X=X*X%Xr.] } e.].{._._.W._.",
"_._.R._.W.W.R.Y.I.I.P.P.c.G.l.d.V z h.$X=X=XT.d O & 0 >.{.].<.C 8XdXkXkXdXdXrX'.w * o s T.&X=X;X=X=X=X&X+X&Xw.' / 5.W._._._.#XR.",
"#XW._.R.W.W.R.I.P.P.P.G.G.c.c.d.:.g u. X+XoXF.9   $ w <.[.{.5.1.eXkXdXtXrXrX6X8.w *   8 P.;X;X=X=X=X=X+XoXoX'.Q W 5.W._._._.R._.",
"#XW.W.R.R.W.I.P.P.P.c.c.c.g.g.s.d.g V T.XX XA.8   % w d.[.[.c.x.eXcXaX3X2X2X9.A q &   8 S.@X=X=X=X=X=X+X&XoXb.O.I 3.W._.Y.W.W._.",
"R.Y._._.W.I.M.P.P.P.P.l.l.l.l.j.j.X.3.S.A.h.z 6 O * t 1.[.,XN.!.eXcXhX7X2X2XD b q & O 6 y.F..X=X*X=X=X@X.X&Xn.@.! ;.W.W._.W.W.Y.",
"W.W.W.R.R.I.P.M.c.G.c.g.l.c.d.k.u.o.@.l.p.s & 6 7 q e n.,X,XM.N.eXmXcXkXtX2XD b e w 1 7 6 f S.+X+X+XoX@X@X].q.U ! >.W.oXW.W.W._.",
"c.d.c.g.x.G.G.P.c.G.S.l.l.g.g.g.>.&.( v.z # . & q t t x.,X,X).N.uXmXvXcXsX7X2XG t t t * . # h.@X@X&X=X.XoX].q.` ~ ;.I.Y.V.G.G.c.",
"p a a a g :.G.d.g.j.k.,.j.d.:.:.-./ ' @.u @ . * e g M x.Y.V.x.N.eXkXdXrX0XtXeX/.t n M 0 o # p.XX+X+X+X+X.XE.3.#.Q R 3.%.+.L k p ",
"4 T ! H J a =.B X.X.o.m r g a m ~ ` / E > X . * e M C C >.>.>.x.eXdXyX2X7XkXdX}.n g B r O # t..XT.L.J.b.4.-.:.o.| ^ ( Y U u w r ",
"=.;.O.U ^ W E ^ ^ @.E R u p ! ! _ _ $.+.4 + . 7 M B C C B B C N.eXdXsX9XtXcXfX>Xp n M 7 . O f d.f.:.P O._ [ @.~ Y { q.^ O.L f g ",
"F.T.E.B.$._ Q 7.U.U.V.m.J.P.U.M.'.'.&XoXd.# o w B u.u.B p p B x.eXcXcXdXkXcXfX>Xt e t 1 . o u R J ~ ^ +.| 6.v.3.{ { #.,.g.k.k.Z.",
"T.T.E.E.,.Q ^ Y.+XXX@XXX@X@X@X<X=X<X<X:Xk.6 + 1.>X}.}.!.M t M x.,XpXpXuXuXpXuX).M C ~.M % o u $.+.7.V.U.W.oX.X6.] { q.g.S.S.L.T.",
"R.R.E.J.$.Q Q '.R. XT.T.XX XE..XoX;X;X;Xh.6 1 }.iXiXiX5XZ t t M Y.:X:X:X:X:X*Xv.M (.wX(.1 # s.oX].=X<X=X<XoXoX*._ ) | v.J.H.H.L.",
".XXXR.l.o.^ %.U. XR. X XXX X XXX=X=XoXT.z < q }.sXsXiX8Xx.f h z k.K.K.K.K.K.K.s.C `.wX`.r 9 Z.@X=X=X+X+X.X+XE.4.] } %.v.F. XT.I.",
".X.X.X7.W  .v. X XT. X X XoXXXoX=X+XS.d 9 < w c.:X:X_.R.k.k.l.S.L.%XK.K.K.|.|.L.S.d.x.C u.k. X+X+X+X*X.X.X.X.XL.$.| %.b.S.F. XT.",
"R.XXR.,.E I 5.L.T.T. X X XoX X;X;X&Xy.@ O & t l p.p.y.a.a.K.|.*X*X*XL.a.K.|.*X*X|.l o 6 k.+X@X@X*X.X&X+X+XoX.X X#._ { ,.l.A.A.T.",
"F.L.I.3.! ! b. X|.T. X X X XoX$X=XoXt.o + w B :.p.p.y.a.K.%X*X*X*X*Xa.f p.L.*X*X.Xj o 6 k.XX@X@X@X+X+X+X+XoXoXL.,.@.*.g.Z.Z.Z.Z.",
"F.L.m.%.O.;.J. XH.|. X X XXX@X;X=XoXt.o < M 1.1.,.p.p.a.K.%X*X*X*X%XP @ 9 C.*X*X|.l o 8 C.L.XX@X=X@XoX@XoXoXXXL.3.o.z h.j.k.Z.F.",
"S.P.6._ I $.P.T. X XT. X.X@X@X=X=XoXh.8 9 h =.:.=.z y.p.a.a.k.k.A.A.d @ 5 y.A.A.k.d & 9 h.F.A.H.oX@X@XoX+X+X+XM.( ~ P h.Z.D.Z.F.",
"S.M.*.` U $.S.L.L. XT. XXX@X=X=X=X=XF.t.h l f j f d d d i y y d d d 8 5 5 r j y.j s 8 d t.s.h.C.F.+X@X@X@X+X+XT.3.o.h t.D.Z.Z.S.",
"D.A.;.^ Q #.l.L.F.F.H.H. X@X=X@X+X=X XF.s.k j j j j l f 3 : : 6 d 8 8 5 5 5 s s d d d l t.t.h.j.S.oX@X@X+X+X+X+Xj.z k t.h.Z.A.S.",
"h.3.O.| { Y ,.s.u.t.u.t.C. XXXXX+X@X XT.F.u.y.t.l l g f 4 > > 8 s s 9 6 7 i j j l z k k y.s.Z.F.H. X@XXX@X+X@XXXF.h g y.h.A.h.Z.",
"=.( Y { { U o.V V z h k t.h.k.h.s.i.h.h.:.k f a i u 4 3 4 H J 4 6 6 6 u 4 u t.t.t.t.p.h.i.h.A.R.T.L. XXX.X@XOXXXA.z V y.y.y.t.z ",
"h o.( q.q.+.v.l.d.h.j.s.k r r f g g g h ! R J H J T R J H J R T y 8 w J U R :.s.d.h.f.>.s.h.Z.C.j.k.h.k.l.l.A.k.=.M :.j f i w g ",
"d.d.v.^ _ *.V..XoXoXoXR.j.V z z V h a :.*.4.,.v.6.7.n.7.*.5.7.m.J.J.k. .Q ^ O.O.! #.~ / -.z k t.t.u.P ..#.K #.J E ..a g f g k :.",
"I.W.'.{ Y Q '.;X@X@X@X@XXXT.T.R.T.j.h G.E.E..X+XoX@X;X;X-X-X=X=X<X=XY.#.! R ~ { _ W Q { +.R a z X.~ *./ Y U ] U R a p h V d.c.M.",
"W._.V.| _ #.].<X=XXX+X+X@X@XOX X XF.V S. XF.R.+X@X@X@X:X=X=X=X=X*X=X'.] Y R -.%.Q #.3.3.>.o.=.C -.~ *.%.[ q.[ Q O.! K V M.W.Y.Y.",
"U.I.5.( _ 6.@X<X=X@X+XXX@XXX XZ.F.F.t.Z.F.F.L.XXXX@XoX;X=XoX=X+X=X=XY.q.Q o.d.N.M.n.c.I.c.c.c.N.M._.I.'.).Y.'.'.n.X.p V G.W.Y.I.",
"R.Y.c.( ` w.&X<X$X@X@X.X+XXXXXF.F.S.:.j.F.F.F.L. X+X@X=X=X=X=XoX=X=X X<.K h g.c.G.G.P.I._.#X:X-X_.-X-X-X-X_.-X_.P.z p V G.W.I.I."
};
