/* XPM */
static char *xpm_[] = {
/* columns rows colors chars-per-pixel */
"64 64 233 2 ",
"   c #0C0D07",
".  c #120E0B",
"X  c #16140B",
"o  c #15110E",
"O  c #151412",
"+  c #1C1612",
"@  c #1D1B14",
"#  c #1D1C1C",
"$  c #251613",
"%  c #221A16",
"&  c #241D1B",
"*  c #291E1B",
"=  c #2D360C",
"-  c #24211D",
";  c #2B221D",
":  c #292818",
">  c #33231E",
",  c #2E3512",
"<  c #1E1F21",
"1  c #201F21",
"2  c #1B2022",
"3  c #242223",
"4  c #2C2423",
"5  c #2B2A24",
"6  c #252728",
"7  c #2A2629",
"8  c #2C2A2B",
"9  c #342522",
"0  c #382723",
"q  c #352A25",
"w  c #3A2925",
"e  c #332D2C",
"r  c #3C2D29",
"t  c #2F3221",
"y  c #363924",
"u  c #35322C",
"i  c #3B342C",
"p  c #3C3C2D",
"a  c #2E2E32",
"s  c #312E33",
"d  c #2E3237",
"f  c #343334",
"g  c #393534",
"h  c #3C3A34",
"j  c #353539",
"k  c #3A363B",
"l  c #36383E",
"z  c #3C3A3B",
"x  c #41211C",
"c  c #4D2C26",
"v  c #412E2A",
"b  c #44322E",
"n  c #48342E",
"m  c #5C302A",
"M  c #4D3631",
"N  c #463935",
"B  c #4D3A35",
"V  c #413D3C",
"C  c #523A36",
"Z  c #573C37",
"A  c #553D39",
"S  c #63352C",
"D  c #6C3229",
"F  c #78352A",
"G  c #663D35",
"H  c #3A460E",
"J  c #3D4719",
"K  c #3D4423",
"L  c #3E412A",
"P  c #3E4136",
"I  c #44540E",
"U  c #475B0B",
"Y  c #4B5E0D",
"T  c #414D13",
"R  c #434D1D",
"E  c #455414",
"W  c #485715",
"Q  c #4B5C14",
"!  c #46531C",
"~  c #4A551C",
"^  c #4C5B1B",
"/  c #515E14",
"(  c #515D1C",
")  c #4B6206",
"_  c #4D620C",
"`  c #52640D",
"'  c #51680A",
"]  c #4E6112",
"[  c #4E611B",
"{  c #526513",
"}  c #546913",
"|  c #53621C",
" . c #434C23",
".. c #454927",
"X. c #42442C",
"o. c #444B2B",
"O. c #465322",
"+. c #4A5524",
"@. c #4D5A23",
"#. c #465029",
"$. c #4B542B",
"%. c #4E5A2B",
"&. c #515D23",
"*. c #525E2B",
"=. c #434434",
"-. c #464B34",
";. c #484C35",
":. c #43433C",
">. c #4B443B",
",. c #464C3B",
"<. c #4B4A3C",
"1. c #56423C",
"2. c #5B423D",
"3. c #4C5334",
"4. c #4F5934",
"5. c #4D533D",
"6. c #535C34",
"7. c #52583B",
"8. c #6C433C",
"9. c #4F6023",
"0. c #536323",
"q. c #54622A",
"w. c #596529",
"e. c #586339",
"r. c #3D3C43",
"t. c #393E46",
"y. c #413E42",
"u. c #413F4A",
"i. c #3C4143",
"p. c #3D464C",
"a. c #444344",
"s. c #494544",
"d. c #454A44",
"f. c #4B4B45",
"g. c #44444B",
"h. c #49464B",
"j. c #46494C",
"k. c #4B4A4C",
"l. c #5E4540",
"z. c #534843",
"x. c #514D4D",
"c. c #4D5243",
"v. c #4E524B",
"b. c #525443",
"n. c #545B43",
"m. c #52534D",
"M. c #555B4D",
"N. c #595A48",
"B. c #5A5C4C",
"V. c #464651",
"C. c #484753",
"Z. c #4C4C53",
"A. c #4D4D59",
"S. c #514E52",
"D. c #504F5C",
"F. c #4E5054",
"G. c #4F5C50",
"H. c #4E515B",
"J. c #545354",
"K. c #585656",
"L. c #555B53",
"P. c #5A5A55",
"I. c #52535C",
"U. c #59565B",
"Y. c #55595B",
"T. c #5C5B5C",
"R. c #614742",
"E. c #634A44",
"W. c #6A4C48",
"Q. c #64534C",
"!. c #6D524C",
"~. c #775149",
"^. c #685B55",
"/. c #605E5E",
"(. c #745851",
"). c #7B5C54",
"_. c #5A6245",
"`. c #5D634E",
"'. c #5D6257",
"]. c #646B52",
"[. c #646659",
"{. c #786359",
"}. c #545562",
"|. c #535466",
" X c #565963",
".X c #585866",
"XX c #5A5C65",
"oX c #5A5D69",
"OX c #5C5E6A",
"+X c #615E60",
"@X c #605F6B",
"#X c #5D6165",
"$X c #5E616B",
"%X c #5F6170",
"&X c #626263",
"*X c #61626C",
"=X c #696768",
"-X c #757164",
";X c #636371",
":X c #81372C",
">X c #894438",
",X c #91493C",
"<X c #90564D",
"1X c #85655C",
"2X c #9E6258",
"3X c #A2685B",
"4X c #8C6B62",
"5X c #956D65",
"6X c #84756B",
"7X c #98756A",
"8X c #897B72",
"9X c #A6786F",
"0X c #AC7A6C",
"qX c #79836D",
"wX c #8C8177",
"eX c #A68276",
"rX c #AD8579",
"tX c #B5897B",
"yX c #999087",
"uX c #B88D81",
"iX c #BA9688",
"pX c #A29B93",
"aX c #BCA795",
"sX c #C58F85",
"dX c #C69A8C",
"fX c #CA9F90",
"gX c #C6A696",
"hX c #D1A394",
"jX c #D6A899",
"kX c #DAAC9C",
"lX c #C9B8AA",
"zX c #DAB4A4",
"xX c #E3B4A4",
/* pixels */
"K.K.f.$.} *.XX$X#X$X$XOXoX.X.X}.A.V.V s.C.C.A.A.H.}.oXoXoX.XXXXX XU.v.z u g a.x.k.S.S.K.J.U.T./.+X/.+X+X+X+X/.T.S.N e g x.K.J.K.",
"J.m.<.^ _ @.XX*X#XoXOXoXoXoX.X.XI.C.V V V.C.A.h.V.C.C.Z.Z.C.g.g.a. .J P h p a.Z.k.Z.S.S.S.S.K.T./.+X+X/.+X/.T.T.x.k u p s.m.x.K.",
"J.x.;.( Y @.T.&XoX$X$X$X$XoXoX.X XC.V f l z r.k V f e e e f f g h ! W ^ / ! :.h.k.k.S.S.S.S.K.U.T.+X/.T.+X/./.T.J.z p K =.J.x.K.",
"x.5.%.W O.c.OX$X#XoX$XoXoXoX$X.XY.v.R  .g g f V y.z y.g.h.Z.S.J.Y._._.^ Q E :.k.k.k.k.Z.S.S.S.S.J.U.+XT./.T./.T.K.=.R I o.z.x.x.",
"h.5.( _ ~ j.XX#X$X$X$XoXoXoXoX.X.XJ.O. .:.h.A.I.I.U.U..X$X@X*X;X*X*X#X*.W ~ ;.h.k.k.Z.x.Z.S.S.J.S.K.U.T.T.T./.T.K.3.! W X.s.k.x.",
"f.>.$.~ W ;.I.*X$X$XOXoXoX$XoXoXXXI.,.@.b.}..X}. X.XXX XXX@X*X*X*X*X$X_.@.~ ..s.h.h.k.k.k.x.Z.S.S.S.J.U.U.K.K.U.T.w.) U X.a.s.f.",
"h.:.h  .E $.J.$X$X$X$XoXOXoXoXoXoXL.@.{ 5.I.I..X X}..X XXX@X*X$X;X$X*X_.{ U O.s.s.h.k.k.k.k.x.k.S.S.S.J.K.K.K.K.P.6.W E X.V g.f.",
"g.N  .! ! ,.I.$XoX$XOXOXoX$X$XoXOXN.Q ` 3.D.}.}..X}..X XXX@X@X@XOX#X.Xn.( W $.s.a.g.s.h.h.f.k.k.Z.k.S.x.K.K.U.J.K.b. . .X.V a.a.",
"f K I E o.f.Y.#XoX$XOXOXOXOXOXOXoXY.$.^ ;.A.H.}. XY..X.XOX$XOXoXZ.t.z y = H , z a.g e j a.h.k.h.Z.k.h.s.s.V a.:.>.-.R T T X.h g ",
"g =.O.W Q +.L.*X#X$XOXOX%XOXOXXXoXH.-.J o.Z.J.}. X}.}.oX$XOXOX Xj @ X X X X @ 5 u 3 O - f V y.V a.a.:.z N  ...K W / W ~ ~ W K N ",
"a.s.<.&._ @.T.*X#XoX#XOXOXOXoXoXoX}.%.U X.C.I.Z.i.g.r.V.j.g.g.r.8 % + @ $ + $ - - * + & & 3 7 q y K K K E ` ] Q ) ) | ,.3.*.<.s.",
" XU.k.3.| %.oX*X$XOXOXXXOX#XU.XX.XG.0.]  .d.g.d < < # < & < < & 9 w 0 0 w w > * @ * 9 ; # & f z =.$.~ ] @.^ ^ ^ _ ` q.T.$X$XT.XX",
"*X@XU.k.@.+.m.L.G._.v.v.v.6.*.c.v.5.W _ W T y : o o o o o o o $ 0 n B M M Z b * + 9 n 0 o # r.I.I.7.Q @.d.Z.L.M.q.{ 6.XX*X*X*X*X",
"&XOX.XD.<.$.~ Q [ ] ^ [ ] { ) Q W E W ] I = = : 9 > > > 9 0 0 v M 1.Z 2.A 2.A v 9 n A r + # g.I.I.f.! o.j.}.}.Y.0.` q.OX*X*X*X*X",
"OX$X@XU.7.Q [ 0.[ Y Q { } | W ^ ] Y Y Y H : + > v c n n M M Z G 2.E.E.E.E.E.l.C M A R.n % 3 y.A.A.k.h r.j.I.Y.J.4.^ 7.XXOX#XoX#X",
"$XOX$X.Xc.+.5.P.L.7.b.B._.Y.M.M.e.q.q.{ O.g e 4 9 v M Z Z G y.y.R.R.E.E.E.E.R.2.A 2.R.A r e f j u.u.k y.j.H.A.Z.P h x..X*X#XoXXX",
"$X#XOX X5.R h.OX*X$X$X$X*X;X;X*X*X*X[.`.L.}.g.6 + 9 C G R.E.E.E.E.E.E.E.E.E.E.E.E.E.E.l.2.M 3 # k u.g r.V.A.A.Z.k e Z.}.*X*X@XXX",
"*XOX$XI.-.J h.@XOX$X*X*X$X*X;X*X*X*X*X.XH.g.j 4 3 v Z y.R.W.E.E.E.E.E.E.E.E.E.E.E.E.E.E.E.M * O f g.V r.g.C.A.A.k s h.}.@X.X@X/.",
"OXOX$X}.z e g.oX$X$XOX*X$X$X$X*X*X#XXX}.g.7 & q n A y.R.R.E.E.E.E.E.E.E.E.E.W.E.E.E.E.E.E.B & O f g.s.y.g.g.Z.C.k f s.U.OX$XOX@X",
"*X.X$XD.f q g.oX$X$X$X$X*X$X$X$X$XoX.X.Xr.# + r Z 8.W.E.E.E.W.E.E.E.R.R.R.2.2.E.E.E.E.E.E.B # O a y.=.V r.t.g.g.j f C.}.$XOXXX@X",
"$XoXoXA.i K f. XOX$X*X$X$X$X$X$X.X}.}.I.r.# + w Z y.W.W.E.E.E.E.E.E.R.Z C C A 2.E.E.E.E.E.B % . a ,.~ o.t.r.i.r.j f C.I.oX$X$XoX",
"$XoXoXF.=.+.h..XOXOX$X$X$X$XoXoX}.}.H.A.l # + r Z 2.8.R.E.E.E.E.E.E.2.2.Z M C 2.E.E.l.E.E.B % . 7 ..Q Q P t.t.t.f V C.Y.I.}.oX X",
".XoXXXH.O.Q f.Y. X}. X XY.}.}.J.H.F.a.a 7 4 9 v C Z 2.W.E.E.E.E.E.E.).4X).2.C l.E.l.A l.R.Z r 4 3 : H W P l j d k V V.H.}.}.I.Y.",
"H.Y..Xm.@.Q O.-.-.o.@.0.o.-.$.0.%.J t O % 0 c n M S r.g.E.E.E.E.W.!.5XiX9X!.C Z R.A C Z l.l.Z v &   = E  .z l z y.V V.A.H.H.}.}.",
"I.H.}.v.[ ) ] ^ ^ W _ ' ^ R ^ _ [ ~ J : ; * 0 v n C 2.l.R.E.W.W.{.5XrXdXuX7X<X!.8.2.S 2.8.1.v ; 4 5 V M.P.XXU.XXY.V u.A.A.A.}.H.",
"}.H.H.F.O.Q O.n.n.n._.e.M.M.5.%.c.j.,.P 7 @ $ 0 M Z l.E.E.W.E.!.7XiXdXhXhXsXeX1X8.8.F D 8.B ; O f D.XXXX;X;X*X*XoXV V C.A.A.H.I.",
"A.H.H.V.X.I ~ m.I.I.}.Y.Y.Y.J.A.Z.j.j.i.t @ o 0 C A R.E.E.W.).4XrXhXhXkXjXjXdX9X1X<X<X>X8.Z > @ a g.I..XOXXX#XXX.Xa.h C.A.A.I.H.",
"H.A.A.j.X.E $.M.J.Y.F.v.q.q.f.a.r.r.t.P = X + 0 C 2.E.E.E.).5XtXdXhXjXkXxXzXkXiXtXtXtX3X>XS c w 3 2 k I.*XXX#XoXXXk.V y.A.A.A.A.",
"C.A.h.3.] Y ^ %.$.$.o.@.) ` &.p L o.y J = @ % r Z 2.E.W.!.1XtXhXhXhXfXdXhXkXxXkXhXdXtX2X>XD m b * O j I.*X$XOXoXXXI.r.z d.m.Z.c.",
"3.P P &.} _ ] _ U U E _ ) ' ^ W ] ' H = : > 0 n A l.E.~.<X9XsXhXhXdXeX(.4XiXxXxXjX7X!.8.:XD > $ 7 k j..X$X$XXX'.`.L.d.O.^ O.,.$.",
"` ^ ( { } Y { ' ] _ ) Q [ | 0.Y ) ) J @ & 0 n B Z l.E.~.2X0XsXhXhXdX1Xi E.tXxXxXjX1X> c F D $   5 ,.c.L.G.7.6.q.{ q.3.^ ) ] ~ ! ",
"_ O.{ _ Y ] _ ^ q.^ ] q.7.c.b.&.{ _ -.l e 4 9 n A A l.W.~.5XsXhXhXfXeX{.7XgXxXxXkXrX1X1X3X8.>   = ! _ @.@._ _ ] ) } ] _ ^ J ! W ",
"w.7.6.*.6.w.w.N.B.N.e._.K.K.K.7.o.$.L.XXg.3 $ r Z A Z Z Z ).rXhXhXhXhXhXjXkXxXxXxXkXhXhXdX7Xb   = +.{ q.%.[ _ Q } ' _ ] $.z -.*.",
"].=X&X'./.[.`.P.K.K.P.J.m.m.k.a.i V I.$XH.g 8 e r M A A A W.4XrXiXhXkXxXxXxXxXxXxXxXkXiX7X!.g 6 h Y.`.Y.Y.n.q.[ ) _ | w.P.[.+X[.",
"/.&XT.T./.T.U.K.T.S.J.J.S.k.x.h.h V J.$X XJ.a.8 % w C A A 2.W.).eXhXkXxXxXxXxXxXzXkXhX7XA e a.F. X*X$X$X#X#X_.] ) { _.].^././.T.",
"+X/.U.^.T.U.T.K.K.K.J.m.m.x.k.s.V g h.$X*X$XI.l - g y.A M M B R.1XtXfXkXxXxXxXxXkXdXeX(.7 7 j.$X*XOX$X$X$X#Xe.[ } q.'.[..X/.T./.",
"+XT.T././.T.U.K.K.K.J.x.x.S.f.s.V g k.*X$X$XoXC.g.Z.J.y.4 > n 2.!.1XeXhXkXkXjXjXhX7X1.>.y.g.Y.*X$X$X$X#XoX#Xq.` Q 5.T.[./.T.&XT.",
"+XT.T.U.K./.T.K.J.J.J.J.S.S.k.h.V g y.}.oXoX$X$XXX.XI.V @ % b 1.1.2.1XiXhXhXhXhXdX^.& 7 Z.oXOX$X$X$X$XoX X.X_.Q W 5.XX#X^.XXXXT.",
"+XT./.U.K.T.K.J.J.J.x.x.x.k.h.s.s.g y.I.}.}.}..X}.g.f 4 - q 7.`.1.B 1XiXgXgXgXgXiX{.9 4 e r.I.$X$X$X$XoX#X Xv.O.I 3.P.^.P.XXT.P.",
"U.P././.U.T.m.J.J.J.S.x.x.f.f.h.s.=.#.Z.H.A.}.I.A.s O % ; V `.].5.N ].aXgXgXaXgXiX{.g ; O 3 j.OX$XoX$XoX#X#XM.W W <.T.T.T.'.U.^.",
"T.T./.T.U.U.S.x.J.S.x.k.k.f.f.s.y.o.@.k.H.H.H.H.A.8 O @ 4 :.`.].b.B -XgXgXtX9X0X7X!.i ; o < j.OX$XoX.X$XOX'.0.Q ~ >.T..XT.T.T.P.",
"x.s.h.f.z.S.U.m.S.S.k.h.k.k.f.d.>.+.( c.A.H.H.H.C.8 . O 0 =.`.-XN.z.6XlXgX3X,X,X>XS w * o # g.oXoX$X#X.XOX'.0.Y ~ :.K.P.B.J.J.K.",
"i y p p i :.Z.s.d.k.s.a.s.s.a.:.<./ ' @.,.j.d.:.f 5 @ $ 0 V ].-X^.x.8XlXgX0X<X>X:Xm v * o # g.oXoXoXoX.X.XJ.3.+.Q +.3.@.~ h g f ",
"y T E T R p =.N X.X...X.u g p b ~ ` / W H o.E , @ - ; 9 0 >.[.qX[.x.8XlXzXhXtX2X:Xm v * o # r.}.H.H.H.v.*.,.:.$.| Q ( Y U y e r ",
"V ;.O.U ^ E W ~ ( O.W R u y O.E I Q O.K ! K H : o ; q i p z.-X-X^.z.8XlXlXlXdX0X,XS r * o + f d.d.P ,.O._ [ O.~ U ` 0.W ~ L f j ",
"Z.I.Y.n.$._ ] 6.B.L.B.n.J.J.J.v.P t 6 8 8 8 : : ; 4 w N b.M.'.^.b.z.-XaXgXtX0XtXrX).b * o O y  .J W ~ $.0.*.5.3.Q { 6.,.d.j.j.Z.",
"J.Y. XY.3.Q &.P..X.XoX.XOXOXXXA.a X . O O o + ; w r i <.`.[.b.>.>.z.6XaXuX2X2XiXlX6XM * o + y *.@.4.M.L.T.#X X7.{ { 0.f.Z.A.D.D.",
"}.I.Y.F.$.Q W `..X}.I.I..XZ.i.f 3 @ # 2 # @ * 4 r N >.c.G.G.:.N N z.6XaXgX0X0XgXlX8XM ; o # i. X#X$X;X$X;X#XXX*.) ) | c.A.D.A.J.",
"XX XU.k.O.^ *.L.}.Y.I.}..Xg.7 O @ * 7 d d a q u r 5.`.M.p.i.f i N z.6XlXlXgXaXlXlX8XN * o 3 g.OX$XOXOXoX XoX'.4.] } &.c.A.H.}.I.",
"XXXXT.7.W  .c.}.}.I.}. X Xg.# o * w g P h.Q.(.!.!.P.`.j.i.f u r r >.=XpXpXpXwXyXwXQ.q - 3 j C.oXoX.X#X X X X|.F.%.[ 0.f.Z.A.I.I.",
"}. X}.,.J U c.H.I.H.}.}.}.g.3 o > =.>.<.{.wXiXtXeX{.p.i.f i r w r b v.#X=X$XY.g.g ; + 3 l H..XoX$X.X#X.XoX.X.X}.4._ { c.h.Z.A.S.",
"Z.I.J.3.! ~ c.}.}.I.}. X.XV.8 & i ;.1.>.{.eXiXiXeX=Xp.d e q 0 w e e h p.p.p.t.6 o O O 6 g.I.}.oX.X X.XoXoX#X XH.,.@.%.d.V.V.Z.Z.",
"A.I.N.0.O.;.F.I.}.H.}.}.}.A.r.f g h z z s.^.^.^.^.h.l a 5 : 5 8 e 7 a a a j d 6 2 2 3 a r.V.V.A.F.F.I..XoX X.XH.3.$.P g.V.g.C.A.",
"Z.S.6._ I @.Y.H.H.}.}.}. X}.A.g.t.j f j j k k j j j d a 7 - - 8 7 7 3 # 3 7 a a a a a j r.u.r.g.g.j.F.XX$XoX.XM.^ ~ z g.Z.V.Z.A.",
"Z.v.*._ I %.F.H.}.}.}.I. XoXI.H.g.r.r.l r.r.r.l l r.l g 8 : 5 8 a a 7 3 3 e s j j l j l r.i.r.y.V.H. XoXXXoXoXY.;.o.h i.C.C.V.A.",
"A.j.;.@.Q $.k.H.A.A.I.A.I.oX#X XA.g.g.g.r.g.g.p.p.i.g.t.y H , y j j d 6 4 s r.r.r.y.r.y.r.r.g.g.V. XoXoXOXoXoX.Xh.z j r.V.V.h.Z.",
"g.3.+.| ] Q ,.a.r.r.y.u.g.}.oX.XA.S.Z.Z.C.Z.C.C.V.j.i.l J I H y j r.j 7 e g g.g.a.k.V.V.V.h.g.h.A. XXX#XoXoXoX#XA.h f z V.V.V.Z.",
"p ( Y { } Y o.V z z z h z g.g.g.g.g.u.g.:.a.a.P z X.! K R ~ ! K s a d p T -.C.H.A.I.J.I.I.H.A.I.F.I.H.XXoX.XoX.XZ.z z r.r.r.k z ",
"h o.&.0.| $.b.s.s.s.h.a.g f s f f f f L ~ ! ..E ! ~ ~ ~ I  .@.W y e e ! ` ^ d.Z.k.Z.x.m.Z.C.A.Z.h.V.g.g.j.j.C.g.=.=.V k f u e g ",
"s.f.5.^ _ *.M..XoXoXoXI.g.z N k z N p :.*.4.,.7.6.4.b.b.*.3.7.n.S.S.h. .( | O.O.O.#.^ / o.z k l z r.:.o.o.K O.K E K i k f f h :.",
"K.T._.{ U ^ `.*XOXOXOXOXoXY.I.I.I.h.N C.T.Y..XOXOXOXOX*X#X&X$X*X*X$XT.#.~  .~ { _ W Q ` ! R b k X.~ &./ Y Y ] U R p i g V >.x.m.",
"T.T.B.| ) %.'.*XOXoXoXoXOXOX.X}.}.A.z A.H.A.Y.oXOXOX*X*X$X$X$X$X$X$X`.{ U T -.&.Q $.3.3.>.o.-.>.;.&.*.&.[ 0.[ Q O.E X.V K.K.U.P.",
"L.K.b.( Y 6.OX*XOXOXoX.XoX XD.A.A.Z.y.C.A.H.H.}.XX$X.X*X$X#X$X.X$X$XP.| W  .s.B.m.c.m.J.J.x.S.x.m.U.K.[.N.P.Q.'.b.X.i V S.T.P.P.",
"T.K.m.( ` q.*X;X$XOXoX XoX.X XA.A.Z.V h.A.A.Z.H.}.OXOX*X$X$X#XoX$X$X X<.X.h s.x.S.J.J.J.T.&X=X&X+X&X+X[.&X&X[.[.J.z i V S.P.K.U."
};
