/* XPM */
static char *xpm_[] = {
/* columns rows colors chars-per-pixel */
"64 64 218 2 ",
"   c #0F0F19",
".  c #100F1B",
"X  c #0F1018",
"o  c #15161D",
"O  c #17181E",
"+  c #191B1E",
"@  c #1C201A",
"#  c #2B2E1D",
"$  c #32361B",
"%  c #353B1D",
"&  c #140927",
"*  c #1B0D2D",
"=  c #161323",
"-  c #171920",
";  c #1B1C23",
":  c #1A1528",
">  c #1E1E29",
",  c #160334",
"<  c #1D0B31",
"1  c #1B033C",
"2  c #1E1031",
"3  c #201E27",
"4  c #210E34",
"5  c #221435",
"6  c #231C33",
"7  c #261539",
"8  c #28163C",
"9  c #2C193F",
"0  c #1E2126",
"q  c #1F2129",
"w  c #212427",
"e  c #2A2927",
"r  c #22242C",
"t  c #26282F",
"y  c #2B2B2D",
"u  c #322E27",
"i  c #312E2C",
"p  c #2C3020",
"a  c #34312C",
"s  c #363828",
"d  c #3C3D2D",
"f  c #282136",
"g  c #272930",
"h  c #2B2C33",
"j  c #2A223A",
"k  c #322F33",
"l  c #2F3137",
"z  c #2F3138",
"x  c #353333",
"c  c #393534",
"v  c #3C3A34",
"b  c #35343A",
"n  c #3A363B",
"m  c #373A39",
"M  c #3C3B3B",
"N  c #403F2E",
"B  c #413E3C",
"V  c #39460F",
"C  c #3B4518",
"Z  c #3D4322",
"A  c #3E4328",
"S  c #3E4131",
"D  c #3C413C",
"F  c #485E06",
"G  c #44540E",
"H  c #475B0D",
"J  c #4B5D0D",
"K  c #414C14",
"L  c #434D1D",
"P  c #455414",
"I  c #495614",
"U  c #4C5C14",
"Y  c #46531D",
"T  c #4A561B",
"R  c #475918",
"E  c #4D5C1B",
"W  c #515F14",
"Q  c #515D1D",
"!  c #4B6106",
"~  c #4D620C",
"^  c #52650D",
"/  c #51680A",
"(  c #4D6112",
")  c #4E611B",
"_  c #526513",
"`  c #546913",
"'  c #53621C",
"]  c #404325",
"[  c #434C24",
"{  c #41442C",
"}  c #454C2A",
"|  c #494C2E",
" . c #475322",
".. c #4A5524",
"X. c #4D5A23",
"o. c #4B552B",
"O. c #4E5C2B",
"+. c #515D23",
"@. c #525E2B",
"#. c #424433",
"$. c #464B34",
"%. c #494D35",
"&. c #43423B",
"*. c #48463F",
"=. c #454B3B",
"-. c #4A4B3C",
";. c #4B5334",
":. c #4F5936",
">. c #4D533C",
",. c #535D34",
"<. c #53573A",
"1. c #545B3C",
"2. c #536323",
"3. c #596624",
"4. c #54622A",
"5. c #59652B",
"6. c #57623B",
"7. c #5D6639",
"8. c #1E0441",
"9. c #230445",
"0. c #290746",
"q. c #2B0847",
"w. c #25044A",
"e. c #29054E",
"r. c #2D1841",
"t. c #2C0552",
"y. c #300556",
"u. c #34055B",
"i. c #38055F",
"p. c #350858",
"a. c #39095C",
"s. c #3C3C44",
"d. c #3C3E48",
"f. c #3C0663",
"g. c #3E0A63",
"h. c #3F0568",
"j. c #413D43",
"k. c #413F4A",
"l. c #400667",
"z. c #410A65",
"x. c #43066A",
"c. c #47096D",
"v. c #4A0C6E",
"b. c #480770",
"n. c #4B0973",
"m. c #540C7D",
"M. c #3E4045",
"N. c #3F414A",
"B. c #444344",
"V. c #494644",
"C. c #444A44",
"Z. c #4B4B46",
"A. c #44444C",
"S. c #48464C",
"D. c #46484C",
"F. c #4B4A4C",
"G. c #514D4D",
"H. c #4E5143",
"J. c #4E534A",
"K. c #515443",
"L. c #535B44",
"P. c #52524D",
"I. c #555B4D",
"U. c #595A48",
"Y. c #595C4B",
"T. c #454651",
"R. c #4A4652",
"E. c #474952",
"W. c #4B4B53",
"Q. c #454A59",
"!. c #4D4D59",
"~. c #514E52",
"^. c #514F5C",
"/. c #4E5153",
"(. c #4E515B",
"). c #545354",
"_. c #585656",
"`. c #565B53",
"'. c #5A5B56",
"]. c #53535D",
"[. c #59565B",
"{. c #55595B",
"}. c #5C5B5B",
"|. c #5F5D5E",
" X c #605F5C",
".X c #605E5F",
"XX c #5C6349",
"oX c #5D6152",
"OX c #5C615A",
"+X c #61654D",
"@X c #61605C",
"#X c #6A6D58",
"$X c #545561",
"%X c #535466",
"&X c #565963",
"*X c #585866",
"=X c #595A66",
"-X c #5B5C65",
";X c #5B5D69",
":X c #5C5E6A",
">X c #5C5F6A",
",X c #615D61",
"<X c #605F6C",
"1X c #5D6165",
"2X c #5E616A",
"3X c #5E606B",
"4X c #636263",
"5X c #61626C",
"6X c #636271",
"7X c #570D80",
"8X c #5B0F84",
"9X c #5D1086",
"0X c #5F1188",
"qX c #63128D",
"wX c #6A1595",
"eX c #6C1697",
"rX c #72199D",
"tX c #751AA1",
/* pixels */
"_._.Z.o.` @.-X2X2X1X>X>X;X*X*X$X!.E.B V.E.Q.!.!.!.$X*X2X*X*X2X-X[.].J.M a c B.W.G.~.~.).)._.}. X,X|.,X4X,X,X-X}.P.v a c G._.).).",
").P.-.E ~ X.-X5X>X>X>X>X;X;X;X*X(.E.B B T.R.!.R.R.T.E.W.W.R.A.A.B.} Z S d d B.G.F.W.~.).~.)._.}.|. X,X|.,X|. X}.G.B a c *.P.P._.",
").P.%.Q ~ X.-X4X-X1X2X>X2X;X;X*X$XW.D x n M s.n B a i i i i i x d P P R I L &.F.F.F.).F.~.~.).].[.|.|.|.,X X X X).B s L #.~.P._.",
"G.>.o.R Y Z.-X5X2X>X2X>X;X*XT.N.M.m % $ e e e y i ; o O + o o + o o o o - X e b b b n m M s.s.M s.F.|.|.|.|.|.}._.B L G | Z.G.G.",
"V.K.' J ..Z.-X1X3X>X>X>X;Xd.- 0 0 0 0 0 ; O ; 0 ; - r h h h h l g l h h h + - > 0 0 + ; 0 0 0 0 ; + F.|.[.}.}.}.'.%.T P { V.V.G.",
"V.*...T R %.].2X3X>X>X;X;Xz 0 g g h g g g ; h h g > > r r r r t r r r g g + r t g g r r g g g g g w M [.'.[._.[.'.5.~ H { V.V.V.",
"S.B N [ P o.).2X2X2X>X>X2Xz 0 r q q q t q - g r r - - r r r g r r r r r r o r r t r 0 0 r t r r t 0 m _._._._._.'.,.J P #.B S.S.",
"V.B ] Y L -.{.2X2X2X>X>X2Xz - r t q t t q - q r r ; O r r r r r r r r r r - 0 r 0 r 0 0 r r t r t ; n F._.]._._._.K.[ L N B B.V.",
"c ] G P } Z.].2X>X>X>X>X>Xb o r q g q q r - r r q - . q q r > g r r r r ; ; 3 r t r > > r r r r r ; x F.V.V.j.&.*.| L K K ] v n ",
"c { } I J ..`.2X2X>X>X>X>Xl o r q q g q q - q r q > - > r g q r r r r r - - r 3 r > ; > r r r t r ; a c { L Z A T W E T I I N B ",
"B.V.-.+.~ X.}.5X>X-X1X>X<Xh o > q q q q - X = - = = o   = = = = = = = =     . = = - =   ; q q r r O e [ Y ^ _ U F ! ' -.;.@.$.V.",
"-X[.Z.>.' O.-X5X2X>X>X>X>XW.o - O O O o & q.w.w.q.q.q.q.e.w.w.w.q.q.q.q.w.q.q.w.q.9.0.& o - o - O o L W X.E E R ~ ^ @.'.2X-X|. X",
"5X<X[.F.....P.`.`.L.J.J.K.;.+ g h h h r.< 9.& , , 1 1 1 8.8.1 8.1 1 1 1 1 1 1 1 1 , 4 , 9 k h h t @ U X.C./.`.I.4._ ,.>X5X6X5X5X",
"1X>X>X~.-...E E ) ( E ) U R + r r t t 6 2 9., 1 1 8.8.9.w.w.8.8.w.w.w.w.8.8.8.1 1 1 9., 8 r 6 t r ; L $.E.{.$X{.4.^ 4.;X5X5X5X5X",
">X2X>X$X1.U Q 2.' ~ U _ ` Y + r g r r 6 2 w.1 1 8.w.y.f.f.u.u.t.w.e.e.w.w.9.8.8.1 1 9.< 8 3 t r r + v B D.(.{._.o.W 1.>X>X1X1X1X",
"<X>X2X*XH...>.`.`.1.K.U.XXF.- w q r g f 2 w.1 9.w.y.f.t.t.y.h.u.t.w.t.i.u.w.w.w.8.1 w.* 8 r t r r ; n s.A.(.!.W.M v ~.$X5X1X-X-X",
"5X-X>X*X>.[ Z.>X3X5X3X5X3X*X- r r r q 6 2 e.1 w.y.h.t.t.t.t.u.h.u.w.u.t.t.i.t.w.e.8.9.< 7 f r r r + n M E.!.(.A.M x R.*X5X>X>X-X",
"2X2X>X].$.C S.;X3X3X3X5X2X{.+ r q r q 6 2 t.8.w.f.y.e.e.t.e.t.h.h.e.t.e.e.f.t.w.t.9.w.* 7 r r r > + B j.A.W.!.W.n i A.$X,X>X5X,X",
">X>X2X$Xn i A.>X3X3X2X2X6X!.- > q r r 6 2 t.w.e.h.t.e.e.t.t.t.h.h.e.t.e.t.f.y.w.w.w.w.< 7 q q r r + j.j.s.A.E.E.n x A.$X-X>X>X>X",
"5X>X>X^.c u S.*X3X3X3X3X2Xz ; ; q > > 6 2 t.w.t.h.t.e.f.t.e.f.f.u.t.t.t.f.f.t.w.e.w.w.< 2 > > > ; + a &.s.N.A.s.n x R.[.2X>X>X5X",
"2X-X-X!.c N -.}.>X2X2X3X2Xx + ; - ; ; ; 2 t.0.e.f.f.e.t.e.f.h.x.y.t.t.f.f.t.t.t.t.w.w.* : ; ; ; O O % } s.M.N.N.n c R.].-X>X>X*X",
">X-X>X!.{ ..F.*X>X>X2X3X1Xl > g g g h j 4 e.w.e.y.u.t.y.f.x.b.y.t.t.f.h.y.t.t.t.e.w.e.< r.h h h h ; V U D s.N.m x M W.].$X;X-X>X",
"*X>X2X/. .E Z.{.&X$X&X|.{.g - r r r r 8 5 t.w.e.t.t.t.f.h.b.y.t.t.f.h.f.t.t.f.t.w.t.e.* 8 3 r r r ; V Q S b b b n M R.(.(.(.%X{.",
"(.$X*XJ.X.R  .$.=.} X.X.o.e ; r r g r 6 * t.w.t.t.t.y.b.n.y.t.t.u.x.f.t.t.e.t.t.e.w.e.< 8 r r r t > C 2.[ m M s.B.M W.(.(.%X$X!.",
"{.!.%XJ.) ~ ~ E ) H ~ ( R # - r r r r 7 2 t.w.e.e.y.x.m.h.t.e.y.f.b.h.t.y.t.i.f.y.w.0.< 7 3 r r r - B.'.'.-X$X*X].B A.!.!.(.(.$X",
"(.*X(.F. .H ..K.L.L.6.6.I.l ; r r r r 6 2 t.e.t.e.a.c.m.f.e.y.t.l.n.l.y.t.y.i.i.l.y.e.< 7 3 r r r + D.5X6X5X5X3X*XB n W.W.!.(.].",
"!.(.(.T.#.P  .P.].].$X&XOXg + q r r r 6 < e.9.t.e.f.n.m.f.t.t.t.f.n.n.i.t.t.t.t.i.y.0.< 7 r r r r - A.-X5X*X1X>X-XV.M S.!.!.].(.",
"(.!.(.D.{ P ..I./.).).I.4.Z o 0 > q q 5 2 t.w.t.t.g.n.7Xh.y.y.y.t.h.n.x.u.t.t.y.l.y.e., 4 ; > 3 q - ].2X5X,X1X1X-XF.B j.!.!.!.(.",
"Q.W.F.>.U ~ E O.o.;.} +.~ H o + - - - - * e.9.t.e.f.n.9Xn.g.t.t.t.y.l.n.x.i.y.f.i.w.w.< = - ; - - o >X>X2X6X;X-X&X^.j.M C.J.W.P.",
"$.$.#.+.` ~ ~ ~ H H G J / V + g h z h 8 2 e.8.t.e.y.h.7X7Xb.g.y.y.y.y.l.v.l.u.y.t.w.e.< r.h h h r q -X>X2X2X*XOXXX`.V.Y R ..=.o.",
"~ Q Q ^ ~ J ^ ` _ ~ F U ` T o r r t r 6 2 e.9.t.t.t.f.x.m.7Xc.h.u.t.t.y.l.x.f.y.t.w.e.< 8 r r r r @ L.).I.6.:.4.` 4.:.Q ~ ( R T ",
"~ .._ J ( ( ~ E 2.E _ @.1.=.+ r r r r 6 * t.9.e.e.t.e.f.h.m.7Xb.l.u.t.y.u.l.l.i.e.e.e.< 8 r r r r + ~ X.X.~ ~ ( ! ` U ~ R C Y I ",
"3.<.1.+.,.5.3.L.U.U.7.XXP.F.+ > > r > > 2 t.e.e.t.t.t.y.g.h.7X9Xb.x.y.t.t.u.h.l.t.w.e.< 7 3 t r q @ _ @.4.( R ( ` / / ( ;.#.$.,.",
"#X4X4X X X X+X'._._._.).).V.O 3 r r r r.2 t.w.e.u.h.f.t.y.h.h.7X8Xb.x.y.t.t.i.l.e.e.e.< 8 3 q q q q oX'.(.XX5.( ! ~ ' 5.oX|.|.@X",
"4X4X,X}. X}.}._.[.).).).).B.o w r r r > * t.w.u.g.y.u.y.t.y.f.c.m.8Xx.l.t.t.i.l.i.w.e.< 7 r 3 t q > 2X2X*X1XXX( ! ) 7.+X X X|.@X",
",X X'.}. X[.[.'._._.P.P.G.n o > r 6 > > 2 t.8.u.u.t.t.y.t.t.y.h.n.8Xn.x.u.t.e.l.i.w.e.< 7 3 6 q ; - *X3X2X1X6.( ` 4.OX@X X|.}. X",
"|. X|.,X|.}.[._._.).).P.G.y 3 O > ; q : 2 t.8.y.f.y.t.t.y.y.y.f.b.8Xm.x.i.t.t.l.f.9.e.< 5 > r > ; - N.1X2X1X4./ ~ >.,X X,X X,X}.",
"-X'.}.}.}.}.[._.).).).).~.t + > q q q > 2 t.w.e.u.h.t.e.t.g.t.f.x.0X8Xn.f.t.y.l.t.w.e.< : > q r q + N.>X*X*XXXE T H.|. X X|.-X|.",
"|.}.}.}._.}.).).).P.G.G.G.e - g g r g j 2 t.w.e.t.f.h.t.t.t.t.f.b.qX8Xn.x.t.f.l.t.w.e.< 8 t h g g ; T.;XOX-XJ. .G ;.'.'.}.|._.'.",
"[.}.}.,X}.[.).).).).).~.G.t > t q r r 6 2 t.w.e.t.t.h.g.t.y.t.h.b.qXwXn.x.u.l.i.t.t.e.< 7 r q r t ; N.2X2X-XJ.E P -.[.|.|. X|.'.",
"[.|. X[. X[.~.P.G.~.G.Z.F.y - t r r r 6 2 t.w.e.t.t.f.h.y.y.u.h.m.rX0Xn.x.h.l.t.e.t.t.< 7 r r r t ; M.2X2XOX2.U T *.,X-X}.|.|.'.",
"F.V.Z.Z.V.G.).).~.~.W.F.F.g - r r q q 6 2 t.e.t.e.e.y.h.u.y.h.n.8XrX8Xb.x.l.f.e.e.w.e.< 7 0 q r q - N.*X1XOX2.~ I &.).'.Y.~.~.~.",
"c d d d c B R.G.Z.S.V.B.V.e O r r r r r.2 y.w.t.e.t.g.g.y.h.n.8XeXeXm.x.x.h.t.t.e.e.e.< 5 r r r r ; D.;X*X/.;. .E [ o.X...N n c ",
"% K P K L N N N { { } { a > O w r q q > 2 t.w.w.e.u.h.f.f.h.7XwXeX9Xx.x.x.t.t.t.e.e.e., 7 > 3 r q + b J.:.;.&.| ' U Q ^ G % u a ",
"&.%.T P T I I T E X.I L s q o q > > > > 2 t.t.t.t.g.h.h.h.m.0XwX8Xm.x.x.f.t.u.u.e.e.e.4 < ; r > ; o s  .~ E X.T J ^ 2.E ..S x c ",
"W.(.`.I.@.J U ,.`.`.U.L.(.N.o ; ; > > ; 2 t.w.w.f.h.h.x.m.9XrXqX8Xx.x.l.t.u.h.t.e.t.e., = 3 > ; ; o Y o.2.O.H.;.( _ o.=.C.V.A.W.",
"].].|.{.;.I +.`.*X-X>X*X2X(.- q g g h 6 2 y.w.w.g.h.x.b.7XqXrX8Xm.x.x.i.y.u.h.t.t.w.t.< 8 g g g t + XX`.*X1X-X,._ _ 4.Z.W.!.].^.",
"*X].].).O.U U U.*X(.{.(.;XW.; q r r r 6 2 t.w.w.h.x.h.7X9XtXrX9Xb.x.x.i.y.u.h.t.t.y.t.< 7 r r r q q 6X2X<X>X}.@.~ ! ' H./.!.^.).",
"}.$X[.F.} R @.`.&X].&X&X$X!.O 3 q r q f < y.t.t.f.f.x.8X9XrXrX0Xm.x.x.i.t.t.f.f.t.w.t.< 7 r r r q 0 >X;X&X&X&XO.( ` X.Z./.].].{.",
"&X-X-X1.I [ H.{.&X].$X$X*XW.O r t q q 6 2 y.8.t.y.x.h.7X9XrXtXwX8Xb.x.h.u.t.i.x.f.w.t.< 5 q r r q ; 1X&X*X*X&X(.O.) 4.H.W.(.(.].",
"{.*X].=.P P H.(.].].$X$X$XW.O 3 q q 6 > * y.t.y.y.x.h.n.0XqXrXwX9X7Xx.x.h.t.t.g.x.t.e.< 5 q q q 0 0 1X*X*X-X&X$X;.~ ` >.F.E.W.].",
"!.(._.;.P  .J.$X].].$X$X$XW.o > > > r > 2 y.e.t.y.y.h.h.v.m.0XqXwX7Xm.b.h.u.t.p.h.y.w.< 2 ; q q ; w *X;X;X1X1X(.=.X.O.D.E.R.T.W.",
"^.^.L.X.X.%./.(.(.%X$X(.s.; o + - - - = : p.y.p.f.g.g.g.g.v.v.v.n.v.v.c.z.z.g.g.g.a.p.* o o - - = o 0 M.2X*X&X(.;.[ D A.S.T.E.!.",
"W.).,.~ H ..).{.$X$X$XT.- h h h h h h h - 0 q 0 0 q q q q q 0 0 0 0 0 w 0 0 w q 0 0 ; o g l h z h l l - %X;X*X`.Q E M k.E.E.E.~.",
"W.P.@.~ H o.).(.(.$X$XN.+ t r r r g r r - r g t g g g g h t g g t t t t g g g g g g r O q r r r r r h - $X&X*X(.%.} m B.T.R.R.^.",
"Q.D.;.X.R o.F.!.!.!.!.d.+ q q r r r r r - ; 0 q 0 0 0 0 0 0 0 q 0 r q 0 q q r ; q q ; o 0 r q r r q q - $X2X2X-XF.M c s.T.T.E.W.",
"D.;...' _ U &.B.B.d.k.x o r r r r r r > ; r r t t q q t t r r r r r r t w 0 w r w r w + - q r r q r r o %X*X>X*XW.c x s.A.T.A.E.",
"v Q J _ ` F } B M c M y + r r q r r q - ; q r r r r r r r r r q w r r r r r r r r r r > + 0 q q q 0 q o (.;X;X*XW.B B s.s.s.s.M ",
"v } Q 3.2...H.Z.F.F.V.x o ; - + - - - - - - - ; + - - ; + O - ; + + - + ; ; ; + ; ; - - o - ; ; 0 - ; o M.F.W.A.#.#.B n x a u c ",
"*.Z.H.E ~ o.I.*X*X-X;XA.+ > ; - - - - - ; 0 0 ; 0 0 ; 0 0 0 ; ; - > > > ; ; ; ; ; ; > + o - ; ; - 0 0 0 [ Z [ L P Z c c a c M B ",
"_.|.XX_ F E XX5X>X>X;X;XA.s.d.s.j.b y n M.N.A.A.A.T.A.T.D.D.A.T.E.D.M.s % % % C V C % C % $ u y s C s C J J U H K N c N B *.G.G.",
"}.|.L.' ~ o.OX6X>X;X*X-X2X>X*X$X$X!.B W.(.!.{.>X2X>X5X2X3X3X3X2X1X2XXX_ ~ K $.@.U o.;.:.*.| #.*.$.E O.2.W Q ) U [ I N B _.'.}.'.",
"`._.K.Q ~ ,.>X6X2X>X>X*X>X$X$XQ.!.W.s.R.!.(.(.$X*X>X-X2X3X*X3X;X3X2X`.' I } V.U.U.Z.P.).P.G.).G.).|.`.+XoX XY.+XK.{ s B ~.|.'._.",
"[._.P.Q ^ 4.1X6X3X>X>X$X>X-X*X!.!.W.&.A.!.!.!.(.$X>X>X2X3X2X2X-X>X>X-X-.] v Z.F.G.!.P._.|.4X4X4X4X4X@X4X,X,X X,X).B a B ~.'._.[."
};
