/* XPM */
static char *xpm_[] = {
/* columns rows colors chars-per-pixel */
"64 64 217 2 ",
"   c #16161E",
".  c #18191F",
"X  c #21241F",
"o  c #272A1D",
"O  c #31341C",
"+  c #353B1D",
"@  c #1C0F2B",
"#  c #171622",
"$  c #191226",
"%  c #1C1C24",
"&  c #1D122C",
"*  c #1E1D28",
"=  c #1F063B",
"-  c #1F1230",
";  c #201829",
":  c #221E2D",
">  c #200E31",
",  c #21053E",
"<  c #260B3C",
"1  c #221233",
"2  c #231C31",
"3  c #261538",
"4  c #1F2026",
"5  c #1F2028",
"6  c #212225",
"7  c #2B2A26",
"8  c #24242C",
"9  c #292728",
"0  c #27282F",
"q  c #2A2A2E",
"w  c #322E27",
"e  c #312E2C",
"r  c #2C3020",
"t  c #353926",
"y  c #34312C",
"u  c #39362C",
"i  c #3C3D2D",
"p  c #262231",
"a  c #282633",
"s  c #272830",
"d  c #2A2B32",
"f  c #322F31",
"g  c #312F38",
"h  c #2F3137",
"j  c #2F3138",
"k  c #353333",
"l  c #393534",
"z  c #3C3A34",
"x  c #353439",
"c  c #3A363B",
"v  c #373B38",
"b  c #3C3A3B",
"n  c #403F2E",
"m  c #413E3C",
"M  c #39460F",
"N  c #3B4614",
"B  c #3A4519",
"V  c #3B431C",
"C  c #3D4322",
"Z  c #3E4328",
"A  c #3E4131",
"S  c #3C413C",
"D  c #485E06",
"F  c #44540E",
"G  c #475B0D",
"H  c #4B5D0D",
"J  c #414C14",
"K  c #434D1D",
"L  c #455414",
"P  c #495614",
"I  c #4C5C14",
"U  c #46531D",
"Y  c #4A551B",
"T  c #475918",
"R  c #4D5C1B",
"E  c #515F14",
"W  c #515D1D",
"Q  c #4B6106",
"!  c #4D620C",
"~  c #52650D",
"^  c #51680A",
"/  c #4D6112",
"(  c #4E611B",
")  c #526513",
"_  c #546913",
"`  c #53621C",
"'  c #404325",
"]  c #434C24",
"[  c #41442C",
"{  c #454C2A",
"}  c #494C2E",
"|  c #475322",
" . c #4A5524",
".. c #4D5A23",
"X. c #4B552B",
"o. c #4E5C2B",
"O. c #515D23",
"+. c #525E2B",
"@. c #424433",
"#. c #464B34",
"$. c #494D35",
"%. c #43423B",
"&. c #48463F",
"*. c #454B3B",
"=. c #4A4B3C",
"-. c #4B5334",
";. c #4F5936",
":. c #4D533C",
">. c #535D34",
",. c #585E32",
"<. c #51543D",
"1. c #545B3C",
"2. c #536323",
"3. c #596624",
"4. c #54622A",
"5. c #59652B",
"6. c #57623B",
"7. c #5D6639",
"8. c #250544",
"9. c #2B0747",
"0. c #2B0845",
"q. c #270448",
"w. c #2C054C",
"e. c #2D0948",
"r. c #30054F",
"t. c #310B4E",
"y. c #2F0550",
"u. c #330553",
"i. c #390B55",
"p. c #380857",
"a. c #3C065C",
"s. c #3C3C43",
"d. c #3C3E48",
"f. c #3F0760",
"g. c #40065F",
"h. c #420D5D",
"j. c #413D43",
"k. c #413F4A",
"l. c #420662",
"z. c #460866",
"x. c #480768",
"c. c #4C096C",
"v. c #4F0A70",
"b. c #530C74",
"n. c #580D78",
"m. c #5C0E7C",
"M. c #5F107F",
"N. c #3E4146",
"B. c #3F414A",
"V. c #444344",
"C. c #494644",
"Z. c #444A44",
"A. c #4B4B46",
"S. c #44444C",
"D. c #48464C",
"F. c #46484C",
"G. c #4B4A4C",
"H. c #514D4D",
"J. c #4E5143",
"K. c #4E534A",
"L. c #515443",
"P. c #535B44",
"I. c #52524D",
"U. c #555B4D",
"Y. c #595A48",
"T. c #595C4B",
"R. c #454651",
"E. c #4A4652",
"W. c #474952",
"Q. c #4B4B53",
"!. c #454A59",
"~. c #4D4D59",
"^. c #514E52",
"/. c #514F5C",
"(. c #4E5153",
"). c #4E515B",
"_. c #545354",
"`. c #585656",
"'. c #565B53",
"]. c #5A5B56",
"[. c #53535D",
"{. c #59565B",
"}. c #55595B",
"|. c #5C5B5B",
" X c #5F5D5E",
".X c #605F5C",
"XX c #605E5F",
"oX c #5C6145",
"OX c #596449",
"+X c #5D644D",
"@X c #5D6152",
"#X c #5C615A",
"$X c #61654D",
"%X c #61605C",
"&X c #6A6D58",
"*X c #545561",
"=X c #535466",
"-X c #565963",
";X c #585866",
":X c #595A66",
">X c #5B5C65",
",X c #5B5D69",
"<X c #5C5E6A",
"1X c #5C5F6A",
"2X c #615D61",
"3X c #605F6C",
"4X c #5D6165",
"5X c #5E616A",
"6X c #5E606B",
"7X c #636263",
"8X c #61626C",
"9X c #636271",
"0X c #5F1080",
"qX c #631183",
"wX c #6C158B",
"eX c #71178F",
"rX c #721790",
/* pixels */
"`.`.A.X._ +.>X5X4X5X1X1X,X;X;X*X~.W.m V.Q.!.~.~.).*X;X1X>X>X,X>X-X{.K.b e k V.^.^.Q._._._._.|.XX2X X2X7X2X2XXX|._.z y c H..X^.`.",
"_.I.=.R ! ..>X8X1X1X1X1X,X,X,X;X).W.m m D.E.~.E.R.R.Q.Q.Q.W.D.k.V.] ] A i i V.G.G.G.^._.^._.`.|. XXXXX X2X.X X|.I.c e u m I.H.`.",
"_.H.$.W H ..>X7X>X1X5X1X,X,X,X-X*XQ.S l c b s.c m y e e q e f k z J L T I K %.D.G.G._.Q.^.^._.`.|. XXX XXXXXXXXXI.m i K #.H.H.`.",
"H.<.X.T | J.>X5X5X4X5X1X1X,XR.B.N.b + O 9 9 9 e k ; % 8 8 4 6 9 8 6 8 8 6 % 9 c x x b b s.b j.s.s.G. X X|..XXX|._.%.K F { H.H.H.",
"A.L.W ! U G.-X7X5X6X1X,X,Xd.* d d 0 q d 8 6 s d 8 % 0 d d s s d d q d d 0 8 6 d 0 0 0 4 d d q h 0 8 G.|.`.|.|.{.`.-.Y L [ V.H.H.",
"C.&. .Y T $.[.8X6X6X,X,X,Xg d d d s s d 0 8 0 0 d % 8 s 8 0 0 8 d 8 8 8 8 6 8 d s s 8 4 d s 0 d d q b |.`.|.|.{.].5.D H [ &.A.C.",
"D.%.n ] L X._.5X5X5X1X1X5Xj 0 s 0 8 0 0 8 6 p 0 8 % 8 q 0 0 8 8 0 8 8 8 8 % 6 p 8 8 8 5 0 0 8 0 0 0 b `.`.`.[.`.`.,.I P n m D.V.",
"V.m ' U K =.}.5X5X5X5X,X5Xj 0 0 0 8 0 8 8 5 8 8 8 % % 8 8 8 8 0 8 0 8 8 8 % 8 8 0 8 5 4 8 9 0 0 0 8 b G.`.`.`._._.L.] ] n m V.V.",
"l C F L { A.}.5X1X6X1X1X<Xg 8 8 8 8 8 4 4 % 8 8 5 % 5 p 8 8 8 8 8 8 8 8 6 . : 8 8 8 % % 8 8 8 8 8 8 x D.C.&.V.m &.$.V F J ' z z ",
"k @.] I H  .'.8X5X1X1X1X1Xg 8 8 8 8 8 % % % : % * %   % * * * 4 * * % 8 .   % % 8 ; % % 6 : 8 8 8 4 y l i K C C P E R Y Y P ' c ",
"V.V.&.O.! ..|.8X4X1X4X,X6Xd # % % . %   - > < < < < > < < < < < 3 < < < < < < < < < > @ % % % % % % 7 K U ~ / ( Q Q W =.-.+.=.C.",
">X{.A.:.` o.>X8X5X>X1X1X,XQ.4 s h d p & 8.8.8., 8.= 8.= 8.8.8.q.8.8.q.q.9.8., 8., , 8., 2 d d d d 6 U E ..R R R ~ ~ 4.|.5X7X>X2X",
"8X3X{.D... .I.'.'.P.K.K.I.-.6 s 8 s p 1 q.= , = = 8.8.8.8.q.q.q.q.9.q.w.r.w.8., , > = < 3 8 8 8 q X I ..Z.(._.U.2.) >.1X8X8X8X8X",
"7X1X>X/.=. .Y I ( / R ( / T 6 s 8 s a 1 0.= = 8.q.w.w.9.w.w.9.w.w.9.u.a.g.u.r.8.8., = < 3 8 a 8 8 6 K } F.*X-X}.4.~ +.>X8X8X5X9X",
"1X6X3X{.P.I ` 2.( ! I ) ) T 4 8 8 8 p 1 0.= 8.9.u.w.w.y.u.y.w.w.q.w.a.a.u.w.u.r.8., = < 3 8 8 8 8 X z s.F._.[.].o.R 1.>X1X4X4X4X",
"8X6X1X-XJ.| :.'.'.1.L.T.oXG.4 s 8 8 2 - 9.= 8.q.9.w.u.a.a.a.y.9.w.u.a.u.w.w.r.u.q.8., < 3 8 8 8 0 : c s.D.).).Q.b z ^.;X5X5X>X>X",
"1X4X1X-X:.K A.1X6X5X6X8X8X*X4 8 8 8 2 1 0., 8.q.9.u.a.u.y.u.u.u.q.u.a.u.w.u.w.u.9.8., < 3 8 8 8 8 ; z b R.~.).W.c y E.{.8X1X1X;X",
"9X1X1X*X#.V D.1X6X6X6X8X6X*X4 4 8 8 : 1 0.8.q.9.u.a.u.y.w.w.y.u.w.u.a.p.w.u.p.y.q.8.8.< 3 8 8 8 8 % m j.S.Q.Q.~.c e E.*X>X1X8X7X",
"1X1X1X[.c e S.1X6X6X5X5X9X).% % % 4 * & 0.8.9.w.u.f.u.w.u.u.p.u.w.w.p.a.p.w.y.w.w.9.8.< & % % % % % %.j.j.S.E.!.c k S.{.5X5X1X1X",
"6X1X1X/.f w D.,X6X6X5X6X6Xj 8 8 s 8 8 $ 0.8.q.w.p.f.p.w.w.u.p.w.w.u.r.a.h.u.w.9.u.w.q.< & 8 0 8 0 8 y m d.B.S.d.c k E.*X1X>X1X8X",
"1X1X>X~.u n A.|.1X5X6X6X4Xj h 0 s p a & 0.q.q.9.u.z.a.u.w.w.w.w.9.w.w.u.a.a.u.w.9.q.q.8.3 8 s s 0 0 + | s.d.B.d.c l E.*X>X1X1X1X",
"1X>X1XQ.@. .G.;X5X5X6X6X4Xj 8 8 8 8 p 1 0.8.q.w.w.a.z.a.u.w.w.w.w.w.w.w.u.a.l.u.w.9.q.< 3 8 0 s 7 8 M R S s.s.v x b E.}.*X-X-X>X",
",X,X1X~.| R A.}.-X*X-X}.}.h 8 8 8 8 p 1 0.q.q.w.w.u.h.c.x.a.u.w.w.9.w.w.w.u.f.a.y.9.8.< 3 8 8 8 8 8 N ( A s.j x l b R.~.=X[.*X[.",
"~.*X,XK...G | #.@.X...2.{ 7 0 8 8 8 p - 0.q.9.w.w.w.u.a.x.c.x.f.p.u.w.w.u.w.p.f.u.9.q.< 1 8 8 8 d 0 B ` ] v v s.V.b R.).~.[.[.-X",
"[.).[.K.( Q / ( R T Q ) R o 8 8 8 8 : 1 9.q.q.w.r.w.w.w.u.a.x.b.c.l.u.w.w.w.u.a.a.w.8.< 3 8 8 8 8 8 V.].].-X-X*X}.m k./.~.).*X[.",
"[.[.).(.| H  .L.P.P.6.6.U.q 5 8 * 8 : 1 9.8.q.w.w.r.r.w.w.w.u.z.v.v.l.u.w.w.w.p.f.y.8.8.3 ; 8 4 8 6 S.8X9X9X8X5X>Xb c Q.Q.)./.).",
"/.).).R.@.F | I.[.[.*X}.|.q . % % % $ & 9.8.w.w.u.a.p.u.w.y.u.u.l.x.c.l.u.w.y.u.f.y.q.< $ % % % % % S.;X3X>X4X1X,XV.n D.~.~.).*X",
"/.~.).F.[ L  .U._._.).U.5.C % 0 8 8 8 & q.8.q.y.a.p.r.u.u.w.w.y.a.l.v.x.a.y.w.y.a.y.q.< 1 8 d s 0 4 }.1X6X2X5X4X;XQ.j.j.Q.Q.~.~.",
"!.!.D.:.I H T +.X.X.{ O.! N 6 0 d 8 a 1 0.q.w.a.u.w.y.u.w.w.w.w.u.f.c.c.l.w.w.p.a.y.q.< 3 8 s s d 0 4X1X5X5X6X;X-X_.d.z A.I.Q.K.",
"$.@.@.O._ Q ) ! G G F I Q Q 6 0 8 8 8 > 9.8.w.a.u.w.y.y.w.u.u.w.u.f.c.b.a.u.w.a.u.q.q., 1 8 8 8 8 8 1X1X5X5X4X#X+X_.C. .R | *.X.",
"^ R W ~ _ I ~ ! ) ! H I _ T % 8 8 8 2 > 9.8.w.u.a.u.w.w.y.w.y.y.a.l.v.v.f.y.u.p.y.q.q.< 3 8 q 8 8 6 P.I.K.6.1.4._ 4.-.E ! ! Y T ",
"! ..` Q / ! ! R 2.R / 2.P.*.% 8 0 8 p 1 9.q.q.y.a.a.u.w.w.y.y.a.l.c.b.x.a.u.y.y.y.q.q.< < 8 8 8 d X ! ....! ! / Q _ ( ! T B | T ",
"3.<.1.O.,.5.3.P.T.T.7.oX`.A.: 8 8 8 : 1 9.q.y.w.u.a.a.w.w.u.a.x.c.b.c.a.u.y.y.y.w.q.q.< 3 8 8 8 8 X _ 4.o.I H I ^ _ / / X.%.#.+.",
"&X7X7X.XXX|.$X].`.`.U._.I.A.# 8 8 8 2 1 9.8.w.w.w.u.a.a.a.l.x.v.b.c.f.u.y.w.y.y.w.w.8., - : 8 8 8 6 @X'.}.OX5.( Q ! _ 5.].XXXXXX",
"7X7XXX|.|.|.{.|.`.{._._._.V.% 8 5 5 : & 9.q.w.u.w.u.a.l.l.x.b.b.c.l.p.y.y.y.y.w.q.w.q.< 3 & 8 8 8 8 5X5X4X4XP./ Q ( 7.$X.X.XXX.X",
"XXXX].XX|.{.{.].`._._.H.I.x   % % % $ $ 9.q.q.w.y.u.l.x.v.m.b.x.l.p.y.w.y.a.a.u.w.9.q., @ % # % % % ).5X5X4X6./ _ 5.#X%X.X.X|..X",
"XX.X|.>X|.|.{.]._.`._.H.H.q 8 q 0 0 p & 9.q.q.w.u.f.x.v.m.n.x.g.u.y.y.y.a.p.p.a.u.w.q.< - 8 s s s 8 B.5X4X4X5.! I <..X.XXX.XXX|.",
"|.|..X{.|.|.{.`._.`._._.^.d d 8 8 8 8 1 9.q.w.w.p.f.c.m.m.v.l.a.y.y.y.y.y.y.y.u.a.y.q.8.3 8 0 s d 8 B.5X>X-XOXR P L.|.XX.X.X>X|.",
">X|..X{.`.|.`._._._.H.H.L.d 8 8 8 8 8 > 9.q.w.y.f.l.b.0Xm.x.g.p.y.w.y.u.y.y.y.y.a.y.q.< 3 8 8 8 8 8 S.>X4X>XK.| F -.].].|.|.{..X",
".X]..X.X|.`._._._._.^.H.H.8 8 8 8 8 : 1 q.q.q.y.f.x.b.qXm.x.l.p.w.y.y.y.u.u.y.u.a.y.8.< 3 8 8 8 8 8 S.1X-X4XU.T L =.|. XXX.X{.].",
"{.]..X.X{..X^.H.H.^.H.H.A.q 8 d 8 8 : 1 e.q.9.u.g.z.b.0X0Xc.l.g.y.w.w.w.y.w.u.a.p.w.8.8.3 8 8 p 8 8 B.1X5X#X2.I Y &.XX>X|.XX|.|.",
"H.C.C.A.C.^.`.H.^.^.Q.A.G.9 6 8 8 8 : > e.q.9.y.a.l.v.M.wXb.l.g.a.w.w.y.w.w.p.f.y.w.q.< 3 8 8 8 8 8 B.-X4X#X2.H P %._.].T.^.^.^.",
"l i i i i m E.C.A.D.D.V.D.9 8 8 8 8 : 1 9.q.q.w.p.g.c.n.qXqXv.l.l.a.u.w.w.u.a.p.w.w.q.< 1 8 5 8 8 4 s.,X-X(.;.| R ] X... .n c u ",
"+ J J J C n %.[ [ [ { n e ; % 8 8 * ; - w.q.q.w.u.a.l.b.M.qXqXn.c.z.f.a.u.u.l.u.w.u.9.< - 5 4 5 4 % s.K.o.:.%.} ` I W ~ F + e y ",
"m $.Y T W P P Y R ..P J t 7 % 4 5 5 * $ e.q.q.w.w.u.l.l.c.b.0XqXqXm.b.l.p.a.f.u.w.w.q.< # % % 4 % % u | ! ` U Y H ) 2.R  .Z k l ",
"G.[.}.P.O.H H 1.T.'.T.P.Q.S.4 d d a a 1 e.9.u.p.y.w.u.l.l.c.b.qXrXwXm.b.l.a.l.u.w.w.0.0.- s d d h X T X.` >.L.-.) ) X.*.C.F.D.Q.",
"}.}.}.}.:.I O.'.;X>X;X;X1X/.4 8 p 8 a - 9.w.p.y.w.y.w.a.l.l.z.b.qXeXwXm.c.l.z.a.y.w.q.< 3 s p 8 d 4 Y.'.|.>X-X>./ ) O.K.Q.Q.Q.[.",
"*X[.[._.X.H Y +X;X*X*X}.*XQ.4 s s 8 2 - 9.w.p.y.w.y.w.w.a.a.f.c.m.wXeX0Xb.z.l.a.w.w.q.< 1 8 8 0 0 0 9X5X9X>X;X+.! Q ) A.[.~./.[.",
"-X>X{.A.{ P +.'.;X}.*X*X;XQ.: 8 8 8 p - w.q.y.p.p.y.y.y.y.a.f.l.b.0XeXwXM.c.f.a.w.y.q.< 1 8 8 0 8 8 1X-X,X-X}.;./ _ ..A.).[.[.[.",
"-X>X;X<.P ] L.*X[.[.*X*X;XQ.% 8 8 5 p - e.q.q.w.u.p.y.y.y.p.f.f.b.0XeXeXM.v.f.p.q.w.q.< - 8 8 8 8 8 >X4X-X=X-X).o._ 2.J.Q.).[.[.",
"}.;X{.*.L F J.).[.[.*X*X*XW.8 8 p 8 p - e.q.u.y.y.f.y.q.y.f.f.c.M.M.eXwXM.c.l.u.u.y.w.< - 8 0 8 0 0 4X-X,X;X1X[.-.! _ :.G.Q.Q./.",
"~.).`.-.T U K.[.*X[.*X*X-XQ.% 8 * p * & e.w.w.y.a.f.y.y.p.f.f.b.M.wXeX0Xb.l.a.u.w.w.q.< & 8 5 8 5 5 ,X1X4X4X-X).N.( o.F.E.E.W.Q.",
"/./.L.2.| $.).[.[.[.*X*XN.s # % 5 5 * & e.q.w.y.f.a.u.f.f.f.v.n.M.qX0Xn.c.a.p.w.w.w.w.< # % * 5 5 % h B.5X-X-X).-.] S S.D.R.W.~.",
"Q.^.>.! F o.I.[.[.*X[.R.% % % % % 5 % # 0.t.t.i.i.u.i.i.i.p.h.f.a.f.a.f.p.p.t.t.t.e.t.= # % % % 4 5 8 4 ;X,X4X(.W R b V.R.W.W.Q.",
"(.I.+.! G +.Q.).).=X*XB.8 d d d s s s % 5 p a p s p p s p s p s a s h 0 p a p a a a 5 % * s s s h h d 5 [.,X;X[.$.{ b s.R.R.W./.",
"!.W.-.R T | Q.[.~.!.).N.5 8 0 8 5 8 s % 5 5 p 5 8 p 5 p 8 p 8 : p 5 8 4 8 8 8 8 8 8 5 % 4 8 8 8 8 5 0 4 [.5X6X-XG.b c s.R.R.G.^.",
"F.$.| ( _ I %.V.S.d.j.g % 8 8 8 8 * 5 % # % % % % % % % # % # % % # # % % % % * % % %   % 5 8 8 8 8 8 4 [.,X1X-XQ.b k s.S.R.S.E.",
"A W H ) ) H { j.b z c e 6 8 4 8 8 8 % % 8 0 0 0 8 8 8 5 5 s 8 8 5 s 8 0 5 s s 5 0 s 8 8 % 8 8 8 8 8 8 % ).,X>X;XW.b m s.s.s.s.b ",
"z { W 3.( X.L.A.C.G.D.x % 8 8 8 * 8 % % 8 p 0 0 p p s s 8 0 8 8 8 8 8 s s 8 0 5 8 8 8 8 % 5 8 8 8 8 8 % S.F.Q.D.@.@.m c k y e k ",
"V.A.:.W / ..U.}.;X>X>XS.% % % % # % % % 4 5 5 5 5 5 5 5 5 4 5 5 4 5 5 5 5 5 5 5 5 5 * % # % 4 4 4 4 4 % ] ] { B P C u c u l z m ",
"`.|.oX) D R +X5X1X,X1X-XS.d.s.d.s.x q c N.B.B.B.S.S.R.S.F.F.S.R.R.F.V.t + + + N N + N N + O w q r B C N H G I G K [ u l m &.H.H.",
"XXXXT.` ! X.#X9X1X,X,X>X>X1X-X*X*X~.m Q.).).[.1X5X6X8X6X6X6X6X6X5X6X+X) Q K @...I X.-.-.&.} @.&.#...+...) ` ` I | Y ' m ^.XX|.].",
"].`.L.W ! >.1X9X6X6X,X;X,X*X*X~.~.Q.j.D.~.).).;X-X1X>X8X6X-X5X,X5X5X'.` T ] G.T.I.L.I.`.I.H._.H.`.].].+XXX].oX$XL.n u m ^.|.`.].",
"`.`.H.W ~ 4.4X9X3X1X1X-X,X,X*X~.~.Q.%.D.~.~.).).*X1X6X6X5X5X5X,X1X1X;X=.' z A.G.^.^.I._.XX7X7X7X2X7X7X7X2X2XXXXX`.c u m ^.|.`.`."
};
