/* XPM */
static char *result[] = {
/* columns rows colors chars-per-pixel */
"64 64 8 1 ",
"  c #FFD454",
". c #FFDF8F",
"+ c #FFEBBD",
"X c #F57AF5",
"o c white",
"O c #0082ED",
"@ c #FCAEFC",
"# c #00B7EF",
/* pixels */
"@@@@XXXX@@@@XXXX@@@@XXXX@@@@XXXX@@@@XXXX@@@@XXXX@@@@XXXX@@@@XXXX",
"@@@@XXXX@@@@XXXX@@@@XXXX@@@@XXXX@@@@XXXX@@@@XXXX@@@@XXXX@@@@XXXX",
"                               OO                               ",
"                       OOOOOOOOOOOOOOOOOO                       ",
"++++++++++++..  +++++++OOOOOOOOOOOOOOOOOO+++..  ++++++++++++++++",
"++++++++++++..  +++OOOOOOOOOOOOOOOOOOOOOOOOOO.  ++++++++++++++++",
"++++++++++++..  +++OOOOOOOOOOOO##OOOOOOOOOOOO.  ++++++++++++++++",
"++++++++++++..  +OOOOOO##################OOOOOO ++++++++++++++++",
"++++++++++++..  +OOOOOO##################OOOOOO ++++++++++++++++",
"++++++++++++.. OOOOOO######################OOOOOO+++++++++++++++",
".............. OOOOOO##########OO##########OOOOOO...............",
".............OOOOOO####OOOOOOOOOOOOOOOOOO####OOOOOO.............",
"             OOOOOO####OOOOOOOOooOOOOOOOO####OOOOOO             ",
"           OOOOOO####OOooooooooooooooooooOO####OOOOOO           ",
"XXXX@@@@XXXOOOOOO####OOooooooooOOooooooooOO####OOOOOO@@@XXXX@@@@",
"XXXX@@@@XOOOOOO####OOooooOOOOOOOOOOOOOOooooOO####OOOOOO@XXXX@@@@",
"@@@@XXXX@OOOOOO####OOooooOOOOOOOOOOOOOOooooOO####OOOOOOX@@@@XXXX",
"@@@@XXXOOOOOO####OOooooOOOOOOOOOOOOOOOOOOooooOO####OOOOOO@@@XXXX",
"       OOOOOO####OOooooOOOOOOOO##OOOOOOOOooooOO####OOOOOO       ",
"       OOOO####OOooooOOOOOO##########OOOOOOooooOO####OOOO       ",
"+++++++OOOO####OOooooOOOOOO####OO####OOOOOOooooOO####OOOO+++++++",
"+++++OOOO####OOooooOOOOOO##OOOOOOOOOO##OOOOOOooooOO####OOOO+++++",
"+++++OOOO####OOooooOOOOOO##OOOOooOOOO##OOOOOOooooOO####OOOO+++++",
"+++++OOOO####OOooOOOOOO##OOOOooooooOOOO##OOOOOOooOO####OOOO+++++",
"+++++OOOO####OOooOOOOOO##OOOOooOOooOOOO##OOOOOOooOO####OOOO+++++",
"+++++OOOO####OOooOOOO##OOOOooOOOOOOooOOOO##OOOOooOO####OOOO+++++",
".....OOOO####OOooOOOO##OOOOooOOooOOooOOOO##OOOOooOO####OOOO.....",
".....OOOO####OOooOOOO##OOooOO#oooo#OOooOO##OOOOooOO####OOOO.....",
"     OOOO####OOooOOOO##OOooOOoOOOOoOOooOO##OOOOooOO####OOOO     ",
"    OOOO####OOooOOOO##OOooOOooO##OooOOooOO##OOOOooOO####OOOO    ",
"XXXXOOOO####OOooOOOO##OOooOOooO##OooOOooOO##OOOOooOO####OOOO@@@@",
"XXXX@OOOO####OOooOOOO##OOooOOoOOOOoOOooOO##OOOOooOO####OOOOX@@@@",
"@@@@XOOOO####OOooOOOO##OOooOO#oooo#OOooOO##OOOOooOO####OOOO@XXXX",
"@@@@XOOOO####OOooOOOO##OOOOooOOooOOooOOOO##OOOOooOO####OOOO@XXXX",
"     OOOO####OOooOOOO##OOOOooOOOOOOooOOOO##OOOOooOO####OOOO     ",
"     OOOO####OOooOOOOOO##OOOOooOOooOOOO##OOOOOOooOO####OOOO     ",
"+++++OOOO####OOooOOOOOO##OOOOooooooOOOO##OOOOOOooOO####OOOO+++++",
"+++++OOOO####OOooooOOOOOO##OOOOooOOOO##OOOOOOooooOO####OOOO+++++",
"+++++OOOO####OOooooOOOOOO##OOOOOOOOOO##OOOOOOooooOO####OOOO+++++",
"+++++++OOOO####OOooooOOOOOO####OO####OOOOOOooooOO####OOOO+++++++",
"+++++++OOOO####OOooooOOOOOO##########OOOOOOooooOO####OOOO+++++++",
"+++++++OOOOOO####OOooooOOOOOOOO##OOOOOOOOooooOO####OOOOOO+++++++",
".......OOOOOO####OOooooOOOOOOOOOOOOOOOOOOooooOO####OOOOOO.......",
".........OOOOOO####OOooooOOOOOOOOOOOOOOooooOO####OOOOOO.........",
"         OOOOOO####OOooooOOOOOOOOOOOOOOooooOO####OOOOOO         ",
"           OOOOOO####OOooooooooOOooooooooOO####OOOOOO           ",
"XXXX@@@@XXXOOOOOO####OOooooooooooooooooooOO####OOOOOO@@@XXXX@@@@",
"XXXX@@@@XXXX@OOOOOO####OOOOOOOOooOOOOOOOO####OOOOOOX@@@@XXXX@@@@",
"@@@@XXXX@@@@XOOOOOO####OOOOOOOOOOOOOOOOOO####OOOOOO@XXXX@@@@XXXX",
"@@@@XXXX@@@@XXXOOOOOO##########OO##########OOOOOO@@@XXXX@@@@XXXX",
"               OOOOOO######################OOOOOO               ",
"                 OOOOOO##################OOOOOO                 ",
"++++++++++++..  +OOOOOO##################OOOOOO ++++++++++++++++",
"++++++++++++..  +++OOOOOOOOOOOO##OOOOOOOOOOOO.  ++++++++++++++++",
"++++++++++++..  +++OOOOOOOOOOOOOOOOOOOOOOOOOO.  ++++++++++++++++",
"++++++++++++..  +++++++OOOOOOOOOOOOOOOOOO+++..  ++++++++++++++++",
"++++++++++++..  +++++++OOOOOOOOOOOOOOOOOO+++..  ++++++++++++++++",
"++++++++++++..  +++++++++++++++OO+++++++++++..  ++++++++++++++++",
"..............  ..............................  ................",
"..............  ..............................  ................",
"                                                                ",
"                                                                ",
"XXXX@@@@XXXX@@@@XXXX@@@@XXXX@@@@XXXX@@@@XXXX@@@@XXXX@@@@XXXX@@@@",
"XXXX@@@@XXXX@@@@XXXX@@@@XXXX@@@@XXXX@@@@XXXX@@@@XXXX@@@@XXXX@@@@"
};
