/* XPM */
static char *xpm_[] = {
/* columns rows colors chars-per-pixel */
"64 64 206 2 ",
"   c #14151E",
".  c #16181F",
"X  c #1A1C1E",
"o  c #1F221F",
"O  c #262A1D",
"+  c #262B1D",
"@  c #2A3215",
"#  c #2B311A",
"$  c #373A1E",
"%  c #180E28",
"&  c #161622",
"*  c #181326",
"=  c #171921",
"-  c #1B1C25",
";  c #1C122C",
":  c #1D1C2B",
">  c #1D013C",
",  c #1F1230",
"<  c #1E1E30",
"1  c #201F2E",
"2  c #24073D",
"3  c #23083A",
"4  c #211332",
"5  c #1E2026",
"6  c #1F2129",
"7  c #222325",
"8  c #252923",
"9  c #2A2D24",
"0  c #23242C",
"q  c #28272C",
"w  c #26282E",
"e  c #2A2B2C",
"r  c #322E27",
"t  c #312E2D",
"y  c #2E3225",
"u  c #2E312C",
"i  c #343821",
"p  c #35322C",
"a  c #39362C",
"s  c #3C3D2D",
"d  c #232231",
"f  c #272930",
"g  c #2A2C32",
"h  c #2D2F38",
"j  c #332F31",
"k  c #2E3036",
"l  c #2F3138",
"z  c #353333",
"x  c #393534",
"c  c #3C3A34",
"v  c #35353A",
"b  c #3A363B",
"n  c #353839",
"m  c #3C3B3B",
"M  c #403F2E",
"N  c #413E3C",
"B  c #3D461A",
"V  c #3E4422",
"C  c #3E412B",
"Z  c #3E4131",
"A  c #3C413C",
"S  c #404E0D",
"D  c #485E06",
"F  c #44530E",
"G  c #465A0D",
"H  c #4A5D0D",
"J  c #414B13",
"K  c #434D1D",
"L  c #455415",
"P  c #485614",
"I  c #4C5C14",
"U  c #46531C",
"Y  c #4A551B",
"T  c #475918",
"R  c #4D5C1B",
"E  c #515F14",
"W  c #515D1D",
"Q  c #4B6106",
"!  c #4D620C",
"~  c #52640D",
"^  c #51680A",
"/  c #4E6112",
"(  c #4E611B",
")  c #526513",
"_  c #546913",
"`  c #53621C",
"'  c #404325",
"]  c #434C24",
"[  c #41442C",
"{  c #454C2A",
"}  c #494D2C",
"|  c #475322",
" . c #4A5524",
".. c #4D5A23",
"X. c #455228",
"o. c #4B552B",
"O. c #4E5C2B",
"+. c #515D23",
"@. c #525E2B",
"#. c #424433",
"$. c #464B34",
"%. c #494D35",
"&. c #43423B",
"*. c #48463F",
"=. c #454B3B",
"-. c #4A4B3C",
";. c #4C5334",
":. c #4F5936",
">. c #4D533C",
",. c #535D34",
"<. c #585E32",
"1. c #51543D",
"2. c #545B3C",
"3. c #536323",
"4. c #596624",
"5. c #54622A",
"6. c #59652B",
"7. c #57623B",
"8. c #5D6639",
"9. c #1F0240",
"0. c #230343",
"q. c #260149",
"w. c #2B024D",
"e. c #30064F",
"r. c #2D0152",
"t. c #310156",
"y. c #35025A",
"u. c #39025E",
"i. c #3C3C43",
"p. c #3C3E48",
"a. c #3D0262",
"s. c #413D43",
"d. c #413F4A",
"f. c #410265",
"g. c #45036A",
"h. c #4A046E",
"j. c #4D0572",
"k. c #510676",
"l. c #540779",
"z. c #56097C",
"x. c #3F4248",
"c. c #444344",
"v. c #494644",
"b. c #444A44",
"n. c #4B4B46",
"m. c #45444C",
"M. c #48464C",
"N. c #46494A",
"B. c #4B4A4C",
"V. c #514D4D",
"C. c #4E5143",
"Z. c #4E534A",
"A. c #515443",
"S. c #535B44",
"D. c #52524D",
"F. c #555B4D",
"G. c #595A48",
"H. c #595C4B",
"J. c #454651",
"K. c #4A4652",
"L. c #474952",
"P. c #4B4B53",
"I. c #454A59",
"U. c #4D4D59",
"Y. c #514E52",
"T. c #504E5C",
"R. c #4E5153",
"E. c #4E515B",
"W. c #545353",
"Q. c #585656",
"!. c #565B53",
"~. c #5A5B56",
"^. c #53535D",
"/. c #59565B",
"(. c #55595B",
"). c #5C5B5B",
"_. c #5F5D5E",
"`. c #605F5C",
"'. c #605E5F",
"]. c #5C6349",
"[. c #5D6152",
"{. c #5C615A",
"}. c #61654D",
"|. c #61615D",
" X c #6A6D58",
".X c #545561",
"XX c #535466",
"oX c #565963",
"OX c #585866",
"+X c #5A5C65",
"@X c #5B5D69",
"#X c #5C5E6A",
"$X c #5C5F6A",
"%X c #615D61",
"&X c #605F6C",
"*X c #5D6165",
"=X c #5E616A",
"-X c #5E606B",
";X c #636263",
":X c #61626C",
">X c #636271",
",X c #5C0A82",
"<X c #630D8A",
"1X c #680F91",
"2X c #6C1195",
"3X c #701299",
/* pixels */
"Q.Q.n.o._ 5.@X$X$X*X$X$X$XOXOX.XU.M.N c.P.I.U.U.E..XoX$X+X+X@X$XoX/.Z.m p x c.B.B.Y.Y.W.W././.%X%X_.%X;X;X+X`._.V.c p x V.Q.Q.W.",
"W.D.-.R ! ..+X:X$X$X$X$XOX$X@XOXE.P.N s.m.K.U.K.J.K.K.P.P.K.m.d.c.] B Z c s v.P.B.P.Y.W.T.W.Q.)._.|.+X_.%X`.`.).D.b p s *.V.W.Q.",
"W.V.%.W Q .._.*X@X@X-X$X$X$X@XOX.XI.&.p b m i.b N z t t t t z z c L L R I K &.n.B.B.V.B.V.Y.W.Q.).`.|.`.%X%X%X`.W.N s ' $.V.V.Q.",
"V.1.o.T | n.@X-X*X$X-X-X$X$XR.I.N.x.B $ e t r z x 0 7 0 0 0 7 0 0 w 7 7 7 - p i.N i.c.x.c.c.c.M.M.Y.`.).).%X).).Q.#.K S } n.V.V.",
"v.A.W ! Y N.+X;X-X-X-X@XOXx.f f w 0 e k 7 0 g g f 0 g g g f w f f g e w g w 5 g g g w 5 g g g g f f P.).).).)./.Q.;.T L [ v.V.V.",
"v.-.o.Y T %.^.:X-X-X@X@X$Xi.h g w w 0 w 0 0 g g w = 0 f w w w f w 0 w w e 6 0 e w 0 w 5 w f w 0 h g c.).Q.~././.~.6.! H [ s.v.v.",
"M.&.M ] L X.W.:X-X-X-X@X-Xi.0 w w w w 0 0 - w f 0 = 6 w 0 w f 0 0 0 w w w 6 5 w w w 0 - w 0 0 w w g c.W.Q.Q.Q.Q.~.<.I L #.N M.v.",
"c.N ' U U -.^.-X-X-X-X$X@Xi.0 0 w 0 0 w 0 : f f f = 5 0 w 0 0 w w f 0 w 0 . - f w w 7 - w w w w 0 0 N V.Q.Q.Q.Q.Q.C.V K M N c.v.",
"x V F L { n.(.-X+X-X$X:X$Xi.f 0 0 0 0 0 - : f w 0 = - w 0 f 0 0 0 d w 0 7 . 6 f f f 0 = 0 0 0 w f 0 m v.v.*.c.N *.$.K S K ' c b ",
"z #.] I H | !.:X-X@X$X$X$Xi.0 0 0 0 0 0 = = : : : &   - 0 : : : : : : 6 * & 6 : : d :   6 0 0 f 0 0 z b s ] V V P E R Y L P ' x ",
"c.v.*.+.! ..).:X*X@X*X-X$Xi.&   . . .   3 3 3 3 2 3 3 3 0.3 3 3 3 3 2 2 3 3 3 3 3 3 3 % . - . . = X i B U ~ / / Q Q ` %.;.@.-.v.",
"OX/.n.>.` O.+X:X-X@X$X@X$X(.0 g g w f 4 w.2 2 0.0.q.0.q.0.q.q.0.0.q.q.0.0.0.0.9.0.9.0.2 4 h f v f + U E ..R ..R ! ~ @.).-X;X+X%X",
":X&X/.M.O. .D.!.!.].Z.Z.Z.;.8 0 0 0 w 4 q.> > > > 0.q.q.q.q.q.0.0.0.q.> 2 > > > > > 3 0.4 w 0 0 f 9 I ..b.R.W.F.5.) ,.$X:X>X:X:X",
";X&X+XT.-. .Y I ( / T ( / I + 0 0 0 0 4 q.> > 0.q.w.w.r.y.r.w.w.q.w.w.q.q.0.9.0.> > 3 0.4 0 f 0 0 e K $.N.^.oX(.3.~ @.+X:X:X-X>X",
"$X-X&X^.2.I R 3.( D / ) _ R 8 w 0 0 0 4 e.> 0.w.r.y.a.u.y.w.r.u.y.r.w.r.r.r.0.9.> 0.> 0.4 0 0 0 0 q c N N.(.^.!.O.W 2.+X$X*X*X*X",
"-X-X-X+XC. .>.~.!.2.C.G.].R.w 6 0 0 0 : e.> q.r.a.a.t.y.a.t.r.t.a.u.r.r.r.r.w.9.9.q.> 0.4 0 0 0 w q b i.m.E.E.P.m c Y..X:X*X+X@X",
"-X*X$XoX>.K n.$X-X:X-X-X:X-Xf 6 6 0 0 , w.> q.y.a.y.r.w.u.y.r.r.y.a.r.q.q.r.r.0.0.2 0.2 4 0 0 0 0 0 b m J.U.U.P.b p Y.OX&X-X$X+X",
"-X$X-X^.$.B M.$X-X-X-X:X-XoXf w 0 6 d , w.2 q.t.a.t.r.t.u.y.w.t.a.y.r.r.r.r.r.w.0.2 0.0.4 f 0 0 0 q N s.m.P.P.I.b j p./.$XOX&X&X",
"&X-X-X^.b t m.$X:X-X*X-X:XoX0 6 6 5 6 ; w.> q.r.a.t.y.u.a.y.w.y.a.r.q.r.w.w.r.r.w.9.0.0.4 : - - 0 0 v.s.x.m.L.K.b z m.OX*X$X&X%X",
"-X@X$XT.z r M.OX-X-X-X-X>Xi.7 w 6 6 6 ; w.> q.r.a.y.r.y.y.w.w.y.a.r.w.r.y.r.w.r.r.0.2 0.: w 0 0 0 5 a N i.x.m.x.v z K./.$X$X$X-X",
"@X@X@XE.x s n.).@X-X:X-X-Xi.w w 0 0 f 4 t.3 0.w.y.f.y.r.r.r.r.t.a.f.y.r.w.w.w.r.w.9.0.q.4 0 f f f e B U i.i.x.p.v x K.^.$X$X$X-X",
"$X@X$XP.[  .n.+X-X@X-X-X-Xi.0 w 0 0 d 4 0.0.q.q.w.y.f.f.a.r.r.r.t.a.f.f.u.t.r.y.r.q.0.2 , 0 0 0 f e B R A i.c.n z m P.^.^.oXoX@X",
"oX@X$XU.| R n.^..X.XoX{.(.n e 0 0 0 0 , w.0.q.q.q.w.t.a.a.f.a.r.r.w.t.y.f.a.y.w.w.q.0.2 4 0 0 0 w w B ( Z n n k b m J.^..X.X.X^.",
"E.oXoXZ...I  .$.=.{ ....;.u w 0 0 : 0 4 w.> 0.w.t.w.w.r.y.h.j.h.u.t.r.w.t.a.f.t.r.q.0.0., 7 0 0 0 e L R X.n b i.c.N J.E.E.E..X^.",
"(.E.OXZ.( Q / T ` G ! ) T # 0 0 5 0 0 ; w.0.q.w.w.w.w.r.r.y.a.k.j.u.w.w.r.r.a.a.r.q.0.0.4 0 0 0 0 w n.~.!.+X)..X^.m m.U.U.E..XE.",
"E.E.^.P.| G | A.S.S.7.7.F.n 5 0 0 0 0 4 w.9.q.w.w.r.r.r.r.r.t.a.j.j.t.t.r.r.y.a.r.q.9.0., 0 0 0 0 w P.:X>X>X:X:X@XN b P.P.U.E.^.",
"U.^.U.J.Z L U W.^.T..X(.).n . - - = * ; w.> q.r.w.r.r.r.r.t.r.y.h.k.f.r.r.r.t.u.r.0.0.2 * - - - - - P.+X$X$X@X*XOXc.c K.U.U.^.^.",
"E.U.E.N.{ L o.S.W.(.W.F.5.| 5 w f 0 0 ; w.9.q.r.r.a.t.u.t.w.r.a.h.k.f.r.r.r.t.t.w.0.0.0.; 0 f f w w OX$X%X@X*X@X+XB.N s.P.U.U.U.",
"I.P.m.;.I H R O.o.;.{ +.! Q 8 w 0 0 0 , r.0.q.r.a.y.r.r.r.r.r.g.l.k.a.r.r.r.t.r.w.0.> 2 , 0 0 0 w h +X$X-X$X$X@XoXE.s.m b.D.P.Z.",
"$.#.#.+._ ! / ! G G F H Q ! o 0 0 0 0 4 w.0.w.r.y.a.r.r.r.r.a.h.l.g.t.r.r.t.t.y.r.q.0.q., 0 0 0 w h $X+X-X-X@X{.].!.v.| R | =.o.",
"_ ..W ~ _ I ~ ~ / ~ D I ( R 8 w 0 0 : 4 w.q.w.r.t.a.a.r.t.a.j.,Xl.a.r.r.r.t.r.t.r.0.q.2 4 0 0 0 0 e S.D.F.7.,.5._ 5.;.R Q I Y T ",
"! Y ) ! / ! ! R 3.R / 5.>.-.7 0 0 5 0 4 w.0.w.r.w.t.a.t.a.j.,Xl.a.a.w.r.y.a.y.r.r.w.0.0.4 : 0 0 0 # ! ....! ! ! ! _ ) ! T B | T ",
"4.1.2.+.<.6.4.G.G.G.8.].!.B.0 6 6 0 < , r.9.q.q.r.r.a.a.j.,Xl.g.a.w.t.a.a.y.a.a.r.w.0.0.4 0 5 0 0 # ) O.O./ ! I ~ ^ _ ! o.&.$.@.",
" X;X;X|._.).}.).~.Q.Q.W.W.n.0 0 0 6 d , r.q.q.w.r.y.a.h.z.l.g.a.r.r.a.g.a.r.r.t.u.r.q.0.4 0 0 0 5 g [.~.(.F.6.( Q / ` 6.~.`.`.`.",
";X;X%X)._.).Q.Q.Q.Q.W.W.D.M.7 6 6 6 d , w.q.w.w.r.a.f.l.,Xg.a.t.w.t.a.a.r.r.r.r.a.t.w.0., - 0 0 5 l -X-X$X*X]./ Q ( 8.}.`.).`._.",
"`.`.~.).).).).).Q.W.W.V.D.N = = = = & * w.q.r.r.t.a.j.,Xj.f.r.r.t.r.a.a.r.t.r.t.u.r.q.2 * & = .   0 oX-X-X{.7./ _ 6.{.{.`.%X).|.",
"`.`.).`.).).).Q.Q.W.Q.Y.D.z 0 w g e f , w.q.w.r.a.g.l.,Xj.a.t.r.r.r.a.a.y.w.r.a.t.r.q.0.; 0 w k k w L.*X*X*X5.Q H 1._.`.%X%X%X).",
"OX_.)./.).).Q.Q.W.W.W.W.W.z w 0 w 6 d , e.q.w.w.a.a.,X,Xh.a.t.r.r.r.r.a.a.a.r.r.r.w.q.2 4 0 0 0 0 w P.@XoX@X].R Y A.).`.`.`.+X_.",
"+X`.`./.Q.).Q.W.W.W.V.V.B.z 0 0 0 6 0 , r.q.r.w.a.g.l.,Xh.f.y.r.r.r.r.t.a.a.y.r.y.r.w.0.4 0 0 0 0 0 I.@X{.oXZ.| F ;.~.).~._.Q.).",
").).).`.).Q.W.W.W.W.W.B.B.z 0 0 0 0 d 4 e.q.w.r.y.a.j.,Xj.f.g.y.r.r.t.r.y.a.a.t.w.w.q.0.4 d 6 0 w w P.*X@X@XS...T %.)._._.`.).~.",
").Q.`.)./.`.Y.D.V.Y.V.B.B.x w 0 0 0 w 4 r.q.t.t.y.a.g.,Xz.h.f.a.a.r.r.r.r.y.a.a.w.w.q.0.4 0 0 0 f 0 N.@X$X{.3.I U *.).+X).`./.`.",
"V.v.v.n.v.Y.W.Y.Y.Y.B.B.B.z 0 0 0 0 : 4 r.w.r.w.r.a.a.g.z.,X,Xj.a.a.a.y.r.r.y.g.y.w.q.0., : 0 0 6 0 L.@X@X{.4.H P *.Q.~.H.Y.T.V.",
"x s s s x N K.V.n.n.m.v.c.j 0 0 0 0 0 4 e.w.w.r.t.r.a.a.g.l.,X,Xz.g.a.a.y.r.r.a.y.r.q.0., 6 6 0 0 6 I.OXoXR.;. .I ] ;.+. .C x a ",
"$ J L J K M M M [ [ { s t 7 * 5 - - : ; w.q.r.y.t.w.r.a.a.g.j.,X,X,Xh.a.a.r.r.y.a.e.w.4 ; - - 5 5 - c.Z.O.%.*.} ` I W H G $ t p ",
"#.%.R L Y P P Y W ..P L a 9 X 5 6 6 6 ; e.q.y.y.r.w.r.r.a.a.a.j.,X2X,Xg.a.y.r.a.a.r.q.0.- 5 6 0 5 X Z | ! (  .Y I ~ 3.R X.C z c ",
"P.^.^.S.@.H I ,.!.!.G.S.W.B.w f w d f 4 e.w.y.a.r.r.r.w.t.a.g.a.,X2X1X,Xh.a.a.a.a.r.q.3 < w 0 w w + U X.3.O.C.o./ ) o.=.v.B.m.P.",
"(.^.oX(.;.I +.!.OXOXOXOX$X.Xw 6 6 0 0 , w.q.r.a.a.r.r.t.r.r.a.a.h.,X2X,Xk.a.a.a.y.r.w.0.4 d 0 0 0 y H.!.oX*X+X,.) ~ 3.n.P.P.U.T.",
".X^.(.W.o.H R H.+X.X^.^..X^.6 6 0 0 f 4 e.w.r.r.a.a.t.w.r.r.a.a.a.,X3X,X,Xa.g.a.r.w.q.0.4 0 0 0 0 l >X-X-X$X_.,.Q Q ` C.R.T.T.^.",
"+XOX/.B.] R +.!.)..X.XoXoX^.0 6 6 0 0 4 w.q.w.r.r.a.a.r.w.r.a.a.a.,X3X<X,Xa.a.a.r.q.q.2 , 6 0 0 6 l @X@XXXOX{.:./ ^ ..C.R.E..XQ.",
"+XOXOX:.T K Z..X.X^..X.X.X^.0 0 0 0 : 4 e.w.w.y.r.y.a.r.w.t.a.a.j.,X3X<X,Xa.a.r.r.w.q.2 , 6 0 0 w k *XoX*XoXXXE.O.( 5.n.P.E.T.^.",
"^.OX/.=.B G C.E.^.E..X.X.XE.6 6 0 6 < , e.q.q.w.w.a.a.r.r.a.a.g.,X1X<X,Xh.a.a.w.w.q.q.2 ; 6 0 6 6 l *X@XOXoXoX.X:.! _ >.B.K.U.T.",
"U.^.W.;.U U Z..X^..X.XoXOXE.0 - 5 6 : , w.q.q.w.t.a.t.r.y.a.g.l.<X<X,Xk.a.a.r.w.r.q.w.0.* : - 6 6 f oX@X-X*XoXE.=...O.N.I.J.B.P.",
"^.T.S.` | =.R.^.E.E..X.Xi.f * = = = & & e.y.y.y.a.a.a.a.a.a.h.h.h.h.h.a.a.a.a.t.t.t.y.2     &   = 6 h x.-X*XoXE.;.X.A m.m.m.I.P.",
"P.Y.,./ F ..W..X.X.X.XJ.0 h z h g k g - & < : < < < : : < - < < < ; < < < < - : < < *   6 f l h f f k f oX@XoX!.E Y m d.P.L.M.T.",
"R.D.@.! H O.P.W.E..XoXL.6 6 : 6 6 0 0 & : < d < < < < < < 6 < < < < < < < < < < d < 6 & * 0 : 0 0 f 6 w oX@XoX^.%.} c s.J.L.P.U.",
"I.B.$.R R | P.E.U.E.E.J.6 7 6 6 0 6 6 = = - : & : & - - - : & - : - : : - - - : - - *   = 7 0 0 6 6 6 6 XX-X$XOXM.m v i.J.L.B.P.",
"m.;.| ( _ H &.c.x.i.s.v : 0 - : 7 - - = 7 : 6 0 w = 0 5 5 0 0 7 6 5 5 6 6 6 : 5 0 0 - - = - - 0 0 0 0 0 OX@X$X@XK.m x b J.L.m.P.",
"Z R H ) ) H { N N c m j - 7 6 7 7 1 - = 0 0 0 w 0 0 0 0 0 0 0 0 6 6 0 w 0 0 0 0 0 0 0 0 = 7 0 w 5 6 5 7 .X@XOX.XP.m s.i.i.i.i.m ",
"c { ` 4.+. .C.n.m.n.M.m - - - -   - X   - 6 6 - : - 5 - 5 5 5 - 6 5 - 0 - 5 5 - - - - 1   = - - - - - - c.N.I.m.#.#.N b z p e x ",
"v.v.C.R ! O.F.+XoX@X+XP.g q 8 0 e 7 7 e y y e u y u u u y e k u l l f + @ # # # @ # @ @ O 7 7 7 7 8 w # ] ] ] ] U V a x z x c N ",
"Q.).].) D R ].:X$X$X-X$X+X^.^./.T.M.N B.`.^.oX$X@X@X:X;X|.:X*X:X>X:X{.} U U U ) H L I ~ K K M N Z Y +.I H G I D K s a M N v.V.V.",
"`.).G.` Q o.*X:X$X$XOXOX$X$XoX.X.XU.N P.E.E.(.-X:X$X:X:X-X-X-X-X*X-X].) Q K #.+.) o.;.;.*.} M N $.+.@.+.E W ( I | Y M N D.`.).~.",
"!.Q.A.W ! ,.$X>X-X$X$X@X@X.XOXU.P.P.i.K.U.E.E..XOX$X@X:X-X$X$X@X-X-X!.` P ] m.F.D.C.V.Q.D.V.W.W.W.~.Q.}.[.`.}.}.A.M a N W.).Q.~.",
").Q.D.W ~ 6.$X>X$X$X@XOXOXOX.XU.T.P.&.M.U.U.U.E.^.$X$X-X-X-X*X@X$X$XOX-.[ c n.V.V./.D.Q.%X%X;X|.;X;X;X;X_.%X%X`.V.N r N Y.Q.Q.)."
};
