/* XPM */
static char *result[] = {
/* columns rows colors chars-per-pixel */
"64 64 12 1 ",
"  c black",
". c #22B14C",
"X c #FFD454",
"o c #FFDF8F",
"O c #4D6DF3",
"+ c #F57AF5",
"@ c #00B7EF",
"# c #FFEBBD",
"$ c #F0C4A3",
"% c #D3F9BC",
"& c #FCAEFC",
"* c white",
/* pixels */
"&&&&++++&&&&++++&&&&++++&&&&++++&&&&++++&&&&++++&&&&++++&&&&++++",
"&&&&++++&&&&++++&&&&++++&&&&++++&&&&++++&&&&++++&&&&++++&&&&++++",
"XXXXXXXXXXXXXXXXXXXXXXXXXXXXXXXXXXXXXXXXXXXXXXXXXXXXXXXXXXXXXXXX",
"XXXXXXXXXXXXXXXXXXXXXXXXXXXXXXXXXXXXXXXXXXXXXXXXXXXXXXXXXXXXXXXX",
"############ooXX############################ooXX################",
"############ooXX############################ooXX################",
"############ooXX############################ooXX################",
"############ooXX############################ooXX################",
"############ooXX############################ooXX################",
"############ooXX############################ooXX################",
"ooooooooooooooXXooooooooooooooooooooooooooooooXXoooooooooooooooo",
"ooooooooooooooXXooooooooooooooooooooooooooooooXXoooooooooooooooo",
"XXXXXXXXXXXXXXXXXXXXXXXXXXXXXXXXXXXXXXXXXXXXXXXXXXXXXXXXXXXXXXXX",
"XXXXXXXXXXXXXXXXXXXXXXXXXXXXXXXXXXXXXXXXXXXXXXXXXXXXXXXXXXXXXXXX",
"++++&&&&++++&&&&++++&&&&      &&++++      ++&&&&++++&&&&++++&&&&",
"++++&&&&++++&&&&++++&&&&      &&++++      ++&&&&++++&&&&++++&&&&",
"&&&&++++&&&&++++&&&&++  ******  &&  ******  ++++&&&&++++&&&&++++",
"&&&&++++&&&&++++&&&&++  ******  &&  ******  ++++&&&&++++&&&&++++",
"XXXXXXXXXXXXXXXXXXXX  ******      ********  XXXXXXXXXXXXXXXXXXXX",
"XXXXXXXXXXXXXXXXXXXX  ******      ********  XXXXXXXXXXXXXXXXXXXX",
"############ooXX##  **********************  ooXX################",
"############ooXX##  **********************  ooXX################",
"############ooXX  ************************  ooXX################",
"############ooXX  ************************  ooXX################",
"############ooXX  **$$$$$$$$$$$$**********  ooXX################",
"############ooXX  **$$$$$$$$$$$$**********  ooXX################",
"ooooooooooooooXX  $$$$$$$$$$$$$$$$********  ooXXoooooooooooooooo",
"ooooooooooooooXX  $$$$$$$$$$$$$$$$********  ooXXoooooooooooooooo",
"XXXXXXXXXXXXXXXX  $$  $$$$$$$$  $$********  XXXXXXXXXXXXXXXXXXXX",
"XXXXXXXXXXXXXXXX  $$  $$$$$$$$  $$********  XXXXXXXXXXXXXXXXXXXX",
"++++&&&&++++&&&&  $$  $$$$$$$$  $$********  &&&&++++&&&&++++&&&&",
"++++&&&&++++&&&&  $$  $$$$$$$$  $$********  &&&&++++&&&&++++&&&&",
"&&&&++++&&&&++++  $$$$$$$$$$$$$$$$********  ++++&&&&++++&&&&++++",
"&&&&++++&&&&++++  $$$$$$$$$$$$$$$$********  ++++&&&&++++&&&&++++",
"XXXXXXXXXXXXXXXX  **$$$$$$$$$$$$**********  XXXXXXXXXXXXXXXXXXXX",
"XXXXXXXXXXXXXXXX  **$$$$$$$$$$$$**********  XXXXXXXXXXXXXXXXXXXX",
"############ooXX  ************************    XX################",
"############ooXX  ************************    XX################",
"############ooXX##                        %%%%  ################",
"############ooXX##                        %%%%  ################",
"############ooXX####  @@@@@@@@  $$$$$$$$  %%%%%%  ##############",
"############ooXX####  @@@@@@@@  $$$$$$$$  %%%%%%  ##############",
"ooooooooooooooXXoooo  @@@@@@@@  $$$$$$  ....%%%%  oooooooooooooo",
"ooooooooooooooXXoooo  @@@@@@@@  $$$$$$  ....%%%%  oooooooooooooo",
"XXXXXXXXXXXXXXXXXXXX  @@@@@@@@  $$$$  ..........  XXXXXXXXXXXXXX",
"XXXXXXXXXXXXXXXXXXXX  @@@@@@@@  $$$$  ..........  XXXXXXXXXXXXXX",
"++++&&&&++++&&&&++++  OOOOOOOOOO      ..........  ++&&&&++++&&&&",
"++++&&&&++++&&&&++++  OOOOOOOOOO      ..........  ++&&&&++++&&&&",
"&&&&++++&&&&++++&&    OOOOOOOOOOOOOO    ......  &&&&++++&&&&++++",
"&&&&++++&&&&++++&&    OOOOOOOOOOOOOO    ......  &&&&++++&&&&++++",
"XXXXXXXXXXXXXXXXXX  OO          $$$$$$$$      XXXXXXXXXXXXXXXXXX",
"XXXXXXXXXXXXXXXXXX  OO          $$$$$$$$      XXXXXXXXXXXXXXXXXX",
"############ooXX##  $$  ######  $$$$$$$$  ##ooXX################",
"############ooXX##  $$  ######  $$$$$$$$  ##ooXX################",
"############ooXX##  $$  ######              ooXX################",
"############ooXX##  $$  ######              ooXX################",
"############ooXX                                ################",
"############ooXX                                ################",
"ooooooooooooooXXoo                            XXoooooooooooooooo",
"ooooooooooooooXXoo                            XXoooooooooooooooo",
"XXXXXXXXXXXXXXXXXXXXXXXXXXXXXXXXXXXXXXXXXXXXXXXXXXXXXXXXXXXXXXXX",
"XXXXXXXXXXXXXXXXXXXXXXXXXXXXXXXXXXXXXXXXXXXXXXXXXXXXXXXXXXXXXXXX",
"++++&&&&++++&&&&++++&&&&++++&&&&++++&&&&++++&&&&++++&&&&++++&&&&",
"++++&&&&++++&&&&++++&&&&++++&&&&++++&&&&++++&&&&++++&&&&++++&&&&"
};
