/* XPM */
static char *xpm_[] = {
/* columns rows colors chars-per-pixel */
"64 64 198 2 ",
"   c #2B2E19",
".  c #2D331C",
"X  c #31351C",
"o  c #34391E",
"O  c #393D1C",
"+  c #2D2D24",
"@  c #2D2C28",
"#  c #302F2D",
"$  c #2E3126",
"%  c #2E3128",
"&  c #333523",
"*  c #363A23",
"=  c #3A3D25",
"-  c #32342C",
";  c #363A2D",
":  c #3A3C2C",
">  c #2D2D32",
",  c #312F3A",
"<  c #2F3130",
"1  c #343433",
"2  c #393732",
"3  c #373933",
"4  c #3B3C34",
"5  c #35343B",
"6  c #3A353D",
"7  c #3C3C3B",
"8  c #403E3B",
"9  c #3B441D",
"0  c #3F481B",
"q  c #3D4914",
"w  c #374025",
"e  c #3D4424",
"r  c #3D422C",
"t  c #3D4334",
"y  c #3E413B",
"u  c #3F4B33",
"i  c #4D5C0C",
"p  c #424D16",
"a  c #424C1D",
"s  c #475613",
"d  c #485614",
"f  c #4C5B15",
"g  c #46521C",
"h  c #4A541D",
"j  c #4D5B1C",
"k  c #525D1D",
"l  c #505D15",
"z  c #4F610B",
"x  c #4F6302",
"c  c #52660B",
"v  c #536214",
"b  c #586714",
"n  c #52621C",
"m  c #414725",
"M  c #444C24",
"N  c #484F23",
"B  c #41452C",
"V  c #444C2B",
"C  c #484E2D",
"Z  c #465125",
"A  c #4A5424",
"S  c #4E5A24",
"D  c #47512C",
"F  c #4C542B",
"G  c #4E592B",
"H  c #515C24",
"J  c #50562D",
"K  c #525B2C",
"L  c #424533",
"P  c #454B33",
"I  c #494D34",
"U  c #43443B",
"Y  c #4A473E",
"T  c #454B3B",
"R  c #4A4D3B",
"E  c #455232",
"W  c #4C5433",
"Q  c #4E5934",
"!  c #4C533B",
"~  c #4E5939",
"^  c #505634",
"/  c #535C33",
"(  c #585C37",
")  c #51553C",
"_  c #535B3C",
"`  c #595D3D",
"'  c #546122",
"]  c #586327",
"[  c #54612A",
"{  c #596229",
"}  c #556133",
"|  c #596234",
" . c #57613B",
".. c #5A623C",
"X. c #353341",
"o. c #3A3643",
"O. c #3C3C43",
"+. c #3B3748",
"@. c #3D3B49",
"#. c #403E45",
"$. c #413E4A",
"%. c #3E4143",
"&. c #434443",
"*. c #484643",
"=. c #454942",
"-. c #4A4C43",
";. c #44444B",
":. c #49454C",
">. c #464A4A",
",. c #4B4B4C",
"<. c #504D46",
"1. c #514E4B",
"2. c #4D5244",
"3. c #4F5941",
"4. c #4E524B",
"5. c #475244",
"6. c #525544",
"7. c #545B43",
"8. c #595D44",
"9. c #52544C",
"0. c #545A4C",
"q. c #595C4C",
"w. c #454353",
"e. c #484653",
"r. c #464952",
"t. c #4C4C53",
"y. c #49455B",
"u. c #4D4C5A",
"i. c #514E53",
"p. c #514F5B",
"a. c #4E5153",
"s. c #4F5857",
"d. c #4E515A",
"f. c #535454",
"g. c #595654",
"h. c #565A53",
"j. c #5B5C54",
"k. c #53535C",
"l. c #59555A",
"z. c #565A5C",
"x. c #5C5C5C",
"c. c #605D55",
"v. c #605D5E",
"b. c #5B6144",
"n. c #5C624B",
"m. c #576248",
"M. c #5C6254",
"N. c #5D625C",
"B. c #5E695B",
"V. c #60634F",
"C. c #616553",
"Z. c #626853",
"A. c #61635D",
"S. c #63695B",
"D. c #494560",
"F. c #4E4C62",
"G. c #4F4A6A",
"H. c #514E64",
"J. c #514E6A",
"K. c #4F5161",
"L. c #545463",
"P. c #595565",
"I. c #565963",
"U. c #5B5D64",
"Y. c #545369",
"T. c #59556C",
"R. c #575A6B",
"E. c #5A5E69",
"W. c #5C5F6A",
"Q. c #5D5F6D",
"!. c #5C5D6B",
"~. c #544E70",
"^. c #555070",
"/. c #5A5572",
"(. c #5D5D72",
"). c #5E5D7A",
"_. c #605E61",
"`. c #615E65",
"'. c #615F6C",
"]. c #615E74",
"[. c #615D7B",
"{. c #5B6065",
"}. c #5E6166",
"|. c #5E6164",
" X c #5E6860",
".X c #5E616B",
"XX c #5F6072",
"oX c #616062",
"OX c #626464",
"+X c #646965",
"@X c #62636B",
"#X c #67696A",
"$X c #616273",
"%X c #696773",
"&X c #686874",
"*X c #64637A",
"=X c #686578",
"-X c #5E5981",
/* pixels */
"h.6.W F K ( m.N.|.{..XU.{.I.E.L.p.e.$.*.e.,.,.f.J.~./.!.V.V.'.T.x.6.I = $ & &.t.t.,.9.6.6.g.g.v._.v.`.`.@X`.U.x.9.4 @ 8 $.p.P.P.",
"f.2.W F K / q.N.U.W.}.}.{.E.I.I.u.:.7 U *.*.*.,.y.D.y.:.R I :.$.U T V m e e U ,.t.,.1.9.6.g.l.l.`.v.`.`.oXoXv.g.9.4 X 8 <.1.l.l.",
"9.R F F G Q q. X}..XQ.W..XE.R.I.f.*.8 = : : : 7 5 5 , % X X - 1 t P F J F V T *.e.t.t.1.i.i.L.L.l.x.v.v.v.v.c.c.) 8 8 8 L <.i.g.",
"-.! F F A W 0.OXW.(.Q.Q.E.W.R.R.U.6.m = ; ; 3 4 #.@.O.&.P R ,.i.f.q.b.| G Z I -.,.t.t.i.1.i.p.l.k.l.x.v.v.c.g.V.) B p N B I R ) ",
"! ! F A A W 0.}.XX(.(.XXE..X(.R.Q.f.R P Y :.i.p.L.H.L.P.oX+X%X=X=X@XC...F M P Y ,.t.,.<.-.6.<.1.f.f.l.U.x.g.q.V.8.J J N N C C ^ ",
"R I F A N W 0.}.(.).(.R.R.R.(.(.T.k.! W ,.f.P.!.L.I.T.T.`.`.].].].$XC...K F C T *.:.1.,.<.R <.1.1.p.p.l.x.g.q.q.8.( J J M m I I ",
"P V M a M F 9.W.XX).(.(.{.{.R.(.!.g.^ K ! 4.k.I.x.x.U.!.`.oX@XW.].oXV.| K H F R *.e.t.:.,.,.,.1.t.i.p.k.l.j.9.8.8.( J C 8 m Y I ",
"L r e a M W 9.}.XX).(.XXR.R.XX{.U.0.K H ! 9.k.k.g.f.k.L.I.U.oX@X@XA.V.| H j C P &.;.:.e.:.:.t.1.t.:.t.i.f.g.9.6.8.^ C a O 8 L 8 ",
"- r C Z M V 0.|.R.(..XR.I.{.{.E.U.0.S g P -.k.k.x.h.k.W.@X@X.X.XL.N.n.K A H F L &.;.$.:.t.:.:.:.,.,.*.U U T P B B B B B B 8 4 ; ",
"- r V F A W m.N.R..X.XE.N.N.{.{.z.0.A a P ,.k.U.z.k.L.I.}.U.U..X'.+XC./ K K P : < 6 6 5 6 8 6 #.L B L r B B m e J J J C I Y 8 2 ",
";.=.! ^ Q ( n.+X{.{.B.N.M.B.N.N.I.s.Q Z I ,.s.I.U.I.(.(..X}.XXXX!.W.j._ W ! L 1 > 5 # + + + @ # O e B M N F G A J H J K _ 6.R Y ",
"W.z.6.W Q / b.M.M.M.M.m.m.M.m.s.N.3.F F W 5.4.a.k.u.u.d.0.a.d.I.k.g.2.R R -.*.#.$.&.2 - 2 : 6 8 P A F F J / } K H H ( ( b.M.M.j.",
"*XQ.9.W A F ^ _ 7.m.3._ 3.7.3.3.3.G j j S G Q ~ ! T y T u 0 y y ! ^ W V L 2.k.p.p.i.&.8 1.l.G.p.0._ ) I W ^ / G [ / / b.Z.S.S.+X",
"[.].j.6.Q G Q W ~ E Q Q Q Q E E S g s j S S A G T u t P S G E T ^ ^ W I T f.T.(.P.L.*.U l.'.].T.f.6.R L ! 6.8.( b.` ..n.C.A.oXoX",
"-X[.oXq./ G G } ~ Q G [ [ Q Q Q Q S j ' [ S S  .u y y E S S T 5.) ) ) 2.f.L././.L.k.T 8 6.v.P.F.u.:.O.7 >.j.j.q.! ! 6.M.A.'.Q.T.",
").].oX7.F F Q  .m.~ ~  .m.m.7.7.m. .} [ } Q Q m.h.h.0. .[ A T 5.2.! ! 4.k.T.Y.J.H.i.U B 6.v.'.T.L.r.+.+.:.t.4.=.7 y *.h.oXoXW.W.",
"$XU.z.h.! e ! M.N. XOXOX}.}.B.OX#X+XB.b.b.m.z.U.d.z.m. .[ D y %.=.-.5.4.f.L.Y.Y.L.a.L L -.v.'.H.k.;.o.O.;.,.t.>.2 1 =.x.A.A.A.x.",
"@X}.W.h.P w T N.}.}.}.$X$X$X.XOX$X@XN.n.m.h.L.Y.L.h.Q G G E %.u.;.t.9.9.f.u.F.J.L.e.U t R x.T.J.k.;.O.#.:.,.k.e.6 5 &.x.x.v.A.x.",
"}..X.Xs.r . y  X.XQ.}..XXXXX.X@X$XW.j.q.0.h.L.Y.K.a.W Z G E y r.%.y.f.k.u.u.G.J.H.t.U L -.j.U.H.i.=.U O.@.;.e.;.X.X.w.L.!.'.`.`.",
"Q.XX(.a.; . y {..X}.}..X*XXX.X|.!.U.h.0.0.s.K.Y.u.a.~ G Q V y %.%.y.u.k.u.u.F.F.H.f.2.R 6.0.I.k.,.=.Y U 7 O.:.@.X.X.y.T.T.].].].",
"(.XX(.t.r w >.z.|..XOX}.XX.X{.N.I.s.h.3.9.s.K.L.p.f.6.^ k 8 8 #.y.r.t.a.f.k.u.t.,.4.! ) ! q.h.9.6.! R R L 7 &.O.6 +.y.Y.T.].[.].",
"(.(.R.d.u u 4.h.{.{.N. X{.I.N.N.I.z.0.9.4.h.K.R.H.g.) W J 8 8 8 >.;.&.=.-.*.&.y 3 w e M D Q ! R I W ) ! L : 4 7 6 o.w.L.J.T./.T.",
"L.R.E.s.! W ! 3.4.0.q.0.h.a.3.m.s.9.4.4.5.>.u.y.$.:.8 N J 8 8 8 4 t L T R L r : * 9 9 0 0 D D u C F _ ) r * : 3 3 7 w.u.p.L.T.J.",
"a.I.z.9.E D D E L ! ~ ~ 5.E Q _ T =.u t y %.@.@.#.8 O 8 ) J 8 + - r I ) _ W Z M F M N N D G W Q C W ` _ B : : ; 4 O.,.p.p.p.I.L.",
"4.9.4.~ S j [ [ G G G G D D A G ! 5.! T 7 1 , X.X.5 4 w O Y 8 8 B P ^ ` ` ^ K J G F D W ! 7.m.n.n.q.n.M.M.q.h.h.h.%.%.d.t.u.I.k.",
"4.h.4.5.Z g A Q Q _ }  .m.3.G G ~ 3.E T y %.u.d.L.k.9.T 8 8 8 Y 6.8.n.n.8.( J M ^ Q 3.0.h.M.M.M.+X+XoXoX|.OXOXOXk.O.%.u.t.d.k.d.",
"K.K.K.t.u u E 9.4.h.0.M.N.z.9.E D E P t 7 *.U.%X%X#X`.9.6 8 :.g.g.c.A.C.V.8.) I 6.6.s.z.{.{.N.{.@X$XQ.Q.}.}..X@XU.%.@.%.t.a.d.d.",
"F.u.u.5.P V E 3.3.4.3.4.z.s.! u 9 9 e t U >.P.%X'.@XOXg.Y 8 Y g.g.g.x.v.c.q.) ^ 7.9.a.K.K.K.I.I.Q.(.Q.R.W.W.U.U. X>.7 %.>.a.a.t.",
"5.u E E j f j [ G F Z F ~ ~ F q q e u u T 4.U.@X'.@X'.l.$.8 Y i.i.l.l.l.g.6.^ F m.3.a.F.K.K.s.N.U.W.W.}.|. X XN.M.5.t t 5.5.-.5.",
"D Z Z S c z z v f f s j G } S f j S Q ! -.s.`.%X%X@X'.p.$.8 :.l.l.l.l.l.g.8.^ J Q ! 4.d.K.s.5.0.h.h.N.N.M.M.n.n.m.~ D u W W V W ",
"G A A ' c x z z n f f j [ } ' j ' [ Q m.h.x.oX@X'.'.'.l.$.#.$.l.g.g.i.c.q.` K S G D %.5.5.%.E _ ! ~ _ _  .} } } } { G S S Z g S ",
"/ G G [ n z f n ' ' ' S Q G S A [ } m.n.S.#X@X@X'.'.%X`.$.#.#.i.v.g.l.c.8.( H h S 0 u u u u E } D F W S G S j n f ' k d S s q Z ",
".. .( ( ( | | | | ( | ` 8.7.6.) B R c.S.A.OX#X@X'.!.'.`.$.#.$.:.i.i.l.v.<.8 d d Z u r u E E ! ~ u Q ~ ~ / [ l i b b n H a a N / ",
"Z.C.C.n.V.V.n.8.` ` 8.7.6.6.1.-.8 8 g.S.oX@X#XoX'.`.`._.i.#.#.:.i.i.l.l.<.N p N W R T ! ~ m.s.M.m.n.n.m.m. .' v i f ] ..V.8.n.V.",
"+XA.v.v.x.x.x.j.9.9.9.f.f.i.t.:.- 8 -.oX+XOX@XOXOX`.`.v.1.Y Y 8 1.i.i.g.<.C N J 6.6.0.n.n.n.B. X X|..X Xx.n...K H K ..C.S.v.v.A.",
"v.v.U.l.x.x.l.l.f.g.f.f.i.t.e.:.8 & *.oX#XoX@XoX@Xx.v.c.6.Y ^ B 1.i.i.i.) J J ( 0.h.x.S.B.B.{.}..X.XXXXXU.N.b./ ( | V.C.v.U.x.l.",
"x.v.x.x.v.v.v.l.l.l.f.f.i.1.1.,.8 2 *._..XQ..X$X@XU.N.j.6.I C B Y -.*.Y 8 J ( 8.0.j.x. XB.{.{..X.X.X(.(.W.N.n./ / ( 8.j.x.`.`.U.",
"c.j.g.c.c.c.g.g.l.f.f.1.1.<.*.*.8 2 #.l.U.E.(.(..XW.U.j.6.) I B Y *.&.8 8 J ` 8.h.z.I.U.|.}..XXX@XXXQ.Q.W.N.7.G N K 8.c.v.v.v.x.",
"c.c.c.q.g.g.g.i.g.i.1.1.<.<.R Y 8 7 &.p.K.Y.R.(./.P.L.h.6.R ^ B T Y Y 8 8 ) q.g.h.k.d.I..X.XXXXX.X}..XE.U.M.) A p F b.V.j.j.h.g.",
"c.c.c.c.g.g.g.g.g.i.i.1.<.<.R I T L *.f.d.K.J.J.J.d.k.f.Y Y I V L U B O 8 Y 8.g.U.z.K.Y.(.(.(..X{.{.W.W.}.N.7.F N K b.n.j.j.j.j.",
"g.l.x.j.g.g.f.t.p.p.p.i.t.,.*.Y B C Y ) 1.g.d.u.d.s.a.4.5.7.^ B 8 8 = = r Y 9.f.f.L.R.P.Y.(.(.(.U.}.Q.R.U.N.8.W N Z ) c.oXx.h.v.",
",.:.*.*.6.1.f.l.t.t.y.i.:.:.-.R M A J ^ ! 2.4.a.4.s.4.E W W J C B B m = B 2.0.g.f.z.L.H.J.T..X.X{.}.W.W.U.N.7.J Z Z ) q.g.,.-.9.",
"7 7 4 : = B L -.&.:.>.;.&.8 U B g k H J Z D ~ 3.T 3.~ D 0 N A J B B m e P 2.f.f.f.f.L.p.H.L.I.U.N.h.h.N.h.7.^ S A h ^ ) R 8 : 4 ",
"4 4 B B m 9 e B T =.=.7 2 ; : = h k H A 0 Z E ~ e E Q Z a g h H V V C M ! 3.9.g.4.f.k.L.H.L.f.9.7.~ 5.4.6.E N p j H K _ I = .   ",
"t T E Q F A A F W T 5.T 4 t L W K K Q G D Q ~ E E Q Q D Z S H A W W G K _ 6.0.f.f.4.,.e.w.;.=.R D u V E ~ D g s k k K / I B = X ",
"4.4.7.} H H K } m.m.0.a.4.4.0.m.b.b.m.m.m.M.B.m.m.m._ E C J / J W F A A ^ ! ,.,.-.T 7 5 X.7 L V V e T 3.6._ K k ] H K W P L R R ",
"d.z.h.3.Q F G  .m.M.z.I.I.I.U.|.+X#X+X+X+X#X X X XB.0.! I W W W I C g A W P =.*.-.U t 7 X.O.I _ ! 3.f.h.M.M.` K K / ) R -.,.9.g.",
"K.s.m.3.Q G Q m.0.z.d.L.I.I.k.k.!.'.#X.X.X.X}.{.{.N.M.3.R ! ! W ! V N Z W T *.>.4.-.,.f.f.f.h.M.M.N.OX|.oXS.V./ J / 6.6.4.i.i.p.",
"R.z.0.~ A Z 6.M.h.k.k.U.I.k.I.!.+X|.OX+X|..X}.}.|.N.h.5.T P T 6.2.-.W W W 2.4.u.k.I.x.U.oX|.|.N.{.{..XI.z.s.7. .G G K W R f.k.L.",
"W.U.q.W M M ~ f.z.k.k.I.I.l.I.x.|.+X.X|..X|.}.}.{.{.h.4.U u T 5.4.-.R P R -.f.k.L.L.k.z.j.j.U.}.U..X.X{.E.z.0.7.G } K W ! 9.k.Y.",
"T.x.0.W N M ! 9.L.L.L.L.U.l.P.!..X.X.X.X.X.X.XQ.U.{.x.a.=.y E 5.9.R V V V ) 9.f.p.k.a.9.9.j.x.@X.XR.R.R.R.{.z.3.E ~  .~ =.,.u.J.",
"L.f.6.W Z C ! f.L.L.L.L.L.P.!.'.XX.XXXXXXX.X(.Q.W.}.{.f.=.T 5.9.4.-.B w V ! 4.f.k.k.a.9.h.j.x. X{.{.E.R.Q.}.z.0.T E ~ R Y &.w.F.",
"u.f.6.^ G F 6.j.L.Y.Y.L.T.W.].].XXXX(.(.(.(.(.R.W.W.U.a.=.t T 4.4.-.w * e T 4.t.k.k.k.g.h.z.x.U.{.{.E.E.E.U.z.4.R R V L L &.r.u.",
"u.f.6.^ K G ) f.k.L.Y.L.L.Q.].].(.XX(.XX(.Q.Q.E.E.U.z.4.y 3 u y ,.;.4 * ; T 4.p.p.L.k.k.g.z.L.L.{.{.{.E.W.U.z.a.2.P t L T >.e.t.",
"t.4._ K F F ) 4.p.L.L.H.L.R.].$X(.(.(.W.R.Q.E.E.z.x.z.0.T u r t t.w.y - ; &.t.F.Y.J.L.k.L.L.Y.P.z.N.}.W.Q.W.U.z.,.&.4 7 *.,.t.u.",
"-.-.F A j A W 6.t.u.p.p.k.U.'.'.W.W..X.X{.U.{.N.z.M.M.m.~ ! u u r.y.%.3 ; &.k.L.Y.L.L.L.L.L.T.T.K.I.Q.Q.Q.(.T.W.:.O.7 #.;.e.e.y.",
"Y R F H k S C T &.@.@.%.t.k.I.U.N. X{.z.z.N.h.M.0.3.! P W Q E r &.;.y ; ; U f.k.H.k.k.k.k.k.L.R.K.L.R.(./.T.].].u.@.X.o.$.y.D.y.",
"T R K { ' A M : 7 o.O.o.O.O.;.>.%.%.%.u 5.5.=.T y P V u D W Q T < > $ r I L =.4.f.k.g.h.h.f.k.L.z.k.z.I.!.'.P.`.e.@.+.O.$.@.+.+.",
"; V K ] ' H F T >.r.:.&.7 < < 1 < - - t =.T t u u E W P u Z W E 3 % & C ^ F I ! R 3.) 6.! R -.*.T y L T Y Y L L U L 7 4 2 # 1 1 ",
"t I F H k H ..j.x.W.U.k.;.%.7 7 %.w ; y 9.5.T 9.3.0.0.3.! 3.3.7.4.3.F Z S H W V I W ) W V r t t r e e V M C C C V e = * & & 4 L ",
"j.n.| K H H b.S.`.'.'.U.x.k.g.f.a.=.y >.N.h.0.N.h.M.N.M.N.M.N.A.A.Z...F g A F F W ! ) W C r 4 : V Z Q K K H J J N 0 O O 8 L I ) ",
"N.M...K H K 8.A.W.!.!.W.{.|.z.k.s.5.y >.h.a.s.z.|.{.N.|.}.OX+X|.#XN.8.| A a C 8.) ! ^ W E P y L L W ( / J H H K J a O 8 ^ 8.8.g.",
"g.9._ J K ( n.+X'.(.T.T.U.x.k.t.d.t.%.%.t.a.a.I.U.}.}.XX$XQ.!.!.@Xx.q.7.F M V 0.2.2.) 6.6.9.f.t.h.x.M.n.b.b.` b.Y 8 8 #.i.`._.l.",
"x.0._ ^ K ..C.@X'.].(.!.U.I.L.k.d.K.%.>.r.u.t.I.L.R..XXX(.(.(.(.!.U.h.T e e R R 9.9.6.0.N.S.@XQ.@XoXoXA.c.V.V.c.8.8 6 $.$.P.T.~."
};
