/* XPM */
static char *result[] = {
/* columns rows colors chars-per-pixel */
"64 64 5 1 ",
"  c #FFD454",
". c #FFDF8F",
"X c #F57AF5",
"o c #FFEBBD",
"O c #FCAEFC",
/* pixels */
"OOOOXXXXOOOOXXXXOOOOXXXXOOOOXXXXOOOOXXXXOOOOXXXXOOOOXXXXOOOOXXXX",
"OOOOXXXXOOOOXXXXOOOOXXXXOOOOXXXXOOOOXXXXOOOOXXXXOOOOXXXXOOOOXXXX",
"                                                                ",
"                                                                ",
"oooooooooooo..  oooooooooooooooooooooooooooo..  oooooooooooooooo",
"oooooooooooo..  oooooooooooooooooooooooooooo..  oooooooooooooooo",
"oooooooooooo..  oooooooooooooooooooooooooooo..  oooooooooooooooo",
"oooooooooooo..  oooooooooooooooooooooooooooo..  oooooooooooooooo",
"oooooooooooo..  oooooooooooooooooooooooooooo..  oooooooooooooooo",
"oooooooooooo..  oooooooooooooooooooooooooooo..  oooooooooooooooo",
"..............  ..............................  ................",
"..............  ..............................  ................",
"                                                                ",
"                                                                ",
"XXXXOOOOXXXXOOOOXXXXOOOOXXXXOOOOXXXXOOOOXXXXOOOOXXXXOOOOXXXXOOOO",
"XXXXOOOOXXXXOOOOXXXXOOOOXXXXOOOOXXXXOOOOXXXXOOOOXXXXOOOOXXXXOOOO",
"OOOOXXXXOOOOXXXXOOOOXXXXOOOOXXXXOOOOXXXXOOOOXXXXOOOOXXXXOOOOXXXX",
"OOOOXXXXOOOOXXXXOOOOXXXXOOOOXXXXOOOOXXXXOOOOXXXXOOOOXXXXOOOOXXXX",
"                                                                ",
"                                                                ",
"oooooooooooo..  oooooooooooooooooooooooooooo..  oooooooooooooooo",
"oooooooooooo..  oooooooooooooooooooooooooooo..  oooooooooooooooo",
"oooooooooooo..  oooooooooooooooooooooooooooo..  oooooooooooooooo",
"oooooooooooo..  oooooooooooooooooooooooooooo..  oooooooooooooooo",
"oooooooooooo..  oooooooooooooooooooooooooooo..  oooooooooooooooo",
"oooooooooooo..  oooooooooooooooooooooooooooo..  oooooooooooooooo",
"..............  ..............................  ................",
"..............  ..............................  ................",
"                                                                ",
"                                                                ",
"XXXXOOOOXXXXOOOOXXXXOOOOXXXXOOOOXXXXOOOOXXXXOOOOXXXXOOOOXXXXOOOO",
"XXXXOOOOXXXXOOOOXXXXOOOOXXXXOOOOXXXXOOOOXXXXOOOOXXXXOOOOXXXXOOOO",
"OOOOXXXXOOOOXXXXOOOOXXXXOOOOXXXXOOOOXXXXOOOOXXXXOOOOXXXXOOOOXXXX",
"OOOOXXXXOOOOXXXXOOOOXXXXOOOOXXXXOOOOXXXXOOOOXXXXOOOOXXXXOOOOXXXX",
"                                                                ",
"                                                                ",
"oooooooooooo..  oooooooooooooooooooooooooooo..  oooooooooooooooo",
"oooooooooooo..  oooooooooooooooooooooooooooo..  oooooooooooooooo",
"oooooooooooo..  oooooooooooooooooooooooooooo..  oooooooooooooooo",
"oooooooooooo..  oooooooooooooooooooooooooooo..  oooooooooooooooo",
"oooooooooooo..  oooooooooooooooooooooooooooo..  oooooooooooooooo",
"oooooooooooo..  oooooooooooooooooooooooooooo..  oooooooooooooooo",
"..............  ..............................  ................",
"..............  ..............................  ................",
"                                                                ",
"                                                                ",
"XXXXOOOOXXXXOOOOXXXXOOOOXXXXOOOOXXXXOOOOXXXXOOOOXXXXOOOOXXXXOOOO",
"XXXXOOOOXXXXOOOOXXXXOOOOXXXXOOOOXXXXOOOOXXXXOOOOXXXXOOOOXXXXOOOO",
"OOOOXXXXOOOOXXXXOOOOXXXXOOOOXXXXOOOOXXXXOOOOXXXXOOOOXXXXOOOOXXXX",
"OOOOXXXXOOOOXXXXOOOOXXXXOOOOXXXXOOOOXXXXOOOOXXXXOOOOXXXXOOOOXXXX",
"                                                                ",
"                                                                ",
"oooooooooooo..  oooooooooooooooooooooooooooo..  oooooooooooooooo",
"oooooooooooo..  oooooooooooooooooooooooooooo..  oooooooooooooooo",
"oooooooooooo..  oooooooooooooooooooooooooooo..  oooooooooooooooo",
"oooooooooooo..  oooooooooooooooooooooooooooo..  oooooooooooooooo",
"oooooooooooo..  oooooooooooooooooooooooooooo..  oooooooooooooooo",
"oooooooooooo..  oooooooooooooooooooooooooooo..  oooooooooooooooo",
"..............  ..............................  ................",
"..............  ..............................  ................",
"                                                                ",
"                                                                ",
"XXXXOOOOXXXXOOOOXXXXOOOOXXXXOOOOXXXXOOOOXXXXOOOOXXXXOOOOXXXXOOOO",
"XXXXOOOOXXXXOOOOXXXXOOOOXXXXOOOOXXXXOOOOXXXXOOOOXXXXOOOOXXXXOOOO"
};
