/* XPM */
static char *result[] = {
/* columns rows colors chars-per-pixel */
"64 64 11 1 ",
"  c black",
". c #ED1C24",
"X c #FFD454",
"o c #FFDF8F",
"O c #0C00EB",
"+ c #F57AF5",
"@ c #FFEBBD",
"# c #F5E49C",
"$ c #FCAEFC",
"% c #9DE3F5",
"& c white",
/* pixels */
"$$$$++++$$$$++++$$$$++++$$$$++++$$$$++++$$$$++++$$$$++++$$$$++++",
"$$$$++++$$$$++++$$$$++++$$$$++++$$$$++++$$$$++++$$$$++++$$$$++++",
"XXXXXXXXXXXXXXXXXXXXXXXXXXXXXXXX  XXXXXXXXXXXXXXXXXXXXXXXXXXXXXX",
"XXXXXXXXXXXXXXXXXXXXXXXXXXXXXXXX  XXXXXXXXXXXXXXXXXXXXXXXXXXXXXX",
"@@@@@@@@@@@@ooXX@@@@@@@@@@@@@@  ##  @@@@@@@@ooXX@@@@@@@@@@@@@@@@",
"@@@@@@@@@@@@ooXX@@@@@@@@@@@@@@  ##  @@@@@@@@ooXX@@@@@@@@@@@@@@@@",
"@@@@@@@@@@@@ooXX@@@@@@@@@@@@  ######  @@@@@@ooXX@@@@@@@@@@@@@@@@",
"@@@@@@@@@@@@ooXX@@@@@@@@@@@@  ######  @@@@@@ooXX@@@@@@@@@@@@@@@@",
"@@@@@@@@@@@@ooXX@@@@@@@@@@@@  ######  @@@@@@ooXX@@@@@@@@@@@@@@@@",
"@@@@@@@@@@@@ooXX@@@@@@@@@@@@  ######  @@@@@@ooXX@@@@@@@@@@@@@@@@",
"ooooooooooooooXXoooo  oooo  ##########  oooo  XXoooooooooooooooo",
"ooooooooooooooXXoooo  oooo  ##########  oooo  XXoooooooooooooooo",
"XXXXXXXXXXXXXXXXXX  ##  XX  ####  ####  XX  ##  XXXXXXXXXXXXXXXX",
"XXXXXXXXXXXXXXXXXX  ##  XX  ####  ####  XX  ##  XXXXXXXXXXXXXXXX",
"++++$$$$++++$$$$  ##  ##  ####  ..  ####  ##  ##  ++$$$$++++$$$$",
"++++$$$$++++$$$$  ##  ##  ####  ..  ####  ##  ##  ++$$$$++++$$$$",
"$$$$++++$$$$++++    ..  ######  ..  ######  ..    $$++++$$$$++++",
"$$$$++++$$$$++++    ..  ######  ..  ######  ..    $$++++$$$$++++",
"XXXXXXXXXXXXXXXX    ..  ######  ..  ######  ..    XXXXXXXXXXXXXX",
"XXXXXXXXXXXXXXXX    ..  ######  ..  ######  ..    XXXXXXXXXXXXXX",
"@@@@@@@@@@@@ooXX  ##  ##########  ##########  ##  @@@@@@@@@@@@@@",
"@@@@@@@@@@@@ooXX  ##  ##########  ##########  ##  @@@@@@@@@@@@@@",
"@@@@@@@@@@@@oo  &&                                @@@@@@@@@@@@@@",
"@@@@@@@@@@@@oo  &&                                @@@@@@@@@@@@@@",
"@@@@@@@@@@@@oo  &&&&  %%%%%%%%%%%%%%%%%%%%%%%%  &&  @@@@@@@@@@@@",
"@@@@@@@@@@@@oo  &&&&  %%%%%%%%%%%%%%%%%%%%%%%%  &&  @@@@@@@@@@@@",
"oooooooooooo  &&&&&&  %%%%%%&&%%%%%%%%%%%%&&%%  &&  oooooooooooo",
"oooooooooooo  &&&&&&  %%%%%%&&%%%%%%%%%%%%&&%%  &&  oooooooooooo",
"XXXXXXXXXX  &&&&&&&&  %%%%%%%%%%%%%%%%%%%%%%%%  &&  XXXXXXXXXXXX",
"XXXXXXXXXX  &&&&&&&&  %%%%%%%%%%%%%%%%%%%%%%%%  &&  XXXXXXXXXXXX",
"++++$$$$++  &&&&&&&&  %%  %%%%  %%%%  %%%%  %%  &&  $$$$++++$$$$",
"++++$$$$++  &&&&&&&&  %%  %%%%  %%%%  %%%%  %%  &&  $$$$++++$$$$",
"$$$$++++$$  &&&&&&&&&&  &&    &&  %%%%    &&    &&  ++++$$$$++++",
"$$$$++++$$  &&&&&&&&&&  &&    &&  %%%%    &&    &&  ++++$$$$++++",
"XXXXXXXXXX  &&  &&&&&&&&&&&&&&&&&&  %%%%  &&&&&&&&  XXXXXXXXXXXX",
"XXXXXXXXXX  &&  &&&&&&&&&&&&&&&&&&  %%%%  &&&&&&&&  XXXXXXXXXXXX",
"@@@@@@@@@@      &&&&&&&&&&&&&&  &&&&  %%%%  &&&&&&  @@@@@@@@@@@@",
"@@@@@@@@@@      &&&&&&&&&&&&&&  &&&&  %%%%  &&&&&&  @@@@@@@@@@@@",
"@@@@@@@@@@  OO  &&&&&&&&&&&&&&&&        %%%%  &&  OO  @@@@@@@@@@",
"@@@@@@@@@@  OO  &&&&&&&&&&&&&&&&        %%%%  &&  OO  @@@@@@@@@@",
"@@@@@@@@  OOOOOO  &&&&&&&&&&&&&&&&&&&&&&    &&&&  OO  @@@@@@@@@@",
"@@@@@@@@  OOOOOO  &&&&&&&&&&&&&&&&&&&&&&    &&&&  OO  @@@@@@@@@@",
"oooooooo  OOOO  OO  &&&&&&&&&&&&&&&&&&&&&&&&&&&&  OO  oooooooooo",
"oooooooo  OOOO  OO  &&&&&&&&&&&&&&&&&&&&&&&&&&&&  OO  oooooooooo",
"XXXXXXXX  %%%%  OOOO    &&&&&&&&&&&&&&&&&&&&&&    %%  XXXXXXXXXX",
"XXXXXXXX  %%%%  OOOO    &&&&&&&&&&&&&&&&&&&&&&    %%  XXXXXXXXXX",
"++++$$$$  %%%%  OOOOOOOO    &&&&&&&&&&&&&&    OO  %%  $$++++$$$$",
"++++$$$$  %%%%  OOOOOOOO    &&&&&&&&&&&&&&    OO  %%  $$++++$$$$",
"$$$$++++$$    OOOOOOOOOOOOOO    &&&&&&    OOOOOO    ++++$$$$++++",
"$$$$++++$$    OOOOOOOOOOOOOO    &&&&&&    OOOOOO    ++++$$$$++++",
"XXXXXXXXXXXX  OOOOOOOOOOOOOOOOOO  &&  OOOOOOOOOO  XXXXXXXXXXXXXX",
"XXXXXXXXXXXX  OOOOOOOOOOOOOOOOOO  &&  OOOOOOOOOO  XXXXXXXXXXXXXX",
"@@@@@@@@@@      OOOOOOOOOOOOOOOOOO  OOOOOOOOOO      @@@@@@@@@@@@",
"@@@@@@@@@@      OOOOOOOOOOOOOOOOOO  OOOOOOOOOO      @@@@@@@@@@@@",
"@@@@@@@@                                              @@@@@@@@@@",
"@@@@@@@@                                              @@@@@@@@@@",
"@@@@@@@@@@                                          @@@@@@@@@@@@",
"@@@@@@@@@@                                          @@@@@@@@@@@@",
"oooooooooooooo                                  oooooooooooooooo",
"oooooooooooooo                                  oooooooooooooooo",
"XXXXXXXXXXXXXXXXXXXXXXXXXXXXXXXXXXXXXXXXXXXXXXXXXXXXXXXXXXXXXXXX",
"XXXXXXXXXXXXXXXXXXXXXXXXXXXXXXXXXXXXXXXXXXXXXXXXXXXXXXXXXXXXXXXX",
"++++$$$$++++$$$$++++$$$$++++$$$$++++$$$$++++$$$$++++$$$$++++$$$$",
"++++$$$$++++$$$$++++$$$$++++$$$$++++$$$$++++$$$$++++$$$$++++$$$$"
};
