/* XPM */
static char *xpm_[] = {
/* columns rows colors chars-per-pixel */
"64 64 244 2 ",
"   c #160D09",
".  c #1C140C",
"X  c #1A170B",
"o  c #0E0D12",
"O  c #160D13",
"+  c #141214",
"@  c #1C1413",
"#  c #1D1B14",
"$  c #16161B",
"%  c #0C0D0F",
"&  c #23150D",
"*  c #231B14",
"=  c #241B1B",
"-  c #2A1D1C",
";  c #251716",
":  c #321C17",
">  c #2A1108",
",  c #252313",
"<  c #25221B",
"1  c #2B231D",
"2  c #2D2B1B",
"3  c #2A2816",
"4  c #33251C",
"5  c #2E321B",
"6  c #36371D",
"7  c #25260C",
"8  c #191D24",
"9  c #201F23",
"0  c #1E2227",
"q  c #252324",
"w  c #2C2423",
"e  c #2C2B24",
"r  c #2C2B2B",
"t  c #27272B",
"y  c #332423",
"u  c #332C24",
"i  c #3B2B25",
"p  c #332C2B",
"a  c #3B2D2B",
"s  c #342628",
"d  c #333324",
"f  c #3B3C25",
"g  c #34332C",
"h  c #3B342C",
"j  c #363A2B",
"k  c #3B3C2D",
"l  c #383824",
"z  c #292D34",
"x  c #382E33",
"c  c #2B3237",
"v  c #353433",
"b  c #3C3433",
"n  c #3B3B34",
"m  c #353A3C",
"M  c #3B3B3C",
"N  c #373638",
"B  c #2D3324",
"V  c #1F201B",
"C  c #441A0D",
"Z  c #4B2515",
"A  c #422C29",
"S  c #43342D",
"D  c #44392D",
"F  c #4B3734",
"G  c #433D33",
"H  c #4C3A34",
"J  c #473938",
"K  c #533C36",
"L  c #543E3A",
"P  c #593D39",
"I  c #653F3A",
"U  c #663C2C",
"Y  c #3E471B",
"T  c #3E422C",
"R  c #3D4323",
"E  c #3D4233",
"W  c #3E423C",
"Q  c #424D1C",
"!  c #4B5A19",
"~  c #515E1C",
"^  c #4B5C0D",
"/  c #536319",
"(  c #4F6110",
")  c #444C24",
"_  c #41442B",
"`  c #444B2B",
"'  c #454B27",
"]  c #4A5524",
"[  c #4E5A24",
"{  c #4B552B",
"}  c #4E592C",
"|  c #465128",
" . c #515C25",
".. c #515C2C",
"X. c #434434",
"o. c #454B33",
"O. c #43443C",
"+. c #4A453C",
"@. c #454A3B",
"#. c #4A4C3C",
"$. c #494935",
"%. c #55433B",
"&. c #5C433D",
"*. c #524C3D",
"=. c #534137",
"-. c #4C5433",
";. c #4F5934",
":. c #4C533C",
">. c #4C563A",
",. c #535C33",
"<. c #51553C",
"1. c #535C3B",
"2. c #5A5E3E",
"3. c #64463D",
"4. c #764B3B",
"5. c #556227",
"6. c #5A633B",
"7. c #586237",
"8. c #3C3C43",
"9. c #393845",
"0. c #433E44",
"q. c #513C43",
"w. c #3D4447",
"e. c #434344",
"r. c #4A4544",
"t. c #4B4C43",
"y. c #45454A",
"u. c #474A4D",
"i. c #4C4B4C",
"p. c #494747",
"a. c #5D4543",
"s. c #5D4A43",
"d. c #514E4C",
"f. c #544B43",
"g. c #4D5244",
"h. c #4E524B",
"j. c #4F5845",
"k. c #515444",
"l. c #545B43",
"z. c #53544B",
"x. c #545A4C",
"c. c #5A5C4B",
"v. c #5A5847",
"b. c #444C52",
"n. c #4C4C53",
"m. c #4D4C5A",
"M. c #474555",
"N. c #524D52",
"B. c #504E5B",
"V. c #4C5155",
"C. c #4D535B",
"Z. c #4B5558",
"A. c #545353",
"S. c #5A5554",
"D. c #565A53",
"F. c #5B5C54",
"G. c #53545B",
"H. c #59565A",
"J. c #565A5C",
"K. c #5B5C5C",
"L. c #624542",
"P. c #644B44",
"I. c #6A4B44",
"U. c #654C49",
"Y. c #6A4543",
"T. c #6A5449",
"R. c #77564A",
"E. c #625C57",
"W. c #77544F",
"Q. c #5B6145",
"!. c #5B614C",
"~. c #576147",
"^. c #5C6253",
"/. c #5C625B",
"(. c #576251",
"). c #626352",
"_. c #62645D",
"`. c #69695A",
"'. c #78665B",
"]. c #61654D",
"[. c #4E5965",
"{. c #555463",
"}. c #595665",
"|. c #555B64",
" X c #5B5D64",
".X c #555B6A",
"XX c #5C5D6B",
"oX c #58556B",
"OX c #5D5C72",
"+X c #5C5875",
"@X c #4D4B60",
"#X c #615E6C",
"$X c #615D63",
"%X c #615E73",
"&X c #615D78",
"*X c #5D6164",
"=X c #5D616A",
"-X c #54636B",
";X c #586571",
":X c #626463",
">X c #61636B",
",X c #686966",
"<X c #766C62",
"1X c #757468",
"2X c #616273",
"3X c #686B70",
"4X c #7B7C73",
"5X c #865C59",
"6X c #835C4B",
"7X c #876557",
"8X c #936B5D",
"9X c #876B63",
"0X c #98766B",
"qX c #9D7E74",
"wX c #8A756C",
"eX c #A47D76",
"rX c #A37D6E",
"tX c #93867C",
"yX c #8D867B",
"uX c #A78579",
"iX c #988B84",
"pX c #9C9289",
"aX c #B78D86",
"sX c #AB978B",
"dX c #BA9689",
"fX c #B39990",
"gX c #B4A599",
"hX c #ADA195",
"jX c #BCAFA2",
"kX c #C39A8B",
"lX c #C39E93",
"zX c #C8A597",
"xX c #D4AB9C",
"cX c #D9B29D",
"vX c #CBA88E",
"bX c #C9B7AA",
"nX c #DCB3A3",
"mX c #D9B5A5",
"MX c #CDBDB2",
"NX c #CDB2A6",
"BX c #E3B8A7",
"VX c #D8C5BB",
"CX c #CDC1B6",
"ZX c #DDCBC1",
/* pixels */
"D.z.-.{ ..,.!./.*X*X=X*X*X X.X{.i.e.e.y.n.V.V.V.Z.G.J. X X X X*X(.j.>.E B c W z.p.N.N.N.S.S.E.$X#X#X#X#X&X#X#XH.z.k d k e.A.{.{.",
"z.g.{ { ..,.!./. XXX X=X X|.|.|.A.p.M J e.y.y.u.u.y.y.y.u.y.y.M E o.W E j j e.h.i.N.N.S.S.N.H.E.$X$X$X#X#X#X$XK.z.k d D #.d.H.H.",
"z.:.-.{ { ;.!.*X=X=XXX=X*X|..X}. Xi.W N m N M M M N r q 8 9 z r E o.@.T g g O.p.N.N.N.B.N.N.N.H.S.E.}.$X$X XE.F.<.D 6 ' o.f.A.A.",
"t.#.-.{ { -.x.*XXXOX=XXX=XXXXX}. Xz.e.M N n N O.M N r +   % q N x.x.j.j < w G p.q.i.N.q.N.N.B.N.z.S.H.E.E.K.F.].<.' ) ' ` $.k.t.",
"g.:.-.{ ] -.x.=X;XOXOX=X.X|.XXXXJ.S.i.O.N g g b J N h w @ @ y S f.#.X.u , < a N 0.r.N.N.N.N.n.S.z.z.S.K.K.F.F.!.2.{ { { ' $.#.t.",
"t.$.{ | ' -.x.*XOXOXOXXX=XXXXX|.J.D.t.M r = # = * - 1 i a i 4 3 * * < 1 w 1 - 9 0.q.N.N.N.n.n.i.t.z.z.S.S.S.c.v.T.,.,.{ _ $.#.t.",
"@.o.) ) ' -.h.=XOXOXOXXX=X XXX=X|.h.W e < . . @   & - A K H A 4     & s S a - - x J q.i.i.n.n.i.p.i.A.G.H.J.D.x.T.;.{ ` T X.r.r.",
"X.T R ) ' -.D. X;XOXOX=X|. X X-XD.@.g e 1 e 4 i y i S %.a.%.F A A 4 y J a.F a y 9 s b 0.u.i.u.n.d.i.i.A.H.S.z.k.1.;.| _ R n O.O.",
"g X.o.' ) ` (.*XOXOX=X=X*X*X*X*XJ.j # # e D D S D H %.P.P.P.&.K H D F K a.a.0.A @ ; s 0.y.y.i.A.t.t.t.t.e.O.E _ ` | ' ) D _ n h ",
"g n o.{ | ;.x.*X=XXX XJ.J././.J.x.@.j < , 3 S *.%.&.3.&.3.I.P.3.%.P &.L.U.s.q.L F a - 9 p 8.J N @.X.n n G X.o.' { ] ] { | $.n n ",
"y.t.:.;.,.1.!._.:X*X/././.(././.D.x.@.d * * h s.s.L.P.3.3.P.P.P.a.L.U.P.P.U.s.s.a.K y ; = r v w f f T o.o.>.-.{  . . . .,.1.:.@.",
"XXJ.k.-...,.~.^././.^.!.(.(.(.D.^.@.j B 2 i H 3.L.P.P.T.P.P.P.L.U.U.U.U.P.a.P.P.s.q.F - @ - a n T ` -.-.<.1.,... . . ...6.Q.^.c.",
"2X#Xz.-.| } ;.1.~.j.j.1.1.j.j.j.j.B X 7 _ *.P.s.P.P.I.P.P.L.P.U.U.P.Y.L.P.P.P.P.U.s.H i ; ; a t.l.1.<.o.#.>.1.7.5.5.5.6.].`.`.:X",
"2XXXc.1.;.[ } >.>.>.;.;.;.1.>.@.@.2 X 7 H s.v.P.P.P.L.&.P P &.s.Y.&.P &.L.I.T.P.U.&.K D y = w h $.@.@.@.@.k.v.6.Q.1.6.Q.)._.*X=X",
"&X%X/.Q.;.[ } ,.1.;.;.;.7.1.>.>.-.5 X 3 D *.s.&.L.L.a.&.K K K 3.a.&.P &.3.L.P.3.3.&.=.H S a - * e v W e.u.S.D.z.:.#.k.F.:XXXOX+X",
"OX%X/.x.} } ;.6.l.1.1.1.~.~.j.j.-.5 X 3 X.s.P.L.U.P.I.P.&.K K %.I.I.I.I.Y.3.3.3.P.P.%.D S A s = p m 8.9.8.n.A.h.E W t.D.>X#XOXOX",
">X XJ.D.>.T :.(._./.^._.3X3XJ.O.< B 2 u G =.%.P.L.Y.9XqX9Xa.K P Y.0XuX7XT.3.P.3.U.a.Y.q.y 9 s J y.8.M m 0.n.N.N.m v r.K.$X_. XE.",
">X*X XJ.@.T e.*X*X*X*X*X>X;XJ.e.V < w i H L &.I.W.W.qXaXuXW.P.Y.5XeXaXqX'.2.3.U.Y.a.U.q.s @ t i.A.y.8.0.y.n.m.n.m v y.{.E.:X_.K.",
"=X>X=XG.E B W *X>X*X:X*X=X2X=XV.M v < w A F P T.9XeXdXzXgXaX9XW.R.eXlXlXuX7XW.Y.U.L.U.U.y > t N.A.p.e.8.y.u.M.y.9.c 0.oXXX#X#X X",
"XX=XOXm.j B W *X*X*X*X*XOX2X2X*XJ.J @ = i F &.R.qXkXzXaXkXlXaX7XR.eXzXzXaXtX7XY.I.I Y.q.A ; s e.t.t.O.n 8.8.8.y.9.9.0.+XOX%X2X%X",
"XX=X.Xm.E E w./.*X*X*X:XXX=X=X*X{.N O ; H &.3.T.rXkXuX6X8XlXzXuXeXlXzXrX6X5X0X5XY.I Y.L.J x p e j _ #.$.E M W y.9.9.M.oXoX+X&X&X",
"XXXXXXZ.W W j.(.*X/./.*XXX|./.D.N.x ; = F L.3.R.rXkX8XZ U kXBXzXlXnXxX5XZ I eXeXY.Y.I L.f.L x # , R <.<.X.k n m N 9.M.{.{.oX+XoX",
"J. X-XV.>.>.j.g.(.x.!.(.D.G.j.t.0.x w s H P.R.7XuXkX6XC U aXBXcXxXxXxX7XC I aXaX5X6XY.q.J h g < 5 ) 1.<.` T j g N 9.u.B.@X{.oXoX",
"h.J.J.j.-.| ;.E o.` -.;.g.@.E T @ 9 b q.s.T.7XwXuXkX6XZ 4.kXBXBXBXxXxX8XC Y.kXaXeX5XY.P 4 = e k R 1.Q.;.T j j E n M u.B.B.B.}.@X",
"j.j.j.>.[  .} } } ..5.} ;.| R R - w a L %.3.R.7XuXdXuX4.8XkXBXBXBXBXcXuXR.8XdXdXeX5XY.K : O e g.^.c.^.^.!.F.^.(.S.M e.V.n.B.{.{.",
"g.x.z.:.| [ } ;.,.,...7.~.j.} | +.s = - S %.T.T.tXlXvXuXvXnXBXBXnXnXmXxXuXkXzXaX5XI.I F :   e D._.:X:X:X*X:X*X:XH.w.w.u.n.n.G.G.",
"m.C.C.b.W | #.j.x.j.j.(./.J.h.j.+.6 X * 4 H =.&.9XuXzXcXcXBXBXBXBXnXnXmXNXNXdX0XY.P K A y 1 n D.>X2XXXXX=X=X=X=X Xy.9.y.n.V.C.n.",
"m.m.m.u.W T :.j.j.j.j.j.J.Z.g.E l 6 6 5 , 3 h &.U.5XiXzXcXcXcXcXBXBXmXmXzXsX9XW.Y.F y y s J t.G.=XOXXXXXXX X*X*X*Xu.m w.u.V.V.V.",
":.@.@.} ] ! [  .} | ] | ;.1.| Y Q ' R Y # X y J K a.5XaXfXnXmXcXnXBXcXxXsXwXT.L %.A - ; a t.z.J. X X=X*X=X*X/./.(.g.E E @.g.@.g.",
"{ ) | [ / ( ^ / ! ^ ^ ( } ..[ ! 5.[ [ T T j u w A F q.Y.8XdXxXcXxXcXzXtXT.&.H b 1 1 w h +.d.D.D.D.J././.^.(.!.!.~.1.o.` ;.>.` >.",
"[ | { 5./ ( ( / ( ^ ^ ! 5.5. .!  ...5.,.1.@.p @ x q.A > 3.uXvXvXxXvXdXR.: 4 G n @ < a +.p.d.h.z.>.>.1.7.7.1.;...7.7.[ ] [ ! Q [ ",
",.[ } 5./ ^ ^ / 5.~ / [ [ } } }  .7.Q.1.o.d w - x H.K : 3.uXvXvXkXxXvXR.: h v.X.e < q e b n t.c.>.{ -.{ [ [ 5.~ ( / ~ ! [ Q Y ] ",
"2.6.1.2.,.6.6.6.7.6.7.7.2.l.<.#.#.:.x.#.< X 1 d x.'.*.i T.uXzXzXxXzXdX<XQ ` ).).G 3 * X e t.g.k.-.,.1.1.7.5.~ ( / / / ~ ] Y | ,.",
").].).!.].].Q.Q.2.1.1.x.v.k.d.u.v M z.t.<   1 g k.`.c.D ].sXbXNXNXzXhXwX` *.`.).X.2 X X d x.D.x.Q.!.!.c.~.6./ ( ^ ( 5.6.~.~.].).",
",X_.E.$XE.K.F.S.v.z.z.A.A.n.u.y.c W i.p.q + < h z.<X].$.<XjXVXVXMXNXgX1X:.v.'.).X.e X   g F.:X^.:X:X:X X/.^.6...! } 6.`._.E.E.E.",
"/.K.K.{.K.K.{.H.H.S.A.A.A.n.n.M.m W e.N q # 1 v D.1X`.>.<XjXZXVXVXMXNXwXk.F.1X`.+.e V # r t.D.*X>X#X%XXX;X/.~...7.7.!.^.$X}.E.$X",
"E.F.K.E.$XK.K.K.H.A.A.A.N.N.i.u.m z 8 V t 9 p M /.4X,X<.1XjXZXZXVXCXbXyXf.F.4X<Xt.u w q q q n *X:X#XXXXXXX:X~.;.,.7.c.F.E.$X$X$X",
"/.K.F.K.E.F.H.S.H.A.A.N.z.t.p.t.9.t o + s x x b _.4X,Xf.<XgXVXZXZXZXCXyXk.F.4X1Xe.p p a < + t J.>X>X2XOX XK.l.{ ) } l.)._. X$XE.",
"E.E.E.F.z.S.z.S.S.S.d.d.p.*.#.O.e.r + @ x J x b F.1X`.f.<XhXMXZXZXZXCXtXf.v.1X`.+.a S b 1 + q S.$X$X>XXX*X(.1.| Y } Q.!.F.F.S.S.",
"E.c.E.F.E.E.S.N.H.N.N.d.d.f.#.+.J s O - J F a a v.'.F.*.,XsXbXMXVXZXCXtXf.v.`.E.J i J S y = u S.H.$X#X#X XF.j.{ )  .Q.!.F.H.E.F.",
"S.S.S.F.F.S.n.N.B.m.N.m.N.d.O.g w u y s K F A : S *.*.+.'.gXMXbXCXZXCXtXv.*.*.=.i : A D S i 4 b 0.{.XXXX-X/.j.;.] T 1.^.*XK.S.E.",
"n.p.p.t.t.z.S.J.n.m.B.m.n.i.e.g . 4 S K q.F :   1 h D H <XgXMXbXjXCXMXtXs.G S 4 & > A L %.H 4 @ u i..X X*X(.~.,.] ] >.x.D.i.d.d.",
"M n n T k T O.#.e.u.b.y.J O.n 2   D `.9X9XI.A > & 4 u k ).yXpXpXiXpXiX1X+.h u : & > P '.9X<X=.. 3 O.J.K.(.x...[ ! | ;.1.t.G k G ",
"N E X.T R Y R T E t.p.E r m l ,   s.tXgXfX9XF   1 u e v t.F.E.E.E.E.K.i.n g u u & : '.sXhXsX'., , _ j.h.j.-.Y Y ! [ ..1.$.f 5 2 ",
"E W >.;.[ ] ] { -.#.g.W j E T d 3 t.wXiXiX<XA O < v n W w.V.Z.Z.G.n.b.b.9.m m u O ; T.wXiXyX).3 7 f o.o.>.;.] ! / / ..-.o.T l 6 ",
"j.j.1.,.{  . .7.~.~.D.h.g.V.!.g.O.+.n h x s @ O r w.u.b.Z.[.|.;X|.|.-X.XZ.b.w.v ;   y A a b n 5 Y _ o.:.l.6.[ [ 5. ...-.$.$.$.<.",
"[.J.x.>.;.| } 7.!.(.|.}.|.|.*XJ._.t.w @ ; ; O O c w.[.[.-X;X;X;X.X-X;X;X-X[.Z.m 9   O @   V B t.k.c.D.D.^.(.;.;...,.<.:.p.d.A.S.",
"{.Z.D.~.;.;.;.~.c.V.G.|..X|.|.J./.V.e.e.u.x 8 o c b.[.-X-X;X[.-X[..X-X-X[.-XZ.9.8 o 9 x M n W /.F.:X:X*X=X/.~.6.} ,.l.k.d.N.N.N.",
"|. Xv.>.| | 1.^.S.G.G. X XG. X X*X*X>X=X:XV.0 o c w.-X-X;X-X-Xw.w.[.|.-X-X[.Z.m $ $ w.J.J./. X*X/.*X=X|.J.D.l.7.} } } -.#.A.G.{.",
".X Xc.-.| ) <.z.J.{.G.{.{.J.G.|.>X>X=X*X*XZ.z o c w.Z.-X;X[.w.9.c w.Z.-X-XJ.Z.m 8 $ m J.J. X X=X X=X=X X|.J.D.j.;.....;.:.h.{.{.",
"oXJ.x.-.) ) $.d.G.{.{.{. X{.}.XX>X2X=XXX=XZ.t o z Z.[.-X-Xw.9.z 0 9.w.|.J.Z.m.m 8 $ c n.G.XXXX=XXXXX.X.XXX*XJ.l.-.;.1.>.t.y.m.{.",
"{.A.l.-.` { >.D.{.{.{.{.{.XXXXXX2X;XXX=X=XZ.r o c w.x.Z.w.9.c z z 0 c y.V.G.G.9.8 $ 9.m.G..X.X=X=XXX.X.X.X=XJ.z.@.-.>.:.O.y.M.@X",
"B.A.k.;.} { l.D.{.{.oX{.}.XX%XOX=X;XXXXX=XC.z o c b.n.b.m 0 t z 9.z 8 9.y.m.n.m $ $ 9.C.{..XoXXX=X*X.X|.XX*XJ.z.:.o.o.o.X.e.u.m.",
"m.A.k.;...{ k.z.@X{.{.oX}.XX%X%XXX=XOX=X=Xb.t o q W e.e.z + 8 z w.0 o 8 8.y.e.r $ $ 8.|.{.oXoX X X*X*X XXX=XJ.A.h.$.E E @.u.n.m.",
"n.h.>...] { <.z.C.{.{.@X{.XX2X%XXX=X*X|.J.p.t $ V r v v q   # v q.9 o 8 p N M q $ $ 9.C.G.{.}..XJ. X=X=XXXXX XJ.u.O.N G e.i.M.m.",
"t.g.-.[ [ { -.f.n.m.G.B.G.}.#X#X X>X XJ.H.e.e # B g e d < % # b 0.9 o $ w e g r 1 @ v u.N.G.{.}.G.|.XXXXXXOXXX.Xy.8.M 0.y.n.M.M.",
"#.$... .~ [ { @.y.8.9.8.y.G. X XD.:X:Xp.g q g n O.X.h u X   * u J 9 X . e h n X.X.g w r 8.H.J.G.G.{..XoXoXOXOXoXm.8.9.9.0.@X@X@X",
"O.*.,.5.5.[ _ k M 9.9.M 8.e.y.y.w.y.w.e # V B X.+.X.D d 7 X * u i *   & 2 l D X.+.k 3 # r e.G.H.G.H.|.|.XX#X X}.M.0.8.8.9.9.9.9.",
"k ` ..5./  .{ @.y.n.M.w.m v r r r r e t < < 2 g k j d 2 , * , u 3 # X * 3 6 f D f 6 3 , B n M E j E o.@.#.#.+.X.e.X.n N v v x N ",
"O.o.{  .~ ] 1.!.J. X XH.y.8.M m g r q p v B e B d u e B e e e p p e 2 2 5 3 5 5 2 5 2 u g p e q d R _ _ ` ` ' ' ` T f l d d n G ",
"F.!.7. . ...v.`. X#X#X XJ.H.G.i.n.N p v b v h n n m n n n M M O.n n n j 6 2 3 5 6 6 6 u u p p p T | { { } ..] { ) Y 6 6 R o.$.<.",
"/.!.Q... ...Q._.#XXXXX}. X*XJ.A.G.0.v v N M M e.e.O.e.e.u.y.y.y.e.e.O.E l d 6 D k l h d g v n G o.-.,.,... ... .{ ) R X.k.v.x.v.",
"S.z.1.{ ..,.!.:X#X%XoXoX X XG.n.m.0.8.0.y.y.e.y.u.n.V.A.N.m.n.m.N.h.t.O.j k ` $._ _ X.+.+.t.i.d.G.F.).^.!.Q.Q.v.<.X.b 0.B.$X}.H.",
"J.x.<.,.,.6.).,XXX%X#XXXXX XG.B.m.q.0.0.y.i.n.m.A.J. X}..X}.|.}.J.J.V.e.E n o.#.<.*.*.v.S.S.E.:X X:X,X_.).!.].).z.G 9.9.q.oX#XoX"
};
