/* XPM */
static char *xpm_[] = {
/* columns rows colors chars-per-pixel */
"64 64 247 2 ",
"   c #0A0A08",
".  c #160D09",
"X  c #15120C",
"o  c #1A140B",
"O  c #1A1408",
"+  c #0B0E13",
"@  c #0D1317",
"#  c #1C1512",
"$  c #1D1A13",
"%  c #14151A",
"&  c #1C1C1A",
"*  c #151617",
"=  c #120E12",
"-  c #231B13",
";  c #241D1B",
":  c #2A1E1B",
">  c #261813",
",  c #241B0D",
"<  c #1F2118",
"1  c #232115",
"2  c #292216",
"3  c #24221C",
"4  c #2A241C",
"5  c #2B2B1C",
"6  c #272A1A",
"7  c #31271E",
"8  c #2D331C",
"9  c #32331E",
"0  c #393B1C",
"q  c #1A1C21",
"w  c #291E21",
"e  c #1A2127",
"r  c #1F2630",
"t  c #252324",
"y  c #2C2523",
"u  c #2C2B24",
"i  c #2D2529",
"p  c #2D2C2B",
"a  c #262727",
"s  c #332522",
"d  c #332B23",
"f  c #392C24",
"g  c #342C2A",
"h  c #3A2E2B",
"j  c #342727",
"k  c #2F3024",
"l  c #333325",
"z  c #3C3325",
"x  c #3A3D23",
"c  c #34332B",
"v  c #3C332D",
"b  c #3B3B2D",
"n  c #353A27",
"m  c #2B2D33",
"M  c #262B34",
"N  c #2D3238",
"B  c #343334",
"V  c #3C3632",
"C  c #363934",
"Z  c #3B3B34",
"A  c #35363C",
"S  c #3A363C",
"D  c #37393C",
"F  c #3C3C3B",
"G  c #352F30",
"H  c #43332D",
"J  c #443A2E",
"K  c #443533",
"L  c #443B33",
"P  c #4B3B34",
"I  c #4D3C3A",
"U  c #453938",
"Y  c #543C33",
"T  c #543D3B",
"R  c #5A3E3B",
"E  c #593E35",
"W  c #52382E",
"Q  c #3C481C",
"!  c #3D4909",
"~  c #3C4324",
"^  c #3D422C",
"/  c #374025",
"(  c #3D4134",
")  c #3E413B",
"_  c #424C1C",
"`  c #4C5B15",
"'  c #4C5B1C",
"]  c #465418",
"[  c #4D5D13",
"{  c #4F6208",
"}  c #526218",
"|  c #51640E",
" . c #444C24",
".. c #41442B",
"X. c #444B2B",
"o. c #454B28",
"O. c #4A5424",
"+. c #4D5A23",
"@. c #4B542B",
"#. c #4E592C",
"$. c #465226",
"%. c #515C24",
"&. c #525B2C",
"*. c #424434",
"=. c #454B33",
"-. c #4A4D34",
";. c #43443B",
":. c #4C423C",
">. c #454A3A",
",. c #4A4C3C",
"<. c #4D4536",
"1. c #54433B",
"2. c #5B443D",
"3. c #584739",
"4. c #4C5433",
"5. c #4E5933",
"6. c #4C523B",
"7. c #4D5639",
"8. c #535C33",
"9. c #51553D",
"0. c #535B3B",
"q. c #555A3A",
"w. c #62463C",
"e. c #62493E",
"r. c #546222",
"t. c #57622B",
"y. c #5A633C",
"u. c #576237",
"i. c #4F6527",
"p. c #60673B",
"a. c #363441",
"s. c #3C3C43",
"d. c #3A3B46",
"f. c #2F3843",
"g. c #413E44",
"h. c #403E49",
"j. c #5B3E41",
"k. c #3E4245",
"l. c #434444",
"z. c #494643",
"x. c #464A43",
"c. c #4B4C44",
"v. c #44444B",
"b. c #454A4B",
"n. c #4C4C4C",
"m. c #49464A",
"M. c #554441",
"N. c #5C4541",
"B. c #534C42",
"V. c #5E4A43",
"C. c #514E4C",
"Z. c #5C4D48",
"A. c #4D5344",
"S. c #4E524B",
"D. c #4F5940",
"F. c #525444",
"G. c #545B43",
"H. c #595C45",
"J. c #53544C",
"K. c #5D544A",
"L. c #545A4B",
"P. c #5B5D4C",
"I. c #5C5246",
"U. c #494653",
"Y. c #454C53",
"T. c #4C4C53",
"R. c #4D4C5A",
"E. c #464756",
"W. c #504E53",
"Q. c #514E5B",
"!. c #465254",
"~. c #4C5155",
"^. c #4C525B",
"/. c #495657",
"(. c #535353",
"). c #5A5553",
"_. c #565A53",
"`. c #5B5C54",
"'. c #53545C",
"]. c #59565B",
"[. c #565A5C",
"{. c #5B5B5C",
"}. c #624643",
"|. c #644A44",
" X c #684B44",
".X c #644B48",
"XX c #684B49",
"oX c #644648",
"OX c #61584C",
"+X c #645D57",
"@X c #725F59",
"#X c #5C6244",
"$X c #5C624C",
"%X c #566047",
"&X c #5C6253",
"*X c #5C625C",
"=X c #55625C",
"-X c #62644E",
";X c #626452",
":X c #62635D",
">X c #686959",
",X c #6C7B5D",
"<X c #687458",
"1X c #726E5E",
"2X c #4D5462",
"3X c #4D5A64",
"4X c #4E5D6B",
"5X c #555463",
"6X c #595665",
"7X c #555B63",
"8X c #5B5D64",
"9X c #5C5D6B",
"0X c #56586B",
"qX c #5D5D72",
"wX c #5E5B78",
"eX c #4E4D61",
"rX c #615E63",
"tX c #615E6C",
"yX c #615F75",
"uX c #5D6164",
"iX c #5E616B",
"pX c #586566",
"aX c #5B6271",
"sX c #626364",
"dX c #62636C",
"fX c #666867",
"gX c #6D7D63",
"hX c #6E7763",
"jX c #737463",
"kX c #727C65",
"lX c #767E6B",
"zX c #626273",
"xX c #636478",
"cX c #776C62",
"vX c #84796F",
"bX c #738165",
"nX c #77876A",
"mX c #7C8B76",
"MX c #7D9375",
"NX c #728667",
"BX c #848B74",
"VX c #849579",
"CX c #88A07E",
"ZX c #9A8D83",
"AX c #999285",
"SX c #AB9F94",
"DX c #B0A398",
/* pixels */
"_.F.4.@.&.8.%X*X*X8XuXuXuX[.7X7X'.x.l.l.b.T.~.Y.~.'.[.8X6XrXrXrX+XC.x.C p c ;.S.n.n.(.).(.(.].:X:XrX8XtXdXtXrX].K.V c Z v.'.6X5X",
"(.A.4.@.&.8.%XsXuXuX8XuXuX{.7X[.~.x.k.F l.n.n.T.n.n.v.S g.h.h.g.U v c u u c F z.z.n.(.(.W.(.].+X+X+XrXrXtXrX8X{.J.Z l L z.W.5X5X",
"J.c.4.@.#.5.%XuX8XtXuXuXuX7X7X7X/.S.) C C D F D S B t = % m a.h V u o . # u U x.c.C.C.n.C.).(.(.`.{.+XrXrXrX{.`.9...0 ..-.z.).W.",
"A.,.4.@.@.4.P.sX9XaX9XuXuXuX7X8X=XS.k.( C C C C S m t & w G U g.V j - X o 4 g Z V S U D g.W.(.C.J.].+X8X{.{.;X;X9. ._ o.o.-.F.B.",
"c.6.4.@.$.4.L.uXaXqXaX9XpX8X9X7X[.S.x.k.z.c.c.c.V i w i g i w s s f f h j 4 - - # # # ; v n.(.W.J.(.].8X].].`.OXy.@.O.O. .o.3.,.",
"c.-.@.O.$.-.L.iXqXqX9X9X8X8X9XpX[.L.S.S.(.J.J.z.u ; : h h > . . > 7 K T P j > . o . . - i F z.W.T.W.].].].].`.H.OXq.&.@._ ..-.-.",
">.=.X. .o.-._.8XqXqXqXiX9X8X9XpX*XL.S.J.J.,.V u s s H z.j.h s s s H T M.T H H s s s y y t y B m.n.T.Q.Q.].].).L.p.q.#.o.....,.>.",
"*.^ ~  . .4.J.uXaXwX9X9X8XpX8X8X=XL.A.F.c.*.4 . d H 1.V.M.P H K E j..X.X|.R W H K H v v ; # a z.n.n.T.W.].].(.F.I.@.o. .x ^ ;.;.",
"c ^ X.o. .X.L.uXaXqX9X8X8XpXdXuX&XL.A.( n 5 d z I T 3.2.N.3.1.<.j.j.}.oX}.R R E N.U j : t g S x.c.c.z.x.;.;.*.x o.o.o. .J *.F B ",
"B Z -.@.@.7.%XuX9X9X8XpX*X[.7X*X&XL.) k - 1 H 3.3.N.Z.|.|.|.}.V. XoX|.}. X XoX}.3.P f : ; g F U *...^ b *.*.=.o.@.#.@.@.X.<.U C ",
"l.x.6.5.#.u.&X:XuXuXuX*X&X_.*X*XP.>.c 4 2 7 P |..X.X|.|.|.|.|.|.|..X XXX X Xw.E E P H 7 : 4 u u Q Q .. .X.X.4.#.%.%.&.&.0.F.c.x.",
"iX{.F.4.5.8.#X&X&X*X&XP.&X&X=X_.F.b 6 2 d J 1.3.|. X|.e.e.2.e.|.N.oX.X|.w.E W W Y Y P K i - ; p o.o.$.$.q.q.8.&.%.%.&.8.#X$X*X{.",
"xX8XF.4.$.#.q.0.%XL.D.D.G.%XA.x.( d 1 1 f P N.|.e.|.e.e.e.|.e.|.|..X.X|.2.E E W Y Y N.1.c # i B.9.q.4.4.7.0.q.&.t.&.u.y.-X>XfXfX",
"zX9X`.0.#.#.@.7.D.7.7.0.%X7.( k 1 1 5 f H P 2. X|.|. X X X X|.e..XZ.2.T Y E w.e.w.3.V.B.h o i (.K.A.>.;.c.F.G.0.y.8.u.#X;X*XpXiX",
"wXtX*X#X8.+.i.8.7.5.5.5.%XD.( / 1 3 7 H P 1.R oX X Xw.w.e.e.e.e.Z.Z.2.E Y W w.e. X|. X3.f ; w S v.v.s.s.b.(.(.L.9.,.9.P.:X8X9XqX",
"qXtX:XG.@.$.5.%X%XD.0.D.%X%XD.S.;.d : 7 J 3.}. X X X X X Xe.e.e.}.|.Z.oXw.3.w.w.w.|.OX3.K h j i B A d.d.U.R.(.n.) *.x.`.rXtXtX9X",
"zX8X[._.5.~ 6.&XsX*X*XfXiXiXfXsX*XS # - J 3.e.e.}.XXXXoXj.w.w.w.M.oXoX X Xw.e.e. XV.V.M.I h i ; p B S s.v.T.W.n.S B l.{.sXsXrXrX",
"dXuX8X_.=./ >.=XiX8XiXdXaXaXzXsXdXg.# - H 3.e.e. XoXoXR j.w.w.3.R N.|.oX X X X X|.}.M.I V w i G F F F ;.z.T.W.R.A A v.].rX8XrX{.",
"iXiXiX'.^ 8 >.uXiXiXdXzXqXxXdX{.8XS & ; z 3.3.e.XXoXj.R R w.w.3.E j.oX XXX X Xe. X2.R K w > i m.n.n.l.s.g.v.E.E.a.a.v.6X9XtXtX8X",
"9XiXqXR.n 8 ) *XiXuXdXdXzXxXuXn.S g i h *.3.3.|.oXoXj.R E R E Y R M.oX X X X Xw. XV.R K ; . j W.n.n.z.s.S g.v.v.a.a.E.6XrXtXdXtX",
"qXqX9XR.( ^ A.=XuXpX8X8X9XzX[.) e t g U <.Y 2.|.oXoXoX}.R W E 3.|.oX|.|.}. X X X X2.2.P s # i g.c.A.c.c.F F s.k.a.d.E.5X6X9XtX9X",
"9XqXqX~.) ( A._.uXpX*XsXiXpX_.) i i g V P Y R .X}.oXXXXX}.E 3.3..X.X|.oXoX X X X|.}.1.I h i y g b -.F.c.;.Z Z D S d.v.'.5X6X9X6X",
"0X0X7X/.6.5.7.A.&X_._.&X_._.G.6.U m ; y K I M.N.oX}.oXXX}.w.3.e.|.|..X X X X}.|.oXV.2.I U h j 3 6 ~ F.9.=.b c C B F v.(.W.'.6XQ.",
"~.[.=X/.4.$.#.( =.=.4.7.>.=.4.q.F.p X - h T M.j.oXj.}.|. X|.|.|.oX|.oXoX X X}.}.N.V.N.I I V i $ 6 X.H.G.=.n b C Z F n.(.W.Q.6X'.",
"S.S.L.6.i.' i.+.5.5.+.#.@.$.O.#.6.5 o - h T M.j.j.R }.oX2.|.|.|.|.Z.I.|.|.|.XX}.N.T I I j ; u ;.F.G.$X&XP.`.(._.(.) v.~.R.R.5X'.",
"S._.S.D.+.' $.5.5.0.u.y.%X0.5.#.7.n 1 1 g U I I j.I R oX|.|.|.3.V.N..X.XN.N.|.2.T Y P v y 4 Z J.*X:X:X:X:X:X:X:X].k.k.E.R.R.5X'.",
"eX5X2XY.( ^ =.L.L.L.L.&XuX[.G.7.X.x 8 6 4 j h j.j.Y Y V.|.I.Z.N.V.Z.|.|.2.2.N.T T K f s y V n.sXdXdXuXiXpX8XuXpX8Xv.d.k.R.eX5XR.",
"eXR.E.b.=.^ 4.A.S.S.A.L.=X/.x.^ Q Q ~ 9 - ; j I I 1.1.3.|.V.Z.K..XI.I.2.Y 1.M.Y T v : ; c c.`.].dX9X9X8X8X9X8XuXuXb.d.k.Y.~.~.R.",
"x.>.=.@.' ` +.+.$.$.O.@.7.7.$.Q Q Q Q ^ n a s j K T 3.3.3.3.1.M.B.M.3.<.P 1.T K f s 7 c ;._._._.uX8X8XuXuX*X*X=X*XA.( ( x.A.x.x.",
"@.$.$.+.| { { } ` ` ] ' #.t.' ` ' +.#.5.>.( y - s <.3.P :.M.<.1.I <.3.:.P 3.1.K # 4 h U n.L./.L._._._.*X=X&X$X#X%XD.$.X.4.4.$.5.",
"#.$.+.r.| { { | } ` ` +.&.t.r.' i.i.5.5.^ c 4 - v I.3.H :.I.K.K.K.OXK.1.P 1.Z.M.: 4 u c U x./.L.D.G.G.G.y.0.5.u.t.t.%.' ' ] ] ' ",
"&.#.#.t.} { ` } r.r.r.+.5.8.#.O.i.i.%X^ 8 < 4 v B.@XI.x <.>X1XjXcXjX1X3.J 1.+X+XL 4 X $ k ) A.A.>.7.7.7.@.#.+.} ` r.' ` ' ] ! ] ",
"y.u.0.q.8.u.u.u.&.p.p.y.0.0.0.F.( A.P.,.1 . ; v B.Z.F.,.F.<XlX,XjXnXjXH.B.I.I.I.v z $ . 8 ,.A.6.7.q.0.q.5.r.` { } } } %._ _ O.&.",
">X;X-X-X-X-X#X#Xq.0.H.F.J.J.n.z.( ) S.x.a o ; g v *.F.P.;X<XbX,X<XlXjX>X;XOX<.J z 7 O . l F.P.$XG.P.$X$X%Xy.t.} { [ t.y.#XH.OX;X",
"sX:XrX{.+X{.{.`.).J.J.S.J.W.T.v.C C F S t # w h u c F.1XkXkXbXgXkXbXlXkXkXOX..d z 5 $ - l >.L.:X:XsXdXsXuX$Xu.+.' i.%X;X:X+X+X:X",
"+X{.{.].8X{.{.].].`.(.W.R.W.U.v.) p u y 3 ; i i d c F.jXlXhXhXgXgXgXgXkXkXP.V l l u 2 3 u p F _.fXzXyX9XpX=XG.5.u.u.#X&X+X6XrX+X",
"{.`.{.+XrX{.{.].(.].(.W.n.W.n.n.D ; * ; i h K h v c ,.>XlXgXbXgXbXgX,XgXhXL.b b v C c y & # p ].rXtXqX9X9X:X%Xu.8.u.H.`.8X8XrXrX",
":X`.{.{.`.].{.).W.(.(.J.C.c.c.z.l.; . # g g.).).U C ,.fXlXmXMXMXMXMXMXMXgXL.( c B.J.B.C ; = p +XdXtX9XqX8X{.%X5. .#.H.&X+XrXrX+X",
"+X`.`.OX).).Z.W.W.).C.C.c.B.:.*.j.w # ; h M.+X:Xz.<.J.jXNXMXAXMXMXCXVXMXbX#X=.b OX+XK.L y ; i W.].rXyXtX8X_.7.$.Q +.#X$X`.`.).).",
"`.+XOX`.+X).).).).W.W.C.C.J.<.b h : : h L I M.:.,.,.H.kXNXNXMXnXNXMXNXbXgX>XI.9.,.z.:.U h w s S m.(.rXtXuX&XD.@._ 8.#XP.`.`.{.+X",
"].].{.`.`.(.(.W.W.Q.Q.Q.m.n.U u . : H J <.J 2 2 >.>XhXbX,X<X<X<X<X#XbXbX,XjX>XOX9 , f Y H H s > i R.yX0XuXuX%X#.$.$.G.;XsX{.).+X",
"n.n.z.z.c.J.(.].R.R.Q.U.U.C.;.u . H @X1X@XOX5 O ^ %X&XhXbXgXNXgXbXbXbXbXhX1X-XX., , 3.@XvXvXE > 4 n.9X8X[.=XG.5.$.$.7.L.(.C.C.C.",
"F F ( b b ..=.c.n.l.v.b.l.;.Z 5 O 3.AXDXSXvXb . 6 ) L.<XmXmXMXmXVXBXMXnXgX;X6.k . : >XZXDXSX@X> 4 >.[._._.G.5.$.O.O.@.7.c.U b b ",
"Z Z ^ X. .~ ~ x >.;.l.) V C n 5 , 3.BXAXAXjXl X < ( k.&XgXmXmXmXBXmXmXbX>XP.;.6 O 4 +XvXZXZX@Xf 9 *.A.L.A.4.Q ] ' ' 8.0.-.x 9 5 ",
"( ) 4.5.O.O.' $.5.>.A.) C b *.^ ..L *.b C k * * M k.b./.=X=X*XpXpX*XpX=X_.L.b.n $ . k *.*.<.L z 0 o.=.,.7.4.] ` ' } &.&.-...x 9 ",
"S.L.D.8.&.+.&.8.%XL._.L.x.S.L.P.P.L 4 $ $ $   * N !.!.!.!.!././././././.!./.k.A &     X   X 4 *.X.X.-.,.G.u.#.' r.%.&.4.-.*.<.9.",
"[.[.L.7.5.$.8.u.#X&X7X7X7X7XuXuX:XK.,.U ;.C & @ M k.^.3X3X3X4X3X4X4X4X4X/.3X!.k.q   * a 3 u Z A.F.G.(._.=X&Xy.5.t.8.6.c.z.n.K.).",
"^.[._.%X5.5.0.G._.(.^.7X7X7X8X'.{.rXsX{.8X/.M @ N R.2XpXiX4X4X4X4X4XaX4X4X4X/.f.e @ N /.n.'._.{.`.sXsXsXfX=X%Xu.#.7.0.J.J.W.W.Q.",
"0X[.P.5.@.$.0.&X].'.'.7X5X'.6X8XdXdXrXsXiX~.M + N Y././.7XpX!.f.f.eX3X3X2X^.^.N q % s.8X].8X9XsX8XuXiX7X[._.%X0.5.&.5.4.,.(.'.5X",
"9X7XP.4.$. .9.J.[.'.5X6X6X[.6X8X9XdXdXzXpXT.M + N k.~.!.!.!.f.f.e f.k.2X!.R.^.D q @ d.'.6XdXdX9X8XiXiX8X7X[.L.D.#.8.t.5.6.S.5X5X",
"6X[.L.4. . .6.J.'.5X5X5X6X6X8X9XdXiXzXdXdXT.M + N b.~.!.k.N M M r r N k.Y.Y.T.d.% % D R.'.9X9X9X9X9X9X0X9X7X_.L.4.7.0.7.c.m.R.eX",
"5X'.F.4.o.$.6.(.5X5X5X5X7X6X9X9XxXaXiX9X9XT.m + N k.T.n.D r e A d.r % N v.U.n.A e % D T.'.6X8XiXiX9X4X9X9XiX[.S.=.7.5.>.;.v.E.eX",
"R.(.F.5.@.#.F._.eX0X5X0X6X9XqXyXxXiXaXzXdXR.m + m D v.l.m % q S E.t + e F l.l.B % % D [.8X'.'.dXpX8X9X8X9X8X[.L.6.=.=.=.=.x.Y.T.",
"'.~.9.q.#.#.9.(.5X5X5X6X6X9XyXyX9X9XiX9X8XU.p @ t p C B a = * B s.t = t B p B a = * D '.rX5XR.9X{.uXpX7X9XiX[.(.A.>.^ ( l.z.U.R.",
"T.S.7.#.@.#.9.J.Q.eX5XeX5X9XyXtX9X9XdX6XR.D a & t u p a ; . * B U i # ; y 3 u 3 & ; B l.(.7X'.6X[.uXiXiX9XiX7X'.n.l.Z U z.m.T.R.",
"z.A.4.+.' O.4.B.T.Q.eXR.'.8XtXtXiXdX8XT.D p p c a k u 4 3 X $ d :.w   # 4 u c u p c B a s.6X'.5X'.7X9X9X9XqX9X9Xv.s.D g.U.E.U.U.",
"c.,.&.%.%.+.o.>.v.h.s.d.n.'.8X8X'.dX8Xs.< & c ;.c l d 5 1 O 1 d V t $ $ 2 5 d z ;.Z 4 & p T.].'.^.5X0X9X0XqXqX0XR.d.a.a.h.eXE.eX",
"=.<.8.t.} +. .( s.s.D D s.l.v.d.D s.;.c 3 < a b k 5 5 6 1 O 1 5 4 o . - 6 5 6 5 b l 5 t B z.T.b.T.'.7X7X9XtX9X9XE.h.s.h.h.h.d.a.",
"b ..%.%.%.%.$.,.n.U.v.k.D B B a p a u a a a 6 6 5 5 6 5 6 1 6 d ; $ - 6 9 5 8 5 5 5 5 u c C D B b b ;.>.:.,.,.<.;.*.Z Z B c G A ",
";.-.&.%.%.%.q.&X].8X6X'.n.l.D B D p a g Z c c k n l c n c n c C c c u l 9 9 9 9 8 8 l c c a p c n ~ X.X.X.X. ...X...x l l l V U ",
"`.%Xu.&.%.&.#X>X6XtXtX6X[.[.'.~.W.s.G C ;.F S ;.) ) ;.l.x.;.F ;.x.) Z b x 9 l x x z x b b p g b ^ $.@.&.&.%.O.O. ._ 0 0 ....,.9.",
"*X$Xy.&.%.&.H.:X8X9X9X9X6X{.].[.].h.S s.g.v.x.S.n.S.S.~.J.~.T.n.S.S.A.>.J x x X...o...*.Z b Z ;.=.4.4.8.&.&.&.&.@._ ..*.9.P.P.K.",
"_.J.0.8.&.8.$X:XtXqXqX6X7X{.].R.Q.U.g.g.v.n.T.~.'.[.[.[.[.5X[.'._.[._.D.*...X.4.-.X.-.-.9.B.C.J._.`.&XH.H.#X-X#X9.L K h.Q.rX6X].",
"].`.9.#.8.y.;XfX9XyX9X9X9X8X].R.Q.E.v.E.W.'.(.n.[.uXiXiXpX9XiXpX*X=X_.6.^ / =.0.q.0.0.H.OX>X;X:XrXdXsX:X;X-X-X$XS.U G a.U.5XwX6X"
};
