/* XPM */
static char *xpm_[] = {
/* columns rows colors chars-per-pixel */
"64 64 247 2 ",
"   c #160C0A",
".  c #1A120D",
"X  c #19160B",
"o  c #170E14",
"O  c #0E1319",
"+  c #1C1513",
"@  c #181717",
"#  c #0B0B09",
"$  c #24190B",
"%  c #231B15",
"&  c #241C1C",
"*  c #2A1D1B",
"=  c #271814",
"-  c #3A1C14",
";  c #1C210B",
":  c #28250D",
">  c #25231C",
",  c #2A231C",
"<  c #2B2B1B",
"1  c #292614",
"2  c #36281C",
"3  c #2D311C",
"4  c #35361C",
"5  c #1E1D21",
"6  c #261E24",
"7  c #1E2527",
"8  c #1F2A30",
"9  c #252324",
"0  c #2B2422",
"q  c #2C2A23",
"w  c #2C2C2B",
"e  c #26262B",
"r  c #342B24",
"t  c #3C2C24",
"y  c #332D2B",
"u  c #3B2D2A",
"i  c #342523",
"p  c #2D3226",
"a  c #343324",
"s  c #34322C",
"d  c #3B332C",
"f  c #363A2C",
"g  c #3B3B2D",
"h  c #393A25",
"j  c #292C32",
"k  c #2F3335",
"l  c #343433",
"z  c #3A3433",
"x  c #363933",
"c  c #3C3B34",
"v  c #35353B",
"b  c #39373B",
"n  c #3C3B3B",
"m  c #343A3C",
"M  c #372E32",
"N  c #47291B",
"B  c #412D2B",
"V  c #43332C",
"C  c #47392B",
"Z  c #53352A",
"A  c #4B3A34",
"S  c #463937",
"D  c #533B35",
"F  c #543D3C",
"G  c #5C3D39",
"H  c #633D3E",
"J  c #3D451B",
"K  c #3D422C",
"L  c #3E4424",
"P  c #3D4234",
"I  c #3E413A",
"U  c #37423E",
"Y  c #434D1D",
"T  c #4C5B1C",
"R  c #495717",
"E  c #525E1B",
"W  c #4E5C0D",
"Q  c #52621C",
"!  c #556415",
"~  c #4E610F",
"^  c #444C23",
"/  c #41452C",
"(  c #444B2B",
")  c #454B29",
"_  c #4A5424",
"`  c #4E5A24",
"'  c #4C552C",
"]  c #4E592C",
"[  c #475227",
"{  c #515C24",
"}  c #525C2C",
"|  c #434433",
" . c #454B34",
".. c #494D34",
"X. c #43443C",
"o. c #4B433C",
"O. c #454A3B",
"+. c #4B4C3C",
"@. c #494435",
"#. c #54433D",
"$. c #5A443D",
"%. c #584638",
"&. c #4C5433",
"*. c #4E5935",
"=. c #4C523C",
"-. c #4B5438",
";. c #535C33",
":. c #51553C",
">. c #545B3C",
",. c #535937",
"<. c #64473C",
"1. c #556227",
"2. c #5A623B",
"3. c #576136",
"4. c #3D3C43",
"5. c #3E3C49",
"6. c #383543",
"7. c #2F3C44",
"8. c #403E43",
"9. c #463E45",
"0. c #5C3F40",
"q. c #663F40",
"w. c #3D4244",
"e. c #3C484B",
"r. c #3F4E55",
"t. c #444443",
"y. c #494644",
"u. c #474942",
"i. c #4A4B44",
"p. c #44444B",
"a. c #49474C",
"s. c #464A4C",
"d. c #4C4B4B",
"f. c #554341",
"g. c #5C4642",
"h. c #5D4A44",
"j. c #514D4C",
"k. c #574C46",
"l. c #4D5243",
"z. c #4E524B",
"x. c #525443",
"c. c #535B43",
"v. c #595E44",
"b. c #52534C",
"n. c #545A4B",
"m. c #5A5C4C",
"M. c #5C5346",
"N. c #4C4C53",
"B. c #4E4C5A",
"V. c #474754",
"C. c #524E53",
"Z. c #514F5C",
"A. c #4D5255",
"S. c #49545A",
"D. c #535354",
"F. c #565A54",
"G. c #5B5C54",
"H. c #53535C",
"J. c #59555A",
"K. c #555A5C",
"L. c #5B5B5C",
"P. c #5A5554",
"I. c #634643",
"U. c #634A43",
"Y. c #6A4C43",
"T. c #624C48",
"R. c #6D4847",
"E. c #67564A",
"W. c #77564B",
"Q. c #655C54",
"!. c #775550",
"~. c #5B6144",
"^. c #5C614C",
"/. c #566044",
"(. c #5C6253",
"). c #5D625B",
"_. c #60634E",
"`. c #626453",
"'. c #61645D",
"]. c #6A6659",
"[. c #796658",
"{. c #4D5762",
"}. c #545463",
"|. c #595665",
" X c #555B63",
".X c #5B5D64",
"XX c #5C5D6B",
"oX c #57576B",
"OX c #5D5C72",
"+X c #5D5A79",
"@X c #4F4C60",
"#X c #615E63",
"$X c #615F6C",
"%X c #615E74",
"&X c #615D7A",
"*X c #5D6164",
"=X c #53626B",
"-X c #5D616B",
";X c #556162",
":X c #57616E",
">X c #616363",
",X c #62626B",
"<X c #666864",
"1X c #756B64",
"2X c #78736B",
"3X c #626272",
"4X c #66647B",
"5X c #75776E",
"6X c #855B56",
"7X c #88685B",
"8X c #8A6A62",
"9X c #8B7569",
"0X c #967566",
"qX c #9A7E75",
"wX c #946F68",
"eX c #A57B6F",
"rX c #98887B",
"tX c #8E8274",
"yX c #A88B7A",
"uX c #B18978",
"iX c #958983",
"pX c #918C85",
"aX c #B68C82",
"sX c #A8968B",
"dX c #B89586",
"fX c #AB948D",
"gX c #BBA697",
"hX c #ACA89C",
"jX c #BBB4A9",
"kX c #C79D94",
"lX c #C69A8A",
"zX c #C7A796",
"xX c #D4AA99",
"cX c #DBB39C",
"vX c #C9AC98",
"bX c #E1B49E",
"nX c #C8B6A9",
"mX c #DDB3A3",
"MX c #D6BAA7",
"NX c #D0B1A7",
"BX c #E5B9A4",
"VX c #E7BBB0",
"CX c #D9C6BB",
"ZX c #CCC4B7",
"AX c #E1CABE",
"SX c #DECBC2",
"DX c #E0CCC1",
/* pixels */
"F.b.&.' } >.~.).*X*X*XK.).). X XN.u.t.p.N.B.N.N.H.H. X-X.XF. X).^.c.+.P a p S D.d.C.C.J.C.J.J.#X#X#X#X#X,X#X#XJ.P.c y b a.H.|.}.",
"D.l.&.' } ;.^.).*X*X*XL.;X X.XK.D.d.4.w.u.s.N.B.V.s.p.N.N.p.t.t.| / K K P P X.u.y.N.C.J.C.C.J.#X!.$X#X$X#X#XL.G.b.c s n u.C.J.}.",
"b.=.' ' ] *.^.*XXX-XXX*X*X*X X XJ.d.X.b v v v 4.6.v k j M v M M g  .=.+.O.t.u.d.j.j.C.C.C.J.P.J.J.L.Q.|..X'.`.m.:.C g / @.i.b.P.",
"l.+.' ' _ ' n.*XXXXXXX X XXXXX.XK.b.t.w.n b b 6.9.4.z 9 6 9 e * q  .m.+.a q c u.y.j.N.j.C.C.C.C.P.H.Q.#XQ.G.G.Q.:.( ^ ) ) @.:.:.",
"i.-.' _ [ &.n.*X:XOXXX-X*X-X X XL.z.u.X.y.y.N.C.D.j.9.6 + o o   $ g +.| & > s y.u.d.j.C.j.C.C.C.C.H.J.L.L.P.G._.>.%.' ' ^ ) ....",
"+...' _ ) ' n.*XOXOXOXOX-XXXXXXX*Xi.x y y y M V z z B * * * * = = < u r , , q s S d.j.d.j.j.j.C.N.Z.J.J.L.P.m.v._.,.} ' ^ / &...",
" . .^ ^ ^ ' b.*X%X&XOX:X-X-XoX XK.X.> @ . . . o . = = i B B B B r 1 = , i 0 & . y S j.j.y.j.d.d.N.N.Z.Z.J.J.F.c.~.;.*.( / / ..@.",
"| K J Y ^ &.n.XX3X&XOXOX-XXXXX Xu.f > + @ = = $ = = - A F D F D #.i = , z d & . w S y.d.y.y.d.a.d.N.N.C.D.P.b.x.>.&.( ) h K X.@.",
"a K ( ^ L [ ^.*X:XOX-X-X*X-X Xs.9 > < r d r t B B V D F g.g.g.$.g.A d A y.S *   r S y.t.y.j.t.d.d.i.u.X.X.@.| / ) ..) C / | c l ",
"s P ..' ' *.n.;XXX XXX*XK.;XK.s.q , 9 a S A A A D D $.g.U.U.U.h.T.#.A #.g.S u * 0 0 l z n 8.b X.| | / K K ) / ^ ' } ' ) ..o.X.x ",
"p.u.-.*.*.3.^.'.*X*X*X).).).*XA.i.x , , d A %.%.<.<.U.U.U.R.U.U.T.h.g.U.h.f.A d 6 + & 0 w v w l h J / ^ ) ' ' _ { { ' ,.>.x.i.O.",
"-XK.l.&.] 3./.(.).).(.(.^.(.(.b.b.S > = i A $.U.<.I.<.U.<.U.U.U.U.I.T.T.T.M.g.#.i + & y b n v c  .' ' ' } ;.;.} { } ;.2.^.^.(.G.",
"4X-Xb.&.[ ' *.c.(./.c.l.c./.n.U w 0 q u o.$.h.U.Y.Y.I.I.<.U.T.E.I.I.I.U.T.T.h.k.i   & n C.H.H.D.c.>.>.&.&.;.;.} 3.} 3.~._.].<X<X",
"&XXXF.>.] ] &.*./.*.P ] *.*.-.f X & y o.h.h.U.<.I.<.Y.<.U.h.h.<.I.T.I.U.T.T.k.#.i   0 9.H.,X XJ.b.l.O.| +.c.>.>.2.2.>.^.`.'.*X*X",
"+X%X*Xm.3.] ] 3.*.*.] ;.3.2.-.L + 0 u o.g.h.U.T.<.<.<.U.<.G F F G q.I.I.R.T.g.#.i   6 8.C..X|.B.S.p.4.4.d.F.m.n.=.=.x.G.'.*XXXXX",
"&X%X>Xn.3.P *./.c.c././././.U K X * u o.g.h.U.E.U.Y.Y.<.<.G D D Z G I.I.U.U.g.$.*   6 S N.$X$X}.}.V.5.6.p.A.D.t.n X.u.F.>X*XXXXX",
"3X.X.XJ.:. .i.)..X>XQ.'.,XH.x f * 2 B D $.0.f.h.<.<.<.<.<.6X6Xq.V D U.h.G $.h.f.B * 6 e 6.}.}. XH.8.6.4.8.N.D.a.b l t.L.'.>X).).",
">X>X.XK.X.c s.XX,X3X-X>XOX5.9 > 2 2 V D 0.f.g.T.<.2.<.<.W.eXeX[.D %.h.$.D D $.T.A u 0 o 6 B.=X{.H.u.5.8.t.N.Z.N.v l p.J..XQ.'.L.",
">X>X#XD.P a X..X>X,X>X>XXXp.w 0 t 2 V A F 0.g.h.<.<.2.W.0XdXzXyX!.E.U.U.!.E.I.U.A i 0 % e d.;XS.D.u.t.4.8.p.N.p.6.6.5.|.XX$X#X#X",
".X,XXXB.f p X..X.X.X>X,X3X Xa.n * * t A y.g.h.U.<.<.6XrXuXlXzXdXsX8X!.!.qXqXW.G N = , a X.F.F.(.l.t.X.X.n 4.p.5.6.6.V.oXOX%X%X%X",
"OX+X+X@Xn x N. XXX3X,X#X%X4X;Xe.+ = i S h.I.T.R.<.<.uXuXdXaXaXgXkXqX8X8XyXeX7XE.N $ $ t  ./.c./.x.-.+.+.| n w.4.6.6.9.oXoX&X&X+X",
"OX+XOXZ.t.O.z.J.>X>X'.>XXX4X;XU o % u F I.T.R.Y.7X7XuXlXfX[.I.eXNXgXaX8X<.<.8XtX$.2 : $ 3 P -.I &...:.-.K g n n 6.6.@X@X}.oX+XoX",
"J..X.Xb...&.*.*.c.:./.^.F.D.-.U + * M F I.I.R.W.0XuXzXzXyX<.- 6XNXxXxXwXN Z 9XdX[.C : X ; K  .P ( ' ,.:.K h f f b n a.Z.@X}.}.@X",
"A.L.L.b.' T _ ) ' Y ' 2. .f 3 3 , r B 0.I.R.W.6XeXlXxXlXuXG - wXxXNXmXeXN Z 0XsXE.2 $ : f O.+.x.&.&.v.>. .h g x c 4.d.Z.Z.@X|.}.",
"D.A.b.l.*.` ] ] ] ] ] 3.P 3 ; ; a V D f.0.R.6XwXeXlXxXkXaX<.Z 8XmXmXBXeXZ %.0XdX$.X , @.u.F.L.).(.m.^.G.(.(.(.(.D.w.w.A.B.A.}.H.",
"A.H.S.l.[ ` ] *.3.*.3././.K 3 3 * 2 A $.H q.R.6XeXkXxXxXlXwX8XaXxXmXBXlX0X0XyXsX#.  , d.L..X.X>X>X<X>X>X*X).*X*XF.4.4.N.N.B.H.H.",
"@XS.H.N.K L P c./.c././.;Xr.U f $ $ B D G H H q.wXaXxXlXkXkXkXxXbXbXBXxXzXzXgXsXo.. 0 C.K.K..X,X3X3X-X-X-X-X-X-XXXp.m p.N.A.H.N.",
"S.A.N.s.-.L -.c.l.c.-.c.;XS.-.f : : 2 4 V G H H 6XeXaXlXxXBXVXVXBXBXbXxXMXvXrX2XS > w N.C.H.|.#XXXOXXX XXXXX*X*X*Xs.n w.s.A.A.A.",
"+.O.P *.` T ] ] [ ] [ [ *./.-.J J 4 : : t #.0.9.q.R.wXaXxXmXBXBXbXBXbXcXvXyXM.< S c X.b.b.j.L.K.XX-X-X*X;X*X).).(.l.P P O.l.+.l.",
"[ [ K ] Q Q Q ` [ T R T ] 3.` R T J 1 1 d o.F S G Z R.qXdXxXcXbXcXcXcXvXyX[.C X g i.b.m.b.b.G.z.F.F.).).).(.^.^./.>.-.K -.-.[ -.",
"` [ ` 1.Q ~ ~ T T T ~ T 1.1.Q T { ` ^ ( +.d.n 6 i B q.!.wXdXxXxXcXcXxXyX<.C C h g +.O.=.+.@.c.=.:.=.*.2.3.3.} 3.3.3.` ` 1.T L ` ",
"} ` ] 1.Q ~ T 1.Q 1.T ` ] ` [ T } 3.v._.`.n.l + 6 0.0.D Y.eXkXzXzXzXzX0XC $ C @. . .f K P K l.c.' ' ' ' ] ` T T ~ Q T R ` J J R ",
"2.2.>.>.3.2.2.2.3.2.2.>.2.>.x.:.:...E.Q.S 0 r 9 s m.Q.C %.tXvXvXvXvXgXtXR $ : 1 f P P K l.l.-.=.-.*.*.*.;.1.T W ! ! ! { ^ Y ^ ;.",
"`.`._.^._.~._.~.>.v.>.c.m.b.d.i.z c b.P.y + > q i.'.Q.@.<.tXgXvXvXgXgXrX%.: ; X a O.+.l.n.n./.^./.^.^.^./.3.1.! W E 1.2._.v.E.`.",
"].<XQ..XQ.L.G.J.M.b.b.b.D.N.N.p.z b D.P.y   @ y d.].].+.2.yXnXMXMXjXgXrX$.1 X # f d.L.L.).).).<X*X>X:X*XL.^.2.} T { ~._.].'.(.'.",
"L.L..XL.K..XK.J.J.D.D.D.D.N.V.a.w.S d.D.w o @ w u.<X'.+.E.sXAXDXCXMXgXrX#., + X b z.'.#X;X;X*X<X>X-X3X=XXX).~.;.3.3._.`..XL..XK.",
"'.L.L.L.L.#XL.L.L.J.D.D.b.C.d.d.w.k l v w & 9 l i.5X5Xl.G.sXCXCXCXCXnXiX#.0 0 6 M 8.B.XX-X,X-X-X-X,X%XOX-X).m.;.;.,.v.G.L..X#X.X",
"G.Q.G.L.G.L.J.P.D.D.C.b.j.d.u.y.w.w 5 @ 9 9 w l D.5X5Xb.Q.sXCXCXCXSXCXsXM.u M M e e 6.}.-X-X3X-X,X-X-XOX-X).v.] ^ ] v.`.Q.*X>XL.",
"G.Q.Q.m.m.P.P.C.P.P.j.j.j.:.i.o.X.k @ @ 0 y c t.G.1X].x.Q.sXCXSXCXSXSXfXT.B S S 6 o j H.,X-X%X3X-X-XXX X X(.>.[ Y } >._.G.G.J.n.",
"Q.G.Q.G.Q.P.P.P.C.C.C.j.i.k.+.+.X.b % + 0 S b.Q.m.G.x.+.E.rXnXCXSXSXSXsXg.u S S 6 o e H.3X X-X-X*X*XXXXX*X).c.' Y } _.^.G.G.L.G.",
"F.K.L.G.J.n.C.C.H.N.B.Z.a.y.i.+.c y & % t o.Q.2XQ...@./ T.rXnXnXVXSXSXpX$.t S S 6 6 e 9.B. X-X,X X-X-X X X).c.*.^ _ :.Q.>XL.J.G.",
"d.d.y.i.i.b.D.J.B.N.Z.Z.d.a.t.c , , 2 V A g.E.].M.@.h A E.sXZXnXjXSXZXhXM.t V d u u i e n A. X X*X*XXXXX.XG.v.} ) _ :.m.P.d.d.b.",
"n n c K g / X.+.t.p.d.d.8.X.c r $ = C %.%.T.E.].h.h a P m.pXnXnXhXhXjXpXx.r t u S F w   e z. X).(.G.K.K.G.c.*._ _ _ &.:.=.P g K ",
"b c / / ^ L J K O.X.t.m s x h < X 2 Q.qX9X9X9X[.x.g < f i.1XpXpX5XpXpX5XS i d V Q.1Xy.o 9 u.A.F.n.-.l.z.c...^ R E E } ,...g 3 < ",
"P U -.*._ _ _ _ -.=.u.P x P P h X V 9XjXhXfXrX<Xl.x p p m s.J.S.;XK.F.l.f y u z 2XiXQ.9 9 n t.O.&.L -.-.-.' Y R E E } ]  .K h 4 ",
"n.l.>.*.] { } 3.2./.(.A.z.z.n.+.d y.Q.9X1X[.P.o.P U m m w.s.A.S.S.r.S.s.y.n u , g.Q.f.* & f I O.K L P =.c.>.] E 1.{ ;.&. . .+.-.",
"K.K.n.>.' ' ] 3.^.F.*X X X*XXXF.G.i.d , * , * @ 3 U r.r.S.=X=X=X=X=X=X;X Xa.0 o + 6 u r s n l.F.l.c.(.F.(.^.2.} } ;.:.+.i.d.D.D.",
"S.K.F./.*.*.*./.F.A.{. X}. XXX XQ.j.z 0 , 0 @ # 7 e.S.r.S.=X=X=X=X=X=X=X>Xd.e o o & M j.D.D.J.G.).).<X=X>X'.Q.,.} ;.c.x.d.B.C.D.",
"oX Xn.*.' ' :.G.F.H.}. X|.K.|..X>X.XP.B.d.d.j # 7 e.S.{.=X=X=X{.S.{.:X;X;Xs.9 O w u.A.F.#X#X>X.X;X*X-X X XF.n.>.] ] ] &.=.D.H.}.",
" XXXn.*.[ ^ -.n.H.}.H. XK.J.|. X3X3X#X.XXXH.m O 7 e.S.{.=X=X=Xr.e.r.).;X;XA.7 O k A.B.J..X#X$X.X X-X-X X{.).n.c.*.} ;.*.=.d.}.}.",
"|.J.c.&.^ ^ ..b.H.}.}.}.|.|.|.XX%X3X3X,X,X Xm O 8 e.{.;X{.{.{.7.8 U S.S.;Xs.7 O m B.H.Z.}.|.$X$XXX-XoXoXoX*XK.n.' *.>.*.i.s.B.}.",
"}.Z.c.&.) ' =.D.}.|.}.}..X|.XX$X$X3X3X$X-X Xv O e e.S.;XoX{.e.j O 8 e.S. Xs.7 O m B.Z.H.}.|.%X%XXX-X=XoXoX-XF.n.O.-.-.-.X.w.V.@X",
"Z.D.x.*.' ' c.F.@XoX|.oX|.XXOX%X%X%X,X$X,X}.v O 7 w.A.;X*XH.e.e O 8 e.B.S.p.7 O v B.}.H.|.oXOXoX*X*X X X-X-XF.z.=... .P X.t.N.B.",
"B.D.x.;.} ' :.D.@X}.}.}.|.XX%X%X%X3X$XXXXXH.v O e 5.N.J.K.B.w.e O 7 t.p.d.4.6 o v H. X|.|.|.oX@X X*X*XXXXXXX XD.z.O.K P O.u.N.N.",
"N.l.=.} ` } &.z.B.}.}.@X}.XX%X%X-X-X.X.X.XJ.m O @ m X.t.u.w.b 9 # 6 b n n s @ o b D.}.|.|.Z.oX}.K.*X-XXXXXXX XJ.z.I c S t.N.V.B.",
"d.l.*._ _ _ &.b.B.Z.Z.Z.H.XX#XXXXX,X>X.X*XF.l X @ q y s y y y + # + y r w q   X s D.D.J.}.}.|.|.H. XXXXXXX-XXXXXp.w.b 8.a.V.V.V.",
"o.+.} { E _ ' O.w.5.5.5.s.H..XH.L.*X XL.J.b.s X + r g d d d a >   + , t r r < < f x u.J.J.H.H.H.H.}. XoXoXOXOXOXB.5.6.6.9.@X@X9.",
"X.:.;.1.1._ ^ g b 4.4.n 4.w.p.p.w.t.u.u.i.X.q # > g +.+.+.+.S q   . < g @.@.C h 1 1 f j.D.D.K. XH. X X X.X$X|.XXV.5.4.5.5.5.5.5.",
"f ( ' 1.Q { ' +.u.N.a.4.v k l k k w s c X.c q X < g o.o.o.o.C q X $ 1 t ( @./ L : X < @.u.t.u.u.X.|  .O.o.i.o.| X.I c c l s j v ",
"|  .] { E { >.(.K..XXXH.s.n n l k w w l X.n p q q s g s y f s i < , , 1 t h a 4 < : < c c s k s P L K ) ) ) ) ) ) L h h a s x S ",
"G.^.3.} E } ~.'..X$X$X.XK.L.D.N.p.b s b S n x l f b c l l b z b c d a r < 1 3 4 3 1 a | g w l c ( ) ] ;.] ' { } ^ J 4 h L  ...:.",
").(.2.} { } v.'.#XoXXX|.#X*XK.A.N.5.v v 4.n c b b S 8.8.8.8.8.8.b n @.g 4 < 2 4 4 3 h P x b n X. .&.;.;.} { } } ' ^ L | x.n.m.M.",
"D.n.,.;.} ,.^.>X$X%XOX|..X.XH.N.B.p.6.v 4.4.8.8.8.p.s.N.V.V.V.a.t.u.t.c a a h L K h P S o.d.D.C.D.J.(.(.v.v./.~.:.| M 9.Z.#X|.}.",
"K.F.:.} ;.2.`.<X%X%X%X X|..XH.Z.B.a.5.4.5.s.V.p.N.N.Z.H.}.Z.@XH.C.N.a.X.f h g  .+.| | +.b.>X<X>X,X>X'.'.`._._.`.b.S v 9.9.}.$XoX"
};
