/* XPM */
static char *xpm_[] = {
/* columns rows colors chars-per-pixel */
"64 64 246 2 ",
"   c #150F0B",
".  c #181408",
"X  c #0C1116",
"o  c #161314",
"O  c #1D1513",
"+  c #1C1A14",
"@  c #1D1A1B",
"#  c #15161C",
"$  c #0F0D0E",
"%  c #251A0D",
"&  c #221C14",
"*  c #241C1A",
"=  c #291E1B",
"-  c #241615",
";  c #3A1E17",
":  c #25231C",
">  c #2B231D",
",  c #2A2917",
"<  c #32241D",
"1  c #342A1D",
"2  c #2E321A",
"3  c #35381D",
"4  c #26280C",
"5  c #1B1D23",
"6  c #251D23",
"7  c #1E2528",
"8  c #1F2831",
"9  c #242222",
"0  c #2B2522",
"q  c #2D2A24",
"w  c #2A282A",
"e  c #322423",
"r  c #332B24",
"t  c #3B2C24",
"y  c #332D2B",
"u  c #3A2D2C",
"i  c #332629",
"p  c #2E3228",
"a  c #333324",
"s  c #363923",
"d  c #33332C",
"f  c #3A342D",
"g  c #353A2B",
"h  c #3B3C2C",
"j  c #3A3924",
"k  c #262B32",
"l  c #362D33",
"z  c #2B3135",
"x  c #343433",
"c  c #3B3433",
"v  c #3B3C34",
"b  c #363539",
"n  c #3C3B3C",
"m  c #383737",
"M  c #4B2B1A",
"N  c #422C26",
"B  c #42332D",
"V  c #47372C",
"C  c #433432",
"Z  c #433C34",
"A  c #4C3B34",
"S  c #423D3B",
"D  c #4D3B3A",
"F  c #4B3636",
"G  c #543D3B",
"H  c #573C36",
"J  c #593928",
"K  c #623E34",
"L  c #421A12",
"P  c #3D461D",
"I  c #3E4D12",
"U  c #3D422B",
"Y  c #3C4526",
"T  c #3D4234",
"R  c #3D413B",
"E  c #3E493A",
"W  c #434C1B",
"Q  c #4C5B1C",
"!  c #495816",
"~  c #515D1C",
"^  c #4A590D",
"/  c #536217",
"(  c #4F630C",
")  c #444D24",
"_  c #41452B",
"`  c #444B2B",
"'  c #454A29",
"]  c #4A5424",
"[  c #4E5A23",
"{  c #4C542B",
"}  c #4E592C",
"|  c #455327",
" . c #515C24",
".. c #525C2C",
"X. c #424533",
"o. c #4B4134",
"O. c #444A34",
"+. c #4A4D34",
"@. c #43453B",
"#. c #4B443B",
"$. c #464B3B",
"%. c #4A4C3B",
"&. c #54433B",
"*. c #5C433C",
"=. c #56463A",
"-. c #4C5433",
";. c #4E5933",
":. c #4C523B",
">. c #4B5639",
",. c #535C33",
"<. c #51543C",
"1. c #535B3C",
"2. c #535637",
"3. c #62473E",
"4. c #73543F",
"5. c #556227",
"6. c #5A613B",
"7. c #576136",
"8. c #3C3C43",
"9. c #3E3D49",
"0. c #383543",
"q. c #2E3B43",
"w. c #443E47",
"e. c #593E41",
"r. c #3D4449",
"t. c #3E4A52",
"y. c #434344",
"u. c #4A4543",
"i. c #464A43",
"p. c #4A4B43",
"a. c #44444B",
"s. c #454A4C",
"d. c #4C4B4C",
"f. c #48464C",
"g. c #5C4442",
"h. c #5D4A42",
"j. c #524E4C",
"k. c #534A44",
"l. c #4D5344",
"z. c #4E534A",
"x. c #4E5A47",
"c. c #525543",
"v. c #545B43",
"b. c #52544C",
"n. c #555A4C",
"m. c #5A5C4C",
"M. c #595A45",
"N. c #4A4653",
"B. c #4C4C52",
"V. c #4D4C5A",
"C. c #464654",
"Z. c #514E53",
"A. c #514E5B",
"S. c #4D5154",
"D. c #4C545B",
"F. c #445259",
"G. c #545354",
"H. c #565A53",
"J. c #5B5C54",
"K. c #53545C",
"L. c #59555A",
"P. c #565A5C",
"I. c #5B5B5C",
"U. c #595454",
"Y. c #624642",
"T. c #644A44",
"R. c #644B4A",
"E. c #694B48",
"W. c #67554B",
"Q. c #74554C",
"!. c #665B56",
"~. c #785954",
"^. c #764E48",
"/. c #5B6244",
"(. c #5B614C",
"). c #566149",
"_. c #5C6154",
"`. c #5D625C",
"'. c #626553",
"]. c #61645D",
"[. c #686758",
"{. c #73665A",
"}. c #60624F",
"|. c #4E4D61",
" X c #4D5964",
".X c #545463",
"XX c #595665",
"oX c #555B64",
"OX c #5B5C64",
"+X c #5B5D6B",
"@X c #57576A",
"#X c #5D5D72",
"$X c #5E5D7A",
"%X c #514F64",
"&X c #615E63",
"*X c #615E6C",
"=X c #615F74",
"-X c #615D7E",
";X c #4E6269",
":X c #5D6164",
">X c #53646A",
",X c #5E616A",
"<X c #556164",
"1X c #556471",
"2X c #616364",
"3X c #61626C",
"4X c #676864",
"5X c #776A65",
"6X c #7A746A",
"7X c #626273",
"8X c #66647A",
"9X c #73766A",
"0X c #895E59",
"qX c #84675B",
"wX c #91705D",
"eX c #8B6B65",
"rX c #8C7869",
"tX c #957569",
"yX c #93746D",
"uX c #A27A71",
"iX c #97867A",
"pX c #81827C",
"aX c #A8867A",
"sX c #5E5981",
"dX c #968C84",
"fX c #928D85",
"gX c #A58882",
"hX c #A8968B",
"jX c #B79689",
"kX c #B4938A",
"lX c #BCA595",
"zX c #B7ADA5",
"xX c #C79C94",
"cX c #C99B8E",
"vX c #C9A797",
"bX c #D6AA9B",
"nX c #D1A995",
"mX c #C4AEA1",
"MX c #C8B8A8",
"NX c #DBB4A6",
"BX c #D3ADA6",
"VX c #E3B7A7",
"CX c #CEC1B2",
"ZX c #D9C9BA",
"AX c #D1C0AF",
"SX c #DECDC2",
/* pixels */
"H.c.-.{ ..1./.`.:X:X,XOX:XoXoX@X|.s.O.` u.d.|.A.Z.!.L.L.`.`.oXOX_.x.>.U p p E t.S.z.K.G.L.L.!.*X&X!.XX*X*X&X&XI.G.c y n a.A.XX.X",
"b.l.-.{ ..,.m.`.:X+X,X:X:XoXoX@X|.a.Y _ p.N.A.w.w.u.f.d.i.i.r.8.E Y Y E T T E i.p.d.B.G.L.Z.L.!.&X&X&X&X2X&XI.J.b.v d Z u.Z.L..X",
"b.:.-.{ { ,.).2XOX,X,X,X+X+X@X@X@XC.U P v n 0.0.c d m m y z n z U Y +.$.i.$.i.i.u.d.j.Z.Z.Z.L.U.L.I.I.&XOX`.J.!.<._ h _ o.%.G.U.",
"p.%.{ { ] -.n.2X+X#X#X+X,X+X>X@X#XG._ 3 d b w.w.f.v m y : v N.n p 2 2 g T $.i.$.d.Z.d.f.j.Z.U.A.G.L.OX!.!.J.(.}.<.' ' ' ` +.<.<.",
"l.:.{ { ] -.n.:X#X#X#X+X+X>X#X@X@XD.-.` u.N.A.A.U.k.u.y & v G.y.. . . % s #.i.u.u.p.d.d.d.B.G.d.Z.L.L.I.L.J.J.(.2.2.{ { ' ' +.+.",
"%.+.{ ] | { n.,X#X$X#X#X+X@X#X#X,XG.+.-.U.XXe.0.f f c 0 : d n y 4 4 % , r a a y m u.j.G.Z.G.S.f.N.Z.K.L.L.J.m.m./.2.2.} ) ' -.+.",
"O.` ) W ) +.n.:X#X$X#X#X+X+X@X1X+XK.-.{ c.j.0.6 O . * e , , = > t 3 1 1 - . .   i S p.f.u.d.S.d.B.V.A.L.L.L.n.M.W.,.;.` _ _ o.+.",
"_ U Y W ) -.c.+X1X$X#X+X+X>X+X+XoX_.1.{ o.n l 6 = % = C A > - e V o.&.V < % % = > y C v m y.d.S.B.d.N.G.G.H.b.c.M.;.` ) j h @.@.",
"d U ` ) ) ` ).:X+X#X,X@XoX:X,XoX<Xx.} | a @ 6 C f A #.k.o.B C S *.=.=.=.A V f t < O   - @ n d.i.d.p.i.#.@.O.X._ ' | ' _ V X.v x ",
"d X.` { { -.).:X+X,X:XOX`.`.:X:X`.x.{ I 2 0 i i A k.h.h.*.G G e.T.*.h.h.*.&.A F < - O - @ y m x T U U h U _ _ ) { { -.{ +.O.X.x ",
"a.i.:.;.} 7.(.].`.:X`.`._.`.`.`.`.x.5.I 3 f l 6 t D h.W.h.h.g.g.h.h.T.T.3.*.*.H V i i u 0 @ 9 : s P _ ) ' ] { ]  . .;.2.2.c.p.$.",
"+XP.c.-.} 1./._._.`._._.)._.).H.).x.5.Q ` Z d = > A h.T.3.E.R.R.T.h.T.*.Y.T.Y.3.g.A A D y @ + : ` | { { { ,.,.5. .....1.(._._.J.",
"8X+Xn.-.| } ;.1.).x.x.1.v.1.x.x.x.Y Q ~ Y r 0 e B =.R.T.Y.E.R.Y.T.W.T.T.T.T.T.E.*.A D u.C - @ x c.1.;.+.{ 2.,.,.7.,.7./.'.[.4X4X",
"-X=XJ.c.} } ;.-.;.>.} ;.;.;.;.E 1.Y ! ! 2 . = C H *.R.T.Y.T.R.Y.T.h.T.R.T.E.E.T.*.H G G c O - n b.c.#.O.$.v.1.1.6.1.7.(.'.].:X:X",
"sX=X`.m.,.} ;.;.;.} ;...5...;.>.v.| ~ ( 4 . 6 &.&.H G G K Y.E.R.h.h.T.Y.Y.3.Y.3.T.T.g.u.C O o b B.a.8.8.s.G._.m.:.:.c.J.2X2X,X+X",
"$X=X:XM.;.] ;.6.).1.;.6.).).1.x.).2.5.~ 2 . > g.g.F J F H e.Y.E.R.T.R.T.T.E.T.T.*.T.g.G B - - l S.C.9.0.a.B.z.u.v R u.H.2XOX+X+X",
"7XOXoXH.;.Y $._.`.:X].4X:X:X`.`.].'.l.h q = i g.W.Q.~.J N *.3.Y.e.T.3.3.E.T.3.4.3.*.&.&.V - - y S n m m y.B.K.B.m m y.I.2X2X2X&X",
"3X,XOXH.O.Y $.`.:X,X,X3X7X7X4X:X>XH.b 9 w u F e.{.iXaX4.J *.*.Y.H e.T.E.E.T.3.E.3.&.H H V B t = * w m r.d.N.Z.B.b b a.L.&XOX&XI.",
",X,X#XK.U 2 E :X,X,X,X,X7X7X,X:X`.D.v 9 6 u G Y.qXaXlXwXE.^.3.T.E.E.E.E.T.3.3.T.3.=.H B B B i = * w n a.y.f.C.C.0.0.9..X+X*X*XOX",
"+X,X+XS.g 2 E :X,X,X:X,X$X7X,X:X`.`.z.n i = t g.qXaXvXaXiXqXQ.~.gXeX~.T.3.T.T.T.3.*.&.A t - = y R @.y.n 8.w.a.9.0.0.C.@XOX*X3X*X",
"#X#X+XS.T Y i.P.,X,X:X:X#X,X:X`.OXI.U.j.l - ; e.qXiXaXnXkXeXeXyXgXyXeX~.E.T.T.*.T.*.=.#.u - * y i.p.u.i.R S y.y.0.0.C.XXXX*X*X+X",
"#X#X@XD.E E l.H.`.:X`.:X,XOX`._.H.L.L.Z.u O B eXtX4.4.aXxXxXaXyXE.~.yXrXQ.3.3.J *.3.h.G C c u 0 , h c.l.@.m x r.b n C.A..XXXXXXX",
"@X@X@XS.:.-.>.l.x.G._.).G.b.v.).z.Z.Z.u.= - Y.kXtXM L wXbXNXxXeX; K tXkXeX^.^.H *.g.g.D F F l = . 3 <.l.O.g d v m m s.G.Z.K.XXL.",
"D.P.oXx.-.| { O.O.$.>.>.:.$.;.>.l.y.x 0 = < W.hXtXM M uXxXNXNXwXL 3.uXxXaXeX0XQ.E.R.g.g.D i e i 2 Y 1.v.O.U g m v R f.G.S.A.XXK.",
"x.z.n.:.[ Q  ...} ;...} { | | } :.R 9 + : B ~.hXtXJ J aXnXVXbXuXM ^.uXcXbXcXuXeX~.E.e.e.F - - c M.v.m._._.J.H.H.K.R y.S.V.D..XK.",
"S.n.S.:.| Q } ;.;.,.,.7.).1.;.} 1.$.g : > < W.hXlXwXwXaXNXVXVXaX0XuXkXbXbXxXuX0X^.E.e.e.F - - C ].].`.`.].].`.:XU.r.8.C.V.V..XA.",
"|.|.|.z.E Y $.c.x.n.)._.`.P.x.>.O.Y U a , = j.gXlXlXcXbXVXVXVXbXcXcXcXbXxXxXyXE.Y.e.e.G l - - w.3X3X,X:XOX:X:X:XOXa.0.t.V.|..XV.",
"|.V.V.s.O.` -.x.z.z.z.x.P.K.$.E Y Y Y U r < u.5XiXnXNXAXVXVXVXVXVXbXbXcXkXuX~.e.H G F B i - l e.OX+X+XOXOXOX<X`.:Xs.8.r.s.B.D.V.",
"l.E O.| Q ! Q [ } | | ] >.>.{ I I P | E Y E C C Q.hXBXBXVXVXVXVXNXNXbXjXyX^.E.e.G D B < : d i.z.I.:X,X:X:X:X`.`.P.l.T E p.l.i.l.",
"{ | | [ ( ( ( / ! Q ! Q ..7.Q ! Q [ } } E x.e.i F eXgXxXNXVXVXbXBXxXkXyX^.e.H e.D f i : 0 T x.S.H.P.`.`.`._.(.)./.v.| Y ;.-.E -.",
"} | ] 5.( ( ( ( / Q ! Q ..5. .Q Q Q ;.).).`.!.w.w.e.^.uXbXnXbXnXbXaXQ.H H H e.F u > : p p E x.x.x.x.c.1.1.7.7.7.5.7.[ Q Q ! ^ Q ",
"..} } 5./ ( ( / 5.~ / ....;.} [ 5.;.).'.`.].3X!.e.= N eXxXcXnXnXmXqXM % N G G F > . : g T E l.x.>.-.-.-.} ] [ Q Q / / ! ! I I ! ",
"6.7.1.1.7.7.7.7.7.7.7.6./.M.v.<.+.%.!.&X&X*XZ.b e < W pXlXnXnXvXmXiXo.1 =.(.%.h % . + Z <.p.c.c.-.-.>.;.,.5.Q ^ / / / ~ W W ] ..",
"[.'.'._.}.}.}./.1.1.M.c.v.c.d.p.c S j.&X*X*Xw.6 - 4 J iXlXlXvXlXmXrXo.h W.[.l.a +   4 X.b.M.m.(.).(._.(.).7.5./ ( / 5.6.W./.(.'.",
"[.2X!.I.J.I.L.H.U.n.b.b.Z.B.N.a.d v j.&X*X8Xw.X o = ;.iXMXMXAXMXlXiXc.#.'.9Xl.q + . , p.!.'.].`.4X:X,X:X`.).6. .Q  ./.'.'.I.!.].",
"!.I.OXI.I.I.I.I.U.G.G.G.G.Z.N.a.v n f.*X5X&Xw.5 o > 7.aXAXZXCXCXmXiX!.:.'.4Xl.p + o 0 b.2X2X2X:X:X,X,X,XOX`.M.,.,.6./.[.OXOXI.OX",
"I.I.I.!.!.OXI.I.L.U.G.G.G.j.f.d.@.x i.P..X9.z k 6 0 =.hXZXZXZXZXMXdX!.c.4X9Xl.q : # 9 r.S.`.:X<X,X,X#X,X,X`.(.7.,.,./.J.!.OX&X&X",
"`.J.J.I.J.J.L.U.L.G.Z.G.j.d.p.p.E d T S.8.w 6 b x f k.dXZXZXZXZXSXhX!.M.9XpXn.p y 9 @ 9 z S.,X,X,X3X#X+X+X`.M.-.) ..M.J.:X:XI.I.",
"J.!.J.J.U.U.U.j.U.U.j.j.j.<.%.#.E U E s.z o 6 S D Z <.iXCXZXZXZXSXhX!.h.[.6XJ.@.@.d 6 o 7 s.3X,X,X:X>X+XOX_.1.] W ../.}._.L.J.G.",
"!.J.m.!.!.J.U.U.Z.Z.Z.j.p.k.p.+.O.U $.%.0 $ * Z f t o.iXzXCXZXSXSXlX!.o.c.[.'.J.k.S i o * s.,XOX:X:X+X+X:X`.v.{ W ../.(.J.J._.J.",
"J.P.I.J.J.G.G.Z.L.A.V.N.j.d.u.%.O._ +.o.r & > C V N =.iXMXAXCXSXSXhX!.o.V <.W.{.[.u.t = 0 w.L.OX:XOX+X+XOX`.M.{ ) | c.'.!.L.H.I.",
"f.d.u.p.u.b.G.L.N.V.V.V.f.d.p.%.-._ 2 , 1 t N B t N *.iXAXCXCXCXZXhX{.o.j _ M.{.W.=.B r y y v u.`.:X,X,X:X`.v.{ ) { <.M.U.S.d.b.",
"n v v U j Z O.p.y.s.C.f.y.S @.X.+.+.1 . < A A t 1 N =.iXzXMXzXzXMXgX{.Z t V <.[.T.j.&.H C - & n n._.:XP.H.v.-.] Q ] 2.<.p.T h h ",
"m T X._ Y P Y Y #.$.y.R x h g h ` -., % D {.!.F t t o.5XiXfXpXfXfX6Xb.f a h h.{.6XrXrXrX{.0 . h :.l.c.z.l.>.Q W Q [ ..2.+.h 2 2 ",
"E O.;.-.[ ] ] ] -.:.p.E v T O.$.+.-.4 % !.dX6Xe.u u f p.`.).F.;XOXN.m p p v n.[.iXhXlXzXfXc O a ` Y O.$.>.;.Q I ~ ~ ..;.+.h s 3 ",
"d.z.v.;...[ ..7./.).H.z.z.z.n.).).m.T y j.5XL.6 i c y.d. XD.t.;XD.s.r.n m n E $.J.{.rX6X!.d : g ` ` O.>.v.6...Q 5. ...-.O.O.%.:.",
"D.P.).x.} { } 7.).H.P.oXoXoX:X`.].[.!.d.0.l 6 o w w.P.`.>X>X1X1X1X XV.C.t.E p 4 4 , > > 1 d @.l.>.v.G.)._._./.....,.<.%.p.d.b.U.",
"D.P.).x.;.;.;.).n.P.D.oX.XoX XP.`.`.2XXXw.i # $ 9 s.>X<X;X;X;X;X1X XF.F.t.r.7 $ o + = + 0 i.J.H.`.:X3X,X:X_.W.2...,.c.c.b.B.Z.K.",
"+XP.n.>.{ ] 1.J.H.K.K.XXOXP..XOX2X2X3X2XL.S.z X 7 s.`.>X1X Xt.>X>X>X;X XF.t.8 X 7 R y.f.G.I.2XOX:X:X:XoXP.H.n.1.} 5...-.p.G.L..X",
"+XOXm.-.) ) %.m.P..XP..X.XL..XOX3X3X3X3XOXP.r.X 7 t.<X<X;Xt.t.t.;X>X<XP.F.r.8 X z s.D.D..XOX3X+X<X,X,X+XoXP.).v.-.;...;.:.j.K..X",
"XXI.n.-.' ' %.b.P..X%XXXXX.XOX+X3X*X3X7X,X<Xr.5 7 t.<XP.F.q.k q.F. X;X XD.t.k X z D.K..XOXXX+X+X+X,X@X+X@X<XH.x.-.;.1.>.i.f.V.%X",
"%XG.c.-.| | >.G..X%X.X.XXXOX+X+X7X7X3X3X,XOX8.5 7 t.<XD.t.8 5 8 t.D.<X<XD.r.k X k C.K..X.X.X+X+X,X>X@X@X+X+XI.n.O.>.>.:.$.a.C.|.",
"A.G.c.-.} { v.H..X%X@X.XXX+X=X=X8X7X*X*X*XOX0.# 7 r.oXD.a.k 5 5 r.|.,X>XK.r.k X k C..XXXXX.X#X+X:X:X+XoX+X:XP.z.:.+.` X.E y.f.V.",
"D.G.c.;.} } <.G..X.X%X.XXX+X=X=X7X#X+X*X+XOXr.# 7 n B.B.9.w # 5 a.V.OX.XB.r.w X z B.P..X.X.X@XXXOX<X:XOX+X,XP.S.z.$.U T @.d.f.V.",
"B.l.<...} { <.c.V..X.X%X.XOX=X=X#X+X+X*X3XOXr.# o z R 8.b 9 o 5 0.a.f.y.8.x : $ z S.L..X.X.X X.XP.OX,X,X+X+XOXP.f.@.m @.i.f.C.A.",
"d.p.-.[ Q ] -.j.B.A.%XA.K.OX*X*X+XOX3XOXOXL.n # o 0 p y w @ $ 6 w y l y y p + $ y d.U.P..X.X+XXXK.oX+X+X+X#X+X+Xf.8.n 8.f.C.N.V.",
"u.%.2. . .] | $.y.9.8.a.N.L.oXOXOXOXI.L.d.r.d q > y d r :     * u f f f g a 4   q :.I.J.S.P.P.D.D..X@X+X+X#X#X+XV.9.0.0.w.|.C.|.",
"O.-...5.5.Q ' v b 8.0.m n r.a.y.r.a.d.y.d : 0 d X.@.o.f q + O : @.#.#.#.#.h 4   q #.m.n.b.G.L.H.P.P.oXOXXX*XXX+XC.w.9.8.9.9.0.0.",
"f O.{ 5./  .{ $.a.N.s.r.b d z y z x m x : # : v @.@.v d q + O = Z Z o.#.+.Y 4 . 3 _ %.l.#.i.y.i.#.T T @.u.%.#.@.@.T n v x y l b ",
"T +. . . . .6._.I.+XOXK.a.r.b b x k p x d 9 2 x h c y r q , > q f a a a a 3 , 4 3 s _ T g x z h U U ` ` ` ` ` ` ` U j s a a v S ",
"J./.6. . .../.].OX*X*XOXI.L.G.B.f.m w m n m p f x m d x m m x n m h s q , , , 2 3 j U U g a d g ` | { ,...]  . .) W 3 j Y ` %.<.",
"`._.6... ...M.'.OX+X@X+X:X:XOXS.B.y.b b m x m m v S n S S w.n n n n v h a , 2 3 3 s s h h v m v O.-.1.,...[  .,.{ _ W Z c.m.M.b.",
"P.M.1.;...,.(.2X=X=X@XXXOXI.K.N.V.a.0.b m m n y.8.y.a.a.N.a.9.w.y.S R v d a 3 _ j U U v @.u.b.G.G.J._.}.M././.M.<.Z n w.L.XX&X.X",
"I.U.<.} ,.6.'.4X*X=X#X+XOXOX.XS.Z.f.r.8.8.a.a.y.f.Z.A.Z.K.K.V.K.K.d.u.R h s U ` X.+.%.$.l.`.].2X,X2X2X'.'.}.}.'.c.S l w.w.XX@XXX"
};
