/* XPM */
static char *result[] = {
/* columns rows colors chars-per-pixel */
"64 64 10 1 ",
"  c #73402A",
". c #BF1FBF",
"X c #E04AE0",
"o c #FFA3FF",
"O c white",
"g c #FFD454",
"h c #FFDF8F",
"i c #F57AF5",
"j c #FFEBBD",
"k c #FCAEFC",
/* pixels */
"kkkkiiiikkkkiiiikkkkiiiikkkk........iiiikkkkiiiikkkkiiiikkkkiiii",
"kkkkiiiikkkkiiiikkkkiiiikkkk........iiiikkkkiiiikkkkiiiikkkkiiii",
"gggggggggggggggggggggggggggg........gggggggggggggggggggggggggggg",
"gggggggggggggggggggggggggggg........gggggggggggggggggggggggggggg",
"jjjjjjjjjjjjhhggjjjj........oooooooo........hhggjjjjjjjjjjjjjjjj",
"jjjjjjjjjjjjhhggjjjj........oooooooo........hhggjjjjjjjjjjjjjjjj",
"jjjjjjjjjjjjhhggjjjj........oooooooo........hhggjjjjjjjjjjjjjjjj",
"jjjjjjjjjjjjhhggjjjj........oooooooo........hhggjjjjjjjjjjjjjjjj",
"jjjjjjjjjjjjhhgg....oooooooooooooooooooooooo....jjjjjjjjjjjjjjjj",
"jjjjjjjjjjjjhhgg....oooooooooooooooooooooooo....jjjjjjjjjjjjjjjj",
"hhhhhhhhhhhhhhgg....oooooooooooooooooooooooo....hhhhhhhhhhhhhhhh",
"hhhhhhhhhhhhhhgg....oooooooooooooooooooooooo....hhhhhhhhhhhhhhhh",
"gggggggggggg....XXXXooooooooooooXXXXooooooooXXXX....gggggggggggg",
"gggggggggggg....XXXXooooooooooooXXXXooooooooXXXX....gggggggggggg",
"iiiikkkkiiii....XXXXooooooooooooXXXXooooooooXXXX....kkkkiiiikkkk",
"iiiikkkkiiii....XXXXooooooooooooXXXXooooooooXXXX....kkkkiiiikkkk",
"kkkkiiii....ooooooooooooooooXXXXooooooooXXXXoooooooo....kkkkiiii",
"kkkkiiii....ooooooooooooooooXXXXooooooooXXXXoooooooo....kkkkiiii",
"gggggggg....ooooooooooooooooXXXXooooooooXXXXoooooooo....gggggggg",
"gggggggg....ooooooooooooooooXXXXooooooooXXXXoooooooo....gggggggg",
"jjjjjjjj....ooooooooXXXXXXXXXXXXooooooooXXXXoooooooo....jjjjjjjj",
"jjjjjjjj....ooooooooXXXXXXXXXXXXooooooooXXXXoooooooo....jjjjjjjj",
"jjjjjjjj....ooooooooXXXXXXXXXXXXooooooooXXXXoooooooo....jjjjjjjj",
"jjjjjjjj....ooooooooXXXXXXXXXXXXooooooooXXXXoooooooo....jjjjjjjj",
"jjjj....ooooooooXXXXoooooooo....XXXXXXXXooooooooXXXXoooo....jjjj",
"jjjj....ooooooooXXXXoooooooo....XXXXXXXXooooooooXXXXoooo....jjjj",
"hhhh....ooooooooXXXXoooooooo....XXXXXXXXooooooooXXXXoooo....hhhh",
"hhhh....ooooooooXXXXoooooooo....XXXXXXXXooooooooXXXXoooo....hhhh",
"....XXXXoooooooo........ooooooooooooXXXXooooooooXXXXXXXXoooo....",
"....XXXXoooooooo........ooooooooooooXXXXooooooooXXXXXXXXoooo....",
"....XXXXoooooooo........ooooooooooooXXXXooooooooXXXXXXXXoooo....",
"....XXXXoooooooo........ooooooooooooXXXXooooooooXXXXXXXXoooo....",
"....ooooXXXXXXXXooooXXXXXXXX........XXXXXXXXXXXXoooo....XXXX....",
"....ooooXXXXXXXXooooXXXXXXXX........XXXXXXXXXXXXoooo....XXXX....",
"....ooooXXXXXXXXooooXXXXXXXX........XXXXXXXXXXXXoooo....XXXX....",
"....ooooXXXXXXXXooooXXXXXXXX........XXXXXXXXXXXXoooo....XXXX....",
"....XXXX........XXXXXXXX....XXXXXXXXooooXXXX........XXXX........",
"....XXXX........XXXXXXXX....XXXXXXXXooooXXXX........XXXX........",
"....XXXX........XXXXXXXX....XXXXXXXXooooXXXX........XXXX........",
"....XXXX........XXXXXXXX....XXXXXXXXooooXXXX........XXXX........",
"........XXXXXXXX........XXXXXXXX........XXXXXXXXXXXX............",
"........XXXXXXXX........XXXXXXXX........XXXXXXXXXXXX............",
"........XXXXXXXX........XXXXXXXX........XXXXXXXXXXXX............",
"........XXXXXXXX........XXXXXXXX........XXXXXXXXXXXX............",
"gggg........XXXXXXXX........................................gggg",
"gggg........XXXXXXXX........................................gggg",
"iiii........XXXXXXXX........................................kkkk",
"iiii........XXXXXXXX........................................kkkk",
"kkkkiiii................................................kkkkiiii",
"kkkkiiii................................................kkkkiiii",
"gggggggg................................................gggggggg",
"gggggggg................................................gggggggg",
"jjjjjjjjjjjj........................................jjjjjjjjjjjj",
"jjjjjjjjjjjj........................................jjjjjjjjjjjj",
"jjjjjjjjjjjj........................................jjjjjjjjjjjj",
"jjjjjjjjjjjj........................................jjjjjjjjjjjj",
"jjjjjjjjjjjjhhggjjjj        OOOOOOOOOOOO    hhggjjjjjjjjjjjjjjjj",
"jjjjjjjjjjjjhhggjjjj        OOOOOOOOOOOO    hhggjjjjjjjjjjjjjjjj",
"hhhhhhhhhhhhhhgghhhh        OOOOOOOOOOOO    hhgghhhhhhhhhhhhhhhh",
"hhhhhhhhhhhhhhgghhhh        OOOOOOOOOOOO    hhgghhhhhhhhhhhhhhhh",
"gggggggggggggggg    OOOO    OOOO    OOOOOOOO    gggggggggggggggg",
"gggggggggggggggg    OOOO    OOOO    OOOOOOOO    gggggggggggggggg",
"iiiikkkkiiiikkkk    OOOO    OOOO    OOOOOOOO    iiiikkkkiiiikkkk",
"iiiikkkkiiiikkkk    OOOO    OOOO    OOOOOOOO    iiiikkkkiiiikkkk"
};
