/* XPM */
static char *a9f2a636b73c4821dc0ca649e57db80cRIZdAVGEeLxOU18s[] = {
/* columns rows colors chars-per-pixel */
"64 64 138 2 ",
"   c #3D444E",
".  c #3F484F",
"X  c #3F4551",
"o  c #3F4851",
"O  c #40444F",
"+  c #414752",
"@  c #434A55",
"#  c #484F57",
"$  c #464E59",
"%  c #494F5A",
"&  c #47505C",
"*  c #4C535D",
"=  c #4F585D",
"-  c #50555F",
";  c #4E5661",
":  c #4F5862",
">  c #505762",
",  c #535B65",
"<  c #585C66",
"1  c #565E69",
"2  c #585F6A",
"3  c #575F72",
"4  c #576067",
"5  c #57606A",
"6  c #5A626C",
"7  c #5F686F",
"8  c #566272",
"9  c #5C6572",
"0  c #5F6874",
"q  c #5E6778",
"w  c #5E6A79",
"e  c #616773",
"r  c #626A75",
"t  c #656E7A",
"y  c #626B7C",
"u  c #636C7A",
"i  c #686F7D",
"p  c #66707A",
"a  c #67717B",
"s  c #67717D",
"d  c #67717C",
"f  c #68707B",
"g  c #68707D",
"h  c #6A737C",
"j  c #6A727D",
"k  c #6B737E",
"l  c #6C747F",
"z  c #6A727D",
"x  c #676F82",
"c  c #656F81",
"v  c #686F81",
"b  c #677281",
"n  c #6B7581",
"m  c #6D7580",
"M  c #6F7782",
"N  c #6E7683",
"B  c #6C7385",
"V  c #6B7383",
"C  c #6E7884",
"Z  c #6F7985",
"A  c #6E7789",
"S  c #707787",
"D  c #717984",
"F  c #717B85",
"G  c #717A85",
"H  c #707789",
"J  c #717A8B",
"K  c #747E88",
"L  c #757F89",
"P  c #747E8A",
"I  c #727A8D",
"U  c #727D8F",
"Y  c #737D8C",
"T  c #787F8F",
"R  c #757D90",
"E  c #767E91",
"W  c #777F92",
"Q  c #767F91",
"!  c #76808C",
"~  c #77818D",
"^  c #74808E",
"/  c #76808E",
"(  c #78808B",
")  c #79838D",
"_  c #7B838E",
"`  c #7A828F",
"'  c #7B858F",
"]  c #7C848F",
"[  c #7A848F",
"{  c #738091",
"}  c #778091",
"|  c #768193",
" . c #758293",
".. c #768195",
"X. c #758295",
"o. c #778296",
"O. c #778191",
"+. c #788192",
"@. c #788093",
"#. c #798293",
"$. c #7B8591",
"%. c #7C8690",
"&. c #7E8691",
"*. c #798194",
"=. c #788395",
"-. c #7A8394",
";. c #7A8295",
":. c #7B8396",
">. c #798496",
",. c #7A8696",
"<. c #7C8596",
"1. c #7C8497",
"2. c #7B8394",
"3. c #7E8896",
"4. c #798498",
"5. c #7B8698",
"6. c #7D8598",
"7. c #7E8699",
"8. c #7D859A",
"9. c #7C8699",
"0. c #7C8898",
"q. c #7D889A",
"w. c #7E899B",
"e. c #7E8B9E",
"r. c #7E899A",
"t. c #7E8AA0",
"y. c #808895",
"u. c #818B96",
"i. c #828B9C",
"p. c #86909C",
"a. c #828DA1",
"s. c #838EA2",
"d. c #848EA1",
"f. c #8692A4",
"g. c #8992A4",
"h. c #8A96A9",
"j. c #8E9AAD",
"k. c #94A1B4",
/* pixels */
"B +.E o.o. .:.>. .E E E :.6.:.:.:.6.9.6.6.<.>.r.a.a.e.:. .^ r.9 1 r.J I 9.6.o.Y :.+.E +.E +.+.E o.:.:.:.:.6.<.r.o.{ 9.r.E +.>.Y ",
"m _ t n C L j u r 9 e r r r r r e t t t m D D _ &.$.L j r r y.9 > &.u r l _ ' L m f u u t r r r u u r r r f D ( ^ m r 9 2 e ] ^ ",
"r 6 , + $ $ % % * = ; = ; > * * = ; , , > > , 1 = = : > = 5 f 5 > r 5 ; : > , , > > > ; > , > > > > : ; = = = = * * * * % > 6 j ",
"r > % * = = ; : > > > , 1 1 1 1 1 5 5 5 5 5 5 1 1 5 5 1 1 , u 5 > t , 1 1 5 1 1 5 5 5 5 1 5 5 1 1 1 1 , , , , > , > > ; = = , a ",
"9 , $ * = = = : > > > , , 1 1 1 1 5 1 5 5 5 5 5 5 5 5 1 1 , r , > t > 1 1 1 1 5 5 5 5 1 1 5 5 1 , 1 1 1 , > , : > > > ; ; * , y ",
"9 1 & = * * ; : > , , , 1 5 1 1 5 5 6 5 6 6 5 2 5 5 5 5 5 , e > ; s 1 5 1 2 5 5 5 6 6 5 5 5 5 1 1 1 5 1 1 1 , , > , > > ; = > u ",
"e , # > > = - > > > > , 1 5 5 5 5 6 6 6 6 5 5 2 5 6 5 5 1 , 0 , = a 1 1 6 5 6 6 5 6 6 6 6 6 6 6 5 5 5 1 1 1 , , , : ; > ; = , r ",
"6 > * * > 1 , = > > > 1 1 1 1 1 1 5 5 6 6 6 6 1 5 5 6 5 1 1 r , = t 1 6 5 6 6 6 6 6 6 6 6 6 5 6 5 5 5 1 1 1 , , ; ; > > ; ; , y ",
"9 9 6 = > > 1 1 1 1 5 6 6 9 9 9 9 r r r r e 6 9 6 6 6 6 6 r x , ; j e 6 6 6 9 9 0 0 u r 6 e 9 6 6 6 9 6 6 6 2 1 1 1 1 1 > 6 t y ",
"6 6 1 1 1 1 1 5 8 8 8 8 8 8 8 8 8 8 8 8 9 8 8 8 8 2 5 8 5 6 w = * q 9 1 , 5 8 3 8 8 8 9 8 8 1 5 5 5 8 8 8 8 5 5 9 8 8 5 5 5 8 8 ",
"+ @ @ @ @ + + @ @ @ o + + + +   X + @ @ @ + @ @ @ @ X @ @ @ @ @ @ @ @ + @ @ + X X X   o + + @ + O + @ + X + X @ @ + X @ @ +   + ",
"9.i.>.i.<.r.f.h.i.>.i.i.d.<.g.6 y i.E T  .:.>.>.+.+.<.r.i.i.i.r.i.3.i.i.g.a.e.a.j.d.6.i.r.r.g.b = i.^ T >.<.>.$.>. .E E E +.i.g.",
"r 1 1 , 1 1 5 1 = = 5 0 4 1 h , 5 f , * = ; > > , , , 1 5 5 1 5 5 5 5 5 5 e D C t 6 1 2 5 6 K r * m 1 > , > > 1 1 1 , , 1 , 0 l ",
"> , > > ; = = * * * $ @ % , 6 , 1 6 1 * = = > > > , > > 1 1 , 1 1 1 5 , 1 1 , , > > ; = * > e 6 * t 2 , > > > > 1 , , 1 1 1 > : ",
"1 1 , , , > > > ; * = * * + 2 , , , $ = = = : > > > 1 1 1 5 5 5 5 5 6 5 5 4 5 1 , , , , > * 6 0 * t = > , 1 > > 1 1 1 1 1 1 1 1 ",
"1 1 5 1 > > > > ; * * * * @ 5 > , , * = = : > : , , 1 6 5 6 6 6 6 6 6 6 6 5 6 4 1 , , , > = 9 0 * A : > , 1 1 1 1 5 5 2 5 1 1 5 ",
"1 5 1 1 5 , > > ; = * * * % 6 ; , , * ; > ; , , 1 1 1 1 5 6 6 6 6 6 6 6 6 2 , > , , > > > * r w % u , 1 , 1 1 1 5 5 5 6 6 5 5 1 ",
"5 5 1 1 1 5 1 > > ; ; = * $ 6 ; > > % > ; > , , 1 5 5 5 6 6 6 6 6 6 5 6 6 6 6 5 5 1 1 1 > * y u $ 6 > 1 1 2 5 5 5 5 5 6 5 6 1 5 ",
"5 5 1 1 1 > > > = > = * * > 6 ; , 1 , * = > , , , , 1 5 6 6 6 6 6 6 6 6 9 9 6 6 5 1 > 1 > , 1 , $ 9 1 1 , < 5 5 1 6 6 5 6 6 5 5 ",
"r r 9 9 0 9 9 9 6 6 2 1 , 6 t ; , 9 0 , 1 5 2 6 9 0 u r r y y u r r y t r 9 r 0 9 6 6 5 , 6 8 , % u e 6 6 6 0 y 0 y u r e 9 9 e ",
"; & * ; ; ; ; ; ; ; ; ; & @ = @ @ ; * * * & * ; ; : ; $ & ; * ; ; * * * * * * * * & $ $ $ @ % @   ; * * * * * * $ & ; * $ $ * * ",
": , 1 1 1 1 1 , , , , , , 1 , , , ; : , : , , : , 1 1 , , 1 , $ @ 1 1 , 1 , > , , 1 1 1 1 1 1 1 5 1 , : , : , , 1 , , 1 1 1 ; , ",
"T i.C P P Y P J P Y ^ T +.+.r.g.j.f.d.i.<.+.i.f.i.i.+.J J v i.t 1 h.J T i.i.y.<.+.i.<.i.y.<.<.$.+.i.i.a.f.k.h.+.:.T T T P J i.<.",
"r 6 ; + $ @ $ % * * * = = = > < r a e > = = = : , * # $ @ > 5 1 = 6 = X + * * # * * * # * * * = * = 1 6 6 4 = * % $ $ @ X * 6 t ",
"r , ; * * ; ; = > > , , 1 1 1 , , : > 1 1 , , > ; > ; = * > 1 , > 1 * $ $ * * * * > > > , , , , 1 1 > > > = : > > ; = * % = = e ",
"e = $ * = = ; = > 1 1 1 1 1 1 5 5 5 1 1 1 1 1 , , ; ; - = % > > ; ; + $ * * * * ; > > , > , 1 , 1 , 1 1 , 1 , > ; * = * * $ ; u ",
"9 : * * = * > , 1 1 1 5 5 5 5 5 5 1 1 5 5 1 1 , , : ; ; * * , > = ; $ # % * * * > > 1 , 1 1 1 5 1 1 5 5 1 , , , > = ; = * $ 5 u ",
"6 = * * = > > > 1 1 1 1 5 5 6 6 6 5 6 5 5 5 , 1 , > > > = * 1 , * * + * * = = = , , 1 1 , 5 5 6 5 6 1 1 5 2 1 > , : > ; * @ u B ",
"9 = * > ; > > , , 1 1 1 6 6 6 6 6 6 6 6 2 5 , 1 1 > , > : $ 1 , * ; @ $ * = = > > , 1 1 5 5 6 6 6 6 6 6 5 5 5 1 1 , > ; = % 5 y ",
"5 1 1 * > ; > , 1 1 5 6 5 6 6 6 6 6 6 6 6 5 1 , , > > > * 2 6 , = > , $ $ * = ; > , 1 1 5 6 6 6 6 6 6 6 5 5 5 1 1 > - = * < 1 1 ",
"9 u 8 1 1 1 5 9 w w 0 0 0 y 9 r r y y r 0 0 9 9 8 6 6 5 1 6 y , : 0 5 , , , 5 6 6 9 w 0 9 u y y u u u u 0 9 9 0 w 0 w 0 8 8 9 9 ",
"+ X   X   X         X X X X   @ +   X + X X X + X X X X .   +     $ + + @ @ @ @ @ @ @ o @ o @ $ & $ @ @ @ @ @ @ $ + @ @ @ @ + @ ",
"y x A B B H V B B B B b b B A ; 1 S y b V s y s B b b V b b b V y q v B i i B V B V B B A B B 8 % n i V V B b b v b b b V u V x ",
"f.<.^ m j j f f j m ! Y T b $.1 9 ' t b L +.+.+.&.L n j j j D i.f.e. .n a j t u f r t t u t y.m * p.l 8 6 6 9 0 9 r r r s b >.f.",
", , > > > > : > > > = * ; 5 e > , 1 , + @ * * * * * ; = = * > 1 6 6 , = = ; * * $ * $ @ + ; j 9 $ m 2 + + @ @ $ % % * * * * = > ",
", 1 5 5 5 5 5 5 5 5 1 1 1 > r > , 1 * * = ; ; > > , 1 1 1 , 5 5 1 2 1 1 5 , , , , , = * * % 9 9 * S $ * # * * * * > > > , 1 , > ",
", 1 1 5 6 6 5 5 5 1 5 1 , = 9 * , > $ * * = , , , , 4 5 5 1 5 5 5 5 2 1 1 1 1 1 , ; = = * @ , 2 * r + % $ % * = = = > , , > , , ",
"5 5 5 6 6 6 1 6 5 5 1 , 1 , 6 * , , * - - > > , > 1 1 1 6 6 6 6 6 6 6 1 5 1 , , 1 > : ; = @ ; 2 * 1 $ % * * * = = > > > 1 1 1 5 ",
"6 5 6 6 6 5 6 6 6 2 6 1 2 > 6 = > , * = = > , 1 , 1 1 6 6 6 9 9 6 6 9 6 6 6 1 1 1 1 , : * % > 6 * 1 @ * * * ; > > ; > , 1 1 5 5 ",
"2 6 6 6 9 9 6 6 6 6 5 6 5 1 6 = , 5 * ; > , 1 > 1 6 6 6 6 9 9 e r 9 6 6 2 5 5 1 , > ; : = % ; 1 % , % * * * * ; ; , , , 1 5 5 5 ",
"6 6 6 9 e e 0 e 9 6 1 6 6 e r * , y 6 = * > 1 , 1 6 6 2 6 0 r 9 r t r 9 9 9 6 9 9 9 6 , = 5 9 5 % 6 6 * * * * > > , 1 2 5 1 6 6 ",
"6 6 9 9 9 9 6 6 6 5 6 8 9 w w * ; 9 > , , , , , 1 1 5 5 5 9 9 9 9 9 8 8 5 1 1 1 1 8 8 8 , 1 0 , $ 6 ; ; ; , > , , 1 8 1 1 5 8 8 ",
"+   X X X   +   X X       X + +   X + + X + + X       + X + X       X X   X X X         X @ $ + X @ + + X + + @ X   X + + @ + + ",
"D 3. .:.6.d.a.9.9.0.f.f.h.6.:.+.P +.+.+.+. .E  .r.i.6.<.Y J i.0 5 d.E E E :.<.6.d.6.e.t.a.T P T <.6.<.E :.<.6.r.f.j.j.i.<.:.+.T ",
"m l 9 u a m M D ^ 3.D j t 6 6 6 5 , 5 1 1 5 1 1 r j r , , , j 5 1 L 1 > > , > > 5 r C P 9 > = > 1 6 6 5 6 6 6 5 6 f t 9 5 5 r j ",
"t 9 6 5 5 5 5 6 5 7 5 ; 1 5 5 1 , , 1 , 1 : > , - * * = * , 1 , > 6 1 = * * % * * * = * ; 1 1 1 , , 1 , 5 1 1 , 1 1 1 5 1 6 e r ",
"e 6 6 9 6 6 6 9 e 5 6 9 6 6 5 1 5 1 5 1 1 1 1 1 > > > ; = % , , > 2 * = * * > ; > > > > > , , > 1 1 5 , 5 5 5 5 5 5 6 6 5 5 6 r ",
"9 9 6 9 9 9 9 9 1 6 e 6 6 6 6 6 5 1 5 1 1 1 , : , > : > : * 1 , ; 2 * = * = > > - > > , 1 1 , 1 1 1 1 1 5 5 1 5 6 6 1 6 1 5 6 r ",
"9 9 6 9 0 e 9 2 e e 9 9 6 6 6 6 5 5 5 5 1 , 1 6 1 , > > ; * , , = 1 * = ; = = - = > , > 1 1 1 1 5 5 1 5 4 5 1 6 6 6 6 6 6 6 6 0 ",
"9 9 6 0 0 e 6 r 9 6 e e 6 6 6 8 9 6 6 5 5 6 5 > , , > : = * 1 > * 1 * = = , > > , , , , , 1 1 5 5 5 5 6 1 6 1 5 6 6 6 6 6 6 9 e ",
"6 9 6 e e 9 r r e 9 e 9 e 6 6 6 6 6 1 5 5 , 1 1 , > > : * > 1 > * 1 > = * = > 1 5 5 , 1 , 1 1 1 1 1 5 5 5 5 6 2 6 9 6 6 6 6 6 9 ",
"r t u t t t s b j u r r u r r u y y u 9 9 6 6 1 2 1 , , , 9 s 1 > r 6 > ; = ; 1 , 1 5 1 1 5 6 6 5 6 9 0 0 9 9 9 0 r e r r u t r ",
"; ; ; ; * * ; : : ; ; ; ; ; ; ; ; ; : ; * * ; ; = = * ; ; ; : @ @ : $ * * $ $ $ * * * * * = ; , : * * ; : : * * ; ; ; ; ; : : : ",
", ; ; ; , ; ; ; : ; ; ; = , > + @ , ; , ; ; ; ; * ; : : , , : > ; , : > : ; ; > : , ; ; > > ; %   ; > ; : , ; ; ; % % : : : : , ",
"$.T T ^ T T T ^ T J Y T T T i.5 r $.B J B +.g.d.h.f.+.T _ r.:. .E E  . .T T Y T E T E  . .J 3.b * 3.J I Y E +.i.j.f.i.+.S J <.f.",
"; = = = = * = * % # # $ % + e , > , , + @ % = , 2 > * * = * * = > > > > > > > ; > > , , > 1 6 2 % 1 + $ $ $ % ; 6 r 1 = = = = = ",
"1 1 1 1 1 , > > > : = = * * 6 > , , > * * * * = * ; ; > , 1 1 1 1 1 1 , , 1 5 4 , 1 1 5 5 5 e , $ , $ * * * * ; * = > , , , > > ",
"1 1 1 1 1 1 , , ; ; > = * * 1 , > ; $ * * * = ; > > ; , > , 1 1 , 5 1 1 5 1 1 1 1 1 1 4 5 1 6 1 * , * * * * * > , , , , 1 > > 1 ",
"5 5 5 5 5 1 , , 5 5 > : > * 5 > ; ; % * = = = = > , , = > 1 1 1 , 1 5 5 5 5 6 6 2 1 5 5 5 5 9 1 * , * = * ; ; 1 , > > , 1 1 1 1 ",
"5 5 5 5 1 1 5 5 1 > > > ; * 2 - > > * * * * = > > ; > 1 , > 1 5 1 1 5 6 1 9 9 6 6 1 6 6 6 1 9 , * 1 * = ; * > , , , , 1 1 1 1 1 ",
"6 6 6 5 5 5 5 1 1 , , > - = 6 * , 6 $ * * * ; > > ; > , 1 , 1 5 5 5 6 1 0 y 6 1 2 6 9 6 6 6 9 , % 2 * > > , > , 1 5 1 5 1 1 6 6 ",
"6 6 6 6 5 5 5 1 1 1 > ; - = 6 = , 9 1 * * * * ; > , 1 , > 1 5 5 5 5 1 6 0 6 6 6 9 9 6 6 6 9 6 > $ , * > - > , , , 1 1 2 1 6 5 6 ",
"r 9 9 9 9 9 6 6 6 9 0 1 , , y > , 0 , ; , > , , 1 , 1 6 , 6 6 6 9 9 0 0 0 0 0 q y y r 0 9 r u , % 6 , , 1 3 5 8 9 9 0 8 6 9 9 9 ",
"; ; ; * * ; ; ; ; ; : ; * ; : $ @ & @ $ $ $ @ $ $ @ % * $ $ * $ * * * * $ $ $ @ $ $ % * $ $ * $ + * ; * * ; ; : : : ; ; * * ; ; "
};
