/* XPM */
static char *_44ca25fe8304321bff9dd64e71f4c40itKq7oCW54h1c3v8[] = {
/* columns rows colors chars-per-pixel */
"64 64 224 2 ",
"   c #0E0C0C",
".  c #110D0E",
"X  c #13110F",
"o  c #0E0D17",
"O  c #120C12",
"+  c #140B1B",
"@  c #131314",
"#  c #1B1615",
"$  c #15161B",
"%  c #1C141A",
"&  c #16181E",
"*  c #1A1A1E",
"=  c #211716",
"-  c #221916",
";  c #231B1B",
":  c #291E1B",
">  c #1F221E",
",  c #2C360F",
"<  c #25251D",
"1  c #2C211E",
"2  c #2C3317",
"3  c #333A1A",
"4  c #170B23",
"5  c #1B072E",
"6  c #1B0A2B",
"7  c #1C1423",
"8  c #171920",
"9  c #1C1D23",
"0  c #1A1825",
"q  c #1E0A32",
"w  c #221626",
"e  c #210D34",
"r  c #22073A",
"t  c #241B34",
"y  c #271938",
"u  c #1F2026",
"i  c #1F2129",
"p  c #222225",
"a  c #2C2422",
"s  c #292A23",
"d  c #22242B",
"f  c #25292C",
"g  c #312421",
"h  c #362A25",
"j  c #3B2A26",
"k  c #342D2D",
"l  c #3B2D2A",
"z  c #2D3422",
"x  c #373B20",
"c  c #35322C",
"v  c #3B332C",
"b  c #3C3C2D",
"n  c #272931",
"m  c #2B2C33",
"M  c #2E3136",
"N  c #2F3238",
"B  c #363333",
"V  c #3A3433",
"C  c #3C3A33",
"Z  c #33343A",
"A  c #3A363B",
"S  c #36393C",
"D  c #3C3B3B",
"F  c #422E2A",
"G  c #44322D",
"H  c #46362E",
"J  c #4C3632",
"K  c #443933",
"L  c #4D3B34",
"P  c #413D3C",
"I  c #523A35",
"U  c #553D39",
"Y  c #3D461B",
"T  c #3E4323",
"R  c #3E412B",
"E  c #3D4134",
"W  c #45570D",
"Q  c #4A5D0D",
"!  c #414B13",
"~  c #434D1D",
"^  c #455415",
"/  c #485715",
"(  c #4C5C14",
")  c #46531C",
"_  c #4A561B",
"`  c #4D5C1B",
"'  c #515D1C",
"]  c #4B6106",
"[  c #4D620C",
"{  c #52650C",
"}  c #4E6212",
"|  c #4E611B",
" . c #526513",
".. c #546913",
"X. c #53621D",
"o. c #434C24",
"O. c #424529",
"+. c #454C2A",
"@. c #475322",
"#. c #4A5524",
"$. c #4D5B23",
"%. c #4B552B",
"&. c #4E5B2B",
"*. c #515D23",
"=. c #525E2B",
"-. c #424434",
";. c #464B34",
":. c #43423B",
">. c #49473A",
",. c #4B4A3C",
"<. c #54453F",
"1. c #5A423D",
"2. c #4C5334",
"3. c #4E553A",
"4. c #535D34",
"5. c #53593B",
"6. c #536323",
"7. c #57642A",
"8. c #59633A",
"9. c #28054B",
"0. c #320C43",
"q. c #360D4F",
"w. c #2E0551",
"e. c #373B43",
"r. c #3B3C43",
"t. c #413E43",
"y. c #413F4A",
"u. c #530F76",
"i. c #3D434B",
"p. c #3D4A52",
"a. c #444344",
"s. c #494644",
"d. c #4B4B45",
"f. c #45444C",
"g. c #49464C",
"h. c #464948",
"j. c #4C4A4C",
"k. c #524642",
"l. c #5D4641",
"z. c #544C45",
"x. c #5B4A44",
"c. c #514D4D",
"v. c #4E5143",
"b. c #4E534A",
"n. c #535344",
"m. c #52524D",
"M. c #555A48",
"N. c #5A5C4B",
"B. c #464651",
"V. c #494753",
"C. c #454951",
"Z. c #4C4C53",
"A. c #4D4D59",
"S. c #514E52",
"D. c #504F5B",
"F. c #4E5153",
"G. c #46535B",
"H. c #4D525B",
"J. c #545354",
"K. c #585656",
"L. c #565B53",
"P. c #5A5A56",
"I. c #53535D",
"U. c #59565B",
"Y. c #55595B",
"T. c #5C5B5C",
"R. c #604742",
"E. c #634A44",
"W. c #694C47",
"Q. c #73514B",
"!. c #72554E",
"~. c #605957",
"^. c #605E5E",
"/. c #775B53",
"(. c #5B6248",
"). c #5D6156",
"_. c #656E55",
"`. c #656959",
"'. c #7C6359",
"]. c #4C5560",
"[. c #4C5962",
"{. c #545562",
"}. c #555A64",
"|. c #585865",
" X c #5A5C65",
".X c #555769",
"XX c #5C5E6A",
"oX c #615E60",
"OX c #605F6C",
"+X c #5D6165",
"@X c #55616A",
"#X c #5E616B",
"$X c #636263",
"%X c #61626C",
"&X c #747A65",
"*X c #636271",
"=X c #7A7B79",
"-X c #855652",
";X c #86665C",
":X c #A1615E",
">X c #8D6B62",
",X c #916E65",
"<X c #85756B",
"1X c #97756B",
"2X c #897B72",
"3X c #A9776E",
"4X c #7B856F",
"5X c #8F8178",
"6X c #91837A",
"7X c #A98478",
"8X c #B6887D",
"9X c #B68D81",
"0X c #B88F82",
"qX c #BD9788",
"wX c #B8A594",
"eX c #BFB0A2",
"rX c #C5998B",
"tX c #CC9E90",
"yX c #C9A796",
"uX c #D6A99A",
"iX c #C8B7A7",
"pX c #E3B4A4",
"aX c #CFC0B2",
"sX c #D7C6B7",
/* pixels */
"K.J.d.%...4. X#X#X#XXXXXXX X|.{.A.g.P s.Z.V.A.H.H.{. XXX X XXX X|.Y.d.D c B a.j.j.Z.J.J.J.K.U.^.oXT.oX$XoXoX^.T.S.C c V c.K.J.J.",
"K.m.,.` [ $.T.#XXXXXXXXXXXXX X|.I.C.P r.f.V.A.C.B.f.V.Z.V.V.f.f.a.o.o.E b b a.j.j.j.J.J.J.J.K.T.T.^.^.^.oXT.T.T.m.A c C >.m.J.K.",
"J.m.;.` Q $.T.$X XXX#XXXXXXXXX X{.Z.D B A D D D D B k k k B B B C ) / ` ( ~ :.g.g.j.S.S.S.J.J.K.U.T.^.T.oX^.^.T.J.D b T -.J.m.J.",
"c.n.%.` @.d. X#XXXXX#XXXXXXXXX XY.b.~ O.V V V P t.D t.a.g.Z.Z.S.Y.N.(.$.Q ^ :.g.j.j.j.j.Z.S.J.J.K.U.T.T.T.T.T.T.K.:.~ W +.d.Z.c.",
"d.3.X.[ ) h.|.#X#X#XXXXXXXXX X X XJ.%.o.:.j.A.I.I.D.m Z Z Z Z Z Z Z B z 2 3 ;.d.g.j.j.j.j.S.S.S.S.K.U.T.U.T.T.U.P.2./ ^ -.s.j.c.",
"h.>.%._ / ;.Y.%X#X#XXXXXXXXXi.f f d p < p d f f f d f N Z M M Z m M M m m * < p p p p p d d d d d t.J.U.U.U.U.U.P.7.[ Q O.:.h.h.",
"g.:.b o.W %.K.%X#X#XXXXXXX|.d M M M Z Z m u Z Z m 9 d p 9 8 9 p d d d p p * m Z Z M d m Z m Z M m 9 S.J.K.K.K.K.P.4.Q ^ -.P g.h.",
"a.-.T ) ) ,.Y.#X#X#XXXXXXX Xd f d d f f d 8 n f d 8 8 * @ . @ * d d d * @ @ d d f f u d d f d d n u j.c.K.K.K.J.K.v.o.o.b P a.h.",
"V T W ^ +.h.Y.#XXX%XXXXXXX|.9 d d d d d d & 9 * 8 @ $ % = = = % * * 9 % - # * 9 d d 9 i d d f d f 9 g.s.s.:.a.P >.;.Y W ~ O.C C ",
"V -.o./ Q @.L.%X+XXXXXXXXX|.9 d d d d d d @ @ .       ; j F j : X . X : j ; @ * d d 9 i d d d d f 9 :.A b ~ O.T / ( ` _ _ ( O.C ",
"a.s.>.*.[ $.T.%X+X X+XXXXX|.9 d d d d 9 9 # - - - - - j I I I j - - - j J h - % 9 9 9 d d d d d d 9 T T ) { } ( ] ] X.>.2.=.,.s.",
"|.U.c.3.X.&. X%X%X XXX XXX|.8 i d f d * . - j F F F F I 1.l.1.I F F F I 1.L j ; O 7 0 & d d d d d * _ ( $.| $.` [ [ 7.Y.#X+X X X",
"%XOXY.j.%.#.m.L.L.M.b.b.b.4.& 9 8 8 8 $ O ; g F I U U 1.R.E.E.1.U U U 1.R.1.I l : % + o & 9 8 9 9 * ( $.h.F.J.N.6. .4.XX%X%X%X#X",
"+X#X XS.,.#._ ( | } ` | } } , f m f f t 6 6 @ h 1.R.R.R.E.E.E.R.R.R.R.R.E.R.l.1.I a + + y m m m d B ~ ;.g.{.{.U.6.[ 7. X%X%X%X#X",
"XX#X#XY.5.( ` 6.X.Q (  ...X.3 f d f f t 4 w 1 G l.E.E.E.E.E.E.E.E.E.E.E.E.E.E.E.l.l ; % w 9 d d d S C D h.I.I.K.%.' 5. X#X+X X X",
"#XXX#X}.d.@.3.P.L.5.n.N.(.Y.D f d d d 0 . a I l.E.E.E.E.E.E.E.E.E.E.E.E.E.E.E.E.l.I j - O * d f d S S r.f.H.H.Z.D C S.{.#X+X XXX",
"#X+XXX}.3.~ h.XX#X%X#X%X#X*Xf.d d d d 7   g 1.E.E.E.E.l.1.1.1.l.R.l.1.l.E.E.E.E.R.U H g - % 9 d i A A D B.A.H.V.A B Z.U.#X#XXX X",
"#XXX#XY.;.Y f.XX#X#X#X%X#X%Xf.d d d d 7   g 1.E.E.E.E.1.I J J 1.R.1.I 1.E.E.E.E.R.U J G j - @ 9 9 S P t.f.V.A.A.A k g.Y. XXX#X X",
"XXXX#XI.D k f.XX#X#X+X#X#X#Xf.f d 9 * * - j U l.E.E.E.!./.E.I U E.!./.!.E.E.E.E.R.1.I F 1 % $ 9 9 S a.t.a.g.g.V.A B f.Y.#X#XXXXX",
"#X XXXD.B h f. X#X#X#X#X#X#Xf.d i * X ; j H J U R.E.W.,X8X;XU 1.W.1X9X,XW.E.E.E.E.R.1.g X * i d 9 S -.:.r.i.f.y.Z B V.Y.#XXXXX%X",
"XX XXXA.C T d.}. X#X%X#X#X#Xf.9 d 9 $ ; 1 j H U E./.,X7XrX7X;X!.W.1XrX7X,X/.E.E.E.E.1.a   $ i d 9 E _ +.r.r.i.r.A V V.Y. XXXXXXX",
"XX XXXA.-.#.j. X#XXX#X#X+XXXm & 8 & & @ . : G U E.,XqXrXtXrXrX1X!.1XtXtX0X>XW.E.E.E.1.g . @ & 8 8 z { ` E e.r.S B D V.Y.{.}.|. X",
".X XXXJ.@.` d.I.{.{.}.T.Y.I.u m m m m 0   : L 1.E.1XrX7X;X7XyX9X1X9XyX7X;X>X>X!.1.l.l.H g a p m m > ..` -.Z A Z A D V.I.I.{.{.I.",
"I.{.{.m.$.( @.;.;.+.$.*.%.E 9 d d d d 0 . g 1.E.W.1XrX'.j '.uXuXtXuXuX'.h /.9X;XU 1.R.l.L 1 @ 9 f > X.*.o.D D S t.D V.A.H.I.{.I.",
"I.H.{.M.| ] } ` ` / [ ..` ~ u d d u * w : G l.Q.-X3XrX/.g '.uXpXuXpXuX/.g '.rX3XQ.W.1.J h ; $ 9 f p ).P.P.|.|.|.Y.P a.A.H.H.I.I.",
"I.I.].Z.#.W #.n.M.M.8.8.m.b.9 d d 8 X : G U R.-X:X8XrX;XG ;XuXpXpXpXuX;XG ;XrX3X:XQ.I 1 @ * d d f d %X%X*X*X%X%X XP D Z.Z.A.I.I.",
"H.I.H.B.-.W @.m.I.I.{.Y.T.J.9 d d 9 $ ; g G 1.W.-X3XrX7X>X8XuXpXpXpXuX7X>X7XrX3X-XW.L :   * d d d u XX XXXXX XXX Xa.C g.A.A.I.I.",
"H.A.A.d.O.^ #.M.J.K.J.M.7.&.9 d d d i 0 . 1 J U l.>XrXyXuXuXpXpXpXpXpXuXuXyXrX>X1.U J : . * d d d 9  XXX#X X X X XZ.P t.A.A.A.H.",
"V.Z.g.3.( Q ` &.%.%.+.$.[ [ 8 d d d d w + w g F I !.,X9XuXpXpXpXpXpXpXpXuX9X,X!.I F g % % 9 d d d 9 XXXX%XOXXX X}.I.t.D h.b.Z.b.",
";.-.E $...[ ..] W Q W Q ] Q & & 8 8 8 7 6 q O a J U R.>XrXuXpXpXpXpXpXuXrX>XR.U J 1 O + 8 & 8 8 8 9 XXXX#X#X X).(.L.h.#.` @.,.%.",
"{ ' ' { ..( { [ ..[ Q / X.X.Y m m m m y q r 6 w a F I R./.7XuXuXuXuXuX3X!.R.I F a w 5 4 y m m m d E M.J.m.8.5.7...7.2.` ] Q _ ^ ",
"[ _  .[ } } [ ` 6.` } *.5.n.C f d f d t q 9.r 6 @ g L l : /.rXuXuXuXrX!.: l L g O 6 9.6 y f d f d Y [ $.$.[ Q } ] ..( [ / ~ ) / ",
"7.3.4.=.4.7.7.M.N.N.8.(.J.K.D f d d d t q r 6 7 ; C M.K g '.qXyXyXyXqX/.g K M.b ; 7 6 4 y d d f d o...=.=.} Q ( } { [ ( %.:.;.4.",
"_.$X$X).T.).).P.P.K.N.K.J.m.A d d d d t q q O # h d._.n.K '.wXyXyXyXwX'.K n._.,.h - O + y d d d 9 g.).P.Y.N.7.} Q [ X.7.P.T.^.`.",
"$X$X XT.T.T.U.P.U.J.J.J.J.j.A d d d i t q q . - j n._.M.<.<XiXiXiXiXwX'.>.N._.z.j # O + y d d d i A.#XXX X+XM.( ]  .8._.`.^.T.T.",
" XT.T.T.T.U.U.P.K.J.J.m.m.c.B d d d d t q e O - j n._.).z.6XaXsXsXiXwX<Xk.)._.z.h - O + t d d d 9 A.XX#X#X+X8.} ..7.).^.oXoXT.^.",
"^.T.T. XT.T.U.P.K.J.J.m.m.S.B 9 d d i 0 + 7 ; 1 l M.&X`.z.6XaXsXsXsXiX2Xz.`.&Xn.l 1 ; % % 9 9 d 9 A.XX X X X7.{ } 3.T.^.oXT.oXT.",
"T.T.T.T.T.T.U.K.J.J.J.J.J.Z.A 9 i i 9 7   - h j l N.4X`.z.6XiXsXsXsXaX5Xz.`.4XM.l j h #   & d i 8 Z.#XXX X X(.` _ n.T.T.^.T. XT.",
" XT.T.T.P.T.K.J.K.J.c.c.c.d.u 8 8 8 8 @   ; v v l n.&X`.z.2XiXaXsXsXaX5Xz.`.&Xn.l G v ;   @ 8 8 8 m #X X+X XF.@.W 2.P.T.T.T.U.T.",
"T.T.T.T.T.U.J.J.J.J.S.c.j.s.u m m f m w X a K K l ,._.N.z.<XwXiXsXsXaX5Xz.N._.,.l K K a @ 9 m m m d XXXXXX XM.` ^ ,.T.T.T.T.T.P.",
"U.U.T.T.U.U.J.m.c.S.j.d.j.s.9 f d 9 $ ; a V L l ; c >.,.k.2XiXiXiXaXiX5Xk.,.>.h ; l L v a ; $ 9 f d  X XXX).6.( _ >.T.T.T.T.T.P.",
"d.d.j.d.d.S.J.J.S.Z.j.g.g.s.9 d d *   a k.x.x.l X - h K <.2XiXeXwXeXiX2X<.K h - X l x.x.<.a   * f p  X X X).6.Q _ :.K.P.N.J.S.J.",
"B b b b C :.Z.d.h.d.g.a.a.t.9 d d * . L 1X7X1Xx.# - h l K ~.=X=X=X=X=XP.K l h - # x.1X7X1XK   * d u XX X}.J.3.#.( o.2.$.@.C V v ",
"3 ! ^ ! T b -.K O.-.+.O.c c 9 d d * @ x.9XrX9X!.# ; l v V a.G.G.G.G.G.a.V v l # # !.0XrX9Xk.X 9 d 9 A.b.4.;.:.+.X.( ' [ W x k c ",
":.;._ / ` ^ ^ _ ` $./ ~ c c * d d 9 * k l.x.1.h X p r.g.Z.H.[.[.[.[.[.H.Z.g.r.p X j 1.x.l.k * 9 d 8 -.@.[ | @._ Q { 6.` ) R B A ",
"Z.I.Y.M.=.[ ( 5.N.L.M.M.J.Z.8 d d i 9 0 . O O     f p.[.@X@X@X@X@X@X@X@X@X[.p.f     O   O * d d 9 * _ %.X.=.v.2.}  .%.;.h.h.f.V.",
"I.I.Y.I.2.( *.P. X X X XXX|.& & $ $ & $ 4 r 5 4   f p.[.@X@X@X[.[.}.@X@X@X[.p.f   4 r + o $ & & & * M.L.T. X X4.} ..*.d.Z.Z.D.I.",
"{.Y.T.J.%.Q ( N.|.{.I.I.{.{.e.m m m m t e w.9.5 O f p.[.@X@X@XG.p.G.}.@X@X[.p.f O 5 w.6 y m m m d C.*X%X*XXX X=.] ] X.v.A.D.I.I.",
"|. XY.d.o.( =.L.Y.Y.Y.{.|.{.r.d d d d t e w.9.5 O f p.[.@X}.G.e.f e.G.}.@X[.p.f O q w.6 t d d d 9 B.XXXX.X.XY.4.( ..*.d.A.{.I.Y.",
"}.|.|.3./ o.b.{.Y.Y.{.{.|. Xr.d d d d t e w.9.5 O f p.].}.G.i.m % n i.G.}.].p.f O 5 w.6 y d d d 9 f. X X}.}.}.J.&.X.6.d.Z.A.I.I.",
"I.|.{.,.^ W v.H.I.I.{.{.{.{.r.d d d d t e w.9.5 O f p.G.G.e.d 0.q.y d e.G.G.p.f O 5 w.6 t d d d 9 f.+X X X X X{.2.[  .3.g.V.A.I.",
"A.I.K.2.) ) b.{.I.I.{.{.{.|.r.d d d i t e w.9.q . d i.C.i.f O q.u.0.O f i.p.i.p O 5 w.6 t i d i 9 B.XXXXXX X XH.,.$.$.h.B.V.V.Z.",
"I.I.n.6.@.;.F.{.I.{.{.{.{. Xi.9 9 d d t e w.9.q . ; B V B ; O q.u.0.O < B V B ; O q 9.6 t 9 i d 9 C. X X X X XF.2.o.:.f.f.f.Z.A.",
"Z.J.4.[ W $.J.{.I.{.{.{.A.r.m & & 8 8 0 e w.9.e # 1 j j g - . 0.u.0.. - g j j : % e 9.4 8 & 8 8 & Z r. XXX X Xm.` _ D y.B.V.V.A.",
"Z.m.=.[ W %.F.H.I.{.{.{.m f m m f m m d 8 4 O ; v K L G g - . + 7 + . - g G L K v ; O @ d m m m m m d Z XXXX XI.2.+.D a.B.B.V.A.",
"A.g.;.` ` #.Z.A.A.A.I.A.f f f d d d d d 8 8 @ < K -.-.v g # X * d * . - g v -.-.K < . @ f d d d d d m N XXXXXX Xg.D A r.f.B.V.A.",
"g.2.@.| ..( >.a.a.r.t.r.p u d d d d 9 9 $ $ @ % a a a < * # @ $ * $ @ # ; < s a a % @ @ 9 9 9 u d d d M XX XXX XZ.A B e.B.B.f.V.",
"E ` Q ....Q +.P P C D A u d d d d u 9 * $ $ @ $ @ @ @ @ @ @ @ @ @ @ @ @ @ @ @ @ @ @ @ @ $ * 9 d d d d m  X X X}.Z.D D r.r.r.e.D ",
"C +.' 6.6.%.v.j.g.d.d.a.p d d u d d u & * 9 9 9 9 9 9 9 9 9 9 * * 9 9 9 9 * 9 9 * 9 * & $ 9 u d i d d f d.g.Z.f.-.-.P A B c c V ",
"s.h.3.' [ &.N.T. X X XY.d d u 9 9 i 9 & & * * 9 * 9 * 9 9 * * 8 * * 8 9 * 8 9 * 9 9 9 & $ 9 d i i 9 d < o.o.+.~ ^ T C A V V D :.",
"K.T.(. .Q ` (.%XXXXXOXXXr.e.Z Z Z m s M Z Z A e.e.e.e.e.S S S e.e.S B 2 2 2 2 3 , 2 2 , 2 2 s d s 3 3 Y Q Q } Q ~ R v V :.s.d.m.",
"T.T.M.X.[ %.).%XXX X X XXXXX|.{.{.A.D Z.I.H.Y.XXXXXX%X%X%X%X#XXXXXXX(. .Q ~ -.*.( #.2.3.>.+.-.:.;.*.=.*.` 6.| ( @._ O.P J.U.U.U.",
"P.K.n.` [ 4. X%X#XXXXX|. X|.I.A.A.Z.r.g.A.H.H.{.|.XX X%X#X XXXXX#XXXL.X./ o.s.L.M.b.m.J.m.m.J.m.J.U.P.(.N.P.(.(.n.O.v P J.T.P.L.",
"U.P.m.' { 7.+X%XOXXXXX|.XX X{.A.A.Z.:.g.A.A.A.H.{.XXXX#X#X#X#X XXXXX{.,.O.C h.c.S.I.J.K.T.$X$X$X$X$X$X$X`.$X$XoXJ.D c D S.P.K.U."
};
