/* XPM */
static char *a933456d26014b3bdf9bdb4fa3f2af3bfRn8RKtEhLKhqsp4[] = {
/* columns rows colors chars-per-pixel */
"64 64 233 2 ",
"   c #0B050C",
".  c #0F0D0C",
"X  c #120D0D",
"o  c #14100E",
"O  c #18120F",
"+  c #0F0719",
"@  c #120C12",
"#  c #11051D",
"$  c #150B1A",
"%  c #141415",
"&  c #1B1514",
"*  c #15151C",
"=  c #1C1619",
"-  c #16181D",
";  c #1A1A1D",
":  c #211916",
">  c #251A1B",
",  c #231C1B",
"<  c #1F221E",
"1  c #2B350E",
"2  c #2B221E",
"3  c #26291A",
"4  c #30221E",
"5  c #2D3415",
"6  c #333A1B",
"7  c #160727",
"8  c #160A25",
"9  c #1A0A25",
"0  c #1A072D",
"q  c #190A2B",
"w  c #1B1726",
"e  c #171820",
"r  c #1C1D23",
"t  c #1E0833",
"y  c #251A27",
"u  c #210D34",
"i  c #25073B",
"p  c #261637",
"a  c #2B1133",
"s  c #231A34",
"d  c #291A3C",
"f  c #1F2026",
"g  c #222225",
"h  c #2B2823",
"j  c #22242B",
"k  c #25292D",
"l  c #342522",
"z  c #392726",
"x  c #352926",
"c  c #392A26",
"v  c #332E2C",
"b  c #3B2D2A",
"n  c #2D3422",
"m  c #35322C",
"M  c #3C322C",
"N  c #3B3B2B",
"B  c #272A30",
"V  c #2B2D33",
"C  c #2E3136",
"Z  c #2F3339",
"A  c #353333",
"S  c #3A3433",
"D  c #3C3A34",
"F  c #34343A",
"G  c #3A363B",
"H  c #3C3B3C",
"J  c #43322D",
"K  c #47362F",
"L  c #422D32",
"P  c #433532",
"I  c #4D3632",
"U  c #4A3A37",
"Y  c #413D3C",
"T  c #523B36",
"R  c #553E3A",
"E  c #583F3A",
"W  c #3D461B",
"Q  c #3E4323",
"!  c #3E412B",
"~  c #3E4135",
"^  c #45570D",
"/  c #4A5D0D",
"(  c #414B13",
")  c #434D1D",
"_  c #455415",
"`  c #485715",
"'  c #4C5C14",
"]  c #46531C",
"[  c #4A561B",
"{  c #4D5C1B",
"}  c #515D1C",
"|  c #4B6106",
" . c #4D620C",
".. c #52650C",
"X. c #4E6212",
"o. c #4E611B",
"O. c #526513",
"+. c #546913",
"@. c #53621D",
"#. c #434C24",
"$. c #424529",
"%. c #454C2A",
"&. c #475322",
"*. c #4A5524",
"=. c #4D5B23",
"-. c #4B552B",
";. c #4E5B2B",
":. c #515D23",
">. c #525E2B",
",. c #424434",
"<. c #464B34",
"1. c #43423B",
"2. c #4C463B",
"3. c #484938",
"4. c #4A4B3C",
"5. c #55433C",
"6. c #5A423D",
"7. c #4B5334",
"8. c #4E553A",
"9. c #535D34",
"0. c #53593B",
"q. c #60433F",
"w. c #536323",
"e. c #57642A",
"r. c #59633A",
"t. c #270744",
"y. c #26044A",
"u. c #2A054D",
"i. c #300E48",
"p. c #2E0552",
"a. c #340659",
"s. c #3B3D46",
"d. c #3C3C44",
"f. c #3D0662",
"g. c #413E42",
"h. c #413F4A",
"j. c #3E434B",
"k. c #3E4A52",
"l. c #454344",
"z. c #494644",
"x. c #4B4B46",
"c. c #45444C",
"v. c #49464C",
"b. c #454949",
"n. c #4C4A4C",
"m. c #5E4641",
"M. c #544943",
"N. c #514D4D",
"B. c #4E5143",
"V. c #4E534A",
"C. c #525343",
"Z. c #535B44",
"A. c #52524D",
"S. c #565B4C",
"D. c #5A5C4B",
"F. c #464651",
"G. c #444B53",
"H. c #4C4C53",
"J. c #484854",
"K. c #4D4D59",
"L. c #514E52",
"P. c #504F5B",
"I. c #4B5156",
"U. c #4D525C",
"Y. c #545354",
"T. c #585656",
"R. c #565B53",
"E. c #5A5B56",
"W. c #53535D",
"Q. c #59565B",
"!. c #55595B",
"~. c #5C5B5C",
"^. c #604742",
"/. c #634A45",
"(. c #6A4D47",
"). c #6C544C",
"_. c #74544E",
"`. c #655E57",
"'. c #605E5E",
"]. c #7A5C54",
"[. c #5B6248",
"{. c #5D6156",
"}. c #656C54",
"|. c #646858",
" X c #7A665B",
".X c #4B5660",
"XX c #4D5961",
"oX c #545562",
"OX c #555B64",
"+X c #585865",
"@X c #5A5C65",
"#X c #555769",
"$X c #5C5E6A",
"%X c #615E60",
"&X c #605F6C",
"*X c #5D6165",
"=X c #556169",
"-X c #5E616B",
";X c #636263",
":X c #61626C",
">X c #737062",
",X c #636271",
"<X c #985E5B",
"1X c #83645C",
"2X c #88685F",
"3X c #9D625E",
"4X c #8A6C62",
"5X c #86756B",
"6X c #99756B",
"7X c #947A70",
"8X c #A47D72",
"9X c #AB7B72",
"0X c #7A846E",
"qX c #928378",
"wX c #AB8478",
"eX c #96908A",
"rX c #BC9285",
"tX c #BF988A",
"yX c #B8A08E",
"uX c #BBA795",
"iX c #C4998B",
"pX c #CA9C8E",
"aX c #CC9F91",
"sX c #C9A695",
"dX c #D2A495",
"fX c #D6AA9B",
"gX c #DAAC9D",
"hX c #C4B19D",
"jX c #C8B6A3",
"kX c #CDBBAC",
"lX c #E3B4A4",
"zX c #D1C0AE",
"xX c #D7C7B8",
/* pixels */
"T.Y.x.-.+.9.@X-X-X-X$X$X$X@X+XoXK.v.Y z.J.G.K.I.U.oX@X$X@X@X$X@X+X!.x.H m A l.n.n.H.Y.Y.Y.T.Q.'.%X~.%X;X%X%X'.~.L.D m S N.T.Y.Y.",
"T.A.4.{  .=.~.-X$X$X$X$X$X$X@X+XW.F.Y d.c.J.K.F.F.c.J.H.J.J.c.c.l.#.#.~ N N l.n.n.H.Y.Y.Y.Y.T.~.~.'.'.'.%X~.~.~.A.G m D 2.A.Y.T.",
"Y.A.3.{ / =.~.;X@X$X-X$X$X$X$X@XoXJ.H A G H H H H A v v v A A A D ] ` { ' ) 1.v.v.n.L.L.L.Y.Y.T.Q.~.'.~.%X'.'.~.Y.H N Q ,.Y.A.Y.",
"N.C.-.{ &.x.@X-X$X$X-X$X$X$X$X@X!.V.) $.S S S Y g.H g.l.v.H.H.L.!.D.[.=./ _ 1.v.n.n.n.n.H.L.Y.Y.T.Q.~.~.~.~.~.~.T.1.) ^ %.x.H.N.",
"x.8.@. .] b.+X-X-X-X$X$X$X$X@X@X@XY.-.#.1.n.K.W.W.P.V F F F F F F F A n 5 6 3.x.v.n.n.n.n.L.L.L.L.T.Q.~.Q.~.~.Q.E.8.` _ ,.z.n.N.",
"b.4.-.[ ` <.!.:X-X-X$X$X$X$Xj.k k j g 3 g j k k k j k Z F C C F V C C V B - 2 g g g g g j j j j j g.Y.Q.Q.Q.Q.Q.E.e. ./ $.1.b.b.",
"v.1.N #.^ -.T.:X-X-X$X$X$X+Xj C C C F F V f F F V r j j j f j j j j j j k e V F F C j V F V F C V r L.Y.T.T.T.T.E.9.' _ ,.Y v.z.",
"l.,.Q ] ] 4.!.-X-X-X$X$X$X@Xj k j j k k j e B k j e e r % % % % % r j r % % j j k k f j j k j j B f n.N.T.T.T.Y.T.B.#.#.! Y l.z.",
"S Q ^ _ %.b.!.-X$X:X$X$X$X+Xr j j j j j f - j f f - - = o X X X o - f - o % r j j j r f j j k j k r v.z.z.1.l.Y 2.3.W ^ ) $.D D ",
"S ,.#.` / &.R.:X*X$X$X$X$X+Xr j j j j r % % % % % % . , 4 l l l 4 > & > 2 , % r j j r f j j j j k r 1.G N ) $.Q ` ' { [ [ ' $.D ",
"l.z.2.:. .=.~.:X*X@X*X$X$X+Xr j j j g - o X X X X o O 4 K I I I K 4 & l J > X - j j r j j j j j j r Q Q ] ..X.' | | @.3.7.>.4.z.",
"+XQ.N.8.@.;.@X:X:X@X$X@X$X+Xe f j r % , 4 l l l l l c I 6.6.6.6.6.J c K T 2 X * w w w - j j j j j ; [ ' =.o.=.{  . .e.!.-X*X@X@X",
":X&X!.n.-.*.A.R.R.Z.V.V.V.8.- r e % . : c J I I I T E 6././././.^.6.T 6.m.b & $ 8 q q $ e r e r r ; ' =.z.I.Y.S.w.O.9.@X:X:X:X:X",
"*X-X@XL.4.*.[ ' o.X.{ o.X.X.1 k B j r , : l I E 6.6.m.^./././././.m.6.m.^.R J y 8 t y.8 d V V B j A ) <.b.oXoXQ.w. .e.@X:X:X:X-X",
"$X-X-X!.0.' { w.@./ ' O.+.@.6 k j j j w & l T 6././././././././././././././.6.l X 7 t.8 d j j j j H D H b.W.W.T.-.} 0.@X-X*X@X@X",
"-X$X-XOXx.&.8.E.R.0.C.D.[.!.H k j r % > c I 6.^././././././././././././././.6.l X 7 t.8 p j j k j H H d.c.U.U.H.H D L.oX-X*X@X$X",
"-X*X$XOX8.) b.$X-X:X-X:X:X,Xc.j j ; . > I 6./././././././.^.m.m.m.^././././.6.l . 7 t.q p j k j f G G H F.K.U.J.G A H.Q.-X-X$X@X",
"-X$X-X!.3.W c.$X-X-X-X:X-X:Xc.j j ; . > I 6./././././././.6.T T T 6././././.6.2   7 y.q d j k j r H Y g.c.J.K.K.G v v.!.@X$X-X@X",
"$X$X-XW.H v c.$X-X-X*X-X-X-Xc.j r ; & 4 I 6.m.^./././././././.E I E ^.^.m.^.6.l @ 7 i 8 p j j j r H l.g.l.v.b.J.G A c.!.-X-X$X$X",
"-X@X$XP.A v c.@X-X-X-X-X:X-Xc.e % , l J I T 6.m././././.(.1X8X].T E ^.6.T 6.m.T l = # # p j j j r H ,.1.d.j.c.h.F A J.!.-X$X$X:X",
"$X@X$XK.D Q x.OX@X-X:X-X-X-Xc.; % : z J K T E 6./././.).].8XiX6X)./././././.^.T b : # + p r f j r ~ [ %.d.s.j.s.G S J.!.@X$X$X$X",
"$X@X$XK.,.*.n.@X-X$X-X-X*X$XV - * % & 4 J T 6.^././.(.2XwXiXaXrXwX1X).4X8X1Xm.c & 9 t 8 w e e e e n ..{ ~ d.d.H A H J.!.oXOX@X@X",
"#X@X$XY.&.{ x.W.oXoXOX~.!.W.f V B g X > J E ^././.).].8XpXrXwXrXdXwX1X4X8X4X].J @ 9 i 8 i.C V Z V < +.{ ,.F G F G H J.W.W.oXoXW.",
"W.oXoXA.=.' &.<.3.%.=.:.-.~ r j j ; . > I 6.^./.(.2XwXiXpX4X5.4XdXpXwX].T 1X8X_.b > # # d j j j k < @.:.#.G G H g.H J.K.U.W.oXW.",
"W.U.oXA.o./ X.{ { `  .+.{ ) r j r ; & l T 6./.(._.6XpXdXpX].2  XfXgXpX).2 ].rX1Xb > # # p j j j k g {.E.E.+X+X+X!.Y c.K.I.U.W.W.",
"W.W..XH.*.^ *.C.Z.Z.r.r.S.V.r e % , l J T 6./._.3X9XpXdXpX].c 1XgXlXdX].c 1XrX(.& 9 i 8 d j j j k j :X:X,X,X:X:X@XY H J.H.K.W.W.",
"U.W.U.F.,.^ &.A.W.W.oX!.~.Y.r e % , l J T E ^._.<X9XpXdXpX6X(.8XgXlXgX6X(.6XrXm.  7 u.q p j j j j f $X@X$X$X@X$X@Xl.D v.K.K.W.W.",
"U.K.K.x.$._ *.S.Y.T.Y.A.e.;.r j r - & l T E 6.q.(.6XpXdXdXiXrXdXlXlXlXdXrXiXrXm.  0 u.q p j j j j r @X$X-X@X@X@XOXH.Y g.K.K.K.U.",
"J.H.v.7.' / { ;.-.-.%.=. . .e j j e % > b I T E E ].wXrXdXgXlXlXlXlXlXlXgXrX4XU 7 t u.8 p j j j j r $X$X:X&X$X@XOXW.g.H z.V.H.V.",
"<.,.~ =.+. .+. .^ / ^ / | / - - e - % % & l T E E ^._.6XpXgXlXlXlXlXlXgXpX].x a p.t.u.8 w - e e e r $X$X-X-X@X{.[.R.z.*.{ &.4.-.",
"..} } ..+.' .. .+. ./ ' @.@.W B V V B y @ y L L L I E ].wXiXgXgXgXgXgXrX4XU 7 t.u.y.u.q d B V B j ~ Z.Y.S.r.0.e.+.e.7.{  ./ [ _ ",
" .[ O. .X.X. .{ w.{ X.>.0.C.D k j k j s q t.i.a = l T ^._.8XdXdXdXdXpX Xb d u.u.u.y.u.q p k j k j W  .=.=. ./ X. .+.'  .` ) ] ` ",
"e.8.9.e.9.e.e.Z.S.D.r.[.Y.T.H k j j j s t t.t 9 = b M.5.5.4XpXsXsXsXtX)., u i.p.u.y.u.q d j j k j #.+.>.>.X./ ' X.+. .' -.1.3.9.",
"}.;X;X{.~.{.{.E.E.T.Y.T.Y.A.G j j j j s t i $ = l 2.}.C.U  XyXsXsXsXyX Xx > 9 i u.y.u.q d j j j r b.{.E.!.D.e.X./  .@.e.E.~.'.|.",
";X;X@X~.~.~.Q.E.Q.Y.Y.Y.Y.N.G j j j f s t t X : c C.}.D.U 5XuXjXjXhXyX Xb : @ i u.y.u.q d j j j f K.-X$X@X*XZ.' | O.r.}.|.'.~.~.",
"@X~.~.~.~.Q.Q.E.T.Y.Y.A.A.N.A j j j j s u u X : c C.}.D.M.qXkXxXxXjXyX Xb : @ i p.y.p.q p j j j r K.$X-X-X*Xr.X.+.e.{.'.%X%X~.'.",
"'.~.~.@X~.~.Q.E.T.Y.Y.A.A.L.A r j j f s 9 9 & > b C.>X|.M.qXzXxXxXzXuX XM h , a t.i p.q p j r j r K.$X@X@X*Xe... .8.~.'.%X~.%X~.",
"~.~.~.~.~.~.Q.T.Y.Y.Y.Y.Y.H.G r f f r w @ = l x b S.0X|.M.qXzXxXxXxXkX5XP S S y $ t u.q p r j f e H.-X$X@X@X[.{ [ C.~.~.'.~.@X~.",
"@X~.~.~.E.~.T.Y.T.Y.N.N.N.x.f e e e e % . , b U 2.D.>X`.M.7XjXxXxXxXzX5XP U U 2 X q u.8 w e e e e B -X@X*X@XL.&.^ 8.E.~.~.~.Q.~.",
"~.~.~.~.~.Q.Y.Y.Y.Y.L.N.n.z.f B B B V r . > P C.}.{.M.M.M.5XuXkXxXxXzX5XP U U 2 X q u.q i.B V V V j $X$X$X@XA.{ _ 4.~.~.~.~.~.E.",
"Q.Q.~.~.Q.Q.Y.A.N.L.n.x.n.z.r k j f e r , v U D.}.D.U U M.5XhXkXzXxXkX5XJ J P x > w i 8 d j j k k j @X@X$X{.w.' [ 2.~.~.~.~.~.E.",
"x.x.n.x.x.L.Y.Y.L.H.n.v.v.z.r j j e o > S U 2.S.}.C.M P M.qXkXkXjXkXkX5XJ b b S S y $ $ s j j k k g @X@X@X{.w./ [ 1.T.E.S.Y.L.Y.",
"A N N N D 1.H.x.b.x.v.l.l.g.r j j ; . M  X4X1X X}.C.M M U >XeXeXeXeXeX`.b b J /.].M @ $ s j j j j f $X@XOXY.8.*.' ) 7.=.&.D S m ",
"6 ( _ ( Q N ,.P $.,.%.$.m m r j j ; X m.rXaXtXqX}.C.M b M z.OXOXOXOX!.l.b b P 1XwX5.@ $ p j j j j r K.V.9.<.1.%.@.' }  .^ N v m ",
"1.<.[ ` { _ _ [ { =.` ) m m ; j j r % U  X4X1X).3.~ H H H c.U..X.X.XU.H.g.v l 6.].L 0 8 s j j j j e ,.&. .o.&.[ / ..w.{ ] ! A G ",
"H.W.!.Z.>. .' 0.S.R.Z.Z.Y.H.e j j f r y , , : = & B j.G.G.U.=X=X=X=X=XOXU.C o & , u y.8 s r j j r ; [ -.@.>.B.7.X.O.-.3.b.b.c.J.",
"W.W.!.!.7.' :.E.@X@X@X@X$X+X- - * * - * $ 9 8 $ . k k.U.XXXX=X=XXXOX=X=XOXC X $ 0 i p.8 $ - - - - ; S.R.~.@X@X9.X.+.>.x.H.H.P.W.",
"oX!.~.Y.-./ ' S.+XoXW.W.oXoXd.B V V V s q y.t.0 @ k k.XX=X=X=XXXI.XX=X=XOXC @ 0 t.y.p.q d V V V j F.,X:X,X$X@X>. .| @.B.K.P.W.W.",
"+X@X!.n.%.' >.R.!.!.!.oX+XoXs.j j j j s u p.y.0 @ k k.XX=XOXXXj.Z j.XX=XXXC @ t p.p.p.q s j j j f F.$X$X#X#X!.9.' +.:.x.K.oXW.!.",
"OX+X+X8.` #.V.oX!.!.oXoX+X@Xs.j j j j s u p.y.0 @ k k.XX=XXXG.C - C G.XXXXC @ i u.y.p.q p j j j r c.@X@XOXOXOXY.;.@.w.x.H.K.W.W.",
"W.+XoX3._ ^ B.U.W.W.oXoXoXoXs.j j j j s u p.y.0 @ k k.XX=XXXG.B % V k.U.I.V @ i a.y.p.q p j j j r c.*X@X@X@X@XoX7. .O.8.v.J.K.W.",
"K.W.T.7.] ] V.oXW.W.oXoXoX+Xs.j j j f s u p.u.t @ k k.U.OXU.G.k % B k.G.k.k @ i f.u.p.8 s f j f r F.$X$X$X@X@XU.3.=.=.x.F.J.J.H.",
"W.W.Z.w.&.3.I.oXW.oXoXoXoX@Xj.r r j f s u p.u.t X 2 G l.v.l.H g o g H d.G g @ i f.p.p.8 s r f j r F.@X@X@X@X@XI.7.#.1.c.c.c.J.K.",
"H.Y.9. .^ =.Y.oXW.oXoXoXK.s.V - - e e w u a.a.i X = x b b b x : X : x x x : @ i f.a.a.8 e - e e - F d.@X$X@X@XA.{ [ H h.F.J.J.K.",
"H.A.>. .^ -.L.U.W.oXoXoXV k B V k B V j e w w $ . > J K K K J 2 X : l b J b h , $ 9 w * j B V V V V j F $X$X@XW.7.%.G l.F.F.v.K.",
"K.v.<.{ { *.H.K.K.K.W.K.k k k j j j j j e B B ; X 2 2.2.2.2.2.h o : l J 2.2.U 2 % r k - k j j j j j V Z $X$X$X@Xv.H G d.c.F.J.K.",
"v.7.&.o.+.' 3.l.l.d.g.d.g f j j j j f r - r r ; % , v m m m v 2 % = > h m m v , % ; r * r j f j j j j C $X@X$X@XH.G A d.F.F.c.J.",
"~ { / +.+./ %.Y Y D H G f j j j j f r ; % % - % % % % - - % % % % % % % & % - % % % % % - r j j j j j V @X@X@XOXJ.H H s.d.d.d.H ",
"D %.} w.w.-.B.n.v.x.x.l.g j j f j j r - ; r r r ; ; r ; r ; ; ; ; ; ; ; ; ; ; ; ; r r ; - f j j f j j k x.v.J.c.,.,.Y G A m m S ",
"z.b.8.}  .;.S.~.@X@X@X!.j f f r r f r - - ; ; ; ; ; ; ; ; ; ; ; ; ; ; ; ; ; ; ; ; ; r e - r j j f r j 3 #.#.%.) _ Q D G S S H 1.",
"T.~.[.O./ { [.:X$X$X&X$Xs.d.F F F V h V F C F F F F F F G G G F F G A 3 5 3 3 5 1 5 5 5 5 3 h h h 6 6 W / / X./ ) ! m S 1.z.N.A.",
"~.~.D.@. .-.{.:X$X@X@X@X$X$X+XoXoXK.H H.W.K.W.@X$X$X:X:X$X-X-X@X@X$X[.X./ ) ,.>.' *.7.8.3.%.,.1.<.:.>.:.{ w.o.' &.[ $.Y Y.Q.Q.Q.",
"E.T.C.{  .9.@X:X-X$X$X+X@X+XW.K.K.H.d.J.K.U.U.oX+X$X@X:X-X@X$X$X-X$XR.@.` #.z.S.A.V.A.Y.A.A.Y.A.Y.Q.E.[.D.E.[.[.C.$.m Y Y.~.E.R.",
"Q.E.A.} ..e.*X:X&X$X$X+X$X@XoXK.K.H.1.v.K.K.K.U.oX$X$X-X-X-X-X@X$X$XoX4.$.D b.N.L.W.Y.T.~.;X;X;X;X;X;X;X|.;X;X%XY.H m H L.E.T.Q."
};
