/* XPM */
static char *c3a579ff949f485bd40163a8785c28eeNeGrUja2nba6yKGI[] = {
/* columns rows colors chars-per-pixel */
"64 64 231 2 ",
"   c #08030B",
".  c #0E0A0D",
"X  c #120E0D",
"o  c #14110E",
"O  c #0E0716",
"+  c #120C13",
"@  c #130A1B",
"#  c #141415",
"$  c #1B1414",
"%  c #1C1915",
"&  c #15151D",
"*  c #1B141A",
"=  c #17181C",
"-  c #1A1A1D",
";  c #231B1B",
":  c #261B1A",
">  c #1F221E",
",  c #2A350E",
"<  c #25261B",
"1  c #2B221E",
"2  c #30221E",
"3  c #2C3315",
"4  c #333A1B",
"5  c #160A25",
"6  c #190A27",
"7  c #1A0A2B",
"8  c #161421",
"9  c #1A1526",
"0  c #171820",
"q  c #1B1C24",
"w  c #1D142A",
"e  c #1E1C2A",
"r  c #1D0735",
"t  c #200C2D",
"y  c #231828",
"u  c #220C34",
"i  c #24073A",
"p  c #240838",
"a  c #251637",
"s  c #241A34",
"d  c #291A3B",
"f  c #1F2026",
"g  c #1F2129",
"h  c #222225",
"j  c #2C2522",
"k  c #22242C",
"l  c #28292B",
"z  c #342521",
"x  c #342A26",
"c  c #392925",
"v  c #332E2C",
"b  c #3C2D29",
"n  c #313028",
"m  c #34312C",
"M  c #3C332C",
"N  c #343829",
"B  c #3D3C2D",
"V  c #272930",
"C  c #2B2D33",
"Z  c #2D3136",
"A  c #2F3138",
"S  c #343334",
"D  c #3A3434",
"F  c #3C3A34",
"G  c #33343B",
"H  c #3A363B",
"J  c #32393E",
"K  c #3C3B3B",
"L  c #412E2A",
"P  c #44322D",
"I  c #443A2E",
"U  c #433532",
"Y  c #4C3631",
"T  c #433933",
"R  c #423D3B",
"E  c #4A3B38",
"W  c #533B36",
"Q  c #553E39",
"!  c #583F3A",
"~  c #3D461B",
"^  c #3E4323",
"/  c #3E412B",
"(  c #3E4135",
")  c #44530E",
"_  c #475B0B",
"`  c #4A5D0D",
"'  c #414B13",
"]  c #434D1D",
"[  c #455415",
"{  c #485715",
"}  c #4C5C14",
"|  c #46531C",
" . c #4A561B",
".. c #4D5C1B",
"X. c #515F14",
"o. c #515D1D",
"O. c #4B6106",
"+. c #4D620C",
"@. c #52650C",
"#. c #4E6212",
"$. c #4E611B",
"%. c #526513",
"&. c #546913",
"*. c #53621D",
"=. c #434C24",
"-. c #424529",
";. c #454C2A",
":. c #475322",
">. c #4A5524",
",. c #4D5B23",
"<. c #4B542B",
"1. c #4E5B2B",
"2. c #515D23",
"3. c #525E2B",
"4. c #424434",
"5. c #4B4635",
"6. c #464B34",
"7. c #43423C",
"8. c #4C423D",
"9. c #454B3B",
"0. c #4C4B3C",
"q. c #54433D",
"w. c #5B423E",
"e. c #4B5334",
"r. c #4E553A",
"t. c #535D34",
"y. c #53593B",
"u. c #536323",
"i. c #57642A",
"p. c #59633A",
"a. c #260643",
"s. c #26044B",
"d. c #2A054D",
"f. c #2D0551",
"g. c #36065B",
"h. c #393D45",
"j. c #3C3C44",
"k. c #3D0663",
"l. c #413E42",
"z. c #453C47",
"x. c #3D434B",
"c. c #444344",
"v. c #4A4643",
"b. c #4B4B46",
"n. c #44444C",
"m. c #49464C",
"M. c #464948",
"N. c #4C4A4C",
"B. c #5E4641",
"V. c #544B47",
"C. c #4E5143",
"Z. c #4E534A",
"A. c #515343",
"S. c #535B44",
"D. c #52524D",
"F. c #575A4B",
"G. c #5A5D4C",
"H. c #464651",
"J. c #494753",
"K. c #444A52",
"L. c #4B4C53",
"P. c #4D4D59",
"I. c #514F52",
"U. c #504F5B",
"Y. c #4E5153",
"T. c #45515A",
"R. c #4C525C",
"E. c #545354",
"W. c #585655",
"Q. c #575957",
"!. c #5A5B55",
"~. c #53535D",
"^. c #55595B",
"/. c #5C5B5C",
"(. c #614742",
"). c #634A45",
"_. c #684D48",
"`. c #65524C",
"'. c #74544E",
"]. c #605E5E",
"[. c #785B53",
"{. c #5B6249",
"}. c #5D6156",
"|. c #636858",
" X c #67755A",
".X c #4E5A63",
"XX c #545562",
"oX c #555B64",
"OX c #585865",
"+X c #5A5C65",
"@X c #555769",
"#X c #5C5E6A",
"$X c #615E60",
"%X c #605F6C",
"&X c #5C6165",
"*X c #556169",
"=X c #5E616B",
"-X c #636263",
";X c #61626C",
":X c #75796D",
">X c #636271",
",X c #805450",
"<X c #85665D",
"1X c #9B635F",
"2X c #8B6B62",
"3X c #91766B",
"4X c #A26561",
"5X c #A57E73",
"6X c #8D847E",
"7X c #97867C",
"8X c #AA8579",
"9X c #B5887C",
"0X c #878585",
"qX c #988F89",
"wX c #B68F82",
"eX c #A8988C",
"rX c #BA9285",
"tX c #B4A599",
"yX c #ABAAAA",
"uX c #C5998B",
"iX c #CC9F90",
"pX c #C9A795",
"aX c #D2A395",
"sX c #DCAE9E",
"dX c #C3B09D",
"fX c #CCBAA9",
"gX c #E3B4A4",
"hX c #C9C0B7",
"jX c #D6C5B5",
"kX c #DACABB",
"lX c #C3C2C2",
/* pixels */
"W.E.b.<.&.t.+X=X=X=X#X#X#X+XOXXXP.m.R v.L.K.P.R.R.XX+X#X+X+X#X+XOXQ.N.K m S c.N.N.L.E.E.E.W.!.].$X/.$X-X$X$X$X/.I.F m D N.W.E.E.",
"W.D.0...+.,./.=X#X#X#X#X#X#X+XOX~.H.R j.n.J.P.H.H.n.J.L.J.J.n.n.c.=.=./ B B c.N.N.N.I.E.E.E.W././.].$X$X$X/././.D.H m F 0.D.E.W.",
"E.D.6...` ,./.-X+X#X=X#X#X#X#X+XXXL.K D H K K K K S v v v S S S F | { ..} ] 7.m.m.N.I.I.I.E.E.W.!./.]./.$X].]./.E.K B ^ 5.E.D.E.",
"N.A.<...:.b.+X=X#X#X=X#X#X#X#X+X^.Z.] -.D D D R l.K l.c.m.L.L.I.^.G.{.,.` [ 9.m.N.N.N.N.L.I.E.E.W.!././././././.W.7.] ) ;.b.L.N.",
"b.r.*.+.| M.OX=X=X=X#X#X#X#X+X+X+XE.<.=.7.m.P.~.~.U.C G G G G G G G G n 3 4 6.b.m.N.N.N.N.I.I.I.I.E.Q./.!././.!.!.e.{ [ 4.v.N.V.",
"M.0.<. .{ 6.^.;X=X=X#X#X#X#Xx.l l k h < h k l l l k l A G Z Z G C Z Z C V = < h h h h h k k k k k l.E.Q.Q.!.!.!.!.i.+.` -.c.b.M.",
"m.7.B =.) <.W.;X=X=X#X#X#XOXk Z Z Z G G C f G G C q k k k k l l k l k l C 0 C G G Z k C G C G Z C q I.E.Q.Q.W.W.!.t.} [ 4.R M.v.",
"c.4.^ | | 0.^.=X=X=X#X#X#X+Xk l k k l l k 0 V k k 0 0 k k k k k k k k l k = k k l l g k k l k k V f L.I.W.Q.Q.E.W.C.=.=./ R c.v.",
"D ^ ) [ ;.M.^.=X#X;X#X#X#XOXq k k k k k k 0 k k k 0 0 k k k l k k k l l k & g k k k q g k k l k l q m.v.v.7.c.R 9.6.~ ) ] -.F F ",
"D 4.=.{ ` :.!.;X&X#X#X#X#XOXq k k k k k k 0 k k g 0 & k k k k k k k k k q 0 g k k k q g k k k k l q 7.H B ] -.^ { X... . .} -.F ",
"c.v.0.2.+.,./.;X&X+X&X#X#XOXq k k k k k k & k k k q & g g q = = & & q k & & q k k k q k k k k k k q ^ ^ | @.#.} O.O.*.9.e.3.6.v.",
"OX~.V.r.*.1.+X;X;X+X#X+X#XOX0 g k l k k 0 & w e e e & 8 9 # X X X X # 9 + X # e e e 9 & k k k k k -  .} ,.$.,...+.+.i.^.=X&X+X+X",
";X%X^.N.<.>.D.Q.!.S.Z.Z.Z.r.= q 0 0 0 & @ 6 @ + + + + + + ; 2 2 2 2 ; + * : * + 5 7 7 @ 8 q 0 q q - } ,.M.Y.E.F.u.%.t.+X;X;X;X;X",
"&X=X+XI.0.>. .} $.#...$.#.#., V V V l s 7 u + X X X X X $ c Y Y Y Y c $ : P : + 7 a.s.5 d C C V k S ] 6.m.XXXX!.u.+.i.+X;X;X;X=X",
"#X=X=X^.y.} ..u.*.` } %.&.*.4 l k l l s @ * 2 z z z z c b W w.w.w.w.Y c P Q z X 6 r a.6 d k k k k K F K M.~.~.W.<.o.y.+X#X&X+X+X",
"=X#X=XoXC.:.r.!.Q.y.A.G.{.Q.K l k k k s + ; c P Y Y W W w.B.).).).).w.W ! B.b $ 6 r a.6 a k k l k K K j.n.R.R.L.K F I.XX=X&X+X#X",
"=X&X#XoXr.] M.#X=X;X=X;X;X>Xn.k k k k s 7 7 $ z Y Q w.B.B.).).).).).(.w.B.(.q.U y @ i 6 a k l k g H H K H.P.R.J.H S L.~.=X=X#X+X",
"=X#X=X^.6.~ n.#X=X=X=X;X=X;Xn.k k k k s 7 t $ c Q B.).).).).).).).).).).).).).w.j . p 6 d k l k q K R l.n.J.P.P.H v m.^.+X#X=X+X",
"#X#X=X~.K v n.#X=X=X&X=X=X=Xn.l k k k s + ; b W B.(.).).).).).).).).).).).).).w.j . p 6 a k k k q K c.l.c.n.m.J.H S n.^.=X=X#X#X",
"=X+X#XU.S n n.+X=X=X=X=X=X=Xn.k g k k 9 . : Y w.).).).).).).(.w.w.w.B.).).).).w.1 . p 6 d k k k q K 4.7.j.x.n.l.G S J.^.=X#X#X;X",
"#X+X#XP.F ^ b.oX+X=X;X=X=X=Xn.q k k k w . : Y w.).).).).).).B.W Y Y Q (.).).).w.:   r 6 s e g k q (  .;.j.h.x.j.H D J.^.+X#X#X#X",
"#X+X#XP.4.>.N.+X=X#X=X=X&X#XC & 0 = & * ; z Y Q w.B.).).).)._.[.'.W W (.B.w.B.B.b ; 6 O 8 8 0 0 0 n @...( j.j.K G K J.^.XXXXOX+X",
"@X+X#XE.:...b.~.XXXXoX/.Q.~.f C V V = $ z P Y W Q w.).).)._.[.8X5X_.! (.w.Q w.(.Q b $   s G C A C > &...4.G H G H K J.~.~.XXXX~.",
"~.XXXXD.,.} :.6.6.;.,.2.<.( q k k k - * ; z P W w.B.).)._.<X5XuXuX3X[._.[.<X[.B.P : 6 O a k k k l > *.2.=.H H K l.K J.P.R.~.XX~.",
"~.R.XXD.$._ #.....{ +.&...] q k k k k y X ; L W (.).)._.[.8XiXuXuXiX8X[.2X9X3X_.z . r 5 a k k k l h }.!.!.OXOXOX^.R n.P.R.R.~.~.",
"~.~.XXL.>._ >.A.S.S.p.p.F.Z.q k k k k y . ; P w.(.)._.<X8XuXrX[.[.uXiX8X<X_.<X3X(.y 6 O s k k k l k ;X;X>X>X;X;X+XR K L.L.P.~.~.",
"R.~.R.H.4.) :.D.~.~.XX^./.E.q k k k k w + : Y w.)._.'.5XaXaX8XP E rXsXaX[.1 [.rX<XL $   w k k k k f #X+X#X#X+X#X+Xc.F m.P.P.~.~.",
"R.P.P.b.-.[ >.D.E.W.E.D.i.1.q k k f & * 1 L W w.).[.1X9XaXaX9XW Q rXgXsX2Xc [.wX_.$ 7 @ s k k k k q +X#X=X+X+X+XoXL.R l.P.P.P.R.",
"K.L.m.e.} ` ..1.<.<.;.,.+.+.0 k k q # $ z P W w.(.,X4X9XaXaXwX'.[.iXgXgX5X).2XwXq.  r 6 a k k k k q #X#X;X#X#X+XoX~.l.K M.Z.L.Z.",
"6.4.( ,.&.+.&.+._ ` ) ` O.` = & 8 & & # $ 1 Y Q w.(.'.5XaXaXiXrXuXsXgXgXaXrXuXrXq.  r 5 8 & 8 0 0 q #X#X=X=X+X}.{.Q.v.>...:.9.<.",
"@.o.o.@.&.} @.+.&.+.` } *.*.~ V C C V s @ y c Y W Q w.<X9XuXaXsXgXgXgXgXgXsXrX2XU O i 6 d V C V k ( S.E.F.p.y.i.&.i.e...+.`  .[ ",
"+. .%.+.#.#.+...u...#.3.y.A.F l k l k s 7 u $ z W Q Q (.[.8XaXsXgXgXgXgXsXaX[.y u r s.6 a l k l k ~ +.,.,.+.` #.+.&.} +.{ ] | { ",
"i.r.t.3.t.i.i.S.A.4.<.S.W.W.K V k k k s r p . % z c b Y w.<X8XaXsXsXsXsXrX2Xz.7 r s.d.6 d k k l k =.&.3.3.#.` } #.&.+.} <.7.6.t.",
" X-X-X}./.}.}.!.c.< v N.D.D.H k k k k s r i + X o o $ c Q w.[.9XaXaXaXaX<Xx a f.s.s.d.6 d k k k q m.}.!.Q.G.i.#._ +.*.i.!./.].|.",
"-X-X+X/././.E.K c./.D.H l.N.H k k k - 8 5 t y 1 1 1 j 5.F.q.(.8XpXpXpXpX<Xj t i a.s.d.6 d k k k g P.=X#X+X&XS.} O.%.p.|.|.]././.",
"+X/./././.!.b.< c.yX0Xv m v.S k g q # X X ; U E E E 8.G.|.0.q.7XdXdXdXpX2XM ; @ i s.f.6 a k k k q P.#X=X=X&Xp.#.&.i.}.].$X$X/.].",
"]./././././.M.- 7.yXyX:XE.v ; # & = h j j v E 8.8.8.v.}. X0.q.eXfXfXfXtX2XP ; + i s.f.6 a k g k q P.#X+X+X&Xi.@.#.r./.].$X/.$X/.",
"/./././././.b.h K 0XyXhX:Xl % o o $ M E E E E E 8.v.V.|. X0.V.tXkXkXjXdX3XP : + p a.d.6 a g k g 0 L.=X#X+X+X{... .A././.]./.+X/.",
"+X/././.!.!.I.K K M.:XyXyX0XE.v x v T 8.8.D j F G.{.}. X:XV.V.tXkXkXjXfX3XU c x y 6 a.6 9 0 0 0 0 V =X+X&X+XY.:.) e.!./././.!./.",
"/././././.Q.E.E.c.; v.0XyXlXqX`.`.V.E T T x o N  X X X:X:XV.V.eXkXkXkXkX7XE U T 1 . i 6 d V C C C k #X#X#X+XD...[ 6./././././.!.",
"!.!./././.Q.E.D.N.K K 7.:XyXtXwXwX5XE ; ; $ . N  X X XG.0.U V.qXfXjXkXkX7XE U E 1 . i 6 d k k l l k +X+X#X}.u.} | 0./././././.!.",
"N.b.N.b.b.I.E.E.I.P.H < N.0XqXwXwX3XU + + + . N  X X X0.b c q.qXfXfXjXkX7XT U T j * u 5 a k k l l h +X+X+X}.u.`  .9.W.!.G.E.I.E.",
"D B B B F 7.L.b.M.b.c.D S m M M M b h y 7 7 . N  X X|.0.b b V.eXfXfXfXjX7XT b M M v y + y k k k k f #X+XoX~.r.>.} ] e.,.:.F D M ",
"4 ' [ ' ^ B 4.I 4.4.;.B j % X # # # q s u i . N  X X|.0.b c 8.6XeXqXeXtX:XU b b B.`.j . w k k k k q P.Z.t.6.7.;.*.} o.+._ N v m ",
"7.6. .{ ..[ [  ...,.{ ] m n = q q q g s u i . N  X X|.0.b c U E.*XoX*X=Xm.b c U 2X8XU . 9 k k g k 0 4.:.+.$.:. .` @.u...| / S H ",
"L.~.Q.S.3.+.} y.G.Q.S.S.E.L.0 k k g e s u a.6 l 9.6.9.( K K j.K.R.R..X.XK.c.v z ).[.D @ w e k k q -  .<.*.3.C.e.#.%.<.9.M.M.n.J.",
"~.~.^.~.e.} 2.!.+X+X+X+X#XOX& & & & & 9 u d.a.r = # % Z x.K.T..X*X*X*X*XoX~.S o $ ; p 5 & & & & & - F.Q./.+X+Xt.#.&.3.b.L.L.U.~.",
"XX^./.E.<.` } G.OXXX~.~.XXXXj.V C C C s u f.s.i p @ X Z T.R..X*X*X.XoX*X*XoXS X @ 7 a.6 d C C C k H.>X;X>X#X+X3.+.O.*.C.P.U.~.~.",
"OX+X^.N.;.} 3.!.^.^.^.XXOXXXh.k k k k s u f.s.s.g.p + Z T..X*X*XoXT.T.oX*XoXZ + u f.f.6 s k k k g H.#X#X@XOX^.t.} &.2.b.P.XX~.^.",
"oXOXOXr.{ =.Z.XX^.^.XXXXOX+Xh.k k k k s u f.d.d.k.i + Z T.oX*X.XK.Z J T..XoXS + r s.f.6 a k k k q n.+X+XoXoXoXE.1.*.u.b.L.P.~.~.",
"~.OXXX9.[ ) C.R.~.~.XXXXXXXXj.k k k k s u f.s.f.g.i + Z T.oXoXR.h.= h x..X.XZ + i s.f.6 a k k k q n.&X+X+X+X+XXXe.+.%.r.m.J.P.~.",
"P.~.W.e.| | Z.XX~.~.XXXXXXOXj.k k k g s u f.f.f.f.i + Z T..XoXR.h.# f x.T.T.Z + i d.f.6 s g k g q H.#X#X#X+X+XR.9.,.,.b.H.J.J.L.",
"~.~.S.u.:.6.Y.~.~.XXXXXXXX+Xx.e e k g s u f.f.f.f.p + C K.R.R.K.G # f x.K.x.l + a.f.f.6 s e g k q H.+X+X+X+X+XY.e.=.7.n.n.n.L.P.",
"L.E.t.+.) ,.E.XX~.XXXXXXP.h.C = & 0 0 9 u g.g.g.g.p + h D F F D j o % v D S ; + a.g.g.6 8 & 0 0 = G j.+X#X+X+XD... .K l.H.K.J.P.",
"L.D.3.+._ <.Y.R.~.XXXXXXC l V C V C C k 8 w w w w @ X : b b b b 2 o $ 2 c b 1 % * 5 9 & k V C C C C k G #X#X+X~.e.;.H c.H.H.m.P.",
"P.m.6.....>.L.P.P.P.~.P.l V l k k k k k 0 V C V C - o x 5.5.5.5.M $ $ 2 P 5.5.I 1 # f & l k k k k k C A #X#X#X+Xm.K H j.n.H.J.P.",
"m.e.:.$.&.} 9.c.c.j.l.j.h f k k k k k k & q g k f = # j T T T T n $ $ : x B T M < # - & q k g k k k k Z #X+X#X+XL.H D j.H.H.n.J.",
"( ..` %.&.` ;.R R F K H f k k k k k k q & & - - = # # = - - - - = # # = = = - - # # # & & q k k k k k C +X+X+XoXL.K K j.j.j.j.K ",
"F ;.o.u.u.<.C.N.M.b.b.c.h k k f k k k 0 q f h f q q - - - - - - - - - - - - - - - - - - & q g k g k k l b.m.L.n.4.4.R H S m v D ",
"v.M.r.o.+.1.F./.+X+X+X^.k k f q q g q 0 q q - - - - - - - - - - = = - - - - - = - - - = & q k k g q k < =.=.;.] [ ^ F H D D K R ",
"W./.{.%._ ..{.;X#X#X%X#Xj.h.G G G C l G G G G G G G G H H H G G G H S < 3 < 3 3 , 3 3 3 3 < j l j 4 4 ~ ` _ #.` ] / M D 7.v.N.D.",
"/./.F.*.+.<.}.;X#X+X+X+X#X#XOXXXXXP.K L.~.R.~.+X#X#X=X;X#X=X=X+X+X#X{.#.` ] 4.2.} >.e.e.9.;.5.7.6.2.3.2...u.$.} :.| -.R E.!.!.!.",
"!.W.A...+.t.+X;X=X#X#XOX+XOX~.P.P.L.j.m.P.R.R.XXOX#X+X;X=X+X#X#X=X#X!.*.{ =.v.F.D.Z.D.W.D.D.E.D.E.!.!.{.G.!.{.{.A.-.N R E./.!.!.",
"~.!.D.o.@.i.&X;X%X#X#XOX#X+XXXP.P.L.7.m.P.P.P.R.XX#X#X=X=X=X=X+X#X#XXX0.-.F M.N.I.~.E.W./.-X-X-X-X-X-X-X|.-X-X$XE.K m K I.!.W.!."
};
