/* XPM */
static char *c5f7b90467024691e498b1fd0669141bKhZRTqTcc0leYtIo[] = {
/* columns rows colors chars-per-pixel */
"64 64 229 2 ",
"   c #0E0C0C",
".  c #110E0E",
"X  c #16110F",
"o  c #0F0A11",
"O  c #120B13",
"+  c #140B1B",
"@  c #180F1B",
"#  c #141314",
"$  c #1B1514",
"%  c #16161B",
"&  c #1C161A",
"*  c #16181D",
"=  c #1B1A1D",
"-  c #221916",
";  c #21171B",
":  c #231C1B",
">  c #291E1A",
",  c #1F221E",
"<  c #2B350B",
"1  c #2C2A12",
"2  c #25241D",
"3  c #2D221E",
"4  c #2D3419",
"5  c #333B19",
"6  c #160A24",
"7  c #1B0929",
"8  c #1A0A2B",
"9  c #161421",
"0  c #1C1524",
"q  c #171920",
"w  c #1C1D24",
"e  c #1E162A",
"r  c #1E1D29",
"t  c #1E0934",
"y  c #1F1731",
"u  c #230E2B",
"i  c #231829",
"p  c #220836",
"a  c #210D34",
"s  c #23073C",
"d  c #241A34",
"f  c #271837",
"g  c #1F2026",
"h  c #1F2129",
"j  c #222226",
"k  c #2B2522",
"l  c #2A2927",
"z  c #22242B",
"x  c #26292E",
"c  c #342522",
"v  c #342C26",
"b  c #3A2926",
"n  c #332D2C",
"m  c #302F2E",
"M  c #3D2B28",
"N  c #373B20",
"B  c #34322C",
"V  c #3B332D",
"C  c #3C3C2D",
"Z  c #282734",
"A  c #2B2D33",
"S  c #2D3136",
"D  c #2F3138",
"F  c #353333",
"G  c #3A3533",
"H  c #3C3A33",
"J  c #34343A",
"K  c #3A363B",
"L  c #35393D",
"P  c #3C3B3C",
"I  c #402C27",
"U  c #412E2A",
"Y  c #44322D",
"T  c #48342E",
"R  c #443531",
"E  c #4D3733",
"W  c #443B35",
"Q  c #4F3834",
"!  c #423D3C",
"~  c #493E3A",
"^  c #503732",
"/  c #523B36",
"(  c #563E39",
")  c #3D471B",
"_  c #3E4323",
"`  c #3E412C",
"'  c #3D4134",
"]  c #44540E",
"[  c #475B0C",
"{  c #4A5D0D",
"}  c #414B13",
"|  c #434D1D",
" . c #455415",
".. c #485715",
"X. c #4B5C14",
"o. c #46531C",
"O. c #4A561B",
"+. c #4D5C1B",
"@. c #515F14",
"#. c #515D1D",
"$. c #4B6206",
"%. c #4D620C",
"&. c #51650D",
"*. c #4D6111",
"=. c #4E611B",
"-. c #526513",
";. c #526914",
":. c #53621D",
">. c #434627",
",. c #434C23",
"<. c #41442C",
"1. c #454C2A",
"2. c #465322",
"3. c #4A5524",
"4. c #4D5B23",
"5. c #4B552B",
"6. c #4E5B2B",
"7. c #515D23",
"8. c #525D2B",
"9. c #424434",
"0. c #464B34",
"q. c #44423B",
"w. c #4C413D",
"e. c #474C39",
"r. c #4B4C3C",
"t. c #55433D",
"y. c #5A423D",
"u. c #4B5334",
"i. c #4E543A",
"p. c #535D34",
"a. c #54593B",
"s. c #536323",
"d. c #576329",
"f. c #5B643A",
"g. c #280644",
"h. c #26044B",
"j. c #2B054D",
"k. c #2E0552",
"l. c #360A53",
"z. c #3B3B46",
"x. c #3B3C44",
"c. c #44105D",
"v. c #413D42",
"b. c #413F4A",
"n. c #511071",
"m. c #3C4249",
"M. c #3D4951",
"N. c #454344",
"B. c #4A4644",
"V. c #4B4B45",
"C. c #44444C",
"Z. c #49464C",
"A. c #454949",
"S. c #4C4A4C",
"D. c #5E4540",
"F. c #534B43",
"G. c #5A4B43",
"H. c #514D4D",
"J. c #4E5243",
"K. c #4E534A",
"L. c #535344",
"P. c #535B44",
"I. c #52524D",
"U. c #595749",
"Y. c #565B4C",
"T. c #5A5C4C",
"R. c #464651",
"E. c #444A53",
"W. c #464A55",
"Q. c #4C4B53",
"!. c #4D4D59",
"~. c #514E52",
"^. c #504F5B",
"/. c #4C5456",
"(. c #44515A",
"). c #4C525C",
"_. c #545354",
"`. c #585656",
"'. c #565B53",
"]. c #5A5B56",
"[. c #53535D",
"{. c #59565B",
"}. c #55595B",
"|. c #5C5B5C",
" X c #604742",
".X c #634A45",
"XX c #66524A",
"oX c #605E5E",
"OX c #5C634A",
"+X c #5E6252",
"@X c #5D6357",
"#X c #61654D",
"$X c #646957",
"%X c #667459",
"&X c #6C7A5E",
"*X c #4D5962",
"=X c #545562",
"-X c #565B64",
";X c #585865",
":X c #5A5C65",
">X c #555769",
",X c #5C5E6A",
"<X c #615E60",
"1X c #625D6A",
"2X c #556363",
"3X c #5D6166",
"4X c #5E616B",
"5X c #636262",
"6X c #686765",
"7X c #61626C",
"8X c #6E7D61",
"9X c #636271",
"0X c #7C7B7B",
"qX c #867873",
"wX c #9A7C72",
"eX c #728265",
"rX c #77866C",
"tX c #7E8D72",
"yX c #7C8A78",
"uX c #808E7B",
"iX c #88967C",
"pX c #A68377",
"aX c #888685",
"sX c #999897",
"dX c #B58F82",
"fX c #B2A29C",
"gX c #A4A3A2",
"hX c #B7B6B6",
"jX c #C9A093",
/* pixels */
"`._.V.5.-.p.:X4X4X4X,X,X,X:X;X=X!.Z.! B.W.W.!.).).=X:X,X:X:X,X:X:X}.S.P B F N.S.S.Q._._._.`.].oX<X|.<X5X<X<X<X|.~.H B G H.`._._.",
"`.I.r.+.%.4.|.4X,X,X,X,X,X,X:X;X[.R.! x.C.R.!.R.R.C.R.Q.R.R.C.C.N.,.,.' C C N.S.S.S._._._._.`.|.|.oXoX<X<X|.|.|.I.K B G r.I._.`.",
"_.I.0.+.{ 4.|.5X:X,X4X,X,X,X,X:X=XW.P G K P P P P F n n n F F F H o...+.X.| q.Z.Z.S.~.~.~._._.`.].|.oX|.<XoX<X|._.P C _ 9._.I._.",
"H.L.5.+.2.V.:X4X,X,X4X,X,X,X,X:X}.K.| >.G G G ! v.P v.N.Z.Q.Q.~.}.T.OX4.{  .q.Z.S.S.S.S.Q.~._._.`.].|.|.|.|.|.|.`.q.| ] 1.V.Q.H.",
"V.i.:.%.o.A.:X4X4X4X,X,X,X,X:X:X:X_.5.,.q.S.!.[.[.^.A J J J J J J J F 4 4 5 0.V.Z.S.S.S.S.~.~.~.~.`.].|.].|.|.].].u... .9.B.S.H.",
"A.r.5.O...e.}.7X4X4X,X,X,X,Xm.x x z j 2 j z x x x z x D J S S J A S S A A & 2 j j j j j z z z z z v._.].{.].].].].d.%.[ <.q.V.A.",
"Z.q.C ,.] 5.`.7X4X4X,X,X,X;Xz S S S J J A g J J A w z z z z x x z z z x A q A J J S z A J A J S A w ~._.{.{.`.`.].p.{  .9.! Z.A.",
"N.9._ o.o.r.}.4X4X4X,X,X,X:Xz x z z x x z q x z z q q z z z z z z z z x z * z z x x g z z x z z x g S.~.`.{.{._.`.J.>.,.C ! N.A.",
"G _ ]  .1.A.}.4X,X7X,X,X,X:Xw z z z z z z q z z z q q w w z x z w w w w g * h z z z w h z z x z x w Z.B.B.q.N.! q.e.) ] | >.H H ",
"G 9.,...{ 2.'.7X3X,X,X,X,X;Xw z z z z z z q z z h q % % # w z z w # . . % q h z z z w h z z z z x w q.K C | >._ ..@.+.O.O.X.>.H ",
"N.B.r.7.%.4.|.7X3X:X3X,X,X;Xw z z z z z z * z z z * # & - = = = & - - - $ % = = = q q z z z z z z w _ _ o.&.*.X.$.$.:.e.u.8.e.B.",
":X{.H.i.:.6.:X7X7X:X,X:X:X|.q h z x z z q % y e e % X c b $   . - M Y U > .     . # % * z z z z z = O.X.4.=.4.+.%.%.d.}.4X3X:X:X",
"7X1X}.S.5.3.I.'.'.P.K.K.K.i.* w q q q * + t 8 6 + & 3 Y E c > > b / ( ( M > > > > : + o * w q w w = X.4.A.Q._.Y.s.-.p.:X7X7X7X7X",
"3X4X:X~.r.3.O.X.=.*.+.=.*.*.< x A x x Z t g.t 6 # c T y.y.Q T T / D. X X( T T T U b $ o d A A A z F | 0.Z.=X=X].d.%.d.:X7X7X7X4X",
",X4X4X}.a.X.+.s.:.{ X.-.;.:.5 x z x x f t t + i M E y.D. Xy.y.y.y. X.X.Xy.y.y./ b : 8 + f z z z z P H P A.[.[.`.5.#.a.:X4X3X:X:X",
"4X,X4X-XJ.2.i.].'.a.L.T.OX}.P x z z z f 8 8 O b D. X.X.X.X.X.X.X.X.X.X.X X X X( 3 @ a 6 f z z x z P P x.C.).).Q.P H ~.=X4X3X:X,X",
"4X3X,X-Xi.| A.,X4X7X4X7X7X9XC.z z z z i + i c E  X.X.X.X.X.X.X.X.X.X.X.Xy.( ( / T v i + f z x z h K K P R.!.).R.K F Q.{.4X4X,X:X",
"4X,X4X}.e.) C.,X4X4X4X7X4X7XC.z z z g 0 X > Y ( .X.X.X.X.X.X.X.X.X.X XD.( ^ E / y./ - o f z x z w P ! v.C.R.!.!.K n Z.}.:X,X4X:X",
",X,X4X[.P n C.,X4X4X3X4X4X4XC.x z w % & c I T (  X.X.X.X.X.X.X.X.X.Xy.( ( y.y.y. X/ - o u z z z w P N.v.N.Z.Z.R.K F C.}.4X4X,X,X",
"4X:X,X^.F v C.:X4X4X4X,X4X4XC.z h w % $ c Y ^ y..X.X.X.X.X.X.X.X.X.Xy./ y..X.X.X.X( 3 # i w z z w P 9.q.x.m.C.b.J F Q.}.4X,X,X7X",
",X:X,X!.G _ V.-X:X4X7X4X4X4XC.w z h w 0 $ c t. X.X.X.X.X.X.X.X.X.X.X XD. X.X.X.X.Xy.Y 3 # % w z w ' O.1.x.z.m.z.K G Q.}.:X,X,X,X",
",X:X,XQ.9.3.S.:X4X,X4X4X3X,XA * q q q %   3 t. X.X.X.XD.y. X Xy.D..X.X.X.X.X.X.XD.( U > # # * q q 4 &.+.' x.x.L F P R.}.=X-X:X:X",
">X:X,X_.2.+.V.[.=X=X-X|.}.[.g A A A A i   > / y..X.X X( / D.D./ (  X.X.X.X.X.X X( U - O f A A D A , ;.+.9.J K J K P Q.[.[.=X=X=X",
"[.=X=XI.4.X.2.0.e.1.4.7.5.' w z z z w i : b / y..X.X Xy.( y.y.( y. X.X.X.X.X.X X( U $ o f z z z x , :.7.,.P P P v.P Q.!.).[.=X[.",
"[.).=XI.=.{ *.+.+...%.;.+.| w z z w # : Y Q ( y..X.X.X Xy./ / y. X.X.X.X.X.X.X Xy.Y $ O u z z z x j @X].].:X:X;X}.! N.!.).).[.[.",
"[.[.=XQ.3.[ 3.L.P.P.f.f.Y.K.w z z z = ; 3 U / y.y. X.X.X Xy.y. X.X.X.X.X.X.X.X Xy.E b : 0 w z z x z 7X7X9X9X7X7X:X! P W.Q.!.[.[.",
").[.).R.<.] 2.I.[.[.=X}.|._.w z z z z 0 . 3 Q ( ( y..X.X.X.X.X.X.X.X.X.X.X.X.X Xy./ E b $ % z z z g ,X:X,X,X:X,X:XN.H Z.!.!.[.[.",
").!.!.V.<. .3.I._.`._.I.d.6.w z z z z 0   > Q ( ( y.y. X.X.X.X.X.X.X.X.X.X.XD.y.( E c : 0 w z z z w :X,X4X:X:X:X:XQ.! v.Q.Q.!.).",
"W.Q.Z.u.X.{ +.8.5.5.1.4.%.%.q z z z z e   > T / ( ( ( D..X.X.X.X.X.X.X X.X Xy.( Q M & O e h z z z w ,X,X7X,X,X:X-X[.v.P A.K.Q.K.",
"0.9.' 4.;.%.;.%.[ [ ] { $.{ * * q q q 9 6 u > M / ( ( D..X.X.X.X.X.XD.y.y.y.( Q c ; u + 9 * q q q w ,X,X4X4X:X@XOX'.A.3.+.2.e.5.",
"&.#.#.&.;.X.&.%.;.%.{ X.:.:.) A A A A f a p + i Y Q ( y. X X X X X Xy.( ( ( Q U $ O s 8 f A A A z ' P._.I.u.u.7.;.d.u.+.%.{ O. .",
"%.O.-.%.*.*.%.+.s.+.*.7.a.L.G x z x z f t g.t u : M ( ( y.y.y.y.y.y.( ( ( / c $ . O s 8 f x z x z ) %.4.,.< < ] %.;.X.%...| o...",
"d.i.p.d.p.d.d.P.Y.T.f.OX`.`.P x z z z d t g.t 8 $ V G.t./ t.G.G.G.G.t./ t.t.v $ $ & a 6 u w h x z >.-.2.>.` H ) ] &.%.X.5.q.e.p.",
"$X5X5X@X|.@X].].].`.`.`._.I.K z z z z d a p + ; c J.#Xw.W T.$X$X$X$XL.R L.#XV.G G v &   O % z z w Z.U.B B qXaXC < [ :.d.].|.oX$X",
"5X5X:X|.|.|.].].{._._._._.S.K z z z h f a p . : R L.+XL.L.$X8X8X8X8X#Xr.U.+XL.w.w.W k : : & = = = L Z.V.5XgXsXF 1 ..f.#X$XoX|.oX",
":XoX|.|.|.].].].`.`._.I.I.H.F z z z z f a p . k ~ w.F.+X%X&X8X8X8X8X&X%XT.F.w.w.w.~ W W W l #     # k 0XhXhXaXn 1 6.].oX<X<X|.oX",
"oX|.|.:X|.|.].].`.`._.I.I.~.F w z z h i 6 8 ; v ~ w.F.$X8X8X8X8X8X8X8X&XT.w.w.w.w.w.w.~ w.G k 2 k q.6XsXhXaX].5 < e.|.$X<X|.<X|.",
"|.|.|.|.|.|.].`._.`._._._.Q.K w h h r 0   $ c R w.w.B.$X8X8X8X8X8X8X8X&XT.w.w.w.~ ~ ~ ~ ~ ~ w.w.F.aXhXhXsXB.k ) o.J.|.|.oX|.:X|.",
":X|.|.|.].].`._.`._.H.H.H.V.g q q q q %   : V V.T.r.~ +XeXrXtXtXtXtXrX8XT.W J.U.G k k k k t.qXwXwXfXhXaX'.x.F | ] u.].].|.|.].|.",
"|.|.|.|.|.{._._._._.~.H.S.B.g A A A A i . 3 W U.+Xr.W +XeXuXiXiXiXiXtX8XU.W U.OXl . . . # D.dXjXjXfXsXS.j Z.J.+. .e.|.|.|.|.|.].",
"].].|.|.{.{._.I.H.~.S.S.S.B.w x z g & = k V ~ W H r.T.%X8XeXeXeXeXeXeX8X$XP.9.B f 8 t i v.G.XXXXXXU.S.N.z.Y.s.X.o.r.|.|.|.|.|.].",
"S.V.S.V.V.~._._.~.Q.S.Z.Z.B.w z z w . 2 F.G.G.n $ 9.%X&X8X%X%X%X%X%X&X&X&X+XB O s k.j.D <XB.$ . . . = x.:X@Xs.{ O.q.`.].Y._.~._.",
"G C C C G q.Q.V.A.V.Z.N.N.v.w z z w . Y wXpXwXD.$ v r.$XeXrXtXtXtXtXrX8X+Xq.2 O p h.j.f b.F i = = = C.).-X_.i.3.X.,.u.4.2.H G V ",
"5 }  .} _ C 9.W <.<.1.<.B B w z z w # W pXdXpXD.$ 2 H '.8XyXyXyXyXyXrX%XL.B & O p h.j.8 f z z z z w Q.K.p.0.9.5.:.X.#.%.[ N n B ",
"q.0.O...+. . .O.+.4...| B B = z z g w z V Y V : X x C./.}.2X2X2X2X2X2X/.E.m.j O p h.k.8 f z z z z q 9.2.%.=.2.O.{ &.d.+.2.` F K ",
"Q.[.}.P.8.%.X.a.Y.'.P.P._.Q.q z z h r e O + + o . S (.(.).).).).).).).).(.M.z O t h.k.8 f r z z w = O.5.:.8.J.u.*.-.5.e.A.A.C.R.",
"[.[.}.[.u.X.7.].:X:X:X:X,X;X* * % % * 9 8 g.t 6 O S (.*X-X-X-X-X2X2X2X-X*XM.z O p j.k.6 + % * * * = U.'.|.:X:Xp.*.-.7.V.Q.Q.^.[.",
"=X}.|._.5.{ X.Y.:X=X[.[.=X=Xx.A A A A d a k.h.8 O S (.).*X*X).C.E.*X*X*X).M.z o p h.k.8 f A A A z R.9X7X9X,X:X8.%.$.:.J.!.^.[.[.",
":X:X}.S.1.X.8.'.}.}.}.=X;X=Xz.z z z z f a k.h.8 O S (.(.(.(.m.g x M.(.(.(.M.z o s k.k.8 d z z z h R.,X,X>X;X}.p.X.;.7.V.Q.=X[.}.",
"-X:X:Xi...,.K.=X}.}.=X=X;X:Xz.z z z z f a k.h.8 O S (.(.M.L Z f f A x.E.(.M.z O p h.k.8 f z z z w C.:X:X-X-X-X_.6.:.d.V.Q.!.[.[.",
"[.;X=Xe. .] J.).[.[.=X=X=X=Xz.z z z z f a k.h.8 O S E.E.m.g f n.l.+ x M.E.M.j O s h.k.8 f z z z w C.3X:X:X:X;X=Xu.%.-.i.Z.R.Q.[.",
"!.[.`.u.o.o.K.=X[.[.=X=X=X;Xz.z z z h f a k.j.8 . k P P F $ u n.c.+ 2 K P K = O g.j.k.8 f h z h w R.,X,X,X:X:X).e.4.4.V.R.R.R.Q.",
"[.[.P.s.2.e./.=X[.=X=X=X=X:Xm.r r z h f a k.h.8 # : c c 3 X u n.c.O $ c c c - @ g.j.j.8 f r h z w R.:X:X:X:X:X/.u.,.q.C.C.C.W.!.",
"Q._.p.%.] 4._.=X[.=X=X=X!.z.A * * q q 0 a j.8 i v v c c 3 X 8 c.l.O $ c c c v v i p k.6 9 * q q * J x.:X,X:X:XI.+.O.P b.R.W.R.Q.",
"Q.I.8.%.[ 5.~.).[.=X=X=XA x A A x A A z % + . 3 W V c c > X O 0 @   $ 3 c c Y W - . 6 % g x A A A A z J ,X,X:X[.u.1.P N.R.R.R.!.",
"!.Z.e.+.+.3.Q.!.!.!.[.!.x x x z z z j w * = % : l k > : : $ & w = % & : : > k k & % w % j g z z z z A D ,X,X,X:XZ.P K x.R.R.R.Q.",
"Z.u.2.=.;.X.e.N.N.x.v.x.j g z z z z g w % % % % % % % % % % % % % % % % % % = % * & = # q g h z z z z S ,X:X,X:XQ.K G x.R.R.C.R.",
"' +.{ ;.;.{ 1.! ! H P K g z z z z z z w % % % * % % % % % % % % % % % % % % % % % % % % q g z z z z z A :X:X:X-XW.P x.z.x.x.x.P ",
"H 1.#.s.s.5.J.S.Z.V.V.N.j z z g z z z q w g j j j j j j z j j j j j j j j i j j j j w q q z z z h z z x V.V.W.C.9.9.! K F B n G ",
"B.A.i.#.%.6.Y.|.:X:X:X}.z h g w w h w q w w w g w g w h g w w g w w j z w g g w j g g w * w z h h w z 2 ,.>.1.|  ._ G G G G P q.",
"`.|.OX-.{ +.OX7X,X,X1X,Xz.x.J J J A l J J J L z.x.z.x.x.P x.x.z.z.x.L 4 4 4 4 5 < 4 4 5 4 4 k k l 5 5 ) { [ *.{ | _ V G q.B.S.I.",
"|.|.T.:.%.5.@X7X,X:X:X:X,X,X;X=X=X!.P Q.[.).}.,X,X,X7X7X7X7X4X,X,X,XOX-.{ | 9.7.X.3.u.u.e.1.9.q.0.7.8.7.+.s.=.X.2.o.>.! _.].].].",
"].`.L.+.%.p.:X7X4X,X,X;X:X;X[.!.!.Q.x.Z.!.).).=X:X,X:X7X4X:X,X,X4X,X'.:...,.B.Y.I.K.I.`.I.I._.I._.].].#XT.].+X#XL.<.V ! _.|.].'.",
"{.].I.#.&.d.3X7X1X,X,X;X,X:X=X!.!.Q.q.Z.!.!.!.).=X,X,X4X4X4X4X:X,X,X=Xr.<.H A.H.~.[._.`.|.5X5X5X5X5X5X5X$X5X5X<X_.P B P ~.].`.]."
};
