/* XPM */
static char *result[] = {
/* columns rows colors chars-per-pixel */
"64 64 13 1 ",
"  c black",
". c #22B14C",
"X c #FFD454",
"$ c #FFEBBD",
"o c #FFDF8F",
"O c #4D6DF3",
"+ c #F57AF5",
"@ c #0082ED",
"# c #00B7EF",
"% c #F0C4A3",
"& c #D3F9BC",
"* c #FCAEFC",
"= c white",
/* pixels */
"****++++****++++****++++****++++****++++****++++****++++****++++",
"****++++****++++****++++****++++****++++****++++****++++****++++",
"XXXXXXXXXXXXXXXXXXXXXXXXXXXXXXX##XXXXXXXXXXXXXXXXXXXXXXXXXXXXXXX",
"XXXXXXXXXXXXXXXXXXXXXXX##################XXXXXXXXXXXXXXXXXXXXXXX",
"$$$$$$$$$$$$ooXX$$$$$$$##################$$$ooXX$$$$$$$$$$$$$$$$",
"$$$$$$$$$$$$ooXX$$$##########################oXX$$$$$$$$$$$$$$$$",
"$$$$$$$$$$$$ooXX$$$############==############oXX$$$$$$$$$$$$$$$$",
"$$$$$$$$$$$$ooXX$######==================######X$$$$$$$$$$$$$$$$",
"$$$$$$$$$$$$ooXX$######==================######X$$$$$$$$$$$$$$$$",
"$$$$$$$$$$$$ooX######==========    ========######$$$$$$$$$$$$$$$",
"ooooooooooooooX######==========    ========######ooooooooooooooo",
"ooooooooooooo######====######        ####====######ooooooooooooo",
"XXXXXXXXXXXXX######====######        ####====######XXXXXXXXXXXXX",
"XXXXXXXXXXX######====##@@@@            @@##====######XXXXXXXXXXX",
"++++****+++######====##@@@@     =====  @@##====######***++++****",
"++++****+######====##@@@@       =====    @@##====######*++++****",
"****++++*######====##@@@@     =======    @@##====######+****++++",
"****+++######====##@@@@##     =======    @@@@##====######***++++",
"XXXXXXX######====##@@@@## ===========    @@@@##====######XXXXXXX",
"XXXXXXX####====##@@@@##  ============      @@@@##====####XXXXXXX",
"$$$$$$$####====##@@@@##  ============      @@@@##====####$$$$$$$",
"$$$$$####====##@@@@####  ============      ##@@@@##====####$$$$$",
"$$$$$####====##@@@@####  %%%=========      ##@@@@##====####$$$$$",
"$$$$$####====##@@####  %%%%%=========        ##@@##====####$$$$$",
"$$$$$####====##@@####  %%%%%%%=======        ##@@##====####$$$$$",
"$$$$$####====##@@####  %%%%%%%=======        ##@@##====####$$$$$",
"ooooo####====##@@####  %%%  %%=======        ##@@##====####ooooo",
"ooooo####====##@@####  %%%  %%=======        ##@@##====####ooooo",
"XXXXX####====##@@####  %%%  %%=======        ##@@##====####XXXXX",
"XXXX####====##@@####=  %%%  %%=======        ###@@##====####XXXX",
"++++####====##@@####=  %%%%%%%=======        ###@@##====####****",
"++++*####====##@@####  %%%%%%%=======        ##@@##====####+****",
"****+####====##@@####  %%%%%=========        ##@@##====####*++++",
"****+####====##@@####  %%%%%=========        ##@@##====####*++++",
"XXXXX####====##@@####  ==============        ##@@##====####XXXXX",
"XXXXX####====##@@####  ==============        ##@@##====####XXXXX",
"$$$$$####====##@@####                &&&&    ##@@##====####$$$$$",
"$$$$$####====##@@@@##                &&&&    @@@@##====####$$$$$",
"$$$$$####====##@@@@##  ##  %%%%%%%%  &&&&&&  @@@@##====####$$$$$",
"$$$$$$$####====##@@@@  ##  %%%%%%%%  &&&&&&  @@##====####$$$$$$$",
"$$$$$$$####====##@@@@## #  %%%%%%  ....&&&&  @@##====####$$$$$$$",
"$$$$$$$######====##@@@@ #  %%%%%%  ....&&&&  ##====######$$$$$$$",
"ooooooo######====##@@@@ #  %%%%  ..........  ##====######ooooooo",
"ooooooooo######====##@@    %%%%  ..........  ====######ooooooooo",
"XXXXXXXXX######====##@@@@        ..........  ====######XXXXXXXXX",
"XXXXXXXXXXX######====##@@        ..........  ==######XXXXXXXXXXX",
"++++****+++######====##@@  OOOO    ......  ====######***++++****",
"++++****++++*######====##  OOOO    ......  ==######+****++++****",
"****++++****+######====#### %%%%%%%      ====######*++++****++++",
"****++++****+++######======  %%%%%%      ==######***++++****++++",
"XXXXXXXXXXXXXXX######======== %%%%%  ======######XXXXXXXXXXXXXXX",
"XXXXXXXXXXXXXXXXX######======   %%%  ====######XXXXXXXXXXXXXXXXX",
"$$$$$$$$$$$$ooXX$######========      ====######X$$$$$$$$$$$$$$$$",
"$$$$$$$$$$$$ooXX$$$############      ########oXX$$$$$$$$$$$$$$$$",
"$$$$$$$$$$$$ooXX$$$##########################oXX$$$$$$$$$$$$$$$$",
"$$$$$$$$$$$$ooXX$$$$$$$##################$$$ooXX$$$$$$$$$$$$$$$$",
"$$$$$$$$$$$$ooXX$$$$$$$##################$$$ooXX$$$$$$$$$$$$$$$$",
"$$$$$$$$$$$$ooXX$$$$$$$$$$$$$$$##$$$$$$$$$$$ooXX$$$$$$$$$$$$$$$$",
"ooooooooooooooXXooooooooooooooooooooooooooooooXXoooooooooooooooo",
"ooooooooooooooXXooooooooooooooooooooooooooooooXXoooooooooooooooo",
"XXXXXXXXXXXXXXXXXXXXXXXXXXXXXXXXXXXXXXXXXXXXXXXXXXXXXXXXXXXXXXXX",
"XXXXXXXXXXXXXXXXXXXXXXXXXXXXXXXXXXXXXXXXXXXXXXXXXXXXXXXXXXXXXXXX",
"++++****++++****++++****++++****++++****++++****++++****++++****",
"++++****++++****++++****++++****++++****++++****++++****++++****"
};
