/* XPM */
static char *result[] = {
/* columns rows colors chars-per-pixel */
"64 64 11 1 ",
"  c black",
". c #22B14C",
"X c #FFD454",
"# c #FFEBBD",
"o c #FFDF8F",
"O c #F57AF5",
"+ c #0082ED",
"@ c #00B7EF",
"$ c #D3F9BC",
"% c #FCAEFC",
"& c white",
/* pixels */
"%%%%OOOO%%%%OOOO%%%%OOOO%%%%OOOO%%%%OOOO%%%%OOOO%%%%OOOO%%%%OOOO",
"%%%%OOOO%%%%OOOO%%%%OOOO%%%%OOOO%%%%OOOO%%%%OOOO%%%%OOOO%%%%OOOO",
"XXXXXXXXXXXXXXXXXXXXXXXXXXXXXXX@@XXXXXXXXXXXXXXXXXXXXXXXXXXXXXXX",
"XXXXXXXXXXXXXXXXXXXXXXX@@@@@@@@@@@@@@@@@@XXXXXXXXXXXXXXXXXXXXXXX",
"############ooXX#######@@@@@@@@@@@@@@@@@@###ooXX################",
"############ooXX###@@@@@@@@@@@@@@@@@@@@@@@@@@oXX################",
"############ooXX###@@@@@@@@@@@@&&@@@@@@@@@@@@oXX################",
"############ooXX#@@@@@@&&&&&&&&&&&&&&&&&&@@@@@@X################",
"############ooXX#@@@@@@&&&&&&&&&&&&&&&&&&@@@@@@X################",
"############ooX@@@@@@&&&&&&&&&&&&&&&&&&&&&&@@@@@@###############",
"ooooooooooooooX@@@@@@&&&&&&&&&&    &&&&&&&&@@@@@@ooooooooooooooo",
"ooooooooooooo@@@@@@&&&&@@@@@@@@    @@@@@@&&&&@@@@@@ooooooooooooo",
"XXXXXXXXXXXXX@@@@@@&&&&@@@@@@        @@@@&&&&@@@@@@XXXXXXXXXXXXX",
"XXXXXXXXXXX@@@@@@&&&&@@++++++        ++++@@&&&&@@@@@@XXXXXXXXXXX",
"OOOO%%%%OOO@@@@@@&&&&@@++++++        ++++@@&&&&@@@@@@%%%OOOO%%%%",
"OOOO%%%%O@@@@@@&&&&@@++++@@@@        @@++++@@&&&&@@@@@@%OOOO%%%%",
"%%%%OOOO%@@@@@@&&&&@@++++@@            ++++@@&&&&@@@@@@O%%%%OOOO",
"%%%%OOO@@@@@@&&&&@@++++@@@@            @@++++@@&&&&@@@@@@%%%OOOO",
"XXXXXXX@@@@@@&&&&@@++++@@@@            @@++++@@&&&&@@@@@@XXXXXXX",
"XXXXXXX@@@@&&&&@@++++@@@@@@            @@@@++++@@&&&&@@@@XXXXXXX",
"#######@@@@&&&&@@++++@@@@@@            @@@@++++@@&&&&@@@@#######",
"#####@@@@&&&&@@++++@@@@@@&&            @@@@@@++++@@&&&&@@@@#####",
"#####@@@@&&&&@@++++@@@@@@                @@@@++++@@&&&&@@@@#####",
"#####@@@@&&&&@@++@@@@@@&&                @@@@@@++@@&&&&@@@@#####",
"#####@@@@&&&&@@++@@@@@@&&                @@@@@@++@@&&&&@@@@#####",
"#####@@@@&&&&@@++@@@@&&@@                &&@@@@++@@&&&&@@@@#####",
"ooooo@@@@&&&&@@++@@@@&&@@                &&@@@@++@@&&&&@@@@ooooo",
"ooooo@@@@&&&&@@++@@@@&&@@                &&@@@@++@@&&&&@@@@ooooo",
"XXXXX@@@@&&&&@@++@@@@&&@@                &&@@@@++@@&&&&@@@@XXXXX",
"XXXX@@@@&&&&@@++@@@@&&@@+                @&&@@@@++@@&&&&@@@@XXXX",
"OOOO@@@@&&&&@@++@@@@&&@@+                @&&@@@@++@@&&&&@@@@%%%%",
"OOOO%@@@@&&&&@@++@@@@&&@@                &&@@@@++@@&&&&@@@@O%%%%",
"%%%%O@@@@&&&&@@++@@@@&&@@                &&@@@@++@@&&&&@@@@%OOOO",
"%%%%O@@@@&&&&@@++@@@@&&@@                &&@@@@++@@&&&&@@@@%OOOO",
"XXXXX@@@@&&&&@@++@@@@&&@@                &&@@@@++@@&&&&@@@@XXXXX",
"XXXXX@@@@&&&&@@++@@@@@@&&                @@@@@@++@@&&&&@@@@XXXXX",
"#####@@@@&&&&@@++@@@@@@&&  $$$$          @@@@@@++@@&&&&@@@@#####",
"#####@@@@&&&&@@++++@@@@@@  $$$$          @@@@++++@@&&&&@@@@#####",
"#####@@@@&&&&@@++++@@@@@@  $$$$$$        @@@@++++@@&&&&@@@@#####",
"#######@@@@&&&&@@++++@@@@  $$$$$$        @@++++@@&&&&@@@@#######",
"#######@@@@&&&&@@++++@@@@  ..$$$$        @@++++@@&&&&@@@@#######",
"#######@@@@@@&&&&@@++++@@  ..$$$$        ++++@@&&&&@@@@@@#######",
"ooooooo@@@@@@&&&&@@++++@@  ......        ++++@@&&&&@@@@@@ooooooo",
"ooooooooo@@@@@@&&&&@@++++@@  ....      ++++@@&&&&@@@@@@ooooooooo",
"XXXXXXXXX@@@@@@&&&&@@++++@@  ....      ++++@@&&&&@@@@@@XXXXXXXXX",
"XXXXXXXXXXX@@@@@@&&&&@@++++  ....      ++@@&&&&@@@@@@XXXXXXXXXXX",
"OOOO%%%%OOO@@@@@@&&&&@@++++  ..        ++@@&&&&@@@@@@%%%OOOO%%%%",
"OOOO%%%%OOOO%@@@@@@&&&&@@@@  ..        @@&&&&@@@@@@O%%%%OOOO%%%%",
"%%%%OOOO%%%%O@@@@@@&&&&@@@@            @@&&&&@@@@@@%OOOO%%%%OOOO",
"%%%%OOOO%%%%OOO@@@@@@&&&&&&&&        &&&&&&@@@@@@%%%OOOO%%%%OOOO",
"XXXXXXXXXXXXXXX@@@@@@&&&&&&&&        &&&&&&@@@@@@XXXXXXXXXXXXXXX",
"XXXXXXXXXXXXXXXXX@@@@@@&&&&&&        &&&&@@@@@@XXXXXXXXXXXXXXXXX",
"############ooXX#@@@@@@&&&&&&        &&&&@@@@@@X################",
"############ooXX###@@@@@@@@@@@@    @@@@@@@@@@oXX################",
"############ooXX###@@@@@@@@@@@@    @@@@@@@@@@oXX################",
"############ooXX#######@@@@@@@@@@@@@@@@@@###ooXX################",
"############ooXX#######@@@@@@@@@@@@@@@@@@###ooXX################",
"############ooXX###############@@###########ooXX################",
"ooooooooooooooXXooooooooooooooooooooooooooooooXXoooooooooooooooo",
"ooooooooooooooXXooooooooooooooooooooooooooooooXXoooooooooooooooo",
"XXXXXXXXXXXXXXXXXXXXXXXXXXXXXXXXXXXXXXXXXXXXXXXXXXXXXXXXXXXXXXXX",
"XXXXXXXXXXXXXXXXXXXXXXXXXXXXXXXXXXXXXXXXXXXXXXXXXXXXXXXXXXXXXXXX",
"OOOO%%%%OOOO%%%%OOOO%%%%OOOO%%%%OOOO%%%%OOOO%%%%OOOO%%%%OOOO%%%%",
"OOOO%%%%OOOO%%%%OOOO%%%%OOOO%%%%OOOO%%%%OOOO%%%%OOOO%%%%OOOO%%%%"
};
