/* XPM */
static char *_b7eb3d890544222f7d935c3b430162ePfUIzv1m6jM9FVGW[] = {
/* columns rows colors chars-per-pixel */
"64 64 229 2 ",
"   c #130B13",
".  c #130E10",
"X  c #150A1D",
"o  c #181214",
"O  c #14151E",
"+  c #1C111D",
"@  c #16181E",
"#  c #1A1C1D",
"$  c #221819",
"%  c #291D1C",
"&  c #1F221E",
"*  c #27231D",
"=  c #2E3114",
"-  c #2D3419",
";  c #333A19",
":  c #160B25",
">  c #1A0C23",
",  c #19072A",
"<  c #170A29",
"1  c #190A2B",
"2  c #161422",
"3  c #191526",
"4  c #171820",
"5  c #1B1C24",
"6  c #1D122B",
"7  c #1E1B2B",
"8  c #1B0534",
"9  c #1E0C31",
"0  c #1C043C",
"q  c #1F1731",
"w  c #251928",
"e  c #210D34",
"r  c #21063A",
"t  c #231635",
"y  c #2A1630",
"u  c #241A35",
"i  c #271638",
"p  c #261939",
"a  c #291B3B",
"s  c #1E2026",
"d  c #1F2129",
"f  c #222226",
"g  c #2B2825",
"h  c #22242C",
"j  c #26282F",
"k  c #342422",
"l  c #3A2A27",
"z  c #322E2C",
"x  c #2D3422",
"c  c #35322C",
"v  c #39352A",
"b  c #3C3D2D",
"n  c #272930",
"m  c #2B2C33",
"M  c #2A2238",
"N  c #2E3136",
"B  c #2F3138",
"V  c #353333",
"C  c #393433",
"Z  c #3C3A34",
"A  c #33343A",
"S  c #3A363B",
"D  c #373A3C",
"F  c #3C3B3C",
"G  c #412C29",
"H  c #46312D",
"J  c #46372E",
"K  c #483A36",
"L  c #4D3935",
"P  c #413D3C",
"I  c #523A36",
"U  c #553E39",
"Y  c #583F3A",
"T  c #3D461B",
"R  c #3E4323",
"E  c #3E412B",
"W  c #3D4134",
"Q  c #44530E",
"!  c #475B0B",
"~  c #4A5D0D",
"^  c #414B13",
"/  c #434D1D",
"(  c #455415",
")  c #485715",
"_  c #4C5C14",
"`  c #46531C",
"'  c #4A561B",
"]  c #4D5C1B",
"[  c #515F14",
"{  c #515D1D",
"}  c #4B6106",
"|  c #4D620C",
" . c #52650D",
".. c #51680A",
"X. c #4E6212",
"o. c #4E611B",
"O. c #526513",
"+. c #546913",
"@. c #53621D",
"#. c #434627",
"$. c #434C24",
"%. c #41442C",
"&. c #454C2A",
"*. c #475322",
"=. c #4A5524",
"-. c #4D5B23",
";. c #4B552B",
":. c #4E5B2B",
">. c #515D23",
",. c #525E2B",
"<. c #424434",
"1. c #464B34",
"2. c #484A36",
"3. c #43423B",
"4. c #4B433D",
"5. c #454B3B",
"6. c #4C4B3D",
"7. c #55423B",
"8. c #5A423D",
"9. c #4C5334",
"0. c #4F5936",
"q. c #4D533C",
"w. c #535D34",
"e. c #53593B",
"r. c #536323",
"t. c #54622A",
"y. c #596529",
"u. c #59633A",
"i. c #1E0441",
"p. c #220544",
"a. c #280745",
"s. c #26054A",
"d. c #2A054E",
"f. c #331448",
"g. c #2D0552",
"h. c #300557",
"j. c #34055A",
"k. c #38065F",
"l. c #34085B",
"z. c #3B3C44",
"x. c #3B3D46",
"c. c #3C0663",
"v. c #3F0A66",
"b. c #4A1E5D",
"n. c #413E43",
"m. c #413F4A",
"M. c #4D225A",
"N. c #400667",
"B. c #42066A",
"V. c #4C0974",
"C. c #540C7C",
"Z. c #593965",
"A. c #5C3671",
"S. c #643D73",
"D. c #3F414A",
"F. c #454344",
"G. c #494644",
"H. c #4B4B46",
"J. c #45444C",
"K. c #49464C",
"L. c #464948",
"P. c #4C4A4C",
"I. c #5E4641",
"U. c #524941",
"Y. c #514D4D",
"T. c #4D5143",
"R. c #4E534A",
"E. c #515443",
"W. c #535B44",
"Q. c #52524D",
"!. c #555B4D",
"~. c #595848",
"^. c #5A5C4B",
"/. c #464651",
"(. c #494753",
"). c #464952",
"_. c #4C4C53",
"`. c #4D4D59",
"'. c #514E52",
"]. c #504F5B",
"[. c #4E5153",
"{. c #4E515B",
"}. c #545354",
"|. c #585656",
" X c #565B53",
".X c #5A5B56",
"XX c #53535D",
"oX c #59565B",
"OX c #55595B",
"+X c #5C5B5C",
"@X c #604742",
"#X c #634A45",
"$X c #625F4E",
"%X c #605E5E",
"&X c #5B6249",
"*X c #5D6156",
"=X c #62634E",
"-X c #626656",
";X c #7C645C",
":X c #68765A",
">X c #545562",
",X c #565964",
"<X c #585865",
"1X c #5A5C65",
"2X c #5C5E6A",
"3X c #5C5F6A",
"4X c #615E60",
"5X c #605F6C",
"6X c #6B407F",
"7X c #5D6165",
"8X c #5E616B",
"9X c #636263",
"0X c #61626C",
"qX c #6E7D61",
"wX c #636271",
"eX c #876D65",
"rX c #728165",
"tX c #77866B",
"yX c #7E8D72",
"uX c #818F75",
"iX c #88967C",
"pX c #570D80",
"aX c #5A0E83",
"sX c #5E1087",
"dX c #62128B",
"fX c #691594",
"gX c #72199D",
"hX c #751AA1",
"jX c #75448B",
/* pixels */
"|.}.H.;.+.w.1X8X8X8X3X3X3X1X<X>X`.K.P G._.).`.{.{.>X1X3X1X1X3X1X,XOXH.F c V F.P.P._.}.}.}.|..X%X4X+X4X9X4X4X4X+X'.Z c C Y.|.}.}.",
"|.Q.6.] | -.+X8X3X3X3X3X3X3X1X<X{.).P z.J.(.`.)./.J.(._.(.(.J.J.F.$.$.W b b F.P.P.P.'.}.}.}.|.+X+X%X%X4X4X+X+X+XQ.S c Z 6.Q.}.|.",
"}.Q.2.] ~ -.+X9X1X3X8X3X3X3X3X1X>X_.F C S F F F F V z z z V V V Z ` ) ] _ / 3.K.K.P.'.'.'.}.}.|..X+X%X+X4X%X%X+X}.F b R <.}.Q.}.",
"Y.E.;.] *.H.1X8X3X3X8X3X3X3X3X1XOXR./ #.C C C P n.F n.F.K._._.'.OX^.&X-.~ ( 5.K.P.P.P.P._.'.}.}.|..X+X+X+X+X+X+X|.3./ Q &.H._.Y.",
"H.q.@.| ` L.,X8X8X8X3X3X3X3X1X1X1X}.;.$.3.P.`.XXXX].m A A A A A A A V x = ; 2.H.K.P.P.P.P.'.'.'.'.|..X+X.X+X+X.X.X9.) ( <.G.P.Y.",
"L.6.;.' ) 1.OX0X8X8X3X3X3X3XD.j j h f * f h j j j h j B A N N A m N N m m # * f f f f f h h h h h n.}..XoX.X.X.X.Xy.| ~ %.3.L.L.",
"K.3.b $.Q ;.|.0X8X8X3X3X3X<Xh N N N A A m s A A m 5 h h h h j j h h h j m 4 m A A N h m A m A N m 5 '.}.oXoX|.|..Xw.~ ( <.P K.L.",
"F.<.R ` ` 6.OX8X8X8X3X3X3X1Xh j h h j j h 4 j h h 4 4 h h h h h h h h j h @ h h j j s h h j h h n s P.'.|.oXoX}.|.T.#.$.b P F.L.",
"C R Q ( &.L.OX8X3X0X3X3X3X,X5 h h h h h h 4 h h h 4 4 h h h j h h h j j h O d h h h 5 d h h j h j 5 K.G.G.3.F.P 4.1.T Q / #.Z Z ",
"C <.$.) ~ *. X0X7X3X3X3X3X<X5 h h h h h h 4 h h d 4 O h h h h h j h h h 5 4 d h h h 5 d h h h h j 5 3.Z b / #.R ) [ ] ' ' ) #.Z ",
"F.G.6.>.| -.+X0X7X1X7X3X3X<X5 h h h h h h O h h h 5 O d h h h h h h h h 4 5 h h h h 5 h h h h h h 5 R R `  .X._ } ..@.5.9.,.6.G.",
",XoXY.q.@.:.1X0X0X1X3X1X1X+X4 d h j h h 4 O q 7 7 7 2 2 7 7 7 7 7 7 u 7 O 2 6 7 u 7 3 O h h h h h # ' _ -.o.-.] | | t.OX8X7X1X1X",
"0X5XOXP.;.=.Q. X XW.R.R.R.0.@ 5 4 4 4 O X 9 9 1 1 1 1 1 1 1 1 1 1 1 1 1 1 1 1 1 1 1 1 X O 5 4 5 5 # ) -.L.[.}.!.r.O.w.3X0X0X0X8X",
"7X8X1X'.6.=.' _ o.X.] o.X.X.= j m j j M 9 s.0 0 r p.p.r , , 0 p.p.0 < : p.p.p.p.p.p.s.< a m m m h V / 1.K.>X>X.Xr.| t.1X0X0X0X8X",
"3X8X8XOXe._ ] r.@.~ _ O.O.@.; j h j j a 9 p.8 8 0 i.0 8 X   , 0 0 1   . i.0 0 0 0 0 s.< a h h h h F Z F L.XXXX|.;.[ e.1X3X7X1X1X",
"8X3X8X,XT.*.q..X Xe.E.^.&XOXF j h h h a 9 s.0 0 p.s.8 > w k + X X $ k k p.i.p.i.0 0 s.< i h h j h F F z.J.{.{._.F Z '.>X8X7X1X3X",
"8X7X3X,Xq./ L.3X8X0X8X0X0XwXJ.h h h h a e s.0 p.p.a.6 $ l H % o o * J I g.s.s.p.i.0 s.1 p h j h d S S F /.`.{.(.S V _.oX8X8X3X1X",
"8X3X8XOX1.T J.3X8X8X8X0X8X0XJ.h h h h u e s.i.p.r > w l I Y H l l H 8.8.j.h.d.p.p.i.s.1 a h j h 5 F P n.J.(._.`.S z K.OX1X3X8X1X",
"3X3X8XXXF z J.3X8X8X7X8X8X8XJ.j h h h u e s.0 8 y % l I 8.@XY I I Y #X#Xd.v.g.s.l.p.s.1 i h h h 5 F F.n.F.K.K.(.S V J.OX8X8X3X3X",
"8X1X3X].V z J.1X8X8X8X8X8X8XJ.h d h h u e d.8 X k U 8.I.#X#X@X@XI.@X#X#Xd.v.g.d.s.p.s.1 p h h h 5 F <.3.z.D.J.m.A V (.OX8X3X3X0X",
"3X1X3X`.Z R H.,X1X8X0X8X8X8XJ.5 h h h u 1 r > $ H I.#X#X#X#X#X#X#X#X#X#Xk.v.g.d.d.s.s.1 u 7 d h 5 W ' &.z.z.D.z.S C (.OX1X3X3X3X",
"3X1X3X_.<.=.P.1X8X3X8X8X7X3Xm O 4 4 4 3 > X $ G I #X#X#X#X#X#X#X#X#X#X#Xv.h.g.g.g.s.s.< 3 4 4 4 4 x  .] W z.z.D V F (.OX>X>X<X1X",
"<X1X3X}.*.] H.XX>X>X,X+XOXXXs m m m m w + % k H Y #X#X#X#X#X#X#X#X#X#XI.j.g.g.g.d.s.d.1 f.N m N m & O.] <.A S A S F (.XXXX>X>X>X",
"XX>X>XQ.-._ *.1.1.&.-.>.;.<.5 h h h 5 o $ l H L Y #X#X#X#X#X#X#X#X#X#X8.g.g.v.d.d.d.d.1 a h h h j & @.>.$.F F F n.F (.`.{.XX>XXX",
"XX{.>XQ.o.} X.] ] ) | O.] / s h h h h 3 + % l Y 8.#X#X#X#X#X#X#X#X#X#XI.g.g.g.d.d.s.d.1 i h h h j f *X.X.X,X,X<XOXP J.`.{.{.XXXX",
"XXXX]._.=.! =.E.W.W.u.u.!.R.5 h h h h p >   k 8.#X#X#X#X#X#X#X#X#X#X#X#Xh.g.j.j.d.s.d.1 p h h h j h 0X0XwXwX0X0X1XP F _._.`.XXXX",
"{.XX{./.%.Q *.Q.XXXX>XOX+X}.5 h h h h p :   * U I.#X#X#X8.Y I.I.Y 8.#X#Xg.j.c.c.c.s.d.1 t h h h h s 3X1X3X3X1X3X1XF.Z K.`.`.XXXX",
"{.`.`.H.%.( =.Q.}.|.}.Q.t.:.5 h h h h u > o k L 8.#X#X@XY I 8.8.I Y @X#Xg.g.g.g.v.g.d.1 i h h h h 5 1X3X8X1X1X1X1X_.P n._._.`.{.",
")._.K.0._ ~ ] :.;.;.&.-.| | 4 h h h 5 + $ l H U 8.#X#X#XI.8.Y Y 8.I.#X#Xh.g.g.g.v.g.d.< t h h h h 5 3X3X0X5X3X1X,XXXn.F L.R._.R.",
"1.<.W -.+.| O.} ! ~ Q ~ } ~ @ O 2 4 O . $ l L Y 8.I.#X#X#XI.Y Y I.#X#X#Xc.j.h.c.c.d.d.< 2 O 2 4 4 5 3X3X8X0X1X*X&X XL.=.] *.5.;.",
" .{ {  .O._  .| O.| ~ _ @.@.T m m m n u + + k L Y 8.I.#X#X#XI.I.#X#X#X#XV.c.j.j.g.s.d.1 a m m m h W W.}.!.u.e.t.+.t.9.] } ~ ' ( ",
"| ' O.| X.X.| ] r.] X.>.e.E.Z j h j h u >   % L Y Y 8.I.#X#X#X#X#X#X#X#XN.N.c.g.d.s.d.1 i j h j h T | -.-.| ~ X.} O._ | ) / ` ) ",
"y.q.w.,.w.y.y.W.!.^.u.&X}.|.F j h h h u >   % L Y Y Y 8.I.#X#X#X#X#X#X#Xk.N.N.k.d.s.d.1 p h h j h #.O.,.,.X.~ _ X...| _ ;.3.1.w.",
":X9X9X*X+X*X.X.X.X|.|.|.}.Q.S h h h h u 1 1 w k H U Y Y I.#X#X#X#X#X#X@Xg.c.N.c.d.s.d.1 p h h h 5 K.*X.XOX^.y.X.! | @.y..X+X%X-X",
"9X9X1X+X+X+X.X.XoX}.}.}.}.P.S h h h d u 9 s.1 o k L Y Y 8.#X#X#X#X#X#XI.g.g.c.N.d.s.d.1 p h h h d `.8X3X1X7X&XX.} O.u.=X-X%X+X+X",
"1X+X+X+X+X.X.X.X|.}.}.Q.Q.Y.V h h h h t e g.r e y k H Y 8.8.8.8.8.8.8.8.g.g.c.N.h.s.g.1 i h h h 5 `.3X8X8X7Xu.X.+.y..X%X4X4X+X%X",
"%X+X+X+X+X+X.X.X|.}.}.Q.Q.'.V 5 h h d u e d.p.d.e o l 7.Y Y 7.8.8.8.7.Y g.g.h.N.k.s.g.1 p h d h 5 `.3X1X1X7Xy. .X.q.+X%X4X+X4X+X",
"+X+X+X+X+X+X.X|.}.}.}.}.}._.S 5 d d 7 t e d.0 e w % 3.~.7.K ~.=X=X=X$XU.k.g.g.N.k.s.g.1 t d h d 4 _.8X3X1X1X&X] ' E.+X+X%X+X1X+X",
"1X+X+X+X.X.X|.}.|.}.Y.Y.Y.H.s 4 4 4 4 3 9 d.,   $ v E.-X6.4.-XqXqXqX:X^.c.g.g.N.g.p.d.< 3 4 4 4 4 m 8X1X7X1X[.*.Q 0..X+X+X+X.X+X",
"+X+X+X+X+XoX}.}.}.}.'.Y.P.G.s m m m m M e g., . % K U.~.~.*X:XqXqXqXqX:XN.g.v.N.d.s.d.1 a m m m m h 3X3X3X1XQ.] ( 6.+X+X+X+X+X.X",
".X.X+X+XoXoX}.Q.Y.'.P.H.P.G.5 j h h h u e a.1 o g K 4.U.-XqXqXqXqXqXqXqXN.j.N.k.d.s.d.1 p h h j j h 1X1X3X*Xr._ ` 6.+X+X+X+X+X.X",
"H.H.P.H.H.'.}.}.'._.P.K.K.G.5 h h h h p 1 : + * v K 4.U.-XqXqXqXqXqXqXqXN.c.N.h.h.h.d.1 p h h j j f 1X1X1X*Xr.~ ' 5.|..X!.}.'.}.",
"C b b b Z 3._.H.L.H.K.F.F.n.5 h h h h u >   $ l K U.4.4.-XqXrXtXtXtXtXrXN.N.c.d.d.s.d.1 p h h h h s 3X1X,X}.q.=._ / 9.-.*.Z C v ",
"; ^ ( ^ R b <.J %.%.&.%.c c 5 h h h h u >   % K ~.-X6.K &XrXuXiXiXiXiXyXB.v.g.g.g.s.d.1 t h h h h 5 _.R.0.1.3.&.@._ { | ! v z c ",
"3.1.' ) ] ( ( ' ] -.) / v v # h h h 5 3 + $ z K 6.T.6.6.-XrXtXyXyXyXyXtXN.h.g.g.g.s.g.1 t h h h h 4 <.*.| o.*.' ~  .r.] *.E V Z ",
"_.XXOXW.,.| _ e.!. XW.W.}._.4 h h d 4   $ C K K z * 5.:X:X:X:X:X:X:X:X:Xc.g.j.j.d.s.g.< t 7 h h 5 # ' ;.@.,.T.9.X.O.;.5.L.L.J.(.",
"XXXXOXXX9._ >..X1X1X1X1X3X<XO O O O O . l ;XeX;XK o v ^.:XqXrXrXrXrXrXrXj.j.v.g.g.d.g.< O O O O O # ^. X+X1X1Xw.X.+.>.H._._.].XX",
">XOX+X}.;.~ _ !.,X>XXXXX>X>Xz.m m m m 7 M Z.Z.Z.M.f.f.b.A.S.jX6XS.A.A.Z.g.k.v.g.d.s.g.1 a m m m h ).wX0XwX3X1X,.} } @.T.`.].XXXX",
",X1XOXP.&._ ,. XOXOXOX>X<X>Xz.h h h h u e g.s.s.N.N.N.pXdXgXgXpXB.N.N.j.j.k.v.g.j.g.g.1 u h h h d /.3X3X<X<XOXw._ O.>.H._.>XXXOX",
",X,X,X0.) $.R.>XOXOX>X>X<X1Xz.h h h h u e g.d.d.v.N.N.pXdXhXgXaXV.N.N.j.g.j.v.c.d.s.g.1 p h h h 5 J.1X1X,X,X,X{.:.@.r.H._.`.XXXX",
"XX<X>X5.( Q T.{.XXXX>X>X>X>Xz.h h h h u e g.s.g.k.N.v.pXdXhXhXdXpXN.N.c.g.g.c.N.j.s.g.1 t h h h 5 J.7X1X1X1X<X>X9.| O.q.K.(._.XX",
"`.XX|.9.` ` R.>XXXXX>X>X>X<Xz.h h h d u e g.g.g.j.N.N.C.sXfXgXfXsXC.N.N.k.g.h.v.c.d.g.< t d h d 5 /.3X3X3X1X1X{.5.-.-.H./.(.(._.",
"XXXXW.r.*.5.[.>XXX>X>X>X>X1XD.7 7 h d u e h.g.g.g.c.N.B.C.pXfXfXdXaXC.B.v.j.g.k.v.g.g.< u 7 d h 5 ).1X1X1X1X1X[.9.$.3.J.J.J._.`.",
"_.}.w.| Q -.}.>XXX>X>X>X`.z.m @ O 4 4 3 e k.k.k.c.N.B.B.V.C.C.C.C.C.C.V.B.N.v.N.N.k.j.: 2 O 4 4 @ A z.1X3X3X1XQ.] ' F m./.).(._.",
"_.Q.,.| ! ;.[.{.XX>X>X>Xm j m m j m m h 2 6 6 6 6 6 6 6 6 6 6 6 6 6 6 6 6 6 6 6 6 6 6 O h m m m m m h A 3X3X1XXX9.&.F F././.K.`.",
"`.K.1.] ] =._.`.`.`.XX`.j j j h h h h h 4 n m m m m m m m m m m m m m m m m m m m m j O j h h h h h m N 3X3X3X1XK.F S z././.(._.",
"K.9.*.o.O._ 5.F.F.z.n.z.f s h h h h h h 4 d h h h h h h h h h h h h h h h h n h h h d O d h d h h h h N 3X1X3X1X_.Z C z././.J.(.",
"W ] ~ O.O.~ &.P P Z F S s h h h h h h 5 4 5 5 5 5 5 5 5 5 5 5 5 5 5 5 5 5 4 5 5 5 5 4 @ 5 d h h h h h m 1X1X1X,X_.F F z.z.z.z.F ",
"Z &.{ r.r.;.T.P.K.H.H.F.f h h s h h h 4 d j m m m j n m m j j j j j m m j j j n j m h 5 4 h h h d h h j H.K._.J.<.<.P S V V z C ",
"G.L.q.{ | :.!.+X1X1X1XOXh h s 5 5 d 5 4 5 5 d h s h s h h d s d 5 s h h d h h s h h h 5 @ 5 h d d 5 h * $.#.&./ ( R Z S C C F P ",
"|.+X&XO.! ] &X0X3X3X5X3Xz.z.A A A m g A A A D z.z.z.z.z.F z.z.z.z.z.D - - - - ; ; - - ; - = g g g ; ; T ~ ! X.~ / E v C 3.G.H.Q.",
"+X+X~.@.| ;.*X0X3X1X1X1X3X3X<X>X>X`.F _.XX{.OX3X3X3X0X0X0X0X8X3X3X3X&XO.~ / <.>._ =.9.0.5.&.<.3.1.>.,.>.] r.o._ *.` #.P }..X.X.X",
".X|.E.] | w.1X0X8X3X3X<X1X<XXX`.`._.z.K.`.{.{.>X,X3X1X0X8X1X3X3X8X3X X@.) $.G.!.Q.R.Q.}.Q.Q.}.Q.}..X.X=X^..X&X=XE.%.v P }.+X.X X",
"oX.XQ.{  .t.7X0X5X3X3X<X3X1X>X`.`._.3.K.`.`.`.{.>X3X3X8X8X8X8X1X3X3X>X6.%.Z L.Y.'.XX}.}.+X9X9X9X9X9X9X9X-X9X9X4X}.F c F '..X|..X"
};
