/* XPM */
static char *b2093a7b61c84ae6c18ce2212f3ed495JaJ2C2mregMHSNuW[] = {
/* columns rows colors chars-per-pixel */
"64 64 239 2 ",
"   c #060605",
".  c #080706",
"X  c #090A04",
"o  c #0B0C0A",
"O  c #0E0F0F",
"+  c #1A0E0B",
"@  c #14130E",
"#  c #18180B",
"$  c #151413",
"%  c #191716",
"&  c #1A1C15",
"*  c #1B1B1B",
"=  c #23140F",
"-  c #25190E",
";  c #251B15",
":  c #321E19",
">  c #1C2109",
",  c #1E2219",
"<  c #24270B",
"1  c #23290D",
"2  c #2B350B",
"3  c #31380E",
"4  c #24211D",
"5  c #27291B",
"6  c #3C251C",
"7  c #2D3414",
"8  c #2F3617",
"9  c #333A1B",
"0  c #1D1E22",
"q  c #1F2022",
"w  c #232324",
"e  c #2C2521",
"r  c #282828",
"t  c #2C2B2C",
"y  c #342925",
"u  c #342A25",
"i  c #352E2A",
"p  c #2D3323",
"a  c #2F362A",
"s  c #343826",
"d  c #35332B",
"f  c #3C332B",
"g  c #3C3B2C",
"h  c #2D2D32",
"j  c #312F32",
"k  c #353333",
"l  c #393534",
"z  c #363836",
"x  c #3C3A34",
"c  c #34343A",
"v  c #3A363B",
"b  c #3C3B3C",
"n  c #45281B",
"m  c #48281F",
"M  c #5E3A1D",
"N  c #71311D",
"B  c #4A2E25",
"V  c #512E24",
"C  c #48362A",
"Z  c #533225",
"A  c #553629",
"S  c #563B2C",
"D  c #5A3D2D",
"F  c #413732",
"G  c #453A35",
"H  c #4A3D34",
"J  c #413D3C",
"K  c #553D31",
"L  c #6F3521",
"P  c #3A470B",
"I  c #3C4518",
"U  c #3D4423",
"Y  c #344029",
"T  c #3B422C",
"R  c #3D4332",
"E  c #3E443A",
"W  c #404C0B",
"Q  c #44530E",
"!  c #475B0B",
"~  c #4B5D0D",
"^  c #414D14",
"/  c #444D1D",
"(  c #455414",
")  c #485714",
"_  c #4B5C14",
"`  c #46531C",
"'  c #4A551C",
"]  c #4D5C1B",
"[  c #515F13",
"{  c #515D1D",
"}  c #4B6206",
"|  c #4D620C",
" . c #51640D",
".. c #51680A",
"X. c #4E6112",
"o. c #4E611B",
"O. c #526512",
"+. c #546913",
"@. c #53621D",
"#. c #444C23",
"$. c #454728",
"%. c #42442C",
"&. c #454B2B",
"*. c #5A412F",
"=. c #475322",
"-. c #4A5524",
";. c #4D5A23",
":. c #475228",
">. c #4B552B",
",. c #4E5A2B",
"<. c #515D23",
"1. c #50562B",
"2. c #525E2B",
"3. c #434434",
"4. c #464B35",
"5. c #4A4836",
"6. c #43423B",
"7. c #4B453C",
"8. c #454C3A",
"9. c #4C4B3C",
"0. c #5C4331",
"q. c #554D36",
"w. c #584B37",
"e. c #4B5334",
"r. c #4A5538",
"t. c #4C533D",
"y. c #535D34",
"u. c #52533C",
"i. c #5C553B",
"p. c #575A3B",
"a. c #71482F",
"s. c #624E38",
"d. c #62543D",
"f. c #6B533F",
"g. c #635B3E",
"h. c #536223",
"j. c #54622B",
"k. c #596529",
"l. c #58633B",
"z. c #3C3C43",
"x. c #3B3D46",
"c. c #413E43",
"v. c #403F49",
"b. c #3F414A",
"n. c #454344",
"m. c #494544",
"M. c #4B4B45",
"N. c #45444C",
"B. c #49464B",
"V. c #464948",
"C. c #4C4A4C",
"Z. c #544B45",
"A. c #514D4D",
"S. c #4D5243",
"D. c #4E5B41",
"F. c #4E534A",
"G. c #525443",
"H. c #535D43",
"J. c #5B5945",
"K. c #52524D",
"L. c #555B4C",
"P. c #595C4B",
"I. c #464651",
"U. c #494753",
"Y. c #474953",
"T. c #4C4C53",
"R. c #4D4D59",
"E. c #514E52",
"W. c #514F5C",
"Q. c #4D5154",
"!. c #4E515A",
"~. c #545354",
"^. c #585656",
"/. c #555A53",
"(. c #5A5B56",
"). c #53535D",
"_. c #59565B",
"`. c #56595B",
"'. c #5C5B5C",
"]. c #635943",
"[. c #645B42",
"{. c #615651",
"}. c #605E5E",
"|. c #556345",
" X c #5C6244",
".X c #5B6C46",
"XX c #5B644B",
"oX c #5C6B4B",
"OX c #5E724A",
"+X c #5D6158",
"@X c #656346",
"#X c #65634A",
"$X c #6B654A",
"%X c #646C4D",
"&X c #6A6A4E",
"*X c #746A4F",
"=X c #61734D",
"-X c #6A7E4B",
";X c #646B54",
":X c #676956",
">X c #657453",
",X c #6B7456",
"<X c #6A7657",
"1X c #6A7A55",
"2X c #6D7C5B",
"3X c #767856",
"4X c #727E5C",
"5X c #545562",
"6X c #565963",
"7X c #585865",
"8X c #5A5C65",
"9X c #5A5D69",
"0X c #5C5E6A",
"qX c #5C5F6A",
"wX c #615E60",
"eX c #605F6C",
"rX c #5D6065",
"tX c #5E616B",
"yX c #5F6170",
"uX c #636263",
"iX c #61626C",
"pX c #717D60",
"aX c #636271",
"sX c #834A30",
"dX c #885E41",
"fX c #8B7150",
"gX c #71815F",
"hX c #7A8E5F",
"jX c #748261",
"kX c #7B8866",
"lX c #7D9162",
"zX c #8E815E",
"xX c #858C68",
"cX c #84916B",
"vX c #8C926C",
"bX c #8F9570",
"nX c #8EA669",
"mX c #A0AF7F",
"MX c #A4AE88",
/* pixels */
"^.~.M.>.+.y.8XtXtXtXqXqXqX8X6X5XR.C.J m.T.Y.R.!.!.5X9XqX8X8XqX8X7X`.C.b d k n.C.C.T.~.~.~.^._.}.wX'.wXuXwXwX}.'.E.x d l A.^.~.~.",
"^.K.9.] | ;.'.tXqXqXqXqXqXqX8X6X!.I.J z.N.U.R.I.I.N.U.T.U.U.N.N.n.#.#.R g g m.C.C.C.E.~.~.~.^.'.'.}.}.}.wX'.'.'.K.v d x 7.K.~.^.",
"~.K.5.] ~ ;.'.uX9XqXtXqXqXqXqX8X5XT.b k v b b b b k i i i k k k x ` ) ] _ / 6.C.C.C.E.E.E.~.~.^._.'.}.'.wX}.wX'.~.b g U 3.~.K.~.",
"A.G.>.] =.M.8XtXqXqXtXqXqXqXqX8X`.F./ $.k l l J c.b b z.c.N.B.C.Q.G.u.` ! ^ 8.C.C.C.C.C.T.E.~.~.^._.'.'.'.'.'.'.^.6./ Q &.M.T.A.",
"M.u.@.| ` V.7XtXtXtXqXqXqXqXqX8XqX~.:.#.3.C.R.).`.R.z.h h h h h h h t 5 2 I 4.M.C.C.C.C.T.E.E.E.E.^._.'._.'.'._.(.e.' ) 3.m.C.Z.",
"V.7.>.' ' 8.).iXtXtXqXqXqXqXqX8X9X).8.] G._.6X5X`.U.r o . . . . . X . X @ 7 #.B.B.M.C.C.C.T.T.T.E.E.~._.^._._._.(.k.| ! %.n.M.V.",
"B.6.g #.Q :.^.iXtXtXqXqXqXqXqXqX9X/.;.O.t.W.).R.x.h e ; - = = = = = = = - < 7 l n.B.C.C.C.C.C.C.E.T.E.~.^.^.^.^.(.y._ ( 3.J B.m.",
"n.3.U ` ` 9.).tXtXtXqXqXqXqXqXqXqXL.X. .e.R.).N.w @ 6 Z B m m m m m m m 6 = O r c.m.B.C.M.B.C.C.T.C.T.A.^.^.^.~.^.S.#.#.T J n.m.",
"l U Q ( &.V.`.tXqXiXqXqXqX8XqXqX9X).>.-.4.N.x.k 4 ; C w.*.A Z V V V V Z Z 6 5 r t k n.B.m.B.C.M.C.C.B.m.m.6.n.J 7.4.I Q ^ $.x x ",
"l 3.=.) ~ =./.iXrXqXqXqXqXqXtX9X9X).8.^ &.v 0 & 6 C q. Xw.D A V V V Z A D q.r.p $ ; j l b c.c.6.n.n.6.z g / $.U ) [ ] ' ' _ $.x ",
"n.m.7.<.| ;.'.iXrX9XrXqXqXqX8XqXqX`.,.W s t % - B 0.p..Xi.D A V V Z A *.w. X.XT , , 4 w y i t t d U U U `  .X._ } ..@.4.r.2.9.m.",
"7X_.Z.t.@.,.8XiXiX8XqX8XqXrX'.7X9X`.;.P # % : n Z 0.p..Xi.D A V Z A *.i. X.X.Xl.4.p $ * k b z.b 8.-.' _ ;.o.;.] | | j.'.tXrX8X8X",
"iXeX`.C.>.-.K././.H.F.F.F.p.2.t.F.r.) 2 X + 6 Z A 0.p..Xi.D A Z A 0.i. XOXOXOXOX.XY o $ c.`.).).).u._ ;.m.Q.~.L.h.O.y.8XiXiXiXiX",
"rXtX8XE.9.-.' _ o.X.] o.X.O.~ _ ' ) ( 2 X + 6 Z A 0.p..Xi.D S A 0.g.@XoXOXOXOXOX.XY o % N.qX9X5X).S./ 4.I.5X5X_.h.| j.9XiXiXiXtX",
"qXtXtX`.u._ ] h.@.~ _ O.O.@.) ] | ~ ~ 2 X + n Z S 0.J..Xi.*.D 0.d.%X>X=XOXOXOXOX.XY o * N.8X8X).).C.x b V.).).^.>.{ p.8XqXrX8X8X",
"tXqXtX6XS.=.t.(./.p.G.P. X`.P.L.l.y.h.3 X + m D w.p.%X%Xi.*.w.[.&X<X1X>X=X=XOXOX.XY o & c.8X8X).).B.b z.N.!.!.T.b x E.5XtXrX9X8X",
"tXrXqX6Xt./ V.qXtXiXtXiXiXaXaXiXiXiX+Xg o # B w. XOX>X>X].0.].<X2X2X2X1X>X=XOXOX.XY o % c.7X9X).).N.v b I.R.!.U.v k T._.tXtXqX8X",
"tXqXtX`.4.I N.qXtXtXtXiXtXiXiXiXiXiX9Xc o & %.p.%X>X1X<X].0.].<XgXgX2X2X1X>X=X=X.XY o $ b 8X5X).!.B.J c.N.U.R.R.v i B.`.8XqXtX8X",
"qXqXtX).b i N.qXtXtXrXtXiXtXtXiXiX8X7Xc o , r.oX=X>X1X<X[.0.].<X4XgX2X2X2X1X>X=X.XY o # z.6X7X5X).B.m.c.n.B.I.U.v k N.`.tXtXqXqX",
"tX8XqXW.k y N.8XtXtXtXtXiXtXtXyXqX8X5Xc o , r..Xr.8.8.t.u.d.[.#X&X<X>XH.8.8.r.|..XY o > R `.8X5XR.B.3.6.x.b.N.v.c k U.`.tXqXqXiX",
"qX9XqXR.x U M.6X8XtXiXtXtXtXtXtX8X5X).c o 4 D.|.p @ $ & 3.%X#Xs.[.<XXXp $ $ & R .XT o # R ).7X).R.9.` &.z.x.b.x.c l U.`.9XqXqXqX",
"qX9XqXR.3.-.C.8XtXqXtXtXrXqXqX8X5X5X5Xc o 4 D.XX4.d p p t.<X#X0.d.<XoXT 5 p g D.oXT o # T M.T.Y.U.y. .] E z.z.v l b U.`.5X5X8X9X",
"9X9XqX~.=.] M.).5X5X6X'.`.5X`.^.!.Q.T.h o 4 H.2XkXxXgX-X1X2X#X0.d.<X2X-X-XkXcXjX>XT o # s -.:.R E ` O.] 3.v c c v b U.).).5X5X).",
").5X5XK.;._ =.4.4.&.;.<.>.4.>.@.>.#.&.w . 4 H.kXmXMXnXnXlXgX&Xs.].&X4XlXnXMXMXbX<XR o # I ~ _ ] -.] @.{ #.b b b c.b U.R.!.).5X).",
").!.5XL.o.} X.] ] ) | O.] / ] | { =.` 7 X 5 |.jXcXbXcXhXgXgX<X&X#X].@X3XlXcXbXkX1XR o & E l.l./.(.P.+X(.(.7X7X7X`.J N.R.!.!.).).",
").).W.T.-.! -.G.H.H.l.l.L.K.t.,.t.C.M.p . 5 |.2XgXgXjXjXgXgX2X4X&Xs.d.&X<X2XgX2X1XR o q C.8XiXiXiXiXiXiXaXaXiXiX8XJ b T.R.R.!.).",
"W.).!.I.%.Q =.K.).).5X`.'.`.R.R.U.I.N.r X 4 H.1X2XgXgXjXgXgXgXgX<X$X[.[.@X<X2X1X>XT o 0 B.5XqXtXtXtXtX8XqXqX8XqX8Xn.x B.R.R.).).",
"!.R.R.M.%.( -.L.~.^.~.L.j.2.M.n.z.x.z.5 X , r.=X1X2XjXjXgXgXgXjXgX4X<Xd.s.$X<X>X.Xs o 0 N.5X5XqXtXtX8XqXtX8X8X8X8XT.J c.R.R.R.!.",
"Y.T.C.e._ ~ ] ,.>.>.&.;.| | ;.R T &.U 2 X & 3.H.>X2XkXcXkXjXkXcXcXjX4X3X*X$X@XH.t.p X * N.).).5XqXtXqXqXiXeXqX9X6X).c.b m.F.T.F.",
"4.4.R ;.+.| O.| ! ~ Q ~ } | ] ) |  ._ 2 X $ d 9. X1XcXbXcXjXcXbXbXkXkXbXvX*X0.5.G 4 . * N.).).~.).8XqXqXtXtX8X+XoX/.m.-.] =.8.>.",
" .{ {  .O._  .| O.| ~ _ @.@.<.~ } | h.d o @ y H u.XX4XcXcXcXxXfXzXxXxXzXfXf.K H F 4 . * z.I.S.j.t.S.H.~.L.l.p.j.+.j.e.] | ~ ' ( ",
"| ' O.| X.X.| ] h.] X.<.u.G.G.;.O.O.p.b o + 6 C H 9.XX1XxXbXfXsXdXvXzXdXL D H G F 4 . $ 9 %.] | ) ] | ;.;.| ~ X.| O._ | ) / ` ) ",
"k.u.p.2.y.k.k.J.P.P.l. X~.^.^.u.:.1./.b o + 6 V C H 9. X4XvXfXL sXfXfXa.M A G G F 4 . # P e.,._ ] ,.O.2.2.X.~ _ X...| _ >.6.4.y.",
":XuXuX+X'.+X+X(.(.^.L.^.~.K.T.m.f b R.b o + 6 V V C H 5. X1Xf.N N sXa.D B C G G F 4 . & &.^.`.P./.`.+X(.`.P.k.X.! | @.k.(.'.}.:X",
"uXuX8X'.'.'._.(.^.~.~.~.~.A.C.m.x b T.b o # B S Z V B f 5.H.s.L N N L S G G G G F 4 . w T.qXtXiXiXiXtXqX8XrXH._ } O.l.%X:X}.'.'.",
"8X'.'.'.'._._.(.^.~.~.K.K.A.C.m.b l B.v o 4 u.].K V B f G 5.H Z V Z D J.P.9.G G F 4 . w ).iXtXtXiXqXqXtXtXrXl.X.+.k.+X}.wXwX'.}.",
"'.'.'.8X'.'._.(.^.~.~.K.K.E.C.m.J l N.v o 5 XX&Xw.A C f f d i i f F 9.:X<XG.G G F 4 . w R.rXtXtXiXtXqX8X9X8Xk. .X.t.'.}.wX'.wX'.",
"'.'.'.'.'.'._.^.~.~.~.~.~.T.C.B.6.l z.c o * 8.P.[.J.5.i i i i i G 9.XX>X>XG.G G F 4 . w R.iXiXtXtXrXtXqX9X9X|.] ' G.'.'.}.'.8X'.",
"8X'.'.'.(.'.^.~.^.~.A.A.A.C.V.m.m.l b h o $ d Z.:X<X9.i y y y y 3.XX>X>X:XG.G G F 4 . 0 R.qXqXiXtXtXtX9XrX8XQ.=.Q e.(.'.'.'._.'.",
"'.'.'.'.'.^.~.~.~.~.E.A.C.C.M.B.n.3.&.j o $ i 7.G.P.3.y y y y y 5.oX>XP.S.7.G G F 4 . 0 U.qXtXtXqXqXqXqXqX8XL.] ( 9.'.'.'.'.'.(.",
"_._.'.'._.^.~.K.A.E.C.C.C.C.V.B.n.$.=.t o $ i G H G f y y y y y 5.oXXX5.d F G G F 4 . 0 I.qXtXqXqXqX9X8XqX+Xh._ ` 7.'.'.'.'.'.(.",
"C.M.C.M.M.E.~.~.E.T.C.C.C.M.V.m.7.-.] p . $ i G G F i y y y y y g 9.9.f y f G G F 4 . 0 N.6XqXqXqXtX8X8X9X+Xh.~ ' 8.^.(.P.~.E.~.",
"l s g g x 6.T.M.V.M.B.m.n.m.6.n.4.[  .7 X $ i G G F i e e e 5 e y i i y y f G G F 4 . 0 b.).qX9X8X8XqX8X6X~.r.-._ #.e.;.=.x l f ",
"9 ^ ^ ^ U g 3.F %.%.&.%.d k g T `  ._ 2 X $ i G G G F f f f f f f f f f f F G G F 4 . 0 b.R.5X6X).).Q.F.y.4.3.&.@._ { | ! s i d ",
"6.4.' ) ] ) ( ' ] ;.) / d s ` ` ~ O.,.7 X $ i G G G 5.q.q.q.q.q.q.q.q.q.q.5.G G F 4 . * v v.B.B.m.6.3.=.| o.=.' ~  .h.] ` T k z ",
"T.).`.H.2.| _ p.L./.H.H.~.~./.L.XX X`.c o % x 9.9.9.i.g.g.g.g.g.g.g.g.g.g.u.9.9.7.e X $ t z &.#.I ` ] >.@.2.S.e.X.O.>.4.V.V.N.U.",
").).'.`.e._ <.(.8X8X9X8XqXqXqXqXqXiXyXz.o 4 G.:X:X:X#Xg.g.g.g.i.i.g.g.g.[.#X:X:X:Xx o $ t x e.,.;.e.L.`.'.9X8Xy.X.+.<.M.T.T.W.).",
"5X`.'.~.>.~ ) L.7X5X).).5X7X`.7X8XiXqXz.% r L.2XpX4X&X[.g.g.i.q.q.g.[.[.@X<XjX2X>XE $ w B.).6X8X+XtXaXiXyXqX8X2.| } @.S.R.W.).).",
"7X8X`.C.&._ 2./.`.`.`.5X6X5X5X8XtXiXtX!.x.c z 3.H.&X@Xg.g.i.%.5 g i.$X$X$X*X<XG.z k c N.6XqXqXqXqXqXqXqX9X6X'.y._ O.<.M.R.5X).).",
"6X7X7Xr.) #.F.5X).).5X5X6X8X5X8XtXtXtXqX9Xx.% & %.[.g.g.d.w.s @ 5 u.$X$X&X&X@Xd O r I.!.5XqXqXqX9X8X9X8X6X6X6X!.,.@.h.M.T.R.).).",
").7X5X8.( Q S.!.).).5X5X5X6X5XqXiXiXiXtXtXb.% @ C g.g.g.s.a.B t t d 3.J.%X%X Xp . r I.!.5XqXqXqXqX9XrX9X9X9X6X5Xe.| O.t.C.U.R.).",
"R.).^.e.` ` F.5X).).5X5X5X6X8XtXiXiXtXtXtXb.$ @ C g.g.d.a.N M Z.c $ , r.=X=X|.p . r T.).5X6XqXtXqXqXqXqXqX8X6X!.8.;.;.M.I.U.U.T.",
").).G.@.=.8.Q.5X).5X5X5X5X8XqXiXtXqXqXtXtXb.$ @ g i.i.w.Z n m C.c O & r.>X>X.Xp . r T.5X5X5X5XqXqXqX8X9X9X9X6XQ.e.#.6.N.N.N.T.R.",
"T.~.y.| Q ;.~.5X).5X5X5X6X8XtXtXtXtXqXqXqXb.% @ i 7.7.H 5 + ; c.j O & t.1X1XoXs . r T.5X5X5X5X6XqXtX9XqXqX9X9XK.] ' b v.I.I.U.R.",
"T.K.2.| ! >.Q.!.).5X5X5X8XqXtXtXqXtXqXqXqXx.$ $ f Z.Z.7.e X & z.v w w R t.t.8.a q c R.5X5X5X5X5X5XqXqXtX8XqX9X).e.&.b n.I.I.C.R.",
"R.C.8.] ] -.T.R.R.R.).R.5XqXqXqXqXtXqXqXqXx.$ $ J {.{.Z.y X > x N.b t , & & , h x.T.).5X5X5X5X5X`.8XqX8XqXqXqX8XB.b c z.N.I.U.R.",
"B.e.=.o.O._ 4.n.n.x.c.x.N.5X8X8X6XqX9X5X`.z.* * J K.K.Z.p @ < s b x.h $     O t N.R.R.).5X`.).`.).5X8X8XqX9XqX9XT.z l z.I.I.N.U.",
"R ] ~ O.O.~ &.J J x b v b N.N.N.B.N.N.c.b t * * r d s p 5 > 1 7 r w 0 & # # * t c x.n.T.5X`.).`.).).5X6X9X8X9X6XT.b b z.x.x.z.b ",
"x &.{ h.h.>.S.C.B.M.M.n.l k i j k k k d I 7 1 < 1 1 1 1 < 1 7 3 4 * $ 1 2 1 w r r h z 6.C.T.T.U.B.N.N.N.M.C.T.N.3.3.J v k d d k ",
"m.V.t.{ | ,.L.'.8X8X8X`.B.c.b b J x g 3.:.U d p 9 p d s 7 p d g l k t 5 3 3 7 7 7 9 ^ _ %.b b b z.z.6.&.#.#.&./ ( U x l l k b 6.",
"^.'. XO.! ] XXiXqXqXeXqX8X`.).`.).B.x T.`.T.N.N.N.N.N.N.m.m.N.N.I.N.E 9 3 7 9 P P P )  .` / g v %.' ;.X.~ ~ X.~ / U f l 6.m.C.K.",
"'.'.P.@.| >.+XiXqX9X8X8XqXqX6X5X5XR.b T.).R.T.R.).W.).).).).!.Q.Q.!.S.( P I s / ^ #.e.e.5.&.5.6.4.<.1.<.] h.o._ =.` $.J ~._._._.",
"(.^.G.] | y.8XiXtXqXqX6X9X6X).R.R.T.z.B.R.R.!.).6XqX8XtXqX7X9X6XqX9X/.] ( #.m.L.G.M.K.~.K.K.~.K.~._.(.#XP.(.XX#XG.%.f J ~.'.(./.",
"_.(.K.{  .j.rXiXeXqXqX6XqX9X5XR.R.T.6.B.R.R.R.!.5XqXqXtXtXtXtX9XqXqX5X9.%.x V.A.E.).~.^.'.uXiXuXuXuXuXuX:XuXuXwX~.b d b E.(.^._."
};
